<svg width="141" height="60" viewBox="0 0 141 60" fill="none" xmlns="http://www.w3.org/2000/svg">
<g clip-path="url(#clip0_7_450)">
<path fill-rule="evenodd" clip-rule="evenodd" d="M43.625 28.125H23.7763L31.505 20.4C32.2363 19.6688 32.2363 18.4874 31.505 17.7374C30.7719 17.0062 29.585 17.0062 28.8519 17.7374L18.245 28.35C17.7969 28.8 17.6562 29.4188 17.7593 30C17.6562 30.5812 17.7969 31.2 18.245 31.65L28.8519 42.2626C29.585 42.9938 30.7719 42.9938 31.505 42.2626C32.2363 41.5313 32.2363 40.3312 31.505 39.6L23.7763 31.875H43.625C44.66 31.875 45.5 31.0312 45.5 30C45.5 28.9688 44.66 28.125 43.625 28.125ZM30.5 56.25C16.0025 56.25 4.25 44.4938 4.25 30C4.25 15.5063 16.0025 3.75 30.5 3.75C44.9975 3.75 56.75 15.5063 56.75 30C56.75 44.4938 44.9975 56.25 30.5 56.25ZM30.5 0C13.9325 0 0.5 13.425 0.5 30C0.5 46.575 13.9325 60 30.5 60C47.0675 60 60.5 46.575 60.5 30C60.5 13.425 47.0675 0 30.5 0Z" fill="#9180F2"/>
</g>
<g clip-path="url(#clip1_7_450)">
<path fill-rule="evenodd" clip-rule="evenodd" d="M122.753 31.65L112.148 42.2626C111.415 42.9938 110.228 42.9938 109.497 42.2626C108.764 41.5313 108.764 40.3312 109.497 39.6L117.224 31.875H97.375C96.3381 31.875 95.5 31.0312 95.5 30C95.5 28.9688 96.3381 28.125 97.375 28.125H117.224L109.497 20.4C108.764 19.6688 108.764 18.4874 109.497 17.7374C110.228 17.0062 111.415 17.0062 112.148 17.7374L122.753 28.35C123.203 28.8 123.344 29.4188 123.241 30C123.344 30.5812 123.203 31.2 122.753 31.65ZM110.5 0C93.9306 0 80.5 13.425 80.5 30C80.5 46.575 93.9306 60 110.5 60C127.069 60 140.5 46.575 140.5 30C140.5 13.425 127.069 0 110.5 0Z" fill="#9180F2"/>
</g>
<defs>
<clipPath id="clip0_7_450">
<rect width="60" height="60" fill="white" transform="translate(0.5)"/>
</clipPath>
<clipPath id="clip1_7_450">
<rect width="60" height="60" fill="white" transform="translate(80.5)"/>
</clipPath>
</defs>
</svg>
