<svg width="60" height="60" viewBox="0 0 60 60" fill="none" xmlns="http://www.w3.org/2000/svg">
<g clip-path="url(#clip0_27_1004)">
<path d="M5.10742 44.4797V52.9092C5.10742 54.0045 5.9955 54.8926 7.09065 54.8926H52.9088C54.0044 54.8926 54.8923 54.0043 54.8923 52.9092V44.4795L5.10742 44.4797Z" fill="#715DE3"/>
<path d="M54.9986 41.7028C55.3881 38.263 56.7818 30.662 57.8749 25.1115C59.1265 24.5406 60 23.281 60 21.8183C60 19.8222 58.3762 18.1985 56.3802 18.1985C54.384 18.1985 52.7602 19.8222 52.7602 21.8183C52.7602 22.4658 52.9331 23.0727 53.2323 23.5993L49.9657 26.866C48.9915 24.5731 48.5139 21.0377 48.385 18.3347C49.403 17.6935 50.0826 16.5624 50.0826 15.2729C50.0826 13.2771 48.4588 11.6531 46.4628 11.6531C44.4667 11.6531 42.8428 13.2771 42.8428 15.2729C42.8428 16.1725 43.1747 16.9947 43.7196 17.6284C41.6057 21.2694 38.6539 24.7741 36.822 26.8058C35.2119 23.4464 33.3968 16.7616 32.2713 11.5422C33.0925 10.8781 33.6198 9.86358 33.6198 8.72762C33.6198 6.73146 31.9962 5.10742 30 5.10742C28.0038 5.10742 26.3802 6.73146 26.3802 8.72762C26.3802 9.86358 26.9073 10.8783 27.7291 11.5422C26.6038 16.762 24.7887 23.4476 23.1778 26.807C21.3469 24.7773 18.3966 21.2755 16.2802 17.6284C16.8253 16.9947 17.157 16.1725 17.157 15.2729C17.157 13.2771 15.5333 11.6531 13.5372 11.6531C11.5412 11.6531 9.91737 13.2771 9.91737 15.2729C9.91737 16.5632 10.5976 17.6943 11.6162 18.3355C11.4891 21.0383 11.0121 24.5733 10.0356 26.8672L6.76768 23.5993C7.06667 23.0727 7.2396 22.4658 7.2396 21.8183C7.2396 19.8222 5.61596 18.1985 3.6198 18.1985C1.62384 18.1985 0 19.8222 0 21.8183C0 23.281 0.873535 24.5406 2.12505 25.1115C3.21818 30.6616 4.61192 38.2626 5.00141 41.7028H54.9986ZM30 31.2896C31.9962 31.2896 33.6198 32.9133 33.6198 34.9094C33.6198 36.9056 31.9962 38.5292 30 38.5292C28.0038 38.5292 26.3802 36.9056 26.3802 34.9094C26.3802 32.9133 28.0038 31.2896 30 31.2896Z" fill="#715DE3"/>
</g>
<defs>
<clipPath id="clip0_27_1004">
<rect width="60" height="60" fill="white"/>
</clipPath>
</defs>
</svg>
