<svg width="21" height="21" viewBox="0 0 21 21" fill="none" xmlns="http://www.w3.org/2000/svg">
<path d="M12.2114 20.4409V13.3094H14.1805L14.6254 10.5054H11.6528C11.6491 10.4431 11.6491 10.3807 11.6528 10.3185V8.60801C11.6372 8.42686 11.6595 8.24448 11.7183 8.07218C11.777 7.89987 11.871 7.74133 11.9944 7.60637C12.1177 7.47141 12.2679 7.36291 12.4355 7.28761C12.6031 7.21231 12.7846 7.17181 12.9687 7.16862C13.5651 7.12189 14.171 7.16862 14.7769 7.16862H15.0514V4.62632C13.8713 4.41597 12.6625 4.41597 11.4824 4.62632C10.8113 4.77342 10.2027 5.12184 9.73998 5.62384C9.27729 6.12583 8.98318 6.75683 8.89796 7.43033C8.82223 8.02852 8.8317 8.6454 8.81277 9.29967C8.81277 9.69223 8.81277 10.0848 8.81277 10.5054H6.53126V13.3094H8.77489V20.4409C6.37569 20.1071 4.18174 18.9221 2.60321 17.1073C1.02468 15.2925 0.169642 12.9722 0.197946 10.5802C0.203082 8.0214 1.20789 5.56324 3.00308 3.71773C4.79827 1.87222 7.2454 0.781666 9.83474 0.673239C12.4241 0.564812 14.956 1.44687 16.903 3.13567C18.85 4.82448 20.062 7.18981 20.2866 9.73897C20.4985 12.1891 19.7938 14.6309 18.3059 16.6029C16.8179 18.5748 14.6498 19.9402 12.2114 20.4409Z" fill="#1767FE"/>
</svg>
