<svg width="274" height="173" viewBox="0 0 274 173" fill="none" xmlns="http://www.w3.org/2000/svg">
<g filter="url(#filter0_d_0_1)">
<rect x="32.0273" y="25.418" width="209.061" height="108.752" rx="5.05792" fill="white"/>
</g>
<line x1="48.8867" y1="86.9017" x2="217.484" y2="86.9017" stroke="#B4B6C4" stroke-width="0.842987"/>
<path d="M99.388 43.7682V54.8037H97.0548V43.7682H99.388ZM103.56 50.0188V54.8037H101.265V46.5271H103.452V47.9874H103.549C103.732 47.506 104.04 47.1252 104.471 46.845C104.902 46.5612 105.424 46.4193 106.039 46.4193C106.613 46.4193 107.115 46.5451 107.542 46.7965C107.97 47.048 108.302 47.4072 108.539 47.8742C108.776 48.3376 108.895 48.8908 108.895 49.5338V54.8037H106.599V49.9434C106.603 49.4369 106.473 49.0417 106.211 48.7579C105.949 48.4705 105.588 48.3268 105.128 48.3268C104.819 48.3268 104.546 48.3933 104.309 48.5262C104.075 48.6591 103.892 48.8531 103.759 49.1082C103.63 49.3596 103.564 49.6632 103.56 50.0188ZM117.59 48.8872L115.489 49.0166C115.453 48.8369 115.375 48.6753 115.257 48.5316C115.138 48.3843 114.982 48.2676 114.788 48.1814C114.598 48.0915 114.37 48.0466 114.104 48.0466C113.748 48.0466 113.448 48.1221 113.204 48.273C112.96 48.4202 112.837 48.6178 112.837 48.8657C112.837 49.0633 112.917 49.2303 113.075 49.3668C113.233 49.5033 113.504 49.6129 113.888 49.6955L115.386 49.9972C116.191 50.1625 116.791 50.4283 117.186 50.7947C117.581 51.1611 117.779 51.6425 117.779 52.2388C117.779 52.7813 117.619 53.2572 117.299 53.6668C116.983 54.0763 116.548 54.396 115.995 54.6259C115.445 54.8522 114.811 54.9654 114.093 54.9654C112.997 54.9654 112.124 54.7373 111.474 54.281C110.828 53.8212 110.449 53.1962 110.337 52.4059L112.595 52.2873C112.663 52.6214 112.829 52.8765 113.091 53.0525C113.353 53.2249 113.689 53.3111 114.098 53.3111C114.501 53.3111 114.824 53.2339 115.068 53.0794C115.316 52.9214 115.442 52.7184 115.445 52.4705C115.442 52.2622 115.354 52.0915 115.181 51.9586C115.009 51.8221 114.743 51.7179 114.384 51.6461L112.951 51.3605C112.142 51.1989 111.541 50.9187 111.146 50.5199C110.754 50.1212 110.558 49.6129 110.558 48.995C110.558 48.4633 110.702 48.0053 110.989 47.621C111.28 47.2366 111.688 46.9402 112.212 46.7319C112.741 46.5235 113.358 46.4193 114.066 46.4193C115.111 46.4193 115.934 46.6403 116.534 47.0821C117.137 47.524 117.489 48.1257 117.59 48.8872ZM123.626 46.5271V48.2514H118.642V46.5271H123.626ZM119.774 44.5442H122.069V52.2604C122.069 52.4723 122.102 52.6376 122.166 52.7561C122.231 52.8711 122.321 52.9519 122.436 52.9986C122.554 53.0453 122.691 53.0686 122.845 53.0686C122.953 53.0686 123.061 53.0597 123.168 53.0417C123.276 53.0201 123.359 53.004 123.416 52.9932L123.777 54.7013C123.662 54.7373 123.501 54.7786 123.292 54.8253C123.084 54.8756 122.831 54.9061 122.533 54.9169C121.979 54.9384 121.494 54.8648 121.078 54.6959C120.665 54.5271 120.343 54.2649 120.113 53.9092C119.883 53.5536 119.77 53.1046 119.774 52.5621V44.5442ZM127.482 54.96C126.954 54.96 126.483 54.8684 126.07 54.6852C125.657 54.4984 125.33 54.2236 125.089 53.8607C124.852 53.4943 124.734 53.0381 124.734 52.4921C124.734 52.0323 124.818 51.6461 124.987 51.3336C125.156 51.021 125.386 50.7696 125.677 50.5792C125.968 50.3888 126.298 50.2451 126.668 50.1481C127.042 50.0511 127.433 49.9829 127.843 49.9434C128.324 49.8931 128.712 49.8464 129.007 49.8033C129.301 49.7566 129.515 49.6883 129.648 49.5985C129.781 49.5087 129.847 49.3758 129.847 49.1998V49.1674C129.847 48.8262 129.74 48.5621 129.524 48.3753C129.312 48.1885 129.01 48.0951 128.619 48.0951C128.206 48.0951 127.877 48.1867 127.633 48.3699C127.388 48.5496 127.227 48.7759 127.148 49.0489L125.025 48.8765C125.133 48.3735 125.344 47.9389 125.661 47.5725C125.977 47.2025 126.384 46.9187 126.884 46.7211C127.387 46.5199 127.969 46.4193 128.63 46.4193C129.089 46.4193 129.529 46.4732 129.95 46.581C130.374 46.6888 130.749 46.8558 131.076 47.0821C131.406 47.3084 131.667 47.5994 131.857 47.955C132.048 48.3071 132.143 48.7292 132.143 49.2213V54.8037H129.966V53.656H129.901C129.768 53.9146 129.591 54.1427 129.368 54.3403C129.145 54.5343 128.877 54.687 128.565 54.7983C128.252 54.9061 127.891 54.96 127.482 54.96ZM128.139 53.3758C128.477 53.3758 128.775 53.3093 129.034 53.1764C129.292 53.0399 129.495 52.8567 129.643 52.6268C129.79 52.3969 129.864 52.1364 129.864 51.8455V50.9672C129.792 51.0139 129.693 51.057 129.567 51.0965C129.445 51.1324 129.307 51.1665 129.152 51.1989C128.998 51.2276 128.843 51.2545 128.689 51.2797C128.534 51.3012 128.394 51.321 128.269 51.339C127.999 51.3785 127.764 51.4413 127.563 51.5276C127.362 51.6138 127.205 51.7305 127.094 51.8778C126.983 52.0215 126.927 52.2011 126.927 52.4166C126.927 52.7292 127.04 52.9681 127.266 53.1333C127.496 53.295 127.787 53.3758 128.139 53.3758ZM137.652 58.0799C136.909 58.0799 136.271 57.9775 135.74 57.7727C135.212 57.5716 134.791 57.2967 134.479 56.9483C134.166 56.5998 133.963 56.2083 133.87 55.7736L135.993 55.488C136.058 55.6533 136.16 55.8078 136.3 55.9514C136.44 56.0951 136.625 56.2101 136.855 56.2963C137.088 56.3861 137.372 56.431 137.706 56.431C138.206 56.431 138.617 56.3089 138.94 56.0646C139.267 55.8239 139.431 55.4198 139.431 54.8522V53.3381H139.334C139.233 53.568 139.082 53.7853 138.881 53.9901C138.68 54.1948 138.421 54.3619 138.105 54.4912C137.789 54.6205 137.412 54.6852 136.974 54.6852C136.352 54.6852 135.786 54.5415 135.276 54.2541C134.77 53.9631 134.366 53.5195 134.064 52.9232C133.766 52.3232 133.617 51.5653 133.617 50.6492C133.617 49.7117 133.769 48.9285 134.075 48.2999C134.38 47.6712 134.786 47.2007 135.292 46.8881C135.802 46.5756 136.361 46.4193 136.968 46.4193C137.432 46.4193 137.82 46.4984 138.132 46.6564C138.445 46.8109 138.696 47.0049 138.886 47.2384C139.08 47.4683 139.229 47.6946 139.334 47.9173H139.42V46.5271H141.699V54.8845C141.699 55.5886 141.527 56.1778 141.182 56.6519C140.837 57.1261 140.359 57.4818 139.749 57.7188C139.141 57.9595 138.443 58.0799 137.652 58.0799ZM137.701 52.9609C138.071 52.9609 138.384 52.8693 138.639 52.6861C138.897 52.4993 139.095 52.2334 139.231 51.8886C139.371 51.5401 139.441 51.1234 139.441 50.6385C139.441 50.1535 139.373 49.7332 139.237 49.3776C139.1 49.0184 138.903 48.74 138.644 48.5424C138.385 48.3448 138.071 48.246 137.701 48.246C137.324 48.246 137.006 48.3484 136.747 48.5532C136.489 48.7543 136.293 49.0345 136.16 49.3937C136.027 49.753 135.961 50.1679 135.961 50.6385C135.961 51.1162 136.027 51.5294 136.16 51.8778C136.296 52.2227 136.492 52.4903 136.747 52.6807C137.006 52.8675 137.324 52.9609 137.701 52.9609ZM143.526 54.8037V46.5271H145.751V47.9712H145.837C145.988 47.4575 146.242 47.0695 146.597 46.8073C146.953 46.5415 147.362 46.4086 147.826 46.4086C147.941 46.4086 148.065 46.4157 148.198 46.4301C148.331 46.4445 148.447 46.4642 148.548 46.4894V48.5262C148.44 48.4939 148.291 48.4651 148.101 48.44C147.91 48.4149 147.736 48.4023 147.578 48.4023C147.24 48.4023 146.939 48.4759 146.673 48.6232C146.41 48.7669 146.202 48.9681 146.048 49.2267C145.897 49.4853 145.821 49.7835 145.821 50.1212V54.8037H143.526ZM151.858 54.96C151.33 54.96 150.859 54.8684 150.446 54.6852C150.033 54.4984 149.706 54.2236 149.465 53.8607C149.228 53.4943 149.11 53.0381 149.11 52.4921C149.11 52.0323 149.194 51.6461 149.363 51.3336C149.532 51.021 149.762 50.7696 150.053 50.5792C150.344 50.3888 150.674 50.2451 151.044 50.1481C151.418 50.0511 151.809 49.9829 152.219 49.9434C152.7 49.8931 153.088 49.8464 153.383 49.8033C153.677 49.7566 153.891 49.6883 154.024 49.5985C154.157 49.5087 154.223 49.3758 154.223 49.1998V49.1674C154.223 48.8262 154.115 48.5621 153.9 48.3753C153.688 48.1885 153.386 48.0951 152.995 48.0951C152.582 48.0951 152.253 48.1867 152.009 48.3699C151.764 48.5496 151.603 48.7759 151.524 49.0489L149.401 48.8765C149.508 48.3735 149.72 47.9389 150.036 47.5725C150.353 47.2025 150.76 46.9187 151.26 46.7211C151.762 46.5199 152.344 46.4193 153.005 46.4193C153.465 46.4193 153.905 46.4732 154.326 46.581C154.749 46.6888 155.125 46.8558 155.452 47.0821C155.782 47.3084 156.043 47.5994 156.233 47.955C156.423 48.3071 156.519 48.7292 156.519 49.2213V54.8037H154.342V53.656H154.277C154.144 53.9146 153.966 54.1427 153.744 54.3403C153.521 54.5343 153.253 54.687 152.941 54.7983C152.628 54.9061 152.267 54.96 151.858 54.96ZM152.515 53.3758C152.853 53.3758 153.151 53.3093 153.41 53.1764C153.668 53.0399 153.871 52.8567 154.018 52.6268C154.166 52.3969 154.239 52.1364 154.239 51.8455V50.9672C154.168 51.0139 154.069 51.057 153.943 51.0965C153.821 51.1324 153.683 51.1665 153.528 51.1989C153.374 51.2276 153.219 51.2545 153.065 51.2797C152.91 51.3012 152.77 51.321 152.644 51.339C152.375 51.3785 152.14 51.4413 151.939 51.5276C151.737 51.6138 151.581 51.7305 151.47 51.8778C151.358 52.0215 151.303 52.2011 151.303 52.4166C151.303 52.7292 151.416 52.9681 151.642 53.1333C151.872 53.295 152.163 53.3758 152.515 53.3758ZM158.3 54.8037V46.5271H160.487V47.9874H160.584C160.757 47.5024 161.044 47.1198 161.446 46.8396C161.849 46.5594 162.33 46.4193 162.89 46.4193C163.458 46.4193 163.941 46.5612 164.34 46.845C164.739 47.1252 165.005 47.506 165.137 47.9874H165.224C165.392 47.5132 165.698 47.1342 166.14 46.8504C166.585 46.563 167.111 46.4193 167.718 46.4193C168.491 46.4193 169.118 46.6654 169.599 47.1576C170.084 47.6461 170.326 48.3394 170.326 49.2375V54.8037H168.036V49.6901C168.036 49.2303 167.914 48.8854 167.67 48.6555C167.426 48.4256 167.12 48.3107 166.754 48.3107C166.337 48.3107 166.012 48.4436 165.779 48.7094C165.545 48.9717 165.428 49.3183 165.428 49.7494V54.8037H163.203V49.6416C163.203 49.2357 163.086 48.9124 162.853 48.6717C162.623 48.431 162.319 48.3107 161.942 48.3107C161.687 48.3107 161.457 48.3753 161.252 48.5047C161.051 48.6304 160.891 48.8082 160.773 49.0381C160.654 49.2644 160.595 49.5303 160.595 49.8356V54.8037H158.3Z" fill="#060C3C"/>
<path d="M100.002 65.8075V74.3906H98.9623V66.8971H98.912L96.8166 68.2885V67.2324L98.9623 65.8075H100.002ZM102.47 74.3906V73.6362L105.303 70.5349C105.636 70.1717 105.91 69.856 106.125 69.5878C106.34 69.3167 106.499 69.0625 106.603 68.825C106.709 68.5847 106.762 68.3333 106.762 68.0706C106.762 67.7689 106.689 67.5076 106.544 67.2869C106.401 67.0662 106.206 66.8957 105.957 66.7756C105.708 66.6555 105.429 66.5954 105.119 66.5954C104.789 66.5954 104.501 66.6638 104.256 66.8007C104.012 66.9349 103.824 67.1235 103.69 67.3665C103.558 67.6096 103.493 67.8946 103.493 68.2215H102.504C102.504 67.7186 102.62 67.2771 102.852 66.8971C103.083 66.5172 103.399 66.221 103.799 66.0087C104.201 65.7963 104.652 65.6901 105.152 65.6901C105.655 65.6901 106.101 65.7963 106.489 66.0087C106.878 66.221 107.182 66.5074 107.403 66.8678C107.624 67.2282 107.734 67.6292 107.734 68.0706C107.734 68.3863 107.677 68.6951 107.562 68.9968C107.45 69.2958 107.255 69.6297 106.976 69.9985C106.699 70.3645 106.315 70.8115 105.823 71.3396L103.895 73.4016V73.4686H107.885V74.3906H102.47ZM111.108 73.2171L111.041 73.6698C110.993 73.9883 110.921 74.3292 110.823 74.6924C110.728 75.0556 110.629 75.3979 110.525 75.7192C110.422 76.0405 110.337 76.2961 110.27 76.4861H109.515C109.552 76.3073 109.599 76.0712 109.658 75.7778C109.716 75.4845 109.775 75.1562 109.834 74.793C109.895 74.4325 109.946 74.0637 109.985 73.6865L110.035 73.2171H111.108ZM115.474 74.508C115.122 74.5024 114.77 74.4353 114.418 74.3068C114.066 74.1783 113.744 73.9617 113.454 73.6572C113.163 73.3499 112.93 72.935 112.754 72.4125C112.578 71.8872 112.49 71.2278 112.49 70.4343C112.49 69.6744 112.561 69.001 112.704 68.4143C112.846 67.8247 113.053 67.3288 113.324 66.9265C113.595 66.5213 113.922 66.214 114.304 66.0045C114.69 65.7949 115.125 65.6901 115.608 65.6901C116.088 65.6901 116.516 65.7865 116.89 65.9793C117.268 66.1693 117.575 66.4347 117.812 66.7756C118.05 67.1165 118.204 67.509 118.273 67.9533H117.251C117.156 67.5677 116.971 67.2478 116.698 66.9935C116.424 66.7393 116.061 66.6122 115.608 66.6122C114.943 66.6122 114.419 66.9013 114.036 67.4797C113.656 68.058 113.465 68.8697 113.462 69.9147H113.529C113.686 69.6772 113.871 69.4746 114.087 69.307C114.304 69.1365 114.545 69.0052 114.807 68.913C115.07 68.8208 115.348 68.7747 115.641 68.7747C116.133 68.7747 116.583 68.8976 116.991 69.1435C117.399 69.3866 117.726 69.7233 117.972 70.1535C118.217 70.581 118.34 71.0714 118.34 71.6246C118.34 72.1554 118.222 72.6416 117.984 73.083C117.747 73.5217 117.413 73.8709 116.983 74.1308C116.555 74.3878 116.052 74.5136 115.474 74.508ZM115.474 73.586C115.826 73.586 116.142 73.4979 116.421 73.3219C116.703 73.1459 116.925 72.9098 117.087 72.6136C117.252 72.3175 117.335 71.9878 117.335 71.6246C117.335 71.2697 117.255 70.947 117.096 70.6565C116.939 70.3631 116.723 70.1298 116.446 69.9566C116.172 69.7833 115.859 69.6967 115.507 69.6967C115.242 69.6967 114.995 69.7498 114.766 69.856C114.536 69.9594 114.335 70.1018 114.162 70.2835C113.992 70.4651 113.857 70.6732 113.76 70.9079C113.662 71.1398 113.613 71.3843 113.613 71.6413C113.613 71.9822 113.693 72.3007 113.852 72.5969C114.014 72.893 114.235 73.1319 114.514 73.3135C114.796 73.4952 115.116 73.586 115.474 73.586ZM119.989 74.3906V73.6362L122.822 70.5349C123.154 70.1717 123.428 69.856 123.643 69.5878C123.858 69.3167 124.017 69.0625 124.121 68.825C124.227 68.5847 124.28 68.3333 124.28 68.0706C124.28 67.7689 124.207 67.5076 124.062 67.2869C123.92 67.0662 123.724 66.8957 123.475 66.7756C123.227 66.6555 122.947 66.5954 122.637 66.5954C122.308 66.5954 122.02 66.6638 121.774 66.8007C121.531 66.9349 121.342 67.1235 121.208 67.3665C121.077 67.6096 121.011 67.8946 121.011 68.2215H120.022C120.022 67.7186 120.138 67.2771 120.37 66.8971C120.602 66.5172 120.918 66.221 121.317 66.0087C121.719 65.7963 122.171 65.6901 122.671 65.6901C123.174 65.6901 123.619 65.7963 124.008 66.0087C124.396 66.221 124.701 66.5074 124.921 66.8678C125.142 67.2282 125.252 67.6292 125.252 68.0706C125.252 68.3863 125.195 68.6951 125.081 68.9968C124.969 69.2958 124.773 69.6297 124.494 69.9985C124.217 70.3645 123.833 70.8115 123.341 71.3396L121.413 73.4016V73.4686H125.403V74.3906H119.989Z" fill="#060C3C"/>
<g clip-path="url(#clip0_0_1)">
<path d="M50.9949 43.5901C48.3451 46.3214 48.8874 49.2229 48.8874 58.0373C48.8874 65.3572 47.6005 72.6951 54.336 74.4226C56.4392 74.9594 75.0748 74.9594 77.1753 74.4198C79.9796 73.7018 82.2613 71.4445 82.5732 67.5085C82.6168 66.9592 82.6168 49.1253 82.5718 48.5648C82.2402 44.3723 79.6396 41.956 76.2129 41.4666C75.4275 41.3537 75.2701 41.3202 71.2407 41.3133C56.9478 41.3202 53.8147 40.6886 50.9949 43.5901Z" fill="url(#paint0_linear_0_1)"/>
<path d="M65.7442 45.6897C60.6427 45.6897 55.7984 45.2393 53.948 49.9519C53.1837 51.8983 53.2947 54.4261 53.2947 58.0455C53.2947 61.2216 53.1921 64.2067 53.948 66.1378C55.7941 70.8531 60.6778 70.4014 65.7414 70.4014C70.6265 70.4014 75.6633 70.9061 77.5362 66.1378C78.3019 64.1719 78.1895 61.6817 78.1895 58.0455C78.1895 53.2186 78.4579 50.1025 76.0989 47.7629C73.7104 45.3927 70.4804 45.6897 65.7386 45.6897H65.7442ZM64.6286 47.9163C75.27 47.8996 76.6244 46.7256 75.8769 63.0342C75.6114 68.8022 71.1857 68.1692 65.7456 68.1692C55.8265 68.1692 55.5412 67.8876 55.5412 58.04C55.5412 48.078 56.328 47.9219 64.6286 47.9135V47.9163ZM72.3897 49.9672C71.565 49.9672 70.8963 50.6309 70.8963 51.4493C70.8963 52.2677 71.565 52.9314 72.3897 52.9314C73.2145 52.9314 73.8832 52.2677 73.8832 51.4493C73.8832 50.6309 73.2145 49.9672 72.3897 49.9672ZM65.7442 51.7003C62.2135 51.7003 59.3515 54.5418 59.3515 58.0455C59.3515 61.5493 62.2135 64.3894 65.7442 64.3894C69.2749 64.3894 72.1354 61.5493 72.1354 58.0455C72.1354 54.5418 69.2749 51.7003 65.7442 51.7003ZM65.7442 53.9269C71.2306 53.9269 71.2377 62.1642 65.7442 62.1642C60.2592 62.1642 60.2507 53.9269 65.7442 53.9269Z" fill="white"/>
</g>
<rect x="48.8867" y="100.708" width="72.4969" height="5.01931" rx="2.50966" fill="#FFDC60"/>
<rect x="48.8867" y="112.42" width="72.4969" height="5.01931" rx="2.50965" fill="#528BFC"/>
<rect x="180.393" y="112.42" width="43.8353" height="5.01931" rx="2.50965" fill="#FF81AC"/>
<rect x="20" y="13" width="234" height="134" rx="12" fill="#9585F3" fill-opacity="0.05"/>
<defs>
<filter id="filter0_d_0_1" x="-0.00616825" y="0.128354" width="273.128" height="172.819" filterUnits="userSpaceOnUse" color-interpolation-filters="sRGB">
<feFlood flood-opacity="0" result="BackgroundImageFix"/>
<feColorMatrix in="SourceAlpha" type="matrix" values="0 0 0 0 0 0 0 0 0 0 0 0 0 0 0 0 0 0 127 0" result="hardAlpha"/>
<feMorphology radius="1.68597" operator="erode" in="SourceAlpha" result="effect1_dropShadow_0_1"/>
<feOffset dy="6.7439"/>
<feGaussianBlur stdDeviation="16.8597"/>
<feColorMatrix type="matrix" values="0 0 0 0 0.0235294 0 0 0 0 0.0470588 0 0 0 0 0.231373 0 0 0 0.08 0"/>
<feBlend mode="normal" in2="BackgroundImageFix" result="effect1_dropShadow_0_1"/>
<feBlend mode="normal" in="SourceGraphic" in2="effect1_dropShadow_0_1" result="shape"/>
</filter>
<linearGradient id="paint0_linear_0_1" x1="51.0596" y1="72.6381" x2="82.1923" y2="45.4858" gradientUnits="userSpaceOnUse">
<stop stop-color="#FFDD55"/>
<stop offset="0.5" stop-color="#FF543E"/>
<stop offset="1" stop-color="#C837AB"/>
</linearGradient>
<clipPath id="clip0_0_1">
<rect width="33.7195" height="33.4621" fill="white" transform="translate(48.8867 41.3125)"/>
</clipPath>
</defs>
</svg>
