<svg width="21" height="21" viewBox="0 0 21 21" fill="none" xmlns="http://www.w3.org/2000/svg">
<path d="M20.4102 10.5712C20.4102 12.4405 20.4102 14.2164 20.4102 16.0297C20.4242 17.0597 20.0704 18.0617 19.4109 18.8599C18.7513 19.658 17.8281 20.2014 16.8033 20.3946C16.4918 20.4568 16.1743 20.485 15.8566 20.4787H4.83722C3.79074 20.4945 2.77173 20.1478 1.95718 19.499C1.14262 18.8502 0.583998 17.9401 0.37834 16.927C0.318992 16.6189 0.290458 16.3058 0.293142 15.9923C0.293142 12.3471 0.293142 8.71121 0.293142 5.07534C0.289296 4.48687 0.404481 3.90356 0.631955 3.35961C0.859429 2.81567 1.19461 2.32203 1.61784 1.90766C2.04107 1.49328 2.54384 1.16649 3.09666 0.946466C3.64948 0.726438 4.24124 0.617594 4.83722 0.626316H15.8661C16.9119 0.609079 17.9305 0.955375 18.7439 1.60464C19.5573 2.25391 20.1135 3.16482 20.3155 4.17806C20.3853 4.51312 20.4171 4.85484 20.4102 5.19685C20.4196 7.01011 20.4102 8.79533 20.4102 10.5712ZM10.3564 16.9924C11.6419 16.9887 12.8974 16.609 13.9645 15.9011C15.0315 15.1933 15.8622 14.1892 16.3515 13.0156C16.8409 11.8419 16.967 10.5514 16.7139 9.30707C16.4608 8.06272 15.8399 6.92032 14.9296 6.02417C14.0193 5.12803 12.8604 4.51832 11.5993 4.27207C10.3382 4.02582 9.03153 4.15407 7.84423 4.64061C6.65694 5.12716 5.64231 5.95019 4.9285 7.00574C4.2147 8.06129 3.83373 9.30201 3.83373 10.5712C3.83372 11.416 4.00257 12.2525 4.3306 13.0328C4.65863 13.8131 5.13938 14.5218 5.74531 15.1183C6.35124 15.7148 7.07044 16.1874 7.86169 16.509C8.65295 16.8306 9.5007 16.9948 10.3564 16.9924ZM15.6294 3.95374C15.6294 4.31405 15.7737 4.65973 16.0309 4.91538C16.288 5.17103 16.6372 5.31589 17.0021 5.31836C17.2732 5.31835 17.5382 5.2391 17.7637 5.09059C17.9893 4.94208 18.1652 4.73096 18.2694 4.48386C18.3735 4.23676 18.4013 3.96474 18.3491 3.70211C18.2969 3.43947 18.1671 3.19797 17.976 3.00806C17.785 2.81816 17.5413 2.68835 17.2756 2.63501C17.01 2.58166 16.7343 2.60717 16.4833 2.70832C16.2323 2.80946 16.0173 2.98172 15.8653 3.20336C15.7134 3.425 15.6313 3.6861 15.6294 3.95374Z" fill="#1767FE"/>
<path d="M10.3564 14.2168C9.62846 14.2168 8.91685 14.0038 8.31146 13.6047C7.70606 13.2056 7.23405 12.6383 6.95505 11.9744C6.67605 11.3106 6.60257 10.58 6.7439 9.87501C6.88523 9.16998 7.23503 8.52212 7.7491 8.01326C8.26318 7.50441 8.91847 7.15739 9.6322 7.01605C10.3459 6.8747 11.0861 6.94537 11.7591 7.21913C12.4322 7.49289 13.008 7.95745 13.4138 8.55413C13.8196 9.15082 14.0371 9.85285 14.039 10.5716C14.0403 11.0498 13.9459 11.5236 13.7614 11.9658C13.5769 12.408 13.3058 12.8099 12.9638 13.1485C12.6217 13.4872 12.2153 13.7558 11.7679 13.9391C11.3205 14.1224 10.8408 14.2168 10.3564 14.2168Z" fill="#1767FE"/>
</svg>
