<svg width="310" height="169" viewBox="0 0 310 169" fill="none" xmlns="http://www.w3.org/2000/svg">
<g filter="url(#filter0_d_0_1)">
<rect x="42.5117" y="33.5293" width="225.166" height="84.2987" rx="11.3429" fill="white"/>
</g>
<g clip-path="url(#clip0_0_1)">
<path d="M76.6058 74.6631C74.0324 74.6631 71.9453 76.7502 71.9453 79.3235V90.9812C71.9453 93.5545 74.0324 95.6416 76.6058 95.6416C79.1791 95.6416 81.2662 93.5545 81.2662 90.9812V79.3235C81.2644 76.7502 79.1772 74.6631 76.6058 74.6631Z" fill="#E91E63"/>
<path d="M60.293 79.3253C60.293 81.9005 62.382 83.9894 64.9571 83.9894C67.5323 83.9894 69.6213 81.9005 69.6213 79.3253V74.6611H64.9608C64.959 74.6611 64.959 74.6611 64.9571 74.6611C62.382 74.6611 60.293 76.7501 60.293 79.3253Z" fill="#E91E63"/>
<path d="M76.6111 51.2744C76.6093 51.2744 76.6074 51.2744 76.6056 51.2744C74.0304 51.2744 71.9414 53.3634 71.9414 55.9386C71.9414 58.5138 74.0304 60.6027 76.6056 60.6027H81.266V55.9386C81.266 55.9367 81.266 55.933 81.266 55.9293C81.2642 53.3578 79.1807 51.2744 76.6111 51.2744Z" fill="#36C5F0"/>
<path d="M64.9259 72.2951H76.6057C79.1809 72.2951 81.2698 70.2061 81.2698 67.631C81.2698 65.0558 79.1809 62.9668 76.6057 62.9668H64.9259C62.3507 62.9668 60.2617 65.0558 60.2617 67.631C60.2617 70.2061 62.3507 72.2951 64.9259 72.2951Z" fill="#36C5F0"/>
<path d="M99.9245 62.9658C97.353 62.9658 95.2695 65.0493 95.2695 67.6207V67.63V72.2941H99.93C102.505 72.2941 104.594 70.2052 104.594 67.63C104.594 65.0548 102.505 62.9658 99.93 62.9658C99.9281 62.9658 99.9263 62.9658 99.9245 62.9658Z" fill="#4CAF50"/>
<path d="M83.625 55.9388V67.6315C83.625 70.2049 85.7121 72.292 88.2855 72.292C90.8588 72.292 92.9459 70.2049 92.9459 67.6315V55.9388C92.9459 53.3655 90.8588 51.2783 88.2855 51.2783C85.7121 51.2783 83.625 53.3655 83.625 55.9388Z" fill="#4CAF50"/>
<path d="M92.9459 90.9778C92.9459 88.4045 90.8588 86.3174 88.2855 86.3174H83.625V90.9815C83.6268 93.553 85.7121 95.6383 88.2855 95.6383C90.8588 95.6383 92.9459 93.5512 92.9459 90.9778Z" fill="#FF9800"/>
<path d="M99.9651 74.6602H88.2853C85.7101 74.6602 83.6211 76.7491 83.6211 79.3243C83.6211 81.8995 85.7101 83.9885 88.2853 83.9885H99.9651C102.54 83.9885 104.629 81.8995 104.629 79.3243C104.629 76.7491 102.54 74.6602 99.9651 74.6602Z" fill="#FF9800"/>
</g>
<path d="M118.686 58.1959V56.9828H127.156V58.1959H123.604V68.2764H122.237V58.1959H118.686ZM131.303 68.4528C130.538 68.4528 129.867 68.2709 129.29 67.9069C128.716 67.5429 128.268 67.0338 127.944 66.3794C127.624 65.725 127.465 64.9603 127.465 64.0854C127.465 63.2031 127.624 62.4329 127.944 61.7748C128.268 61.1168 128.716 60.6058 129.29 60.2418C129.867 59.8778 130.538 59.6959 131.303 59.6959C132.067 59.6959 132.736 59.8778 133.31 60.2418C133.887 60.6058 134.336 61.1168 134.655 61.7748C134.979 62.4329 135.141 63.2031 135.141 64.0854C135.141 64.9603 134.979 65.725 134.655 66.3794C134.336 67.0338 133.887 67.5429 133.31 67.9069C132.736 68.2709 132.067 68.4528 131.303 68.4528ZM131.303 67.2838C131.883 67.2838 132.361 67.1349 132.736 66.8371C133.111 66.5393 133.389 66.1478 133.569 65.6625C133.749 65.1772 133.839 64.6515 133.839 64.0854C133.839 63.5192 133.749 62.9917 133.569 62.5027C133.389 62.0138 133.111 61.6186 132.736 61.3171C132.361 61.0157 131.883 60.8649 131.303 60.8649C130.722 60.8649 130.244 61.0157 129.869 61.3171C129.494 61.6186 129.216 62.0138 129.036 62.5027C128.856 62.9917 128.766 63.5192 128.766 64.0854C128.766 64.6515 128.856 65.1772 129.036 65.6625C129.216 66.1478 129.494 66.5393 129.869 66.8371C130.244 67.1349 130.722 67.2838 131.303 67.2838ZM140.811 59.8062V60.9091H136.421V59.8062H140.811ZM137.701 57.7768H139.002V65.85C139.002 66.2176 139.055 66.4934 139.162 66.6772C139.272 66.8573 139.412 66.9786 139.581 67.0411C139.754 67.0999 139.936 67.1294 140.127 67.1294C140.27 67.1294 140.388 67.122 140.48 67.1073C140.572 67.0889 140.645 67.0742 140.701 67.0632L140.965 68.2323C140.877 68.2653 140.754 68.2984 140.596 68.3315C140.438 68.3683 140.237 68.3867 139.995 68.3867C139.627 68.3867 139.267 68.3076 138.914 68.1495C138.565 67.9915 138.274 67.7507 138.043 67.4271C137.815 67.1036 137.701 66.6956 137.701 66.2029V57.7768ZM145.261 68.4749C144.724 68.4749 144.237 68.3738 143.8 68.1716C143.362 67.9657 143.015 67.6698 142.757 67.2838C142.5 66.8941 142.371 66.4235 142.371 65.8721C142.371 65.3868 142.467 64.9934 142.658 64.692C142.849 64.3868 143.105 64.1479 143.425 63.9751C143.745 63.8023 144.098 63.6736 144.484 63.5891C144.873 63.5008 145.265 63.431 145.658 63.3795C146.173 63.3134 146.59 63.2637 146.91 63.2306C147.233 63.1939 147.469 63.1332 147.616 63.0487C147.766 62.9641 147.842 62.8171 147.842 62.6075V62.5634C147.842 62.0193 147.693 61.5965 147.395 61.2951C147.101 60.9936 146.654 60.8429 146.055 60.8429C145.434 60.8429 144.947 60.9789 144.594 61.2509C144.241 61.523 143.993 61.8134 143.849 62.1222L142.614 61.6811C142.835 61.1664 143.129 60.7657 143.496 60.4789C143.868 60.1885 144.272 59.9863 144.71 59.8723C145.151 59.7547 145.585 59.6959 146.011 59.6959C146.283 59.6959 146.596 59.729 146.948 59.7951C147.305 59.8576 147.649 59.9881 147.98 60.1867C148.314 60.3852 148.592 60.6848 148.812 61.0855C149.033 61.4862 149.143 62.023 149.143 62.6957V68.2764H147.842V67.1294H147.776C147.687 67.3132 147.54 67.5099 147.334 67.7194C147.129 67.929 146.855 68.1073 146.513 68.2543C146.171 68.4014 145.754 68.4749 145.261 68.4749ZM145.46 67.3058C145.974 67.3058 146.408 67.2047 146.761 67.0025C147.118 66.8003 147.386 66.5393 147.566 66.2195C147.75 65.8996 147.842 65.5633 147.842 65.2103V64.0192C147.787 64.0854 147.665 64.146 147.478 64.2012C147.294 64.2527 147.081 64.2986 146.838 64.339C146.599 64.3758 146.366 64.4089 146.138 64.4383C145.914 64.464 145.732 64.4861 145.592 64.5045C145.254 64.5486 144.938 64.6203 144.643 64.7195C144.353 64.8151 144.118 64.9603 143.938 65.1552C143.761 65.3464 143.673 65.6074 143.673 65.9382C143.673 66.3904 143.84 66.7323 144.175 66.9639C144.513 67.1919 144.941 67.3058 145.46 67.3058ZM152.82 56.9828V68.2764H151.519V56.9828H152.82ZM165.924 59.8062C165.858 59.2474 165.589 58.8136 165.119 58.5047C164.648 58.1959 164.071 58.0415 163.387 58.0415C162.887 58.0415 162.45 58.1224 162.075 58.2842C161.703 58.4459 161.413 58.6683 161.203 58.9514C160.997 59.2345 160.895 59.5562 160.895 59.9165C160.895 60.2179 160.966 60.4771 161.11 60.694C161.257 60.9072 161.444 61.0855 161.672 61.2289C161.9 61.3686 162.139 61.4844 162.389 61.5763C162.639 61.6645 162.869 61.7362 163.078 61.7914L164.225 62.1002C164.519 62.1774 164.847 62.284 165.207 62.42C165.571 62.556 165.918 62.7417 166.249 62.977C166.584 63.2086 166.859 63.5064 167.076 63.8703C167.293 64.2343 167.402 64.6809 167.402 65.2103C167.402 65.8206 167.242 66.372 166.922 66.8647C166.606 67.3573 166.142 67.7488 165.532 68.0392C164.926 68.3297 164.189 68.4749 163.321 68.4749C162.512 68.4749 161.812 68.3444 161.22 68.0834C160.632 67.8223 160.168 67.4584 159.83 66.9915C159.496 66.5246 159.306 65.9824 159.262 65.3647H160.674C160.711 65.7912 160.854 66.1441 161.104 66.4235C161.358 66.6992 161.678 66.9051 162.064 67.0411C162.453 67.1735 162.872 67.2396 163.321 67.2396C163.843 67.2396 164.312 67.1551 164.727 66.986C165.143 66.8132 165.472 66.5742 165.714 66.2691C165.957 65.9603 166.078 65.6 166.078 65.1883C166.078 64.8133 165.973 64.5082 165.764 64.2729C165.554 64.0376 165.279 63.8464 164.937 63.6994C164.595 63.5523 164.225 63.4236 163.828 63.3134L162.439 62.9163C161.556 62.6626 160.858 62.3005 160.343 61.83C159.828 61.3594 159.571 60.7436 159.571 59.9826C159.571 59.3503 159.742 58.7989 160.084 58.3283C160.429 57.854 160.893 57.4864 161.474 57.2254C162.058 56.9607 162.711 56.8284 163.431 56.8284C164.159 56.8284 164.806 56.9589 165.372 57.2199C165.938 57.4772 166.387 57.8301 166.718 58.2787C167.052 58.7272 167.229 59.2363 167.247 59.8062H165.924ZM174.812 64.8133V59.8062H176.113V68.2764H174.812V66.8426H174.723C174.525 67.2727 174.216 67.6385 173.797 67.94C173.378 68.2378 172.849 68.3867 172.209 68.3867C171.679 68.3867 171.209 68.2709 170.797 68.0392C170.385 67.804 170.062 67.451 169.827 66.9805C169.591 66.5062 169.474 65.9088 169.474 65.1883V59.8062H170.775V65.1C170.775 65.7177 170.948 66.2103 171.293 66.5779C171.643 66.9455 172.088 67.1294 172.628 67.1294C172.951 67.1294 173.28 67.0466 173.615 66.8812C173.953 66.7158 174.236 66.4621 174.464 66.1202C174.696 65.7783 174.812 65.3427 174.812 64.8133ZM178.673 68.2764V56.9828H179.975V61.1517H180.085C180.18 61.0046 180.313 60.8171 180.482 60.5892C180.655 60.3576 180.901 60.1517 181.221 59.9716C181.544 59.7878 181.982 59.6959 182.533 59.6959C183.246 59.6959 183.875 59.8742 184.419 60.2308C184.963 60.5874 185.388 61.0929 185.693 61.7473C185.998 62.4016 186.151 63.1737 186.151 64.0633C186.151 64.9603 185.998 65.7379 185.693 66.3959C185.388 67.0503 184.965 67.5576 184.425 67.9179C183.884 68.2745 183.261 68.4528 182.555 68.4528C182.011 68.4528 181.576 68.3628 181.248 68.1826C180.921 67.9988 180.669 67.7911 180.493 67.5595C180.316 67.3242 180.18 67.1294 180.085 66.975H179.93V68.2764H178.673ZM179.953 64.0413C179.953 64.6809 180.046 65.2453 180.234 65.7342C180.421 66.2195 180.695 66.6 181.055 66.8757C181.416 67.1477 181.857 67.2838 182.379 67.2838C182.923 67.2838 183.377 67.1404 183.741 66.8536C184.109 66.5632 184.384 66.1735 184.568 65.6846C184.756 65.1919 184.849 64.6442 184.849 64.0413C184.849 63.4457 184.757 62.909 184.574 62.431C184.393 61.9494 184.12 61.5689 183.752 61.2896C183.388 61.0065 182.93 60.8649 182.379 60.8649C181.849 60.8649 181.405 60.9991 181.044 61.2675C180.684 61.5322 180.412 61.9035 180.228 62.3814C180.044 62.8557 179.953 63.4089 179.953 64.0413ZM194.141 61.7031L192.972 62.034C192.899 61.8392 192.79 61.6498 192.647 61.466C192.507 61.2785 192.316 61.1241 192.073 61.0028C191.831 60.8815 191.52 60.8208 191.141 60.8208C190.623 60.8208 190.191 60.9403 189.845 61.1793C189.504 61.4145 189.333 61.7142 189.333 62.0781C189.333 62.4016 189.45 62.6571 189.686 62.8446C189.921 63.0321 190.288 63.1884 190.788 63.3134L192.046 63.6222C192.803 63.806 193.367 64.0872 193.739 64.4659C194.11 64.8409 194.296 65.3243 194.296 65.9162C194.296 66.4015 194.156 66.8353 193.877 67.2176C193.601 67.5999 193.215 67.9014 192.718 68.122C192.222 68.3425 191.645 68.4528 190.987 68.4528C190.123 68.4528 189.408 68.2653 188.842 67.8904C188.276 67.5154 187.917 66.9676 187.766 66.247L189.002 65.9382C189.119 66.3941 189.342 66.736 189.669 66.9639C190 67.1919 190.432 67.3058 190.965 67.3058C191.571 67.3058 192.053 67.1772 192.41 66.9198C192.77 66.6588 192.95 66.3463 192.95 65.9824C192.95 65.6882 192.847 65.4419 192.641 65.2434C192.435 65.0412 192.119 64.8905 191.693 64.7912L190.281 64.4604C189.505 64.2765 188.936 63.9916 188.572 63.6056C188.211 63.2159 188.031 62.7288 188.031 62.1443C188.031 61.6664 188.165 61.2436 188.434 60.876C188.706 60.5083 189.075 60.2197 189.542 60.0102C190.013 59.8006 190.546 59.6959 191.141 59.6959C191.98 59.6959 192.638 59.8797 193.116 60.2473C193.597 60.6149 193.939 61.1002 194.141 61.7031ZM199.696 68.4528C198.902 68.4528 198.218 68.2653 197.644 67.8904C197.071 67.5154 196.63 66.9989 196.321 66.3408C196.012 65.6827 195.858 64.9309 195.858 64.0854C195.858 63.2251 196.016 62.466 196.332 61.8079C196.652 61.1462 197.096 60.6297 197.666 60.2583C198.24 59.8834 198.909 59.6959 199.674 59.6959C200.269 59.6959 200.806 59.8062 201.284 60.0267C201.762 60.2473 202.153 60.5561 202.458 60.9532C202.764 61.3502 202.953 61.8134 203.026 62.3428H201.725C201.626 61.9568 201.405 61.6149 201.063 61.3171C200.725 61.0157 200.269 60.8649 199.696 60.8649C199.188 60.8649 198.743 60.9973 198.361 61.262C197.982 61.523 197.687 61.8925 197.473 62.3704C197.264 62.8446 197.159 63.4016 197.159 64.0413C197.159 64.6956 197.262 65.2655 197.468 65.7507C197.677 66.236 197.971 66.6128 198.35 66.8812C198.732 67.1496 199.181 67.2838 199.696 67.2838C200.034 67.2838 200.341 67.2249 200.617 67.1073C200.892 66.9897 201.126 66.8206 201.317 66.6C201.508 66.3794 201.644 66.1147 201.725 65.8059H203.026C202.953 66.3059 202.771 66.7562 202.48 67.1569C202.194 67.554 201.813 67.8701 201.339 68.1054C200.868 68.337 200.321 68.4528 199.696 68.4528ZM204.929 68.2764V59.8062H206.186V61.0855H206.274C206.429 60.6664 206.708 60.3264 207.113 60.0653C207.517 59.8043 207.973 59.6738 208.48 59.6738C208.576 59.6738 208.695 59.6757 208.839 59.6793C208.982 59.683 209.09 59.6885 209.164 59.6959V61.0193C209.12 61.0083 209.019 60.9918 208.861 60.9697C208.706 60.944 208.543 60.9311 208.37 60.9311C207.958 60.9311 207.591 61.0175 207.267 61.1903C206.947 61.3594 206.693 61.5947 206.506 61.8961C206.322 62.1939 206.23 62.534 206.23 62.9163V68.2764H204.929ZM210.707 68.2764V59.8062H212.008V68.2764H210.707ZM211.368 58.3945C211.115 58.3945 210.896 58.3081 210.712 58.1353C210.532 57.9625 210.442 57.7548 210.442 57.5121C210.442 57.2695 210.532 57.0618 210.712 56.889C210.896 56.7162 211.115 56.6298 211.368 56.6298C211.622 56.6298 211.839 56.7162 212.019 56.889C212.203 57.0618 212.295 57.2695 212.295 57.5121C212.295 57.7548 212.203 57.9625 212.019 58.1353C211.839 58.3081 211.622 58.3945 211.368 58.3945ZM214.568 68.2764V56.9828H215.87V61.1517H215.98C216.075 61.0046 216.208 60.8171 216.377 60.5892C216.55 60.3576 216.796 60.1517 217.116 59.9716C217.439 59.7878 217.877 59.6959 218.428 59.6959C219.141 59.6959 219.77 59.8742 220.314 60.2308C220.858 60.5874 221.283 61.0929 221.588 61.7473C221.893 62.4016 222.046 63.1737 222.046 64.0633C222.046 64.9603 221.893 65.7379 221.588 66.3959C221.283 67.0503 220.86 67.5576 220.32 67.9179C219.779 68.2745 219.156 68.4528 218.45 68.4528C217.906 68.4528 217.471 68.3628 217.143 68.1826C216.816 67.9988 216.564 67.7911 216.388 67.5595C216.211 67.3242 216.075 67.1294 215.98 66.975H215.825V68.2764H214.568ZM215.847 64.0413C215.847 64.6809 215.941 65.2453 216.129 65.7342C216.316 66.2195 216.59 66.6 216.95 66.8757C217.311 67.1477 217.752 67.2838 218.274 67.2838C218.818 67.2838 219.272 67.1404 219.636 66.8536C220.004 66.5632 220.279 66.1735 220.463 65.6846C220.651 65.1919 220.744 64.6442 220.744 64.0413C220.744 63.4457 220.652 62.909 220.469 62.431C220.288 61.9494 220.015 61.5689 219.647 61.2896C219.283 61.0065 218.825 60.8649 218.274 60.8649C217.744 60.8649 217.3 60.9991 216.939 61.2675C216.579 61.5322 216.307 61.9035 216.123 62.3814C215.939 62.8557 215.847 63.4089 215.847 64.0413ZM227.588 68.4528C226.772 68.4528 226.068 68.2727 225.476 67.9124C224.888 67.5485 224.433 67.0411 224.114 66.3904C223.797 65.736 223.639 64.975 223.639 64.1074C223.639 63.2398 223.797 62.4752 224.114 61.8134C224.433 61.148 224.878 60.6297 225.448 60.2583C226.022 59.8834 226.691 59.6959 227.455 59.6959C227.897 59.6959 228.332 59.7694 228.762 59.9165C229.192 60.0635 229.584 60.3025 229.937 60.6333C230.29 60.9605 230.571 61.3943 230.781 61.9347C230.99 62.4752 231.095 63.1406 231.095 63.931V64.4824H224.566V63.3575H229.771C229.771 62.8796 229.676 62.4531 229.485 62.0781C229.297 61.7031 229.029 61.4072 228.68 61.1903C228.334 60.9734 227.926 60.8649 227.455 60.8649C226.937 60.8649 226.489 60.9936 226.11 61.2509C225.735 61.5046 225.446 61.8355 225.244 62.2436C225.042 62.6516 224.941 63.0891 224.941 63.556V64.306C224.941 64.9456 225.051 65.4879 225.272 65.9327C225.496 66.3739 225.807 66.7103 226.204 66.9419C226.601 67.1698 227.062 67.2838 227.588 67.2838C227.93 67.2838 228.238 67.236 228.514 67.1404C228.794 67.0411 229.034 66.8941 229.237 66.6992C229.439 66.5007 229.595 66.2544 229.705 65.9603L230.963 66.3132C230.83 66.7397 230.608 67.1147 230.295 67.4382C229.983 67.758 229.597 68.008 229.137 68.1881C228.678 68.3646 228.161 68.4528 227.588 68.4528Z" fill="#060C3C"/>
<path d="M124.75 96.1985C124.003 96.1938 123.282 96.0685 122.587 95.8227C121.897 95.577 121.278 95.1776 120.73 94.6245C120.181 94.0715 119.747 93.3389 119.425 92.4266C119.108 91.5144 118.95 90.3942 118.95 89.066C118.955 87.8465 119.094 86.757 119.368 85.7975C119.647 84.8332 120.044 84.0155 120.559 83.3443C121.079 82.6731 121.701 82.1627 122.424 81.8129C123.147 81.4584 123.958 81.2811 124.856 81.2811C125.825 81.2811 126.681 81.4702 127.423 81.8483C128.165 82.2217 128.76 82.7299 129.209 83.3727C129.663 84.0155 129.937 84.7363 130.032 85.5351H127.004C126.886 85.0294 126.638 84.6323 126.26 84.344C125.882 84.0557 125.414 83.9115 124.856 83.9115C123.911 83.9115 123.192 84.3227 122.701 85.1452C122.214 85.9676 121.966 87.0855 121.956 88.4988H122.055C122.273 88.0686 122.566 87.7023 122.935 87.3998C123.308 87.0926 123.731 86.8586 124.204 86.6979C124.681 86.5325 125.185 86.4497 125.714 86.4497C126.574 86.4497 127.34 86.653 128.011 87.0595C128.682 87.4613 129.212 88.0143 129.599 88.7186C129.987 89.4228 130.181 90.2287 130.181 91.1362C130.181 92.1194 129.951 92.9938 129.493 93.7596C129.039 94.5253 128.403 95.1256 127.586 95.5604C126.773 95.9905 125.827 96.2032 124.75 96.1985ZM124.736 93.7879C125.208 93.7879 125.631 93.6745 126.005 93.4476C126.378 93.2207 126.671 92.9135 126.884 92.5259C127.096 92.1383 127.203 91.7035 127.203 91.2213C127.203 90.7392 127.096 90.3067 126.884 89.9239C126.676 89.541 126.387 89.2361 126.019 89.0092C125.65 88.7824 125.229 88.6689 124.757 88.6689C124.402 88.6689 124.074 88.7351 123.771 88.8674C123.473 88.9998 123.211 89.1841 122.984 89.4205C122.762 89.6568 122.587 89.9309 122.46 90.2429C122.332 90.5501 122.268 90.8786 122.268 91.2284C122.268 91.6964 122.375 92.1241 122.587 92.5117C122.805 92.8993 123.098 93.2089 123.466 93.4405C123.84 93.6721 124.263 93.7879 124.736 93.7879ZM138.674 81.4796V96H135.605V84.3936H135.519L132.194 86.4781V83.7555L135.789 81.4796H138.674ZM143.139 96.1843C142.671 96.1843 142.27 96.0189 141.934 95.688C141.603 95.3524 141.438 94.9507 141.438 94.4827C141.438 94.0195 141.603 93.6225 141.934 93.2916C142.27 92.9607 142.671 92.7953 143.139 92.7953C143.593 92.7953 143.99 92.9607 144.331 93.2916C144.671 93.6225 144.841 94.0195 144.841 94.4827C144.841 94.7947 144.761 95.0807 144.6 95.3406C144.444 95.5959 144.238 95.8015 143.983 95.9575C143.728 96.1087 143.447 96.1843 143.139 96.1843ZM152.401 96.3191C151.181 96.3143 150.132 96.0142 149.253 95.4186C148.378 94.8231 147.705 93.9604 147.232 92.8308C146.764 91.7011 146.533 90.3422 146.537 88.754C146.537 87.1706 146.771 85.8211 147.239 84.7056C147.712 83.5901 148.385 82.7417 149.26 82.1603C150.139 81.5742 151.186 81.2811 152.401 81.2811C153.616 81.2811 154.66 81.5742 155.535 82.1603C156.414 82.7464 157.09 83.5972 157.562 84.7127C158.035 85.8235 158.269 87.1706 158.264 88.754C158.264 90.3469 158.028 91.7082 157.555 92.8379C157.087 93.9675 156.416 94.8301 155.542 95.4257C154.667 96.0213 153.62 96.3191 152.401 96.3191ZM152.401 93.7737C153.233 93.7737 153.897 93.3554 154.393 92.5188C154.889 91.6822 155.135 90.4272 155.13 88.754C155.13 87.6527 155.017 86.7357 154.79 86.0031C154.568 85.2704 154.251 84.7198 153.84 84.3511C153.434 83.9824 152.954 83.7981 152.401 83.7981C151.574 83.7981 150.912 84.2117 150.416 85.0388C149.919 85.866 149.669 87.1044 149.664 88.754C149.664 89.8695 149.775 90.8007 149.997 91.5475C150.224 92.2896 150.543 92.8473 150.954 93.2207C151.366 93.5894 151.848 93.7737 152.401 93.7737ZM166.147 96.3191C164.927 96.3143 163.878 96.0142 162.999 95.4186C162.124 94.8231 161.451 93.9604 160.978 92.8308C160.51 91.7011 160.278 90.3422 160.283 88.754C160.283 87.1706 160.517 85.8211 160.985 84.7056C161.458 83.5901 162.131 82.7417 163.006 82.1603C163.885 81.5742 164.932 81.2811 166.147 81.2811C167.361 81.2811 168.406 81.5742 169.28 82.1603C170.159 82.7464 170.835 83.5972 171.308 84.7127C171.781 85.8235 172.015 87.1706 172.01 88.754C172.01 90.3469 171.774 91.7082 171.301 92.8379C170.833 93.9675 170.162 94.8301 169.287 95.4257C168.413 96.0213 167.366 96.3191 166.147 96.3191ZM166.147 93.7737C166.978 93.7737 167.643 93.3554 168.139 92.5188C168.635 91.6822 168.881 90.4272 168.876 88.754C168.876 87.6527 168.763 86.7357 168.536 86.0031C168.314 85.2704 167.997 84.7198 167.586 84.3511C167.179 83.9824 166.7 83.7981 166.147 83.7981C165.319 83.7981 164.658 84.2117 164.161 85.0388C163.665 85.866 163.415 87.1044 163.41 88.754C163.41 89.8695 163.521 90.8007 163.743 91.5475C163.97 92.2896 164.289 92.8473 164.7 93.2207C165.111 93.5894 165.594 93.7737 166.147 93.7737ZM179.892 96.3191C178.673 96.3143 177.623 96.0142 176.744 95.4186C175.87 94.8231 175.196 93.9604 174.724 92.8308C174.256 91.7011 174.024 90.3422 174.029 88.754C174.029 87.1706 174.263 85.8211 174.731 84.7056C175.203 83.5901 175.877 82.7417 176.751 82.1603C177.631 81.5742 178.678 81.2811 179.892 81.2811C181.107 81.2811 182.152 81.5742 183.026 82.1603C183.905 82.7464 184.581 83.5972 185.054 84.7127C185.526 85.8235 185.76 87.1706 185.756 88.754C185.756 90.3469 185.519 91.7082 185.047 92.8379C184.579 93.9675 183.908 94.8301 183.033 95.4257C182.159 96.0213 181.112 96.3191 179.892 96.3191ZM179.892 93.7737C180.724 93.7737 181.388 93.3554 181.885 92.5188C182.381 91.6822 182.627 90.4272 182.622 88.754C182.622 87.6527 182.509 86.7357 182.282 86.0031C182.059 85.2704 181.743 84.7198 181.332 84.3511C180.925 83.9824 180.445 83.7981 179.892 83.7981C179.065 83.7981 178.403 84.2117 177.907 85.0388C177.411 85.866 177.16 87.1044 177.156 88.754C177.156 89.8695 177.267 90.8007 177.489 91.5475C177.716 92.2896 178.035 92.8473 178.446 93.2207C178.857 93.5894 179.339 93.7737 179.892 93.7737Z" fill="#060C3C"/>
<rect x="30" y="21" width="250" height="109" rx="16" fill="#9585F3" fill-opacity="0.05"/>
<defs>
<filter id="filter0_d_0_1" x="0.362361" y="0.253488" width="309.465" height="168.598" filterUnits="userSpaceOnUse" color-interpolation-filters="sRGB">
<feFlood flood-opacity="0" result="BackgroundImageFix"/>
<feColorMatrix in="SourceAlpha" type="matrix" values="0 0 0 0 0 0 0 0 0 0 0 0 0 0 0 0 0 0 127 0" result="hardAlpha"/>
<feMorphology radius="2.21839" operator="erode" in="SourceAlpha" result="effect1_dropShadow_0_1"/>
<feOffset dy="8.87355"/>
<feGaussianBlur stdDeviation="22.1839"/>
<feColorMatrix type="matrix" values="0 0 0 0 0.0235294 0 0 0 0 0.0470588 0 0 0 0 0.231373 0 0 0 0.08 0"/>
<feBlend mode="normal" in2="BackgroundImageFix" result="effect1_dropShadow_0_1"/>
<feBlend mode="normal" in="SourceGraphic" in2="effect1_dropShadow_0_1" result="shape"/>
</filter>
<clipPath id="clip0_0_1">
<rect width="44.3677" height="44.3677" fill="white" transform="translate(60.2578 51.2764)"/>
</clipPath>
</defs>
</svg>
