<svg width="359" height="263" viewBox="0 0 359 263" fill="none" xmlns="http://www.w3.org/2000/svg">
<g opacity="0.2">
<path d="M22.1156 98.4556C21.9056 99.5856 20.8256 100.326 19.6956 100.116C18.5656 99.9056 17.8256 98.8256 18.0356 97.6956C18.2456 96.5656 19.3256 95.8256 20.4556 96.0356C21.5856 96.2456 22.3256 97.3256 22.1156 98.4556Z" fill="#715DE3"/>
<path d="M38.1859 98.4556C37.9759 99.5856 36.8959 100.326 35.7659 100.116C34.6359 99.9056 33.8959 98.8256 34.1059 97.6956C34.3159 96.5656 35.3959 95.8256 36.5259 96.0356C37.6459 96.2456 38.3859 97.3256 38.1859 98.4556Z" fill="#715DE3"/>
<path d="M54.2465 98.4556C54.0365 99.5856 52.9565 100.326 51.8265 100.116C50.6965 99.9056 49.9565 98.8256 50.1665 97.6956C50.3765 96.5656 51.4565 95.8256 52.5865 96.0356C53.7065 96.2456 54.4565 97.3256 54.2465 98.4556Z" fill="#715DE3"/>
<path d="M70.307 98.4556C70.097 99.5856 69.017 100.326 67.887 100.116C66.757 99.9056 66.017 98.8256 66.227 97.6956C66.437 96.5656 67.517 95.8256 68.647 96.0356C69.767 96.2456 70.517 97.3256 70.307 98.4556Z" fill="#715DE3"/>
<path d="M86.3656 98.4556C86.1556 99.5856 85.0756 100.326 83.9456 100.116C82.8156 99.9056 82.0756 98.8256 82.2856 97.6956C82.4956 96.5656 83.5756 95.8256 84.7056 96.0356C85.8356 96.2456 86.5756 97.3256 86.3656 98.4556Z" fill="#715DE3"/>
<path d="M22.1156 111.986C21.9056 113.116 20.8256 113.856 19.6956 113.646C18.5656 113.436 17.8256 112.356 18.0356 111.226C18.2456 110.096 19.3256 109.356 20.4556 109.566C21.5856 109.776 22.3256 110.856 22.1156 111.986Z" fill="#715DE3"/>
<path d="M38.1859 111.986C37.9759 113.116 36.8959 113.856 35.7659 113.646C34.6359 113.436 33.8959 112.356 34.1059 111.226C34.3159 110.096 35.3959 109.356 36.5259 109.566C37.6459 109.776 38.3859 110.856 38.1859 111.986Z" fill="#715DE3"/>
<path d="M54.2465 111.986C54.0365 113.116 52.9565 113.856 51.8265 113.646C50.6965 113.436 49.9565 112.356 50.1665 111.226C50.3765 110.096 51.4565 109.356 52.5865 109.566C53.7065 109.776 54.4565 110.856 54.2465 111.986Z" fill="#715DE3"/>
<path d="M70.307 111.986C70.097 113.116 69.017 113.856 67.887 113.646C66.757 113.436 66.017 112.356 66.227 111.226C66.437 110.096 67.517 109.356 68.647 109.566C69.767 109.776 70.517 110.856 70.307 111.986Z" fill="#715DE3"/>
<path d="M86.3656 111.986C86.1556 113.116 85.0756 113.856 83.9456 113.646C82.8156 113.436 82.0756 112.356 82.2856 111.226C82.4956 110.096 83.5756 109.356 84.7056 109.566C85.8356 109.776 86.5756 110.856 86.3656 111.986Z" fill="#715DE3"/>
<path d="M22.1156 125.515C21.9056 126.645 20.8256 127.385 19.6956 127.175C18.5656 126.965 17.8256 125.885 18.0356 124.755C18.2456 123.625 19.3256 122.885 20.4556 123.095C21.5856 123.305 22.3256 124.385 22.1156 125.515Z" fill="#715DE3"/>
<path d="M38.1859 125.515C37.9759 126.645 36.8959 127.385 35.7659 127.175C34.6359 126.965 33.8959 125.885 34.1059 124.755C34.3159 123.625 35.3959 122.885 36.5259 123.095C37.6459 123.305 38.3859 124.385 38.1859 125.515Z" fill="#715DE3"/>
<path d="M54.2465 125.515C54.0365 126.645 52.9565 127.385 51.8265 127.175C50.6965 126.965 49.9565 125.885 50.1665 124.755C50.3765 123.625 51.4565 122.885 52.5865 123.095C53.7065 123.305 54.4565 124.385 54.2465 125.515Z" fill="#715DE3"/>
<path d="M70.307 125.515C70.097 126.645 69.017 127.385 67.887 127.175C66.757 126.965 66.017 125.885 66.227 124.755C66.437 123.625 67.517 122.885 68.647 123.095C69.767 123.305 70.517 124.385 70.307 125.515Z" fill="#715DE3"/>
<path d="M86.3656 125.515C86.1556 126.645 85.0756 127.385 83.9456 127.175C82.8156 126.965 82.0756 125.885 82.2856 124.755C82.4956 123.625 83.5756 122.885 84.7056 123.095C85.8356 123.305 86.5756 124.385 86.3656 125.515Z" fill="#715DE3"/>
<path d="M22.1156 139.045C21.9056 140.175 20.8256 140.915 19.6956 140.705C18.5656 140.495 17.8256 139.415 18.0356 138.285C18.2456 137.155 19.3256 136.415 20.4556 136.625C21.5856 136.835 22.3256 137.915 22.1156 139.045Z" fill="#715DE3"/>
<path d="M38.1859 139.045C37.9759 140.175 36.8959 140.915 35.7659 140.705C34.6359 140.495 33.8959 139.415 34.1059 138.285C34.3159 137.155 35.3959 136.415 36.5259 136.625C37.6459 136.835 38.3859 137.915 38.1859 139.045Z" fill="#715DE3"/>
<path d="M54.2465 139.045C54.0365 140.175 52.9565 140.915 51.8265 140.705C50.6965 140.495 49.9565 139.415 50.1665 138.285C50.3765 137.155 51.4565 136.415 52.5865 136.625C53.7065 136.835 54.4565 137.915 54.2465 139.045Z" fill="#715DE3"/>
<path d="M70.307 139.045C70.097 140.175 69.017 140.915 67.887 140.705C66.757 140.495 66.017 139.415 66.227 138.285C66.437 137.155 67.517 136.415 68.647 136.625C69.767 136.835 70.517 137.915 70.307 139.045Z" fill="#715DE3"/>
<path d="M86.3656 139.045C86.1556 140.175 85.0756 140.915 83.9456 140.705C82.8156 140.495 82.0756 139.415 82.2856 138.285C82.4956 137.155 83.5756 136.415 84.7056 136.625C85.8356 136.835 86.5756 137.915 86.3656 139.045Z" fill="#715DE3"/>
<path d="M22.1156 152.576C21.9056 153.706 20.8256 154.446 19.6956 154.236C18.5656 154.026 17.8256 152.946 18.0356 151.816C18.2456 150.686 19.3256 149.946 20.4556 150.156C21.5856 150.366 22.3256 151.446 22.1156 152.576Z" fill="#715DE3"/>
<path d="M38.1859 152.576C37.9759 153.706 36.8959 154.446 35.7659 154.236C34.6359 154.026 33.8959 152.946 34.1059 151.816C34.3159 150.686 35.3959 149.946 36.5259 150.156C37.6559 150.366 38.3859 151.446 38.1859 152.576Z" fill="#715DE3"/>
<path d="M54.2465 152.576C54.0365 153.706 52.9565 154.446 51.8265 154.236C50.6965 154.026 49.9565 152.946 50.1665 151.816C50.3765 150.686 51.4565 149.946 52.5865 150.156C53.7065 150.366 54.4565 151.446 54.2465 152.576Z" fill="#715DE3"/>
<path d="M70.307 152.576C70.097 153.706 69.017 154.446 67.887 154.236C66.757 154.026 66.017 152.946 66.227 151.816C66.437 150.686 67.517 149.946 68.647 150.156C69.767 150.366 70.517 151.446 70.307 152.576Z" fill="#715DE3"/>
<path d="M86.3656 152.576C86.1556 153.706 85.0756 154.446 83.9456 154.236C82.8156 154.026 82.0756 152.946 82.2856 151.816C82.4956 150.686 83.5756 149.946 84.7056 150.156C85.8356 150.366 86.5756 151.446 86.3656 152.576Z" fill="#715DE3"/>
<path d="M22.1156 166.106C21.9056 167.236 20.8256 167.976 19.6956 167.766C18.5656 167.556 17.8256 166.476 18.0356 165.346C18.2456 164.216 19.3256 163.476 20.4556 163.686C21.5856 163.896 22.3256 164.976 22.1156 166.106Z" fill="#715DE3"/>
<path d="M38.1859 166.106C37.9759 167.236 36.8959 167.976 35.7659 167.766C34.6359 167.556 33.8959 166.476 34.1059 165.346C34.3159 164.216 35.3959 163.476 36.5259 163.686C37.6559 163.896 38.3859 164.976 38.1859 166.106Z" fill="#715DE3"/>
<path d="M54.2465 166.106C54.0365 167.236 52.9565 167.976 51.8265 167.766C50.6965 167.556 49.9565 166.476 50.1665 165.346C50.3765 164.216 51.4565 163.476 52.5865 163.686C53.7065 163.896 54.4565 164.976 54.2465 166.106Z" fill="#715DE3"/>
<path d="M70.307 166.106C70.097 167.236 69.017 167.976 67.887 167.766C66.757 167.556 66.017 166.476 66.227 165.346C66.437 164.216 67.517 163.476 68.647 163.686C69.767 163.896 70.517 164.976 70.307 166.106Z" fill="#715DE3"/>
<path d="M86.3656 166.106C86.1556 167.236 85.0756 167.976 83.9456 167.766C82.8156 167.556 82.0756 166.476 82.2856 165.346C82.4956 164.216 83.5756 163.476 84.7056 163.686C85.8356 163.896 86.5756 164.976 86.3656 166.106Z" fill="#715DE3"/>
<path d="M22.1156 179.635C21.9056 180.765 20.8256 181.505 19.6956 181.295C18.5656 181.085 17.8256 180.005 18.0356 178.875C18.2456 177.745 19.3256 177.005 20.4556 177.215C21.5856 177.425 22.3256 178.505 22.1156 179.635Z" fill="#715DE3"/>
<path d="M38.1859 179.635C37.9759 180.765 36.8959 181.505 35.7659 181.295C34.6359 181.085 33.8959 180.005 34.1059 178.875C34.3159 177.745 35.3959 177.005 36.5259 177.215C37.6459 177.425 38.3859 178.505 38.1859 179.635Z" fill="#715DE3"/>
<path d="M54.2465 179.635C54.0365 180.765 52.9565 181.505 51.8265 181.295C50.6965 181.085 49.9565 180.005 50.1665 178.875C50.3765 177.745 51.4565 177.005 52.5865 177.215C53.7065 177.425 54.4565 178.505 54.2465 179.635Z" fill="#715DE3"/>
<path d="M70.307 179.635C70.097 180.765 69.017 181.505 67.887 181.295C66.757 181.085 66.017 180.005 66.227 178.875C66.437 177.745 67.517 177.005 68.647 177.215C69.767 177.425 70.517 178.505 70.307 179.635Z" fill="#715DE3"/>
<path d="M86.3656 179.635C86.1556 180.765 85.0756 181.505 83.9456 181.295C82.8156 181.085 82.0756 180.005 82.2856 178.875C82.4956 177.745 83.5756 177.005 84.7056 177.215C85.8356 177.425 86.5756 178.505 86.3656 179.635Z" fill="#715DE3"/>
<path d="M22.1156 193.166C21.9056 194.296 20.8256 195.036 19.6956 194.826C18.5656 194.616 17.8256 193.536 18.0356 192.406C18.2456 191.276 19.3256 190.536 20.4556 190.746C21.5856 190.956 22.3256 192.036 22.1156 193.166Z" fill="#715DE3"/>
<path d="M38.1859 193.166C37.9759 194.296 36.8959 195.036 35.7659 194.826C34.6359 194.616 33.8959 193.536 34.1059 192.406C34.3159 191.276 35.3959 190.536 36.5259 190.746C37.6459 190.956 38.3859 192.036 38.1859 193.166Z" fill="#715DE3"/>
<path d="M54.2465 193.166C54.0365 194.296 52.9565 195.036 51.8265 194.826C50.6965 194.616 49.9565 193.536 50.1665 192.406C50.3765 191.276 51.4565 190.536 52.5865 190.746C53.7065 190.956 54.4565 192.036 54.2465 193.166Z" fill="#715DE3"/>
<path d="M70.307 193.166C70.097 194.296 69.017 195.036 67.887 194.826C66.757 194.616 66.017 193.536 66.227 192.406C66.437 191.276 67.517 190.536 68.647 190.746C69.767 190.956 70.517 192.036 70.307 193.166Z" fill="#715DE3"/>
<path d="M86.3656 193.166C86.1556 194.296 85.0756 195.036 83.9456 194.826C82.8156 194.616 82.0756 193.536 82.2856 192.406C82.4956 191.276 83.5756 190.536 84.7056 190.746C85.8356 190.956 86.5756 192.036 86.3656 193.166Z" fill="#715DE3"/>
<path d="M22.1156 206.696C21.9056 207.826 20.8256 208.566 19.6956 208.356C18.5656 208.146 17.8256 207.066 18.0356 205.936C18.2456 204.806 19.3256 204.066 20.4556 204.276C21.5856 204.486 22.3256 205.566 22.1156 206.696Z" fill="#715DE3"/>
<path d="M38.1859 206.696C37.9759 207.826 36.8959 208.566 35.7659 208.356C34.6359 208.146 33.8959 207.066 34.1059 205.936C34.3159 204.806 35.3959 204.066 36.5259 204.276C37.6459 204.486 38.3859 205.566 38.1859 206.696Z" fill="#715DE3"/>
<path d="M54.2465 206.696C54.0365 207.826 52.9565 208.566 51.8265 208.356C50.6965 208.146 49.9565 207.066 50.1665 205.936C50.3765 204.806 51.4565 204.066 52.5865 204.276C53.7065 204.486 54.4565 205.566 54.2465 206.696Z" fill="#715DE3"/>
<path d="M70.307 206.696C70.097 207.826 69.017 208.566 67.887 208.356C66.757 208.146 66.017 207.066 66.227 205.936C66.437 204.806 67.517 204.066 68.647 204.276C69.767 204.486 70.517 205.566 70.307 206.696Z" fill="#715DE3"/>
<path d="M86.3656 206.696C86.1556 207.826 85.0756 208.566 83.9456 208.356C82.8156 208.146 82.0756 207.066 82.2856 205.936C82.4956 204.806 83.5756 204.066 84.7056 204.276C85.8356 204.486 86.5756 205.566 86.3656 206.696Z" fill="#715DE3"/>
<path d="M22.1156 220.225C21.9056 221.355 20.8256 222.095 19.6956 221.885C18.5656 221.675 17.8256 220.595 18.0356 219.465C18.2456 218.335 19.3256 217.595 20.4556 217.805C21.5856 218.015 22.3256 219.095 22.1156 220.225Z" fill="#715DE3"/>
<path d="M38.1859 220.225C37.9759 221.355 36.8959 222.095 35.7659 221.885C34.6359 221.675 33.8959 220.595 34.1059 219.465C34.3159 218.335 35.3959 217.595 36.5259 217.805C37.6459 218.015 38.3859 219.095 38.1859 220.225Z" fill="#715DE3"/>
<path d="M54.2465 220.225C54.0365 221.355 52.9565 222.095 51.8265 221.885C50.6965 221.675 49.9565 220.595 50.1665 219.465C50.3765 218.335 51.4565 217.595 52.5865 217.805C53.7065 218.015 54.4565 219.095 54.2465 220.225Z" fill="#715DE3"/>
<path d="M70.307 220.225C70.097 221.355 69.017 222.095 67.887 221.885C66.757 221.675 66.017 220.595 66.227 219.465C66.437 218.335 67.517 217.595 68.647 217.805C69.767 218.015 70.517 219.095 70.307 220.225Z" fill="#715DE3"/>
<path d="M86.3656 220.225C86.1556 221.355 85.0756 222.095 83.9456 221.885C82.8156 221.675 82.0756 220.595 82.2856 219.465C82.4956 218.335 83.5756 217.595 84.7056 217.805C85.8356 218.015 86.5756 219.095 86.3656 220.225Z" fill="#715DE3"/>
<path d="M22.1156 233.755C21.9056 234.885 20.8256 235.625 19.6956 235.415C18.5656 235.205 17.8256 234.125 18.0356 232.995C18.2456 231.865 19.3256 231.125 20.4556 231.335C21.5856 231.545 22.3256 232.625 22.1156 233.755Z" fill="#715DE3"/>
<path d="M38.1859 233.755C37.9759 234.885 36.8959 235.625 35.7659 235.415C34.6359 235.205 33.8959 234.125 34.1059 232.995C34.3159 231.865 35.3959 231.125 36.5259 231.335C37.6459 231.545 38.3859 232.625 38.1859 233.755Z" fill="#715DE3"/>
<path d="M54.2465 233.755C54.0365 234.885 52.9565 235.625 51.8265 235.415C50.6965 235.205 49.9565 234.125 50.1665 232.995C50.3765 231.865 51.4565 231.125 52.5865 231.335C53.7065 231.545 54.4565 232.625 54.2465 233.755Z" fill="#715DE3"/>
<path d="M70.307 233.755C70.097 234.885 69.017 235.625 67.887 235.415C66.757 235.205 66.017 234.125 66.227 232.995C66.437 231.865 67.517 231.125 68.647 231.335C69.767 231.545 70.517 232.625 70.307 233.755Z" fill="#715DE3"/>
<path d="M86.3656 233.755C86.1556 234.885 85.0756 235.625 83.9456 235.415C82.8156 235.205 82.0756 234.125 82.2856 232.995C82.4956 231.865 83.5756 231.125 84.7056 231.335C85.8356 231.545 86.5756 232.625 86.3656 233.755Z" fill="#715DE3"/>
<path d="M102.116 98.4556C101.906 99.5856 100.826 100.326 99.6956 100.116C98.5656 99.9056 97.8256 98.8256 98.0356 97.6956C98.2456 96.5656 99.3256 95.8256 100.456 96.0356C101.586 96.2456 102.326 97.3256 102.116 98.4556Z" fill="#715DE3"/>
<path d="M118.186 98.4556C117.976 99.5856 116.896 100.326 115.766 100.116C114.636 99.9056 113.896 98.8256 114.106 97.6956C114.316 96.5656 115.396 95.8256 116.526 96.0356C117.646 96.2456 118.386 97.3256 118.186 98.4556Z" fill="#715DE3"/>
<path d="M134.246 98.4556C134.036 99.5856 132.956 100.326 131.826 100.116C130.696 99.9056 129.956 98.8256 130.166 97.6956C130.376 96.5656 131.456 95.8256 132.586 96.0356C133.706 96.2456 134.456 97.3256 134.246 98.4556Z" fill="#715DE3"/>
<path d="M150.307 98.4556C150.097 99.5856 149.017 100.326 147.887 100.116C146.757 99.9056 146.017 98.8256 146.227 97.6956C146.437 96.5656 147.517 95.8256 148.647 96.0356C149.767 96.2456 150.517 97.3256 150.307 98.4556Z" fill="#715DE3"/>
<path d="M166.366 98.4556C166.156 99.5856 165.076 100.326 163.946 100.116C162.816 99.9056 162.076 98.8256 162.286 97.6956C162.496 96.5656 163.576 95.8256 164.706 96.0356C165.836 96.2456 166.576 97.3256 166.366 98.4556Z" fill="#715DE3"/>
<path d="M102.116 111.986C101.906 113.116 100.826 113.856 99.6956 113.646C98.5656 113.436 97.8256 112.356 98.0356 111.226C98.2456 110.096 99.3256 109.356 100.456 109.566C101.586 109.776 102.326 110.856 102.116 111.986Z" fill="#715DE3"/>
<path d="M118.186 111.986C117.976 113.116 116.896 113.856 115.766 113.646C114.636 113.436 113.896 112.356 114.106 111.226C114.316 110.096 115.396 109.356 116.526 109.566C117.646 109.776 118.386 110.856 118.186 111.986Z" fill="#715DE3"/>
<path d="M134.246 111.986C134.036 113.116 132.956 113.856 131.826 113.646C130.696 113.436 129.956 112.356 130.166 111.226C130.376 110.096 131.456 109.356 132.586 109.566C133.706 109.776 134.456 110.856 134.246 111.986Z" fill="#715DE3"/>
<path d="M150.307 111.986C150.097 113.116 149.017 113.856 147.887 113.646C146.757 113.436 146.017 112.356 146.227 111.226C146.437 110.096 147.517 109.356 148.647 109.566C149.767 109.776 150.517 110.856 150.307 111.986Z" fill="#715DE3"/>
<path d="M166.366 111.986C166.156 113.116 165.076 113.856 163.946 113.646C162.816 113.436 162.076 112.356 162.286 111.226C162.496 110.096 163.576 109.356 164.706 109.566C165.836 109.776 166.576 110.856 166.366 111.986Z" fill="#715DE3"/>
<path d="M102.116 125.515C101.906 126.645 100.826 127.385 99.6956 127.175C98.5656 126.965 97.8256 125.885 98.0356 124.755C98.2456 123.625 99.3256 122.885 100.456 123.095C101.586 123.305 102.326 124.385 102.116 125.515Z" fill="#715DE3"/>
<path d="M118.186 125.515C117.976 126.645 116.896 127.385 115.766 127.175C114.636 126.965 113.896 125.885 114.106 124.755C114.316 123.625 115.396 122.885 116.526 123.095C117.646 123.305 118.386 124.385 118.186 125.515Z" fill="#715DE3"/>
<path d="M134.246 125.515C134.036 126.645 132.956 127.385 131.826 127.175C130.696 126.965 129.956 125.885 130.166 124.755C130.376 123.625 131.456 122.885 132.586 123.095C133.706 123.305 134.456 124.385 134.246 125.515Z" fill="#715DE3"/>
<path d="M150.307 125.515C150.097 126.645 149.017 127.385 147.887 127.175C146.757 126.965 146.017 125.885 146.227 124.755C146.437 123.625 147.517 122.885 148.647 123.095C149.767 123.305 150.517 124.385 150.307 125.515Z" fill="#715DE3"/>
<path d="M166.366 125.515C166.156 126.645 165.076 127.385 163.946 127.175C162.816 126.965 162.076 125.885 162.286 124.755C162.496 123.625 163.576 122.885 164.706 123.095C165.836 123.305 166.576 124.385 166.366 125.515Z" fill="#715DE3"/>
<path d="M102.116 139.045C101.906 140.175 100.826 140.915 99.6956 140.705C98.5656 140.495 97.8256 139.415 98.0356 138.285C98.2456 137.155 99.3256 136.415 100.456 136.625C101.586 136.835 102.326 137.915 102.116 139.045Z" fill="#715DE3"/>
<path d="M118.186 139.045C117.976 140.175 116.896 140.915 115.766 140.705C114.636 140.495 113.896 139.415 114.106 138.285C114.316 137.155 115.396 136.415 116.526 136.625C117.646 136.835 118.386 137.915 118.186 139.045Z" fill="#715DE3"/>
<path d="M134.246 139.045C134.036 140.175 132.956 140.915 131.826 140.705C130.696 140.495 129.956 139.415 130.166 138.285C130.376 137.155 131.456 136.415 132.586 136.625C133.706 136.835 134.456 137.915 134.246 139.045Z" fill="#715DE3"/>
<path d="M150.307 139.045C150.097 140.175 149.017 140.915 147.887 140.705C146.757 140.495 146.017 139.415 146.227 138.285C146.437 137.155 147.517 136.415 148.647 136.625C149.767 136.835 150.517 137.915 150.307 139.045Z" fill="#715DE3"/>
<path d="M166.366 139.045C166.156 140.175 165.076 140.915 163.946 140.705C162.816 140.495 162.076 139.415 162.286 138.285C162.496 137.155 163.576 136.415 164.706 136.625C165.836 136.835 166.576 137.915 166.366 139.045Z" fill="#715DE3"/>
<path d="M102.116 152.576C101.906 153.706 100.826 154.446 99.6956 154.236C98.5656 154.026 97.8256 152.946 98.0356 151.816C98.2456 150.686 99.3256 149.946 100.456 150.156C101.586 150.366 102.326 151.446 102.116 152.576Z" fill="#715DE3"/>
<path d="M118.186 152.576C117.976 153.706 116.896 154.446 115.766 154.236C114.636 154.026 113.896 152.946 114.106 151.816C114.316 150.686 115.396 149.946 116.526 150.156C117.656 150.366 118.386 151.446 118.186 152.576Z" fill="#715DE3"/>
<path d="M134.246 152.576C134.036 153.706 132.956 154.446 131.826 154.236C130.696 154.026 129.956 152.946 130.166 151.816C130.376 150.686 131.456 149.946 132.586 150.156C133.706 150.366 134.456 151.446 134.246 152.576Z" fill="#715DE3"/>
<path d="M150.307 152.576C150.097 153.706 149.017 154.446 147.887 154.236C146.757 154.026 146.017 152.946 146.227 151.816C146.437 150.686 147.517 149.946 148.647 150.156C149.767 150.366 150.517 151.446 150.307 152.576Z" fill="#715DE3"/>
<path d="M166.366 152.576C166.156 153.706 165.076 154.446 163.946 154.236C162.816 154.026 162.076 152.946 162.286 151.816C162.496 150.686 163.576 149.946 164.706 150.156C165.836 150.366 166.576 151.446 166.366 152.576Z" fill="#715DE3"/>
<path d="M102.116 166.106C101.906 167.236 100.826 167.976 99.6956 167.766C98.5656 167.556 97.8256 166.476 98.0356 165.346C98.2456 164.216 99.3256 163.476 100.456 163.686C101.586 163.896 102.326 164.976 102.116 166.106Z" fill="#715DE3"/>
<path d="M118.186 166.106C117.976 167.236 116.896 167.976 115.766 167.766C114.636 167.556 113.896 166.476 114.106 165.346C114.316 164.216 115.396 163.476 116.526 163.686C117.656 163.896 118.386 164.976 118.186 166.106Z" fill="#715DE3"/>
<path d="M134.246 166.106C134.036 167.236 132.956 167.976 131.826 167.766C130.696 167.556 129.956 166.476 130.166 165.346C130.376 164.216 131.456 163.476 132.586 163.686C133.706 163.896 134.456 164.976 134.246 166.106Z" fill="#715DE3"/>
<path d="M150.307 166.106C150.097 167.236 149.017 167.976 147.887 167.766C146.757 167.556 146.017 166.476 146.227 165.346C146.437 164.216 147.517 163.476 148.647 163.686C149.767 163.896 150.517 164.976 150.307 166.106Z" fill="#715DE3"/>
<path d="M166.366 166.106C166.156 167.236 165.076 167.976 163.946 167.766C162.816 167.556 162.076 166.476 162.286 165.346C162.496 164.216 163.576 163.476 164.706 163.686C165.836 163.896 166.576 164.976 166.366 166.106Z" fill="#715DE3"/>
<path d="M102.116 179.635C101.906 180.765 100.826 181.505 99.6956 181.295C98.5656 181.085 97.8256 180.005 98.0356 178.875C98.2456 177.745 99.3256 177.005 100.456 177.215C101.586 177.425 102.326 178.505 102.116 179.635Z" fill="#715DE3"/>
<path d="M118.186 179.635C117.976 180.765 116.896 181.505 115.766 181.295C114.636 181.085 113.896 180.005 114.106 178.875C114.316 177.745 115.396 177.005 116.526 177.215C117.646 177.425 118.386 178.505 118.186 179.635Z" fill="#715DE3"/>
<path d="M134.246 179.635C134.036 180.765 132.956 181.505 131.826 181.295C130.696 181.085 129.956 180.005 130.166 178.875C130.376 177.745 131.456 177.005 132.586 177.215C133.706 177.425 134.456 178.505 134.246 179.635Z" fill="#715DE3"/>
<path d="M150.307 179.635C150.097 180.765 149.017 181.505 147.887 181.295C146.757 181.085 146.017 180.005 146.227 178.875C146.437 177.745 147.517 177.005 148.647 177.215C149.767 177.425 150.517 178.505 150.307 179.635Z" fill="#715DE3"/>
<path d="M166.366 179.635C166.156 180.765 165.076 181.505 163.946 181.295C162.816 181.085 162.076 180.005 162.286 178.875C162.496 177.745 163.576 177.005 164.706 177.215C165.836 177.425 166.576 178.505 166.366 179.635Z" fill="#715DE3"/>
<path d="M102.116 193.166C101.906 194.296 100.826 195.036 99.6956 194.826C98.5656 194.616 97.8256 193.536 98.0356 192.406C98.2456 191.276 99.3256 190.536 100.456 190.746C101.586 190.956 102.326 192.036 102.116 193.166Z" fill="#715DE3"/>
<path d="M118.186 193.166C117.976 194.296 116.896 195.036 115.766 194.826C114.636 194.616 113.896 193.536 114.106 192.406C114.316 191.276 115.396 190.536 116.526 190.746C117.646 190.956 118.386 192.036 118.186 193.166Z" fill="#715DE3"/>
<path d="M134.246 193.166C134.036 194.296 132.956 195.036 131.826 194.826C130.696 194.616 129.956 193.536 130.166 192.406C130.376 191.276 131.456 190.536 132.586 190.746C133.706 190.956 134.456 192.036 134.246 193.166Z" fill="#715DE3"/>
<path d="M150.307 193.166C150.097 194.296 149.017 195.036 147.887 194.826C146.757 194.616 146.017 193.536 146.227 192.406C146.437 191.276 147.517 190.536 148.647 190.746C149.767 190.956 150.517 192.036 150.307 193.166Z" fill="#715DE3"/>
<path d="M166.366 193.166C166.156 194.296 165.076 195.036 163.946 194.826C162.816 194.616 162.076 193.536 162.286 192.406C162.496 191.276 163.576 190.536 164.706 190.746C165.836 190.956 166.576 192.036 166.366 193.166Z" fill="#715DE3"/>
<path d="M102.116 206.696C101.906 207.826 100.826 208.566 99.6956 208.356C98.5656 208.146 97.8256 207.066 98.0356 205.936C98.2456 204.806 99.3256 204.066 100.456 204.276C101.586 204.486 102.326 205.566 102.116 206.696Z" fill="#715DE3"/>
<path d="M118.186 206.696C117.976 207.826 116.896 208.566 115.766 208.356C114.636 208.146 113.896 207.066 114.106 205.936C114.316 204.806 115.396 204.066 116.526 204.276C117.646 204.486 118.386 205.566 118.186 206.696Z" fill="#715DE3"/>
<path d="M134.246 206.696C134.036 207.826 132.956 208.566 131.826 208.356C130.696 208.146 129.956 207.066 130.166 205.936C130.376 204.806 131.456 204.066 132.586 204.276C133.706 204.486 134.456 205.566 134.246 206.696Z" fill="#715DE3"/>
<path d="M150.307 206.696C150.097 207.826 149.017 208.566 147.887 208.356C146.757 208.146 146.017 207.066 146.227 205.936C146.437 204.806 147.517 204.066 148.647 204.276C149.767 204.486 150.517 205.566 150.307 206.696Z" fill="#715DE3"/>
<path d="M166.366 206.696C166.156 207.826 165.076 208.566 163.946 208.356C162.816 208.146 162.076 207.066 162.286 205.936C162.496 204.806 163.576 204.066 164.706 204.276C165.836 204.486 166.576 205.566 166.366 206.696Z" fill="#715DE3"/>
<path d="M102.116 220.225C101.906 221.355 100.826 222.095 99.6956 221.885C98.5656 221.675 97.8256 220.595 98.0356 219.465C98.2456 218.335 99.3256 217.595 100.456 217.805C101.586 218.015 102.326 219.095 102.116 220.225Z" fill="#715DE3"/>
<path d="M118.186 220.225C117.976 221.355 116.896 222.095 115.766 221.885C114.636 221.675 113.896 220.595 114.106 219.465C114.316 218.335 115.396 217.595 116.526 217.805C117.646 218.015 118.386 219.095 118.186 220.225Z" fill="#715DE3"/>
<path d="M134.246 220.225C134.036 221.355 132.956 222.095 131.826 221.885C130.696 221.675 129.956 220.595 130.166 219.465C130.376 218.335 131.456 217.595 132.586 217.805C133.706 218.015 134.456 219.095 134.246 220.225Z" fill="#715DE3"/>
<path d="M150.307 220.225C150.097 221.355 149.017 222.095 147.887 221.885C146.757 221.675 146.017 220.595 146.227 219.465C146.437 218.335 147.517 217.595 148.647 217.805C149.767 218.015 150.517 219.095 150.307 220.225Z" fill="#715DE3"/>
<path d="M166.366 220.225C166.156 221.355 165.076 222.095 163.946 221.885C162.816 221.675 162.076 220.595 162.286 219.465C162.496 218.335 163.576 217.595 164.706 217.805C165.836 218.015 166.576 219.095 166.366 220.225Z" fill="#715DE3"/>
<path d="M102.116 233.755C101.906 234.885 100.826 235.625 99.6956 235.415C98.5656 235.205 97.8256 234.125 98.0356 232.995C98.2456 231.865 99.3256 231.125 100.456 231.335C101.586 231.545 102.326 232.625 102.116 233.755Z" fill="#715DE3"/>
<path d="M118.186 233.755C117.976 234.885 116.896 235.625 115.766 235.415C114.636 235.205 113.896 234.125 114.106 232.995C114.316 231.865 115.396 231.125 116.526 231.335C117.646 231.545 118.386 232.625 118.186 233.755Z" fill="#715DE3"/>
<path d="M134.246 233.755C134.036 234.885 132.956 235.625 131.826 235.415C130.696 235.205 129.956 234.125 130.166 232.995C130.376 231.865 131.456 231.125 132.586 231.335C133.706 231.545 134.456 232.625 134.246 233.755Z" fill="#715DE3"/>
<path d="M150.307 233.755C150.097 234.885 149.017 235.625 147.887 235.415C146.757 235.205 146.017 234.125 146.227 232.995C146.437 231.865 147.517 231.125 148.647 231.335C149.767 231.545 150.517 232.625 150.307 233.755Z" fill="#715DE3"/>
<path d="M166.366 233.755C166.156 234.885 165.076 235.625 163.946 235.415C162.816 235.205 162.076 234.125 162.286 232.995C162.496 231.865 163.576 231.125 164.706 231.335C165.836 231.545 166.576 232.625 166.366 233.755Z" fill="#715DE3"/>
</g>
<g filter="url(#filter0_d_0_1)">
<rect x="44.4844" y="35.3672" width="270.495" height="174.217" rx="6.877" fill="white"/>
</g>
<path d="M263.94 68H261.11V58.8307H264.065C264.955 58.8307 265.716 59.0142 266.349 59.3814C266.981 59.7455 267.467 60.2693 267.804 60.9529C268.141 61.6334 268.31 62.4483 268.31 63.3974C268.31 64.3526 268.14 65.1749 267.799 65.8644C267.459 66.5509 266.964 67.0792 266.313 67.4493C265.662 67.8164 264.871 68 263.94 68ZM262.221 67.015H263.868C264.626 67.015 265.255 66.8688 265.753 66.5762C266.252 66.2837 266.623 65.8674 266.868 65.3271C267.113 64.7869 267.235 64.1436 267.235 63.3974C267.235 62.6572 267.114 62.0199 266.873 61.4857C266.631 60.9484 266.27 60.5365 265.789 60.2499C265.308 59.9604 264.71 59.8157 263.994 59.8157H262.221V67.015ZM272.053 68.1612C271.617 68.1612 271.221 68.0791 270.866 67.9149C270.511 67.7478 270.229 67.5075 270.02 67.1941C269.811 66.8777 269.707 66.4957 269.707 66.0479C269.707 65.6539 269.784 65.3346 269.939 65.0898C270.095 64.8421 270.302 64.6481 270.562 64.5078C270.821 64.3675 271.108 64.263 271.421 64.1944C271.738 64.1227 272.056 64.066 272.375 64.0242C272.793 63.9705 273.132 63.9302 273.391 63.9033C273.654 63.8735 273.845 63.8243 273.964 63.7556C274.087 63.687 274.148 63.5676 274.148 63.3974V63.3616C274.148 62.9199 274.027 62.5766 273.785 62.3318C273.547 62.0871 273.184 61.9647 272.697 61.9647C272.193 61.9647 271.797 62.0752 271.511 62.296C271.224 62.5169 271.023 62.7527 270.906 63.0034L269.904 62.6453C270.083 62.2274 270.321 61.902 270.62 61.6692C270.921 61.4334 271.25 61.2693 271.605 61.1767C271.963 61.0812 272.315 61.0335 272.662 61.0335C272.882 61.0335 273.136 61.0603 273.423 61.114C273.712 61.1648 273.991 61.2707 274.26 61.4319C274.532 61.5931 274.757 61.8364 274.936 62.1617C275.115 62.4871 275.205 62.9228 275.205 63.4691V68H274.148V67.0687H274.094C274.023 67.218 273.903 67.3777 273.736 67.5478C273.569 67.7179 273.347 67.8627 273.069 67.9821C272.791 68.1015 272.453 68.1612 272.053 68.1612ZM272.214 67.212C272.632 67.212 272.984 67.1299 273.27 66.9658C273.56 66.8016 273.778 66.5897 273.924 66.33C274.073 66.0703 274.148 65.7972 274.148 65.5107V64.5436C274.103 64.5973 274.005 64.6466 273.852 64.6913C273.703 64.7331 273.53 64.7704 273.333 64.8033C273.139 64.8331 272.95 64.86 272.765 64.8839C272.582 64.9048 272.435 64.9227 272.321 64.9376C272.047 64.9734 271.79 65.0316 271.551 65.1122C271.315 65.1898 271.124 65.3077 270.978 65.4659C270.835 65.6211 270.763 65.833 270.763 66.1017C270.763 66.4688 270.899 66.7464 271.171 66.9344C271.445 67.1195 271.793 67.212 272.214 67.212ZM277.133 68V61.123H278.19V68H277.133ZM277.67 59.9768C277.464 59.9768 277.287 59.9067 277.138 59.7664C276.991 59.6261 276.918 59.4575 276.918 59.2605C276.918 59.0635 276.991 58.8948 277.138 58.7546C277.287 58.6143 277.464 58.5441 277.67 58.5441C277.876 58.5441 278.052 58.6143 278.199 58.7546C278.348 58.8948 278.423 59.0635 278.423 59.2605C278.423 59.4575 278.348 59.6261 278.199 59.7664C278.052 59.9067 277.876 59.9768 277.67 59.9768ZM281.182 58.8307V68H280.125V58.8307H281.182ZM283.798 70.5789C283.618 70.5789 283.459 70.564 283.318 70.5341C283.178 70.5072 283.081 70.4804 283.027 70.4535L283.296 69.5223C283.553 69.5879 283.78 69.6118 283.977 69.5939C284.174 69.576 284.348 69.4879 284.5 69.3297C284.656 69.1745 284.797 68.9223 284.926 68.5731L285.123 68.0358L282.58 61.123H283.726L285.624 66.6031H285.696L287.594 61.123H288.74L285.821 69.0029C285.69 69.3581 285.527 69.6521 285.333 69.8849C285.139 70.1207 284.914 70.2953 284.657 70.4087C284.403 70.5222 284.117 70.5789 283.798 70.5789Z" fill="#5D6180"/>
<path d="M64.0143 70V58.3299H68.6185C69.4998 58.3299 70.252 58.4876 70.875 58.8029C71.5018 59.1144 71.9786 59.557 72.3053 60.1306C72.6358 60.7004 72.801 61.3709 72.801 62.1421C72.801 62.917 72.6339 63.5837 72.2996 64.1422C71.9653 64.6968 71.4809 65.1223 70.8465 65.4186C70.2159 65.7149 69.4523 65.8631 68.5558 65.8631H65.4731V63.8801H68.1569C68.628 63.8801 69.0193 63.8155 69.3308 63.6863C69.6423 63.5572 69.874 63.3634 70.026 63.1051C70.1817 62.8468 70.2596 62.5258 70.2596 62.1421C70.2596 61.7546 70.1817 61.4279 70.026 61.162C69.874 60.8961 69.6404 60.6947 69.3251 60.558C69.0136 60.4174 68.6204 60.3471 68.1455 60.3471H66.4816V70H64.0143ZM70.3166 64.6892L73.217 70H70.4932L67.6555 64.6892H70.3166ZM78.3469 70.1709C77.4465 70.1709 76.6716 69.9886 76.022 69.6239C75.3762 69.2554 74.8785 68.735 74.529 68.0626C74.1795 67.3864 74.0048 66.5867 74.0048 65.6636C74.0048 64.7633 74.1795 63.9731 74.529 63.2931C74.8785 62.6131 75.3705 62.0832 76.0049 61.7033C76.6431 61.3234 77.3915 61.1335 78.25 61.1335C78.8274 61.1335 79.365 61.2266 79.8626 61.4127C80.3641 61.595 80.8009 61.8705 81.1732 62.239C81.5493 62.6074 81.8418 63.0709 82.0507 63.6293C82.2597 64.184 82.3642 64.8336 82.3642 65.5781V66.2448H74.9735V64.7405H80.0791C80.0791 64.391 80.0032 64.0814 79.8512 63.8117C79.6993 63.542 79.4884 63.3311 79.2187 63.1792C78.9528 63.0234 78.6432 62.9455 78.2899 62.9455C77.9214 62.9455 77.5947 63.031 77.3098 63.202C77.0287 63.3691 76.8083 63.5951 76.6488 63.8801C76.4892 64.1612 76.4076 64.4746 76.4038 64.8203V66.2505C76.4038 66.6836 76.4835 67.0578 76.6431 67.3731C76.8064 67.6884 77.0363 67.9315 77.3326 68.1025C77.6289 68.2734 77.9803 68.3589 78.3868 68.3589C78.6565 68.3589 78.9034 68.3209 79.1275 68.2449C79.3517 68.169 79.5435 68.055 79.7031 67.903C79.8626 67.7511 79.9842 67.5649 80.0677 67.3446L82.3129 67.4928C82.1989 68.0322 81.9653 68.5033 81.612 68.9059C81.2625 69.3048 80.8104 69.6163 80.2558 69.8404C79.705 70.0608 79.0687 70.1709 78.3469 70.1709ZM91.8731 61.2475L88.8132 70H86.078L83.018 61.2475H85.5823L87.4 67.5099H87.4912L89.3032 61.2475H91.8731ZM96.8221 70.1709C95.9218 70.1709 95.1468 69.9886 94.4972 69.6239C93.8514 69.2554 93.3537 68.735 93.0042 68.0626C92.6548 67.3864 92.48 66.5867 92.48 65.6636C92.48 64.7633 92.6548 63.9731 93.0042 63.2931C93.3537 62.6131 93.8457 62.0832 94.4801 61.7033C95.1183 61.3234 95.8667 61.1335 96.7252 61.1335C97.3026 61.1335 97.8402 61.2266 98.3378 61.4127C98.8393 61.595 99.2761 61.8705 99.6484 62.239C100.025 62.6074 100.317 63.0709 100.526 63.6293C100.735 64.184 100.839 64.8336 100.839 65.5781V66.2448H93.4487V64.7405H98.5544C98.5544 64.391 98.4784 64.0814 98.3264 63.8117C98.1745 63.542 97.9636 63.3311 97.6939 63.1792C97.428 63.0234 97.1184 62.9455 96.7651 62.9455C96.3966 62.9455 96.0699 63.031 95.785 63.202C95.5039 63.3691 95.2836 63.5951 95.124 63.8801C94.9645 64.1612 94.8828 64.4746 94.879 64.8203V66.2505C94.879 66.6836 94.9588 67.0578 95.1183 67.3731C95.2817 67.6884 95.5115 67.9315 95.8078 68.1025C96.1041 68.2734 96.4555 68.3589 96.862 68.3589C97.1317 68.3589 97.3786 68.3209 97.6028 68.2449C97.8269 68.169 98.0187 68.055 98.1783 67.903C98.3378 67.7511 98.4594 67.5649 98.543 67.3446L100.788 67.4928C100.674 68.0322 100.44 68.5033 100.087 68.9059C99.7377 69.3048 99.2856 69.6163 98.731 69.8404C98.1802 70.0608 97.5439 70.1709 96.8221 70.1709ZM104.851 64.9399V70H102.423V61.2475H104.737V62.7917H104.84C105.033 62.2826 105.358 61.88 105.814 61.5837C106.27 61.2835 106.823 61.1335 107.472 61.1335C108.08 61.1335 108.61 61.2664 109.062 61.5324C109.514 61.7983 109.865 62.1782 110.116 62.672C110.367 63.1621 110.492 63.7471 110.492 64.4271V70H108.065V64.8602C108.069 64.3245 107.932 63.9066 107.655 63.6065C107.377 63.3026 106.995 63.1507 106.509 63.1507C106.182 63.1507 105.894 63.221 105.643 63.3615C105.396 63.5021 105.202 63.7072 105.062 63.9769C104.925 64.2428 104.855 64.5638 104.851 64.9399ZM118.018 66.2733V61.2475H120.446V70H118.115V68.4102H118.024C117.826 68.923 117.498 69.3352 117.038 69.6467C116.582 69.9582 116.026 70.114 115.369 70.114C114.784 70.114 114.269 69.981 113.824 69.7151C113.38 69.4492 113.032 69.0712 112.782 68.5811C112.535 68.0911 112.409 67.5042 112.405 66.8204V61.2475H114.833V66.3873C114.837 66.9039 114.975 67.3123 115.249 67.6124C115.522 67.9125 115.889 68.0626 116.349 68.0626C116.641 68.0626 116.915 67.9961 117.169 67.8631C117.424 67.7264 117.629 67.5251 117.785 67.2591C117.944 66.9932 118.022 66.6646 118.018 66.2733ZM126.376 70.1709C125.476 70.1709 124.701 69.9886 124.051 69.6239C123.405 69.2554 122.908 68.735 122.558 68.0626C122.209 67.3864 122.034 66.5867 122.034 65.6636C122.034 64.7633 122.209 63.9731 122.558 63.2931C122.908 62.6131 123.4 62.0832 124.034 61.7033C124.672 61.3234 125.421 61.1335 126.279 61.1335C126.857 61.1335 127.394 61.2266 127.892 61.4127C128.393 61.595 128.83 61.8705 129.203 62.239C129.579 62.6074 129.871 63.0709 130.08 63.6293C130.289 64.184 130.393 64.8336 130.393 65.5781V66.2448H123.003V64.7405H128.108C128.108 64.391 128.032 64.0814 127.881 63.8117C127.729 63.542 127.518 63.3311 127.248 63.1792C126.982 63.0234 126.672 62.9455 126.319 62.9455C125.951 62.9455 125.624 63.031 125.339 63.202C125.058 63.3691 124.838 63.5951 124.678 63.8801C124.519 64.1612 124.437 64.4746 124.433 64.8203V66.2505C124.433 66.6836 124.513 67.0578 124.672 67.3731C124.836 67.6884 125.066 67.9315 125.362 68.1025C125.658 68.2734 126.01 68.3589 126.416 68.3589C126.686 68.3589 126.933 68.3209 127.157 68.2449C127.381 68.169 127.573 68.055 127.732 67.903C127.892 67.7511 128.013 67.5649 128.097 67.3446L130.342 67.4928C130.228 68.0322 129.995 68.5033 129.641 68.9059C129.292 69.3048 128.84 69.6163 128.285 69.8404C127.734 70.0608 127.098 70.1709 126.376 70.1709ZM143.475 62.1022C143.395 61.8249 143.283 61.5799 143.139 61.3671C142.995 61.1506 142.818 60.9682 142.609 60.8201C142.404 60.6681 142.168 60.5523 141.903 60.4725C141.64 60.3927 141.35 60.3528 141.031 60.3528C140.434 60.3528 139.91 60.501 139.458 60.7973C139.01 61.0936 138.66 61.5248 138.41 62.0908C138.159 62.653 138.033 63.3406 138.033 64.1536C138.033 64.9665 138.157 65.6579 138.404 66.2277C138.651 66.7976 139 67.2325 139.452 67.5326C139.904 67.829 140.438 67.9771 141.054 67.9771C141.612 67.9771 142.089 67.8783 142.484 67.6808C142.883 67.4795 143.187 67.1965 143.395 66.8318C143.608 66.4671 143.715 66.0359 143.715 65.5383L144.216 65.6123H141.207V63.7547H146.091V65.2248C146.091 66.2505 145.874 67.1319 145.441 67.8688C145.008 68.602 144.412 69.1681 143.652 69.5669C142.892 69.962 142.022 70.1596 141.042 70.1596C139.948 70.1596 138.987 69.9183 138.159 69.4359C137.331 68.9496 136.685 68.2601 136.221 67.3674C135.762 66.4709 135.532 65.4072 135.532 64.1764C135.532 63.2305 135.669 62.3871 135.942 61.6463C136.219 60.9018 136.607 60.2712 137.105 59.7545C137.602 59.2379 138.182 58.8447 138.843 58.575C139.504 58.3052 140.22 58.1704 140.991 58.1704C141.652 58.1704 142.267 58.2673 142.837 58.461C143.407 58.6509 143.912 58.9207 144.353 59.2702C144.797 59.6196 145.16 60.0356 145.441 60.5181C145.722 60.9967 145.903 61.5248 145.983 62.1022H143.475ZM147.899 70V61.2475H150.252V62.7746H150.343C150.503 62.2314 150.77 61.8211 151.147 61.5438C151.523 61.2626 151.956 61.1221 152.446 61.1221C152.567 61.1221 152.698 61.1297 152.839 61.1449C152.98 61.1601 153.103 61.181 153.209 61.2076V63.3615C153.095 63.3273 152.938 63.2969 152.736 63.2703C152.535 63.2437 152.351 63.2305 152.184 63.2305C151.827 63.2305 151.507 63.3083 151.226 63.4641C150.949 63.616 150.729 63.8288 150.565 64.1023C150.406 64.3758 150.326 64.6911 150.326 65.0482V70H147.899ZM158.012 70.1709C157.126 70.1709 156.361 69.9829 155.715 69.6068C155.073 69.2269 154.577 68.6989 154.228 68.0227C153.878 67.3427 153.704 66.5544 153.704 65.6579C153.704 64.7538 153.878 63.9636 154.228 63.2874C154.577 62.6074 155.073 62.0794 155.715 61.7033C156.361 61.3234 157.126 61.1335 158.012 61.1335C158.897 61.1335 159.66 61.3234 160.302 61.7033C160.948 62.0794 161.446 62.6074 161.795 63.2874C162.145 63.9636 162.319 64.7538 162.319 65.6579C162.319 66.5544 162.145 67.3427 161.795 68.0227C161.446 68.6989 160.948 69.2269 160.302 69.6068C159.66 69.9829 158.897 70.1709 158.012 70.1709ZM158.023 68.2905C158.426 68.2905 158.762 68.1766 159.032 67.9486C159.301 67.7169 159.505 67.4016 159.641 67.0027C159.782 66.6038 159.852 66.1499 159.852 65.6408C159.852 65.1318 159.782 64.6778 159.641 64.2789C159.505 63.8801 159.301 63.5648 159.032 63.333C158.762 63.1013 158.426 62.9854 158.023 62.9854C157.616 62.9854 157.275 63.1013 156.997 63.333C156.724 63.5648 156.517 63.8801 156.376 64.2789C156.239 64.6778 156.171 65.1318 156.171 65.6408C156.171 66.1499 156.239 66.6038 156.376 67.0027C156.517 67.4016 156.724 67.7169 156.997 67.9486C157.275 68.1766 157.616 68.2905 158.023 68.2905ZM165.405 70L163.023 61.2475H165.479L166.835 67.1281H166.915L168.328 61.2475H170.739L172.175 67.0939H172.249L173.582 61.2475H176.032L173.656 70H171.086L169.582 64.4955H169.474L167.969 70H165.405ZM181.983 61.2475V63.0709H176.712V61.2475H181.983ZM177.909 59.1505H180.336V67.3104C180.336 67.5345 180.37 67.7093 180.439 67.8347C180.507 67.9562 180.602 68.0417 180.723 68.0911C180.849 68.1405 180.993 68.1652 181.157 68.1652C181.27 68.1652 181.384 68.1557 181.498 68.1367C181.612 68.1139 181.7 68.0968 181.761 68.0854L182.142 69.8917C182.021 69.9297 181.85 69.9734 181.629 70.0228C181.409 70.076 181.141 70.1083 180.826 70.1197C180.241 70.1425 179.728 70.0646 179.287 69.886C178.851 69.7075 178.511 69.4302 178.267 69.0541C178.024 68.678 177.905 68.2031 177.909 67.6295V59.1505ZM186.18 64.9399V70H183.752V58.3299H186.111V62.7917H186.214C186.411 62.275 186.73 61.8705 187.171 61.578C187.612 61.2816 188.164 61.1335 188.829 61.1335C189.437 61.1335 189.967 61.2664 190.419 61.5324C190.875 61.7945 191.228 62.1725 191.479 62.6663C191.733 63.1564 191.859 63.7433 191.855 64.4271V70H189.428V64.8602C189.431 64.3207 189.295 63.9009 189.017 63.6008C188.744 63.3007 188.36 63.1507 187.866 63.1507C187.536 63.1507 187.243 63.221 186.989 63.3615C186.738 63.5021 186.54 63.7072 186.396 63.9769C186.256 64.2428 186.183 64.5638 186.18 64.9399Z" fill="#060C3C"/>
<path d="M71.9922 135.645C71.9922 133.435 73.783 131.645 75.9922 131.645H88.6232C90.8323 131.645 92.6232 133.435 92.6232 135.645V187.245C92.6232 189.454 90.8323 191.245 88.6232 191.245H75.9922C73.7831 191.245 71.9922 189.454 71.9922 187.245V135.645Z" fill="#9374FF"/>
<path d="M110.961 103.553C110.961 101.344 112.752 99.5527 114.961 99.5527H127.592C129.801 99.5527 131.592 101.344 131.592 103.553V187.246C131.592 189.455 129.801 191.246 127.592 191.246H114.961C112.752 191.246 110.961 189.455 110.961 187.246V103.553Z" fill="#FFDC60"/>
<path d="M149.932 148.253C149.932 146.044 151.723 144.253 153.932 144.253H166.563C168.772 144.253 170.563 146.044 170.563 148.253V187.246C170.563 189.455 168.772 191.246 166.563 191.246H153.932C151.723 191.246 149.932 189.455 149.932 187.246V148.253Z" fill="#FF80AD"/>
<path d="M188.902 126.476C188.902 124.266 190.693 122.476 192.902 122.476H205.533C207.742 122.476 209.533 124.266 209.533 126.476V187.246C209.533 189.455 207.742 191.246 205.533 191.246H192.902C190.693 191.246 188.902 189.455 188.902 187.246V126.476Z" fill="#508AFF"/>
<path d="M227.871 167.738C227.871 165.529 229.662 163.738 231.871 163.738H244.502C246.711 163.738 248.502 165.529 248.502 167.738V187.246C248.502 189.455 246.711 191.246 244.502 191.246H231.871C229.662 191.246 227.871 189.455 227.871 187.246V167.738Z" fill="#FFDC60"/>
<path d="M266.84 116.161C266.84 113.952 268.631 112.161 270.84 112.161H283.471C285.68 112.161 287.471 113.952 287.471 116.161V187.247C287.471 189.456 285.68 191.247 283.471 191.247H270.84C268.631 191.247 266.84 189.456 266.84 187.247V116.161Z" fill="#9476FD"/>
<defs>
<filter id="filter0_d_0_1" x="0.93004" y="0.982186" width="357.605" height="261.326" filterUnits="userSpaceOnUse" color-interpolation-filters="sRGB">
<feFlood flood-opacity="0" result="BackgroundImageFix"/>
<feColorMatrix in="SourceAlpha" type="matrix" values="0 0 0 0 0 0 0 0 0 0 0 0 0 0 0 0 0 0 127 0" result="hardAlpha"/>
<feMorphology radius="2.29233" operator="erode" in="SourceAlpha" result="effect1_dropShadow_0_1"/>
<feOffset dy="9.16933"/>
<feGaussianBlur stdDeviation="22.9233"/>
<feColorMatrix type="matrix" values="0 0 0 0 0.0235294 0 0 0 0 0.0470588 0 0 0 0 0.231373 0 0 0 0.08 0"/>
<feBlend mode="normal" in2="BackgroundImageFix" result="effect1_dropShadow_0_1"/>
<feBlend mode="normal" in="SourceGraphic" in2="effect1_dropShadow_0_1" result="shape"/>
</filter>
</defs>
</svg>
