<svg width="60" height="60" viewBox="0 0 60 60" fill="none" xmlns="http://www.w3.org/2000/svg">
<path d="M50.6745 40.6625L52.4383 30.463C52.8788 27.9155 50.9198 25.5855 48.3373 25.5855H35.3845C34.1008 25.5855 33.1233 24.4332 33.331 23.165L34.9878 13.0536C35.2568 11.4109 35.18 9.73001 34.762 8.11881C34.4158 6.78411 33.386 5.71238 32.0318 5.27733L31.6693 5.16088C30.8508 4.89796 29.9575 4.95913 29.1858 5.33098C28.3365 5.74028 27.715 6.48683 27.4848 7.37473L26.2955 11.9594C25.917 13.4181 25.366 14.8261 24.6552 16.1566C23.6168 18.1004 22.0114 19.6562 20.3425 21.0942L16.7457 24.1937C15.7316 25.0678 15.199 26.3765 15.3144 27.711L17.3448 51.1928C17.531 53.3465 19.3318 55 21.4912 55H33.1128C41.816 55 49.2435 48.936 50.6745 40.6625Z" fill="#715DE3"/>
<path fill-rule="evenodd" clip-rule="evenodd" d="M7.41917 23.7127C8.42232 23.6694 9.28153 24.4241 9.36803 25.4245L11.797 53.5158C11.9531 55.3203 10.5317 56.8755 8.71678 56.8755C7.00723 56.8755 5.625 55.4885 5.625 53.7823V25.586C5.625 24.5819 6.416 23.756 7.41917 23.7127Z" fill="#715DE3"/>
</svg>
