<svg width="21" height="21" viewBox="0 0 21 21" fill="none" xmlns="http://www.w3.org/2000/svg">
<path fill-rule="evenodd" clip-rule="evenodd" d="M10.1012 20.4695C12.0882 20.4713 14.0311 19.8913 15.6841 18.8027C17.3372 17.7142 18.626 16.166 19.3877 14.3541C20.1494 12.5422 20.3497 10.548 19.9632 8.62367C19.5767 6.69938 18.6208 4.93149 17.2165 3.54366C15.8121 2.15583 14.0224 1.21041 12.0737 0.827012C10.1251 0.44361 8.10502 0.63945 6.26911 1.38976C4.4332 2.14006 2.86394 3.41113 1.75984 5.04214C0.655734 6.67316 0.0664071 8.59085 0.0664063 10.5526C0.0664051 13.1811 1.12334 15.7021 3.00496 17.5616C4.88659 19.4211 7.43897 20.467 10.1012 20.4695Z" fill="#1767FE"/>
<path fill-rule="evenodd" clip-rule="evenodd" d="M7.39337 15.1223V9.07499H5.5V15.1223H7.39337ZM7.39337 6.93459C7.39337 6.6867 7.29363 6.44897 7.11609 6.27368C6.93855 6.0984 6.69776 5.99992 6.44668 5.99992C6.19561 5.99992 5.95481 6.0984 5.77728 6.27368C5.59974 6.44897 5.5 6.6867 5.5 6.93459C5.5 7.18248 5.59974 7.42022 5.77728 7.5955C5.95481 7.77079 6.19561 7.86926 6.44668 7.86926C6.69776 7.86926 6.93855 7.77079 7.11609 7.5955C7.29363 7.42022 7.39337 7.18248 7.39337 6.93459ZM10.489 15.1223V11.6827C10.4793 11.5119 10.5018 11.3407 10.5553 11.178C10.6533 10.911 10.8465 10.6883 11.0986 10.5517C11.3508 10.4151 11.6448 10.3739 11.9256 10.4357C12.2063 10.4976 12.4546 10.6583 12.6241 10.8878C12.7936 11.1173 12.8725 11.3999 12.8463 11.6827V15.1223H14.7396V11.5892C14.7396 9.71991 13.7172 8.78524 12.3445 8.78524C11.9627 8.7691 11.5839 8.85745 11.2497 9.04054C10.9156 9.22362 10.6393 9.49431 10.4512 9.82272V9.00956H8.55779C8.55779 9.58906 8.55779 15.0943 8.55779 15.0943L10.489 15.1223Z" fill="white"/>
</svg>
