<svg width="254" height="55" viewBox="0 0 254 55" fill="none" xmlns="http://www.w3.org/2000/svg">
<path d="M29.7599 29.4602C34.7851 31.8175 39.9737 32.9917 44.358 32.7604C44.3845 32.7604 44.411 32.756 44.4376 32.756L44.7514 1.39481C44.7646 0.287312 43.5315 -0.379852 42.6211 0.238387L16.4082 18.0339C18.5296 22.1036 23.4354 26.4891 29.7599 29.4602Z" fill="#A4A7BA"/>
<path d="M43.2629 35.7679C38.6886 35.7679 33.5043 34.5047 28.5057 32.1608C21.611 28.9272 16.4268 24.3105 13.9341 19.707L0.604486 28.7582C-0.43855 29.4654 -0.0584614 31.0933 1.18346 31.2623L23.5645 34.3268C24.8816 34.5092 26.0881 35.163 26.9632 36.1682L41.8353 53.2788C42.6618 54.2306 44.2175 53.6524 44.2308 52.3848L44.3987 35.7368C44.0319 35.759 43.6518 35.7679 43.2629 35.7679Z" fill="#A4A7BA"/>
<path d="M43.2637 33.3893C38.6893 33.3893 33.5051 32.1261 28.5065 29.7821C16.7502 24.2625 9.95281 14.7354 13.0333 8.09039C16.1138 1.44544 27.7374 0.56033 39.4937 6.08C43.3388 7.8858 46.8259 10.2253 49.5749 12.8495C50.1671 13.4144 50.1936 14.3617 49.6324 14.9577C49.0666 15.5537 48.1297 15.5804 47.5374 15.0156C45.0183 12.6093 41.8052 10.4566 38.2429 8.78425C28.3341 4.13188 18.0187 4.3943 15.7249 9.35356C13.4267 14.3128 19.8572 22.43 29.7661 27.0823C34.7912 29.4397 39.9754 30.6139 44.3641 30.3826C48.417 30.1691 51.2278 28.7947 52.2886 26.513C53.3891 24.1335 52.3239 21.4203 51.2367 19.5567C50.8212 18.8451 51.0555 17.9333 51.7626 17.5152C52.4698 17.0971 53.3758 17.3328 53.7912 18.0445C55.8419 21.5449 56.2618 25.0008 54.9757 27.7718C53.4333 31.0987 49.7207 33.0824 44.5232 33.3581C44.1034 33.3804 43.6879 33.3893 43.2637 33.3893Z" fill="#A4A7BA"/>
<path d="M81.27 10.5276V29.6464C81.27 31.5583 81.7374 33.0301 82.6722 34.0619C83.607 35.0937 84.9791 35.6096 86.7884 35.6096C88.5978 35.6096 89.9849 35.0937 90.9499 34.0619C91.9149 33.0301 92.3973 31.5583 92.3973 29.6464V10.5276H100.132V29.6009C100.132 32.4535 99.5291 34.8661 98.3229 36.8387C97.1167 38.8113 95.4883 40.2983 93.4377 41.2997C91.4173 42.3012 89.1556 42.8019 86.6527 42.8019C84.1498 42.8019 81.9033 42.3164 79.913 41.3453C77.9529 40.3438 76.3999 38.8568 75.254 36.8842C74.1081 34.8813 73.5352 32.4535 73.5352 29.6009V10.5276H81.27Z" fill="black"/>
<path d="M113.299 20.6788C114.052 19.4953 115.093 18.5393 116.42 17.811C117.746 17.0826 119.299 16.7185 121.079 16.7185C123.159 16.7185 125.044 17.2496 126.733 18.3117C128.421 19.3739 129.748 20.8912 130.713 22.8638C131.708 24.8364 132.206 27.1276 132.206 29.7374C132.206 32.3473 131.708 34.6537 130.713 36.6566C129.748 38.6292 128.421 40.1617 126.733 41.2542C125.044 42.3164 123.159 42.8475 121.079 42.8475C119.33 42.8475 117.777 42.4833 116.42 41.755C115.093 41.0266 114.052 40.0859 113.299 38.9327V54.5918H105.564V17.0826H113.299V20.6788ZM124.335 29.7374C124.335 27.7952 123.793 26.2779 122.707 25.1854C121.652 24.0625 120.34 23.5011 118.772 23.5011C117.234 23.5011 115.922 24.0625 114.836 25.1854C113.781 26.3082 113.253 27.8407 113.253 29.783C113.253 31.7252 113.781 33.2577 114.836 34.3806C115.922 35.5034 117.234 36.0648 118.772 36.0648C120.31 36.0648 121.621 35.5034 122.707 34.3806C123.793 33.2274 124.335 31.6797 124.335 29.7374Z" fill="black"/>
<path d="M145.853 16.7185C147.632 16.7185 149.185 17.0826 150.512 17.811C151.869 18.5393 152.91 19.4953 153.633 20.6788V17.0826H161.368V42.4378C161.368 44.7745 160.901 46.8836 159.966 48.7652C159.061 50.677 157.659 52.1944 155.759 53.3173C153.89 54.4401 151.553 55.0015 148.748 55.0015C145.009 55.0015 141.978 54.1063 139.656 52.3158C137.334 50.5557 136.008 48.1582 135.676 45.1235H143.32C143.561 46.0946 144.134 46.8533 145.039 47.3995C145.944 47.9761 147.059 48.2644 148.386 48.2644C149.985 48.2644 151.251 47.7941 152.186 46.8533C153.151 45.9429 153.633 44.471 153.633 42.4378V38.8416C152.879 40.0252 151.839 40.9963 150.512 41.755C149.185 42.4833 147.632 42.8475 145.853 42.8475C143.773 42.8475 141.888 42.3164 140.199 41.2542C138.51 40.1617 137.169 38.6292 136.173 36.6566C135.208 34.6537 134.726 32.3473 134.726 29.7374C134.726 27.1276 135.208 24.8364 136.173 22.8638C137.169 20.8912 138.51 19.3739 140.199 18.3117C141.888 17.2496 143.773 16.7185 145.853 16.7185ZM153.633 29.783C153.633 27.8407 153.091 26.3082 152.005 25.1854C150.95 24.0625 149.653 23.5011 148.115 23.5011C146.577 23.5011 145.265 24.0625 144.18 25.1854C143.124 26.2779 142.596 27.7952 142.596 29.7374C142.596 31.6797 143.124 33.2274 144.18 34.3806C145.265 35.5034 146.577 36.0648 148.115 36.0648C149.653 36.0648 150.95 35.5034 152.005 34.3806C153.091 33.2577 153.633 31.7252 153.633 29.783Z" fill="black"/>
<path d="M174.699 8.79785V42.4833H166.964V8.79785H174.699Z" fill="black"/>
<path d="M178.766 29.7374C178.766 27.1276 179.249 24.8364 180.214 22.8638C181.209 20.8912 182.551 19.3739 184.24 18.3117C185.928 17.2496 187.813 16.7185 189.894 16.7185C191.673 16.7185 193.226 17.0826 194.553 17.811C195.91 18.5393 196.95 19.4953 197.674 20.6788V17.0826H205.409V42.4833H197.674V38.8871C196.92 40.0707 195.864 41.0266 194.507 41.755C193.181 42.4833 191.628 42.8475 189.848 42.8475C187.798 42.8475 185.928 42.3164 184.24 41.2542C182.551 40.1617 181.209 38.6292 180.214 36.6566C179.249 34.6537 178.766 32.3473 178.766 29.7374ZM197.674 29.783C197.674 27.8407 197.131 26.3082 196.045 25.1854C194.99 24.0625 193.693 23.5011 192.155 23.5011C190.617 23.5011 189.306 24.0625 188.22 25.1854C187.165 26.2779 186.637 27.7952 186.637 29.7374C186.637 31.6797 187.165 33.2274 188.22 34.3806C189.306 35.5034 190.617 36.0648 192.155 36.0648C193.693 36.0648 194.99 35.5034 196.045 34.3806C197.131 33.2577 197.674 31.7252 197.674 29.783Z" fill="black"/>
<path d="M243.21 16.8095C246.346 16.8095 248.834 17.7655 250.674 19.6773C252.543 21.5892 253.478 24.2446 253.478 27.6435V42.4833H245.789V28.6905C245.789 27.0517 245.351 25.7923 244.477 24.9122C243.633 24.0018 242.456 23.5466 240.949 23.5466C239.441 23.5466 238.25 24.0018 237.375 24.9122C236.531 25.7923 236.109 27.0517 236.109 28.6905V42.4833H228.419V28.6905C228.419 27.0517 227.982 25.7923 227.107 24.9122C226.263 24.0018 225.087 23.5466 223.579 23.5466C222.071 23.5466 220.88 24.0018 220.006 24.9122C219.161 25.7923 218.739 27.0517 218.739 28.6905V42.4833H211.004V17.0826H218.739V20.2691C219.523 19.207 220.549 18.3724 221.815 17.7655C223.082 17.1282 224.514 16.8095 226.112 16.8095C228.012 16.8095 229.701 17.2192 231.178 18.0386C232.686 18.858 233.862 20.0263 234.707 21.5437C235.581 20.1477 236.772 19.0097 238.28 18.1296C239.788 17.2496 241.431 16.8095 243.21 16.8095Z" fill="black"/>
</svg>
