<svg width="252" height="45" viewBox="0 0 252 45" fill="none" xmlns="http://www.w3.org/2000/svg">
<path d="M31.828 9.28211C32.7695 8.33076 33.3545 7.0168 33.3545 5.56638C33.3545 2.66164 31.0144 0.306641 28.128 0.306641C26.3032 0.306641 24.6992 1.2502 23.7655 2.67723C23.5176 2.92677 2.71239 28.7342 2.51868 29.0305C1.57721 29.9818 0.992188 31.2958 0.992188 32.7462C0.992188 35.651 3.33229 38.0059 6.21866 38.0059C8.04348 38.0059 9.64745 37.0624 10.5812 35.6354C10.8291 35.3819 31.6343 9.57844 31.828 9.28211Z" fill="#A4A7BA"/>
<path d="M43.8702 21.5272C44.8156 20.5759 45.4006 19.2619 45.4006 17.8076C45.4006 14.9028 43.0605 12.5479 40.1741 12.5479C38.3493 12.5479 36.7453 13.4914 35.8077 14.9184C35.5559 15.1719 24.6303 28.7247 24.4327 29.025C23.4874 29.9763 22.9023 31.2903 22.9023 32.7446C22.9023 35.6493 25.2424 38.0043 28.1288 38.0043C29.9536 38.0043 31.5576 37.0608 32.4952 35.6337C32.7432 35.3842 43.6726 21.8274 43.8702 21.5272Z" fill="#A4A7BA"/>
<path d="M55.2694 5.56638C55.2694 8.47113 52.9293 10.8261 50.0429 10.8261C47.1565 10.8261 44.8164 8.47113 44.8164 5.56638C44.8164 2.66164 47.1565 0.306641 50.0429 0.306641C52.9293 0.306641 55.2694 2.66164 55.2694 5.56638Z" fill="#A4A7BA"/>
<path d="M11.4412 5.56638C11.4412 8.47113 9.10113 10.8261 6.21475 10.8261C3.32837 10.8261 0.988281 8.47113 0.988281 5.56638C0.988281 2.66164 3.32837 0.306641 6.21475 0.306641C9.10113 0.306641 11.4412 2.66164 11.4412 5.56638Z" fill="#A4A7BA"/>
<path d="M80.3443 35.9702H74.0117V3.69586H80.3443V35.9702Z" fill="black"/>
<path d="M93.2248 23.0878V35.9702H87.2088V13.5739H93.0439V16.3507C93.6771 15.2582 94.5818 14.4236 95.7579 13.847C96.9339 13.2704 98.1703 12.9821 99.467 12.9821C102.09 12.9821 104.081 13.8167 105.438 15.4858C106.825 17.1245 107.518 19.2488 107.518 21.8587V35.9702H101.502V22.9057C101.502 21.5704 101.156 20.4931 100.462 19.6737C99.7987 18.8543 98.7734 18.4446 97.3862 18.4446C96.1197 18.4446 95.1095 18.8847 94.3556 19.7647C93.6018 20.6448 93.2248 21.7525 93.2248 23.0878Z" fill="black"/>
<path d="M134.215 13.5739L125.575 35.9702H119.559L110.467 13.5739H117.071L122.59 28.5958L127.882 13.5739H134.215Z" fill="black"/>
<path d="M141.6 22.2229H151.551C151.491 20.9786 151.039 19.9316 150.194 19.0819C149.38 18.2322 148.174 17.8073 146.576 17.8073C145.128 17.8073 143.952 18.2625 143.048 19.173C142.143 20.0834 141.66 21.1 141.6 22.2229ZM152.139 28.0495L157.16 29.5517C156.557 31.6153 155.366 33.3148 153.587 34.6501C151.838 35.9853 149.652 36.653 147.028 36.653C143.832 36.653 141.118 35.5756 138.886 33.421C136.655 31.236 135.539 28.3227 135.539 24.681C135.539 21.2214 136.625 18.3991 138.796 16.2141C140.967 13.9988 143.53 12.8911 146.485 12.8911C149.923 12.8911 152.607 13.9229 154.537 15.9865C156.497 18.0501 157.477 20.8876 157.477 24.4989C157.477 24.7417 157.462 25.0148 157.432 25.3183C157.432 25.6217 157.432 25.8645 157.432 26.0466L157.386 26.3653H141.464C141.525 27.8219 142.098 29.0358 143.183 30.0069C144.269 30.978 145.566 31.4636 147.073 31.4636C149.637 31.4636 151.325 30.3256 152.139 28.0495Z" fill="black"/>
<path d="M160.315 29.7338L165.471 28.5958C165.531 29.5669 165.908 30.3863 166.602 31.0539C167.326 31.6912 168.306 32.0098 169.542 32.0098C170.477 32.0098 171.201 31.7974 171.713 31.3725C172.226 30.9477 172.482 30.4166 172.482 29.7793C172.482 28.6565 171.683 27.9281 170.085 27.5943L167.145 26.9115C165.064 26.4563 163.496 25.6369 162.441 24.4534C161.415 23.2698 160.903 21.8587 160.903 20.2199C160.903 18.1867 161.687 16.4569 163.255 15.0306C164.853 13.6042 166.843 12.8911 169.226 12.8911C170.733 12.8911 172.06 13.1187 173.206 13.5739C174.352 13.9988 175.242 14.5602 175.875 15.2582C176.508 15.9258 176.991 16.6086 177.322 17.3066C177.654 18.0046 177.865 18.6874 177.955 19.355L172.935 20.4931C172.814 19.704 172.452 19.006 171.849 18.3991C171.276 17.7922 170.417 17.4887 169.271 17.4887C168.487 17.4887 167.808 17.7011 167.235 18.126C166.692 18.5508 166.421 19.0819 166.421 19.7192C166.421 20.8117 167.1 21.4793 168.457 21.7221L171.623 22.4049C173.764 22.8601 175.392 23.6947 176.508 24.9086C177.654 26.1225 178.227 27.5791 178.227 29.2786C178.227 31.2815 177.473 33.0113 175.965 34.468C174.457 35.9246 172.332 36.653 169.587 36.653C168.019 36.653 166.617 36.4254 165.381 35.9702C164.144 35.4846 163.179 34.8777 162.486 34.1493C161.822 33.3906 161.31 32.6471 160.948 31.9188C160.616 31.1601 160.405 30.4318 160.315 29.7338Z" fill="black"/>
<path d="M190.482 6.88232V13.5739H194.96V18.9454H190.482V28.3227C190.482 29.2634 190.693 29.9311 191.115 30.3256C191.538 30.7201 192.201 30.9173 193.106 30.9173C193.92 30.9173 194.538 30.8566 194.96 30.7353V35.7426C194.086 36.1067 192.955 36.2888 191.568 36.2888C189.397 36.2888 187.678 35.6819 186.411 34.468C185.145 33.2237 184.511 31.5243 184.511 29.3696V18.9454H180.486V13.5739H181.617C182.732 13.5739 183.577 13.2552 184.15 12.618C184.753 11.9503 185.054 11.0854 185.054 10.0233V6.88232H190.482Z" fill="black"/>
<path d="M206.087 35.9702H200.071V13.5739H206.087V35.9702ZM199.347 6.24503C199.347 5.21322 199.709 4.33315 200.432 3.60482C201.156 2.84614 202.031 2.4668 203.056 2.4668C204.081 2.4668 204.956 2.83096 205.679 3.5593C206.403 4.28763 206.765 5.18288 206.765 6.24503C206.765 7.24649 206.403 8.11139 205.679 8.83972C204.956 9.56805 204.081 9.93222 203.056 9.93222C202.031 9.93222 201.156 9.56805 200.432 8.83972C199.709 8.11139 199.347 7.24649 199.347 6.24503Z" fill="black"/>
<path d="M222.84 8.02034C221.996 8.02034 221.257 8.26312 220.624 8.74868C220.021 9.20389 219.719 9.99292 219.719 11.1158V13.5739H224.74V18.7633H219.719V35.9702H213.658V18.7633H209.949V13.5739H213.658V11.0247C213.658 8.5059 214.382 6.48781 215.829 4.97044C217.307 3.45308 219.282 2.6944 221.755 2.6944C223.082 2.6944 224.077 2.84614 224.74 3.14961V8.24795C224.228 8.09621 223.594 8.02034 222.84 8.02034Z" fill="black"/>
<path d="M237.444 44.8012H231.066L236.314 33.1479L226.86 13.5739H233.6L239.525 26.6839L244.998 13.5739H251.421L237.444 44.8012Z" fill="black"/>
</svg>
