<svg width="250" height="42" viewBox="0 0 250 42" fill="none" xmlns="http://www.w3.org/2000/svg">
<path d="M48.0458 29.98C47.9028 29.6292 36.0229 5.94311 35.8307 5.61926C35.2049 4.11245 34.1099 2.78556 32.5992 1.89946C28.9074 -0.277532 24.1653 0.968395 22.0021 4.68368C20.5182 7.22951 20.6344 10.2791 22.0468 12.6405C22.1898 12.9914 33.5602 35.6609 33.7524 35.9892C33.8954 36.3401 34.0652 36.6774 34.2619 37.0058C34.8876 38.5126 35.9826 39.8395 37.4933 40.7256C41.1851 42.9026 45.9272 41.6566 48.0905 37.9413C49.5743 35.391 49.4581 32.3459 48.0458 29.98Z" fill="#B5B7C6"/>
<path d="M34.3284 13.956C35.6291 12.5616 36.4246 10.686 36.4246 8.62597C36.4246 4.32145 32.9563 0.831055 28.679 0.831055C26.0465 0.831055 23.7268 2.15344 22.3279 4.16851C22.0731 4.44288 2.78729 28.3629 2.57275 28.6687C1.27213 30.0631 0.476562 31.9387 0.476562 33.9988C0.476562 38.3033 3.94488 41.7937 8.22218 41.7937C10.8547 41.7937 13.1744 40.4713 14.5733 38.4562C14.8281 38.1819 34.1139 14.2619 34.3284 13.956Z" fill="#A4A7BA"/>
<path d="M67.5199 13.956C68.8205 12.5616 69.616 10.686 69.616 8.62597C69.616 4.32145 66.1477 0.831055 61.8704 0.831055C59.2379 0.831055 56.9182 2.15344 55.5193 4.16851C55.2645 4.44288 35.9787 28.3629 35.7642 28.6687C34.4635 30.0631 33.668 31.9387 33.668 33.9988C33.668 38.3033 37.1363 41.7937 41.4136 41.7937C44.0461 41.7937 46.3658 40.4713 47.7647 38.4562C48.0195 38.1819 67.3053 14.2619 67.5199 13.956Z" fill="#A4A7BA"/>
<path d="M109.565 38.0039C107.544 34.3926 105.358 30.8268 103.006 27.3065C100.654 23.7862 98.1508 20.4632 95.4971 17.3374V38.0039H88.5312V6.45792H94.2758C95.271 7.45938 96.3716 8.68844 97.5779 10.1451C98.7841 11.6018 100.005 13.1647 101.242 14.8338C102.508 16.4725 103.76 18.1871 104.996 19.9776C106.232 21.7378 107.393 23.4372 108.479 25.076V6.45792H115.49V38.0039H109.565Z" fill="black"/>
<path d="M142.578 37.1845C141.432 37.5183 139.955 37.8218 138.146 38.0949C136.336 38.3984 134.436 38.5501 132.446 38.5501C130.426 38.5501 128.737 38.277 127.38 37.7308C126.053 37.1845 124.998 36.4258 124.214 35.4547C123.43 34.4533 122.872 33.2697 122.54 31.9041C122.208 30.5385 122.043 29.0363 122.043 27.3975V14.0599H128.782V26.5781C128.782 28.7631 129.069 30.3412 129.642 31.3123C130.215 32.2834 131.285 32.769 132.853 32.769C133.336 32.769 133.848 32.7538 134.391 32.7235C134.934 32.6628 135.416 32.6021 135.839 32.5414V14.0599H142.578V37.1845Z" fill="black"/>
<path d="M148.679 8.09667L155.419 7.00417V14.0599H163.515V19.7045H155.419V28.1259C155.419 29.5522 155.66 30.6902 156.142 31.5399C156.655 32.3896 157.665 32.8145 159.173 32.8145C159.897 32.8145 160.635 32.7538 161.389 32.6324C162.173 32.4807 162.882 32.2834 163.515 32.0406L164.465 37.3211C163.651 37.6549 162.746 37.9432 161.751 38.186C160.756 38.4287 159.535 38.5501 158.087 38.5501C156.248 38.5501 154.725 38.3074 153.519 37.8218C152.313 37.3059 151.348 36.6079 150.624 35.7278C149.9 34.8174 149.387 33.7249 149.086 32.4503C148.815 31.1758 148.679 29.7646 148.679 28.2169V8.09667Z" fill="black"/>
<path d="M183.343 20.0687C182.739 19.9169 182.031 19.7652 181.217 19.6135C180.402 19.4314 179.528 19.3403 178.593 19.3403C178.171 19.3403 177.658 19.3858 177.055 19.4769C176.482 19.5376 176.045 19.6135 175.743 19.7045V38.0039H169.004V15.3345C170.21 14.9096 171.627 14.5151 173.256 14.1509C174.914 13.7564 176.754 13.5592 178.774 13.5592C179.136 13.5592 179.573 13.5895 180.086 13.6502C180.598 13.6806 181.111 13.7413 181.624 13.8323C182.136 13.893 182.649 13.984 183.162 14.1054C183.674 14.1965 184.112 14.3179 184.473 14.4696L183.343 20.0687Z" fill="black"/>
<path d="M194.826 38.0039H188.086V14.0599H194.826V38.0039ZM195.459 7.14073C195.459 8.38497 195.052 9.37125 194.238 10.0996C193.454 10.7976 192.519 11.1466 191.434 11.1466C190.348 11.1466 189.398 10.7976 188.584 10.0996C187.8 9.37125 187.408 8.38497 187.408 7.14073C187.408 5.89649 187.8 4.92538 188.584 4.2274C189.398 3.49906 190.348 3.1349 191.434 3.1349C192.519 3.1349 193.454 3.49906 194.238 4.2274C195.052 4.92538 195.459 5.89649 195.459 7.14073Z" fill="black"/>
<path d="M210.66 38.4591C208.7 38.4287 207.102 38.2163 205.866 37.8218C204.66 37.4273 203.695 36.881 202.971 36.183C202.277 35.4547 201.795 34.5898 201.523 33.5884C201.282 32.5566 201.162 31.4034 201.162 30.1288V3.77219L207.901 2.67969V28.7631C207.901 29.3701 207.947 29.9163 208.037 30.4019C208.127 30.8875 208.293 31.2971 208.535 31.631C208.806 31.9648 209.183 32.2379 209.665 32.4503C210.148 32.6628 210.796 32.7993 211.61 32.86L210.66 38.4591Z" fill="black"/>
<path d="M222.213 38.0039H215.474V14.0599H222.213V38.0039ZM222.847 7.14073C222.847 8.38497 222.439 9.37125 221.625 10.0996C220.841 10.7976 219.906 11.1466 218.821 11.1466C217.735 11.1466 216.785 10.7976 215.971 10.0996C215.187 9.37125 214.795 8.38497 214.795 7.14073C214.795 5.89649 215.187 4.92538 215.971 4.2274C216.785 3.49906 217.735 3.1349 218.821 3.1349C219.906 3.1349 220.841 3.49906 221.625 4.2274C222.439 4.92538 222.847 5.89649 222.847 7.14073Z" fill="black"/>
<path d="M238.002 21.3432L242.707 14.0599H249.673L241.531 25.5767C243.34 27.8527 244.983 30.0681 246.461 32.2227C247.939 34.3774 249.115 36.3044 249.989 38.0039H242.752C242.511 37.5487 242.209 36.9873 241.847 36.3196C241.485 35.6216 241.078 34.9085 240.626 34.1801C240.174 33.4214 239.691 32.6779 239.179 31.9496C238.696 31.1909 238.214 30.5081 237.731 29.9012C237.279 30.4778 236.811 31.1151 236.329 31.813C235.877 32.511 235.439 33.2242 235.017 33.9525C234.595 34.6505 234.173 35.3485 233.751 36.0465C233.359 36.7445 233.012 37.3969 232.71 38.0039H225.835C226.197 37.2452 226.694 36.35 227.327 35.3182C227.961 34.2863 228.639 33.2242 229.363 32.1317C230.117 31.0088 230.901 29.9012 231.715 28.8087C232.529 27.6858 233.328 26.6388 234.112 25.6677C232.755 23.7558 231.398 21.8288 230.041 19.8866C228.684 17.914 227.343 15.9718 226.016 14.0599H233.298L238.002 21.3432Z" fill="black"/>
</svg>
