<svg width="244" height="37" viewBox="0 0 244 37" fill="none" xmlns="http://www.w3.org/2000/svg">
<path d="M19.119 36.7962C8.79208 36.7962 0.421875 28.3727 0.421875 17.9801V0.100586C10.7488 0.100586 19.119 8.52405 19.119 18.9167V36.7962Z" fill="#A4A7BA"/>
<path d="M20.7578 21.5828V12.0884C20.7578 5.46795 26.0912 0.100586 32.6699 0.100586V9.59816C32.6699 16.2187 27.3364 21.5828 20.7578 21.5828Z" fill="#A4A7BA"/>
<path d="M47.6861 36.7979H34.027C26.6987 36.7979 20.7617 30.82 20.7617 23.4482H34.4209C41.746 23.4482 47.6861 29.4262 47.6861 36.7979Z" fill="#A4A7BA"/>
<path d="M94.2891 35.0017H87.0971L78.4349 19.6839L73.595 25.5561V35.0017H66.7422V2.0901H73.595V17.1575L85.5139 2.0901H93.0904L83.1618 14.8359L94.2891 35.0017Z" fill="black"/>
<path d="M98.3283 35.0017V11.4674H104.819V14.7904C105.181 14.2138 105.648 13.66 106.221 13.1289C106.809 12.5827 107.548 12.135 108.438 11.786C109.327 11.4371 110.383 11.2626 111.604 11.2626C113.037 11.2626 114.371 11.5433 115.607 12.1047C116.859 12.6661 117.869 13.5538 118.638 14.7677C119.407 15.9664 119.791 17.5368 119.791 19.4791V35.0017H113.187V20.2984C113.187 19.0239 112.81 18.0679 112.057 17.4306C111.303 16.7933 110.383 16.4747 109.297 16.4747C108.574 16.4747 107.872 16.6037 107.194 16.8616C106.531 17.1196 105.988 17.5065 105.566 18.0224C105.143 18.5383 104.932 19.1756 104.932 19.9343V35.0017H98.3283Z" fill="black"/>
<path d="M130.569 24.7595C130.554 25.9582 130.743 27.0052 131.135 27.9004C131.527 28.7805 132.092 29.4633 132.831 29.9489C133.585 30.4193 134.489 30.6544 135.545 30.6544C136.676 30.6544 137.663 30.4117 138.508 29.9261C139.367 29.4406 139.963 28.6439 140.294 27.5363H146.242C145.986 29.2054 145.323 30.6317 144.252 31.8152C143.197 32.9988 141.915 33.9016 140.407 34.5237C138.9 35.1458 137.332 35.4569 135.703 35.4569C133.396 35.4569 131.361 34.9713 129.597 34.0002C127.848 33.0139 126.483 31.6256 125.503 29.8351C124.523 28.0446 124.033 25.9354 124.033 23.5077C124.033 21.1558 124.478 19.039 125.367 17.1575C126.257 15.2608 127.546 13.7662 129.235 12.6737C130.939 11.566 132.982 11.0122 135.364 11.0122C137.746 11.0122 139.744 11.5205 141.357 12.5371C142.986 13.5386 144.207 14.9422 145.021 16.7478C145.85 18.5383 146.265 20.6095 146.265 22.9614V24.7595H130.569ZM130.547 20.7992H140.091C140.091 19.8584 139.917 18.9935 139.571 18.2045C139.224 17.4155 138.696 16.7933 137.987 16.3381C137.294 15.8829 136.419 15.6553 135.364 15.6553C134.339 15.6553 133.464 15.9057 132.74 16.4064C132.032 16.892 131.489 17.5293 131.112 18.3183C130.735 19.1073 130.547 19.9343 130.547 20.7992Z" fill="black"/>
<path d="M182.129 11.4674L174.44 35.0017H169.193L164.828 20.7537L160.485 35.0017H155.374L147.797 11.4674H153.632L158.11 26.0568H158.291L162.589 11.4674H167.293L171.635 26.0568H171.816L176.158 11.4674H182.129Z" fill="black"/>
<path d="M192.307 11.4674V35.0017H185.997V11.4674H192.307ZM192.375 2.11287V8.09886H185.952V2.11287H192.375Z" fill="black"/>
<path d="M207.542 35.4569C205.913 35.4569 204.345 35.1914 202.837 34.6603C201.33 34.114 200.056 33.2643 199.015 32.1111C197.975 30.9427 197.312 29.433 197.025 27.5818H202.747C202.943 28.4163 203.297 29.0764 203.81 29.5619C204.338 30.0475 204.933 30.3965 205.597 30.6089C206.26 30.8062 206.893 30.9048 207.496 30.9048C208.763 30.9048 209.781 30.7076 210.55 30.313C211.334 29.9033 211.726 29.2812 211.726 28.4467C211.726 27.8094 211.492 27.3011 211.025 26.9217C210.572 26.5424 209.818 26.2541 208.763 26.0568L204.647 25.1919C202.581 24.7519 200.923 24.0084 199.671 22.9614C198.42 21.8993 197.779 20.3971 197.749 18.4549C197.749 17.0437 198.118 15.7767 198.857 14.6539C199.611 13.531 200.719 12.6434 202.182 11.9909C203.644 11.3384 205.438 11.0122 207.564 11.0122C210.444 11.0122 212.744 11.6495 214.462 12.9241C216.196 14.1987 217.078 15.9967 217.109 18.3183H211.59C211.424 17.4079 210.972 16.7099 210.233 16.2243C209.509 15.7236 208.597 15.4732 207.496 15.4732C206.351 15.4732 205.408 15.6781 204.669 16.0878C203.931 16.4975 203.561 17.1196 203.561 17.9541C203.561 18.5762 203.863 19.0694 204.466 19.4336C205.069 19.7825 206.004 20.086 207.27 20.344L211.07 21.2089C212.382 21.5275 213.445 21.9675 214.259 22.529C215.088 23.0752 215.729 23.6746 216.181 24.327C216.634 24.9795 216.943 25.6396 217.109 26.3072C217.289 26.9597 217.38 27.5514 217.38 28.0825C217.38 29.6454 216.965 30.9807 216.136 32.0884C215.307 33.1809 214.153 34.0154 212.676 34.592C211.198 35.1686 209.487 35.4569 207.542 35.4569Z" fill="black"/>
<path d="M222.012 35.0017V1.17969H228.571V14.8587C228.948 14.3125 229.423 13.7738 229.996 13.2427C230.569 12.6965 231.285 12.2413 232.145 11.8771C233.004 11.5129 234.052 11.3308 235.288 11.3308C236.781 11.3308 238.138 11.6267 239.359 12.2185C240.596 12.7951 241.583 13.6372 242.322 14.7449C243.076 15.8526 243.453 17.203 243.453 18.7963V35.0017H236.826V19.775C236.826 18.7128 236.442 17.901 235.673 17.3396C234.919 16.763 233.999 16.4747 232.914 16.4747C232.205 16.4747 231.519 16.6037 230.855 16.8616C230.192 17.1196 229.649 17.5141 229.227 18.0452C228.82 18.5611 228.616 19.2059 228.616 19.9798V35.0017H222.012Z" fill="black"/>
</svg>
