<svg width="342" height="309" viewBox="0 0 342 309" fill="none" xmlns="http://www.w3.org/2000/svg">
<path d="M146.9 18.0701C138.08 25.1401 129.679 24.2001 123.549 23.5201C118.049 22.9101 115.47 22.7501 111.97 25.5501C108.48 28.3501 108.06 30.9001 107.46 36.4101C106.79 42.5401 105.869 50.9401 97.0495 58.0101C88.2295 65.0801 79.8295 64.1401 73.6995 63.4601C68.1995 62.8501 65.6195 62.6901 62.1195 65.4901C58.6295 68.2901 58.2095 70.8401 57.6095 76.3401C56.9395 82.4701 56.0195 90.8701 47.1995 97.9401C38.3795 105.01 29.9795 104.07 23.8495 103.39C18.3495 102.78 15.7695 102.62 12.2695 105.42L2.26953 92.9301C11.0895 85.8601 19.4895 86.8001 25.6195 87.4801C31.1195 88.0901 33.6995 88.2501 37.1995 85.4501C40.6895 82.6501 41.1095 80.1001 41.7095 74.6001C42.3795 68.4701 43.2995 60.0701 52.1195 53.0001C60.9395 45.9301 69.3395 46.8701 75.4695 47.5501C80.9695 48.1601 83.5495 48.3201 87.0495 45.5201C90.5495 42.7201 90.9595 40.1701 91.5595 34.6601C92.2295 28.5301 93.1495 20.1301 101.97 13.0601C110.79 5.99007 119.19 6.93008 125.32 7.61008C130.82 8.22008 133.4 8.38008 136.9 5.58008L146.9 18.0701Z" fill="#EFECFF"/>
<path d="M136.63 5.24558C139.392 8.69486 138.873 13.9082 134.776 15.5631C128.539 18.0824 122.794 17.4407 118.28 16.94C112.78 16.33 110.2 16.17 106.7 18.97C103.21 21.77 102.79 24.32 102.19 29.83C101.52 35.96 100.6 44.36 91.78 51.43C82.96 58.5 74.56 57.56 68.43 56.88C62.93 56.27 60.35 56.11 56.85 58.91C53.36 61.71 52.94 64.26 52.34 69.76C51.67 75.89 50.75 84.29 41.93 91.36C33.11 98.43 24.71 97.49 18.58 96.81C16.9781 96.6323 15.6238 96.4928 14.4224 96.4535C10.0056 96.3091 4.76153 96.0442 1.99954 92.5944C-0.762098 89.1451 -0.242614 83.9318 3.85438 82.2769C10.0914 79.7576 15.8361 80.3993 20.35 80.9C25.85 81.51 28.43 81.67 31.93 78.87C35.42 76.07 35.84 73.52 36.44 68.02C37.11 61.89 38.03 53.49 46.85 46.42C55.67 39.35 64.07 40.29 70.2 40.97C75.7 41.58 78.28 41.74 81.78 38.94C85.28 36.14 85.69 33.59 86.29 28.08C86.96 21.95 87.88 13.55 96.7 6.48C105.52 -0.590001 113.92 0.350003 120.05 1.03C121.652 1.20767 123.006 1.34717 124.208 1.38647C128.624 1.53095 133.868 1.79585 136.63 5.24558Z" fill="url(#paint0_linear_0_1)" fill-opacity="0.5"/>
<g filter="url(#filter0_d_0_1)">
<rect x="74.5117" y="173.529" width="225.166" height="84.2987" rx="11.3429" fill="white"/>
</g>
<g clip-path="url(#clip0_0_1)">
<path d="M108.606 214.663C106.032 214.663 103.945 216.75 103.945 219.324V230.981C103.945 233.554 106.032 235.642 108.606 235.642C111.179 235.642 113.266 233.554 113.266 230.981V219.324C113.264 216.75 111.177 214.663 108.606 214.663Z" fill="#E91E63"/>
<path d="M92.293 219.325C92.293 221.9 94.382 223.989 96.9571 223.989C99.5323 223.989 101.621 221.9 101.621 219.325V214.661H96.9608C96.959 214.661 96.959 214.661 96.9571 214.661C94.382 214.661 92.293 216.75 92.293 219.325Z" fill="#E91E63"/>
<path d="M108.611 191.274C108.609 191.274 108.607 191.274 108.606 191.274C106.03 191.274 103.941 193.363 103.941 195.939C103.941 198.514 106.03 200.603 108.606 200.603H113.266V195.939C113.266 195.937 113.266 195.933 113.266 195.929C113.264 193.358 111.181 191.274 108.611 191.274Z" fill="#36C5F0"/>
<path d="M96.9259 212.295H108.606C111.181 212.295 113.27 210.206 113.27 207.631C113.27 205.056 111.181 202.967 108.606 202.967H96.9259C94.3507 202.967 92.2617 205.056 92.2617 207.631C92.2617 210.206 94.3507 212.295 96.9259 212.295Z" fill="#36C5F0"/>
<path d="M131.924 202.966C129.353 202.966 127.27 205.049 127.27 207.621V207.63V212.294H131.93C134.505 212.294 136.594 210.205 136.594 207.63C136.594 205.055 134.505 202.966 131.93 202.966C131.928 202.966 131.926 202.966 131.924 202.966Z" fill="#4CAF50"/>
<path d="M115.625 195.939V207.632C115.625 210.205 117.712 212.292 120.285 212.292C122.859 212.292 124.946 210.205 124.946 207.632V195.939C124.946 193.365 122.859 191.278 120.285 191.278C117.712 191.278 115.625 193.365 115.625 195.939Z" fill="#4CAF50"/>
<path d="M124.946 230.978C124.946 228.405 122.859 226.317 120.285 226.317H115.625V230.982C115.627 233.553 117.712 235.638 120.285 235.638C122.859 235.638 124.946 233.551 124.946 230.978Z" fill="#FF9800"/>
<path d="M131.965 214.66H120.285C117.71 214.66 115.621 216.749 115.621 219.324C115.621 221.899 117.71 223.988 120.285 223.988H131.965C134.54 223.988 136.629 221.899 136.629 219.324C136.629 216.749 134.54 214.66 131.965 214.66Z" fill="#FF9800"/>
</g>
<path d="M150.686 198.196V196.983H159.156V198.196H155.604V208.276H154.237V198.196H150.686ZM163.303 208.453C162.538 208.453 161.867 208.271 161.29 207.907C160.716 207.543 160.268 207.034 159.944 206.379C159.624 205.725 159.465 204.96 159.465 204.085C159.465 203.203 159.624 202.433 159.944 201.775C160.268 201.117 160.716 200.606 161.29 200.242C161.867 199.878 162.538 199.696 163.303 199.696C164.067 199.696 164.736 199.878 165.31 200.242C165.887 200.606 166.336 201.117 166.655 201.775C166.979 202.433 167.141 203.203 167.141 204.085C167.141 204.96 166.979 205.725 166.655 206.379C166.336 207.034 165.887 207.543 165.31 207.907C164.736 208.271 164.067 208.453 163.303 208.453ZM163.303 207.284C163.883 207.284 164.361 207.135 164.736 206.837C165.111 206.539 165.389 206.148 165.569 205.663C165.749 205.177 165.839 204.652 165.839 204.085C165.839 203.519 165.749 202.992 165.569 202.503C165.389 202.014 165.111 201.619 164.736 201.317C164.361 201.016 163.883 200.865 163.303 200.865C162.722 200.865 162.244 201.016 161.869 201.317C161.494 201.619 161.216 202.014 161.036 202.503C160.856 202.992 160.766 203.519 160.766 204.085C160.766 204.652 160.856 205.177 161.036 205.663C161.216 206.148 161.494 206.539 161.869 206.837C162.244 207.135 162.722 207.284 163.303 207.284ZM172.811 199.806V200.909H168.421V199.806H172.811ZM169.701 197.777H171.002V205.85C171.002 206.218 171.055 206.493 171.162 206.677C171.272 206.857 171.412 206.979 171.581 207.041C171.754 207.1 171.936 207.129 172.127 207.129C172.27 207.129 172.388 207.122 172.48 207.107C172.572 207.089 172.645 207.074 172.701 207.063L172.965 208.232C172.877 208.265 172.754 208.298 172.596 208.332C172.438 208.368 172.237 208.387 171.995 208.387C171.627 208.387 171.267 208.308 170.914 208.15C170.565 207.991 170.274 207.751 170.043 207.427C169.815 207.104 169.701 206.696 169.701 206.203V197.777ZM177.261 208.475C176.724 208.475 176.237 208.374 175.8 208.172C175.362 207.966 175.015 207.67 174.757 207.284C174.5 206.894 174.371 206.424 174.371 205.872C174.371 205.387 174.467 204.993 174.658 204.692C174.849 204.387 175.105 204.148 175.425 203.975C175.745 203.802 176.098 203.674 176.484 203.589C176.873 203.501 177.265 203.431 177.658 203.38C178.173 203.313 178.59 203.264 178.91 203.231C179.233 203.194 179.469 203.133 179.616 203.049C179.766 202.964 179.842 202.817 179.842 202.608V202.563C179.842 202.019 179.693 201.597 179.395 201.295C179.101 200.994 178.654 200.843 178.055 200.843C177.434 200.843 176.947 200.979 176.594 201.251C176.241 201.523 175.993 201.813 175.849 202.122L174.614 201.681C174.835 201.166 175.129 200.766 175.496 200.479C175.868 200.188 176.272 199.986 176.71 199.872C177.151 199.755 177.585 199.696 178.011 199.696C178.283 199.696 178.596 199.729 178.948 199.795C179.305 199.858 179.649 199.988 179.98 200.187C180.314 200.385 180.592 200.685 180.812 201.086C181.033 201.486 181.143 202.023 181.143 202.696V208.276H179.842V207.129H179.776C179.687 207.313 179.54 207.51 179.334 207.719C179.129 207.929 178.855 208.107 178.513 208.254C178.171 208.401 177.754 208.475 177.261 208.475ZM177.46 207.306C177.974 207.306 178.408 207.205 178.761 207.003C179.118 206.8 179.386 206.539 179.566 206.219C179.75 205.9 179.842 205.563 179.842 205.21V204.019C179.787 204.085 179.665 204.146 179.478 204.201C179.294 204.253 179.081 204.299 178.838 204.339C178.599 204.376 178.366 204.409 178.138 204.438C177.914 204.464 177.732 204.486 177.592 204.504C177.254 204.549 176.938 204.62 176.643 204.72C176.353 204.815 176.118 204.96 175.938 205.155C175.761 205.346 175.673 205.607 175.673 205.938C175.673 206.39 175.84 206.732 176.175 206.964C176.513 207.192 176.941 207.306 177.46 207.306ZM184.82 196.983V208.276H183.519V196.983H184.82ZM197.924 199.806C197.858 199.247 197.589 198.814 197.119 198.505C196.648 198.196 196.071 198.042 195.387 198.042C194.887 198.042 194.45 198.122 194.075 198.284C193.703 198.446 193.413 198.668 193.203 198.951C192.997 199.234 192.895 199.556 192.895 199.916C192.895 200.218 192.966 200.477 193.11 200.694C193.257 200.907 193.444 201.086 193.672 201.229C193.9 201.369 194.139 201.484 194.389 201.576C194.639 201.665 194.869 201.736 195.078 201.791L196.225 202.1C196.519 202.177 196.847 202.284 197.207 202.42C197.571 202.556 197.918 202.742 198.249 202.977C198.584 203.209 198.859 203.506 199.076 203.87C199.293 204.234 199.402 204.681 199.402 205.21C199.402 205.821 199.242 206.372 198.922 206.865C198.606 207.357 198.142 207.749 197.532 208.039C196.926 208.33 196.189 208.475 195.321 208.475C194.512 208.475 193.812 208.344 193.22 208.083C192.632 207.822 192.168 207.458 191.83 206.991C191.496 206.525 191.306 205.982 191.262 205.365H192.674C192.711 205.791 192.854 206.144 193.104 206.424C193.358 206.699 193.678 206.905 194.064 207.041C194.453 207.173 194.872 207.24 195.321 207.24C195.843 207.24 196.312 207.155 196.727 206.986C197.143 206.813 197.472 206.574 197.714 206.269C197.957 205.96 198.078 205.6 198.078 205.188C198.078 204.813 197.973 204.508 197.764 204.273C197.554 204.038 197.279 203.846 196.937 203.699C196.595 203.552 196.225 203.424 195.828 203.313L194.439 202.916C193.556 202.663 192.858 202.301 192.343 201.83C191.828 201.359 191.571 200.744 191.571 199.983C191.571 199.35 191.742 198.799 192.084 198.328C192.429 197.854 192.893 197.486 193.474 197.225C194.058 196.961 194.711 196.828 195.431 196.828C196.159 196.828 196.806 196.959 197.372 197.22C197.938 197.477 198.387 197.83 198.718 198.279C199.052 198.727 199.229 199.236 199.247 199.806H197.924ZM206.812 204.813V199.806H208.113V208.276H206.812V206.843H206.723C206.525 207.273 206.216 207.639 205.797 207.94C205.378 208.238 204.849 208.387 204.209 208.387C203.679 208.387 203.209 208.271 202.797 208.039C202.385 207.804 202.062 207.451 201.827 206.98C201.591 206.506 201.474 205.909 201.474 205.188V199.806H202.775V205.1C202.775 205.718 202.948 206.21 203.293 206.578C203.643 206.946 204.088 207.129 204.628 207.129C204.951 207.129 205.28 207.047 205.615 206.881C205.953 206.716 206.236 206.462 206.464 206.12C206.696 205.778 206.812 205.343 206.812 204.813ZM210.673 208.276V196.983H211.975V201.152H212.085C212.18 201.005 212.313 200.817 212.482 200.589C212.655 200.358 212.901 200.152 213.221 199.972C213.544 199.788 213.982 199.696 214.533 199.696C215.246 199.696 215.875 199.874 216.419 200.231C216.963 200.587 217.388 201.093 217.693 201.747C217.998 202.402 218.151 203.174 218.151 204.063C218.151 204.96 217.998 205.738 217.693 206.396C217.388 207.05 216.965 207.558 216.425 207.918C215.884 208.275 215.261 208.453 214.555 208.453C214.011 208.453 213.576 208.363 213.248 208.183C212.921 207.999 212.669 207.791 212.493 207.559C212.316 207.324 212.18 207.129 212.085 206.975H211.93V208.276H210.673ZM211.953 204.041C211.953 204.681 212.046 205.245 212.234 205.734C212.421 206.219 212.695 206.6 213.055 206.876C213.416 207.148 213.857 207.284 214.379 207.284C214.923 207.284 215.377 207.14 215.741 206.854C216.109 206.563 216.384 206.174 216.568 205.685C216.756 205.192 216.849 204.644 216.849 204.041C216.849 203.446 216.757 202.909 216.574 202.431C216.393 201.949 216.12 201.569 215.752 201.29C215.388 201.006 214.93 200.865 214.379 200.865C213.849 200.865 213.405 200.999 213.044 201.267C212.684 201.532 212.412 201.903 212.228 202.381C212.044 202.856 211.953 203.409 211.953 204.041ZM226.141 201.703L224.972 202.034C224.899 201.839 224.79 201.65 224.647 201.466C224.507 201.279 224.316 201.124 224.073 201.003C223.831 200.881 223.52 200.821 223.141 200.821C222.623 200.821 222.191 200.94 221.845 201.179C221.504 201.415 221.333 201.714 221.333 202.078C221.333 202.402 221.45 202.657 221.686 202.845C221.921 203.032 222.288 203.188 222.788 203.313L224.046 203.622C224.803 203.806 225.367 204.087 225.739 204.466C226.11 204.841 226.296 205.324 226.296 205.916C226.296 206.401 226.156 206.835 225.877 207.218C225.601 207.6 225.215 207.901 224.718 208.122C224.222 208.343 223.645 208.453 222.987 208.453C222.123 208.453 221.408 208.265 220.842 207.89C220.276 207.515 219.917 206.968 219.766 206.247L221.002 205.938C221.119 206.394 221.342 206.736 221.669 206.964C222 207.192 222.432 207.306 222.965 207.306C223.571 207.306 224.053 207.177 224.41 206.92C224.77 206.659 224.95 206.346 224.95 205.982C224.95 205.688 224.847 205.442 224.641 205.243C224.435 205.041 224.119 204.89 223.693 204.791L222.281 204.46C221.505 204.277 220.936 203.992 220.572 203.606C220.211 203.216 220.031 202.729 220.031 202.144C220.031 201.666 220.165 201.244 220.434 200.876C220.706 200.508 221.075 200.22 221.542 200.01C222.013 199.801 222.546 199.696 223.141 199.696C223.98 199.696 224.638 199.88 225.116 200.247C225.597 200.615 225.939 201.1 226.141 201.703ZM231.696 208.453C230.902 208.453 230.218 208.265 229.644 207.89C229.071 207.515 228.63 206.999 228.321 206.341C228.012 205.683 227.858 204.931 227.858 204.085C227.858 203.225 228.016 202.466 228.332 201.808C228.652 201.146 229.096 200.63 229.666 200.258C230.24 199.883 230.909 199.696 231.674 199.696C232.269 199.696 232.806 199.806 233.284 200.027C233.762 200.247 234.153 200.556 234.458 200.953C234.764 201.35 234.953 201.813 235.026 202.343H233.725C233.626 201.957 233.405 201.615 233.063 201.317C232.725 201.016 232.269 200.865 231.696 200.865C231.188 200.865 230.743 200.997 230.361 201.262C229.982 201.523 229.687 201.892 229.473 202.37C229.264 202.845 229.159 203.402 229.159 204.041C229.159 204.696 229.262 205.265 229.468 205.751C229.677 206.236 229.971 206.613 230.35 206.881C230.732 207.15 231.181 207.284 231.696 207.284C232.034 207.284 232.341 207.225 232.617 207.107C232.892 206.99 233.126 206.821 233.317 206.6C233.508 206.379 233.644 206.115 233.725 205.806H235.026C234.953 206.306 234.771 206.756 234.48 207.157C234.194 207.554 233.813 207.87 233.339 208.105C232.868 208.337 232.321 208.453 231.696 208.453ZM236.929 208.276V199.806H238.186V201.086H238.274C238.429 200.666 238.708 200.326 239.113 200.065C239.517 199.804 239.973 199.674 240.48 199.674C240.576 199.674 240.695 199.676 240.839 199.679C240.982 199.683 241.09 199.689 241.164 199.696V201.019C241.12 201.008 241.019 200.992 240.861 200.97C240.706 200.944 240.543 200.931 240.37 200.931C239.958 200.931 239.591 201.018 239.267 201.19C238.947 201.359 238.693 201.595 238.506 201.896C238.322 202.194 238.23 202.534 238.23 202.916V208.276H236.929ZM242.707 208.276V199.806H244.008V208.276H242.707ZM243.368 198.394C243.115 198.394 242.896 198.308 242.712 198.135C242.532 197.962 242.442 197.755 242.442 197.512C242.442 197.27 242.532 197.062 242.712 196.889C242.896 196.716 243.115 196.63 243.368 196.63C243.622 196.63 243.839 196.716 244.019 196.889C244.203 197.062 244.295 197.27 244.295 197.512C244.295 197.755 244.203 197.962 244.019 198.135C243.839 198.308 243.622 198.394 243.368 198.394ZM246.568 208.276V196.983H247.87V201.152H247.98C248.075 201.005 248.208 200.817 248.377 200.589C248.55 200.358 248.796 200.152 249.116 199.972C249.439 199.788 249.877 199.696 250.428 199.696C251.141 199.696 251.77 199.874 252.314 200.231C252.858 200.587 253.283 201.093 253.588 201.747C253.893 202.402 254.046 203.174 254.046 204.063C254.046 204.96 253.893 205.738 253.588 206.396C253.283 207.05 252.86 207.558 252.32 207.918C251.779 208.275 251.156 208.453 250.45 208.453C249.906 208.453 249.471 208.363 249.143 208.183C248.816 207.999 248.564 207.791 248.388 207.559C248.211 207.324 248.075 207.129 247.98 206.975H247.825V208.276H246.568ZM247.847 204.041C247.847 204.681 247.941 205.245 248.129 205.734C248.316 206.219 248.59 206.6 248.95 206.876C249.311 207.148 249.752 207.284 250.274 207.284C250.818 207.284 251.272 207.14 251.636 206.854C252.004 206.563 252.279 206.174 252.463 205.685C252.651 205.192 252.744 204.644 252.744 204.041C252.744 203.446 252.652 202.909 252.469 202.431C252.288 201.949 252.015 201.569 251.647 201.29C251.283 201.006 250.825 200.865 250.274 200.865C249.744 200.865 249.3 200.999 248.939 201.267C248.579 201.532 248.307 201.903 248.123 202.381C247.939 202.856 247.847 203.409 247.847 204.041ZM259.588 208.453C258.772 208.453 258.068 208.273 257.476 207.912C256.888 207.548 256.433 207.041 256.114 206.39C255.797 205.736 255.639 204.975 255.639 204.107C255.639 203.24 255.797 202.475 256.114 201.813C256.433 201.148 256.878 200.63 257.448 200.258C258.022 199.883 258.691 199.696 259.455 199.696C259.897 199.696 260.332 199.769 260.762 199.916C261.192 200.064 261.584 200.302 261.937 200.633C262.29 200.961 262.571 201.394 262.781 201.935C262.99 202.475 263.095 203.141 263.095 203.931V204.482H256.566V203.357H261.771C261.771 202.88 261.676 202.453 261.485 202.078C261.297 201.703 261.029 201.407 260.68 201.19C260.334 200.973 259.926 200.865 259.455 200.865C258.937 200.865 258.489 200.994 258.11 201.251C257.735 201.505 257.446 201.835 257.244 202.244C257.042 202.652 256.941 203.089 256.941 203.556V204.306C256.941 204.946 257.051 205.488 257.272 205.933C257.496 206.374 257.807 206.71 258.204 206.942C258.601 207.17 259.062 207.284 259.588 207.284C259.93 207.284 260.238 207.236 260.514 207.14C260.794 207.041 261.034 206.894 261.237 206.699C261.439 206.501 261.595 206.254 261.705 205.96L262.963 206.313C262.83 206.74 262.608 207.115 262.295 207.438C261.983 207.758 261.597 208.008 261.137 208.188C260.678 208.365 260.161 208.453 259.588 208.453Z" fill="#060C3C"/>
<path d="M156.75 236.199C156.003 236.194 155.282 236.069 154.587 235.823C153.897 235.577 153.278 235.178 152.73 234.625C152.181 234.072 151.747 233.339 151.425 232.427C151.108 231.514 150.95 230.394 150.95 229.066C150.955 227.846 151.094 226.757 151.368 225.797C151.647 224.833 152.044 224.016 152.559 223.344C153.079 222.673 153.701 222.163 154.424 221.813C155.147 221.458 155.958 221.281 156.856 221.281C157.825 221.281 158.681 221.47 159.423 221.848C160.165 222.222 160.76 222.73 161.209 223.373C161.663 224.016 161.937 224.736 162.032 225.535H159.004C158.886 225.029 158.638 224.632 158.26 224.344C157.882 224.056 157.414 223.912 156.856 223.912C155.911 223.912 155.192 224.323 154.701 225.145C154.214 225.968 153.966 227.085 153.956 228.499H154.055C154.273 228.069 154.566 227.702 154.935 227.4C155.308 227.093 155.731 226.859 156.204 226.698C156.681 226.532 157.185 226.45 157.714 226.45C158.574 226.45 159.34 226.653 160.011 227.059C160.682 227.461 161.212 228.014 161.599 228.719C161.987 229.423 162.181 230.229 162.181 231.136C162.181 232.119 161.951 232.994 161.493 233.76C161.039 234.525 160.403 235.126 159.586 235.56C158.773 235.991 157.827 236.203 156.75 236.199ZM156.736 233.788C157.208 233.788 157.631 233.674 158.005 233.448C158.378 233.221 158.671 232.913 158.884 232.526C159.096 232.138 159.203 231.703 159.203 231.221C159.203 230.739 159.096 230.307 158.884 229.924C158.676 229.541 158.387 229.236 158.019 229.009C157.65 228.782 157.229 228.669 156.757 228.669C156.402 228.669 156.074 228.735 155.771 228.867C155.473 229 155.211 229.184 154.984 229.42C154.762 229.657 154.587 229.931 154.46 230.243C154.332 230.55 154.268 230.879 154.268 231.228C154.268 231.696 154.375 232.124 154.587 232.512C154.805 232.899 155.098 233.209 155.466 233.441C155.84 233.672 156.263 233.788 156.736 233.788ZM170.674 221.48V236H167.605V224.394H167.519L164.194 226.478V223.756L167.789 221.48H170.674ZM175.139 236.184C174.671 236.184 174.27 236.019 173.934 235.688C173.603 235.352 173.438 234.951 173.438 234.483C173.438 234.02 173.603 233.622 173.934 233.292C174.27 232.961 174.671 232.795 175.139 232.795C175.593 232.795 175.99 232.961 176.331 233.292C176.671 233.622 176.841 234.02 176.841 234.483C176.841 234.795 176.761 235.081 176.6 235.341C176.444 235.596 176.238 235.801 175.983 235.957C175.728 236.109 175.447 236.184 175.139 236.184ZM184.401 236.319C183.181 236.314 182.132 236.014 181.253 235.419C180.378 234.823 179.705 233.96 179.232 232.831C178.764 231.701 178.533 230.342 178.537 228.754C178.537 227.171 178.771 225.821 179.239 224.706C179.712 223.59 180.385 222.742 181.26 222.16C182.139 221.574 183.186 221.281 184.401 221.281C185.616 221.281 186.66 221.574 187.535 222.16C188.414 222.746 189.09 223.597 189.562 224.713C190.035 225.823 190.269 227.171 190.264 228.754C190.264 230.347 190.028 231.708 189.555 232.838C189.087 233.968 188.416 234.83 187.542 235.426C186.667 236.021 185.62 236.319 184.401 236.319ZM184.401 233.774C185.233 233.774 185.897 233.355 186.393 232.519C186.889 231.682 187.135 230.427 187.13 228.754C187.13 227.653 187.017 226.736 186.79 226.003C186.568 225.27 186.251 224.72 185.84 224.351C185.434 223.982 184.954 223.798 184.401 223.798C183.574 223.798 182.912 224.212 182.416 225.039C181.919 225.866 181.669 227.104 181.664 228.754C181.664 229.869 181.775 230.801 181.997 231.547C182.224 232.29 182.543 232.847 182.954 233.221C183.366 233.589 183.848 233.774 184.401 233.774ZM198.147 236.319C196.927 236.314 195.878 236.014 194.999 235.419C194.124 234.823 193.451 233.96 192.978 232.831C192.51 231.701 192.278 230.342 192.283 228.754C192.283 227.171 192.517 225.821 192.985 224.706C193.458 223.59 194.131 222.742 195.006 222.16C195.885 221.574 196.932 221.281 198.147 221.281C199.361 221.281 200.406 221.574 201.28 222.16C202.159 222.746 202.835 223.597 203.308 224.713C203.781 225.823 204.015 227.171 204.01 228.754C204.01 230.347 203.774 231.708 203.301 232.838C202.833 233.968 202.162 234.83 201.287 235.426C200.413 236.021 199.366 236.319 198.147 236.319ZM198.147 233.774C198.978 233.774 199.643 233.355 200.139 232.519C200.635 231.682 200.881 230.427 200.876 228.754C200.876 227.653 200.763 226.736 200.536 226.003C200.314 225.27 199.997 224.72 199.586 224.351C199.179 223.982 198.7 223.798 198.147 223.798C197.319 223.798 196.658 224.212 196.161 225.039C195.665 225.866 195.415 227.104 195.41 228.754C195.41 229.869 195.521 230.801 195.743 231.547C195.97 232.29 196.289 232.847 196.7 233.221C197.111 233.589 197.594 233.774 198.147 233.774ZM211.892 236.319C210.673 236.314 209.623 236.014 208.744 235.419C207.87 234.823 207.196 233.96 206.724 232.831C206.256 231.701 206.024 230.342 206.029 228.754C206.029 227.171 206.263 225.821 206.731 224.706C207.203 223.59 207.877 222.742 208.751 222.16C209.631 221.574 210.678 221.281 211.892 221.281C213.107 221.281 214.152 221.574 215.026 222.16C215.905 222.746 216.581 223.597 217.054 224.713C217.526 225.823 217.76 227.171 217.756 228.754C217.756 230.347 217.519 231.708 217.047 232.838C216.579 233.968 215.908 234.83 215.033 235.426C214.159 236.021 213.112 236.319 211.892 236.319ZM211.892 233.774C212.724 233.774 213.388 233.355 213.885 232.519C214.381 231.682 214.627 230.427 214.622 228.754C214.622 227.653 214.509 226.736 214.282 226.003C214.059 225.27 213.743 224.72 213.332 224.351C212.925 223.982 212.445 223.798 211.892 223.798C211.065 223.798 210.403 224.212 209.907 225.039C209.411 225.866 209.16 227.104 209.156 228.754C209.156 229.869 209.267 230.801 209.489 231.547C209.716 232.29 210.035 232.847 210.446 233.221C210.857 233.589 211.339 233.774 211.892 233.774Z" fill="#060C3C"/>
<rect x="62" y="161" width="250" height="109" rx="16" fill="#9585F3" fill-opacity="0.05"/>
<defs>
<filter id="filter0_d_0_1" x="32.3624" y="140.253" width="309.465" height="168.598" filterUnits="userSpaceOnUse" color-interpolation-filters="sRGB">
<feFlood flood-opacity="0" result="BackgroundImageFix"/>
<feColorMatrix in="SourceAlpha" type="matrix" values="0 0 0 0 0 0 0 0 0 0 0 0 0 0 0 0 0 0 127 0" result="hardAlpha"/>
<feMorphology radius="2.21839" operator="erode" in="SourceAlpha" result="effect1_dropShadow_0_1"/>
<feOffset dy="8.87355"/>
<feGaussianBlur stdDeviation="22.1839"/>
<feColorMatrix type="matrix" values="0 0 0 0 0.0235294 0 0 0 0 0.0470588 0 0 0 0 0.231373 0 0 0 0.08 0"/>
<feBlend mode="normal" in2="BackgroundImageFix" result="effect1_dropShadow_0_1"/>
<feBlend mode="normal" in="SourceGraphic" in2="effect1_dropShadow_0_1" result="shape"/>
</filter>
<linearGradient id="paint0_linear_0_1" x1="69.315" y1="-1" x2="69.315" y2="98.84" gradientUnits="userSpaceOnUse">
<stop stop-color="#9888F4"/>
<stop offset="1" stop-color="#907EF3"/>
</linearGradient>
<clipPath id="clip0_0_1">
<rect width="44.3677" height="44.3677" fill="white" transform="translate(92.2578 191.276)"/>
</clipPath>
</defs>
</svg>
