<svg width="18" height="19" viewBox="0 0 18 19" fill="none" xmlns="http://www.w3.org/2000/svg">
<path fill-rule="evenodd" clip-rule="evenodd" d="M9 2C4.85786 2 1.5 5.35786 1.5 9.5C1.5 10.8615 1.86338 12.1397 2.49845 13.2412C2.62779 13.4656 2.64997 13.7387 2.54083 13.9735L1.90055 15.3512C1.50739 16.095 2.04552 17 2.89619 17H9C13.1421 17 16.5 13.6421 16.5 9.5C16.5 5.35786 13.1421 2 9 2ZM6.00015 10.475C6.53863 10.475 6.97515 10.0384 6.97515 9.5C6.97515 8.9615 6.53863 8.525 6.00015 8.525C5.46167 8.525 5.02515 8.9615 5.02515 9.5C5.02515 10.0384 5.46167 10.475 6.00015 10.475ZM12.0002 10.475C12.5387 10.475 12.9751 10.0384 12.9751 9.5C12.9751 8.9615 12.5387 8.525 12.0002 8.525C11.4616 8.525 11.0252 8.9615 11.0252 9.5C11.0252 10.0384 11.4616 10.475 12.0002 10.475ZM9.00015 10.475C9.53865 10.475 9.97515 10.0384 9.97515 9.5C9.97515 8.9615 9.53865 8.525 9.00015 8.525C8.46165 8.525 8.02515 8.9615 8.02515 9.5C8.02515 10.0384 8.46165 10.475 9.00015 10.475Z" fill="#715DE3"/>
</svg>
