<svg width="611" height="482" viewBox="0 0 611 482" fill="none" xmlns="http://www.w3.org/2000/svg">
<circle cx="105" cy="165.835" r="105" fill="#FBF6DA"/>
<path d="M551.5 94.835C551.5 77.335 540 34.3348 499.5 15.8351C438.5 -16.1651 397.167 8.50191 378 28.3351L142 310.835C254.333 321.168 487.7 342.035 522.5 342.835C560.1 345.242 594.5 333.835 605 310.835C605 310.835 613.5 292.335 609.5 271.335C605.5 250.335 571.5 203.335 556.5 181.335C544.909 164.335 546.3 114.835 551.5 94.835Z" fill="#FBF6DA"/>
<path d="M468.499 34.423C405.064 -31.977 286.401 12.7564 234.999 43.423C188.999 62.9229 97.4987 143.923 63.4987 188.923C53.6854 201.911 16.4986 245.923 22.4988 322.423C28.6471 400.811 155.999 443.923 200.499 457.923C244.999 471.923 400.999 460.923 468.499 422.423C535.999 383.923 546.499 306.423 546.499 266.923C546.499 227.423 547.793 117.423 468.499 34.423Z" fill="#EBE5FE"/>
<g filter="url(#filter0_d_15_2227)">
<rect x="52" y="47" width="271" height="213" rx="6.877" fill="white"/>
</g>
<path d="M271.858 84.2261H269.028V75.0567H271.983C272.873 75.0567 273.634 75.2403 274.267 75.6074C274.899 75.9716 275.384 76.4954 275.722 77.1789C276.059 77.8595 276.228 78.6743 276.228 79.6235C276.228 80.5786 276.058 81.401 275.717 82.0904C275.377 82.7769 274.882 83.3053 274.231 83.6754C273.58 84.0425 272.789 84.2261 271.858 84.2261ZM270.139 83.2411H271.786C272.544 83.2411 273.173 83.0948 273.671 82.8023C274.17 82.5098 274.541 82.0934 274.786 81.5532C275.031 81.0129 275.153 80.3697 275.153 79.6235C275.153 78.8833 275.032 78.246 274.79 77.7117C274.549 77.1745 274.188 76.7626 273.707 76.476C273.226 76.1865 272.628 76.0417 271.912 76.0417H270.139V83.2411ZM279.971 84.3873C279.535 84.3873 279.139 84.3052 278.784 84.141C278.429 83.9739 278.147 83.7336 277.938 83.4202C277.729 83.1038 277.625 82.7217 277.625 82.274C277.625 81.88 277.702 81.5606 277.857 81.3159C278.013 81.0681 278.22 80.8741 278.48 80.7338C278.739 80.5936 279.026 80.4891 279.339 80.4204C279.656 80.3488 279.974 80.2921 280.293 80.2503C280.711 80.1966 281.05 80.1563 281.309 80.1294C281.572 80.0996 281.763 80.0503 281.882 79.9817C282.005 79.913 282.066 79.7936 282.066 79.6235V79.5877C282.066 79.1459 281.945 78.8027 281.703 78.5579C281.465 78.3132 281.102 78.1908 280.615 78.1908C280.111 78.1908 279.715 78.3012 279.429 78.5221C279.142 78.743 278.941 78.9788 278.824 79.2295L277.822 78.8713C278.001 78.4535 278.239 78.1281 278.538 77.8953C278.839 77.6595 279.168 77.4953 279.523 77.4028C279.881 77.3073 280.233 77.2595 280.58 77.2595C280.8 77.2595 281.054 77.2864 281.341 77.3401C281.63 77.3909 281.909 77.4968 282.178 77.658C282.45 77.8192 282.675 78.0624 282.854 78.3878C283.033 78.7131 283.123 79.1489 283.123 79.6951V84.2261H282.066V83.2948H282.012C281.941 83.4441 281.821 83.6037 281.654 83.7739C281.487 83.944 281.265 84.0888 280.987 84.2082C280.709 84.3276 280.371 84.3873 279.971 84.3873ZM280.132 83.4381C280.55 83.4381 280.902 83.356 281.188 83.1918C281.478 83.0277 281.696 82.8158 281.842 82.5561C281.991 82.2964 282.066 82.0233 282.066 81.7367V80.7697C282.021 80.8234 281.923 80.8726 281.77 80.9174C281.621 80.9592 281.448 80.9965 281.251 81.0293C281.057 81.0592 280.868 81.0861 280.683 81.1099C280.5 81.1308 280.353 81.1487 280.239 81.1637C279.965 81.1995 279.708 81.2577 279.469 81.3383C279.233 81.4159 279.042 81.5338 278.896 81.692C278.753 81.8472 278.681 82.0591 278.681 82.3277C278.681 82.6949 278.817 82.9725 279.089 83.1605C279.363 83.3456 279.711 83.4381 280.132 83.4381ZM285.051 84.2261V77.3491H286.108V84.2261H285.051ZM285.588 76.2029C285.382 76.2029 285.205 76.1328 285.056 75.9925C284.909 75.8522 284.836 75.6836 284.836 75.4866C284.836 75.2896 284.909 75.1209 285.056 74.9806C285.205 74.8403 285.382 74.7702 285.588 74.7702C285.794 74.7702 285.97 74.8403 286.117 74.9806C286.266 75.1209 286.341 75.2896 286.341 75.4866C286.341 75.6836 286.266 75.8522 286.117 75.9925C285.97 76.1328 285.794 76.2029 285.588 76.2029ZM289.1 75.0567V84.2261H288.043V75.0567H289.1ZM291.715 86.8049C291.536 86.8049 291.377 86.79 291.236 86.7602C291.096 86.7333 290.999 86.7065 290.945 86.6796L291.214 85.7483C291.471 85.814 291.698 85.8379 291.895 85.82C292.092 85.8021 292.266 85.714 292.418 85.5558C292.574 85.4006 292.715 85.1484 292.844 84.7992L293.041 84.2619L290.498 77.3491H291.644L293.542 82.8292H293.614L295.512 77.3491H296.658L293.739 85.229C293.608 85.5842 293.445 85.8782 293.251 86.111C293.057 86.3468 292.832 86.5214 292.575 86.6348C292.321 86.7482 292.035 86.8049 291.715 86.8049Z" fill="#5D6180"/>
<path d="M71.5651 85.7808V74.1107H76.1693C77.0506 74.1107 77.8028 74.2684 78.4258 74.5837C79.0526 74.8952 79.5294 75.3377 79.8561 75.9114C80.1866 76.4812 80.3518 77.1517 80.3518 77.9228C80.3518 78.6978 80.1847 79.3645 79.8504 79.9229C79.5161 80.4776 79.0317 80.903 78.3973 81.1994C77.7667 81.4957 77.0031 81.6438 76.1066 81.6438H73.0238V79.6608H75.7077C76.1788 79.6608 76.5701 79.5962 76.8816 79.4671C77.1931 79.3379 77.4248 79.1442 77.5768 78.8859C77.7325 78.6275 77.8104 78.3065 77.8104 77.9228C77.8104 77.5354 77.7325 77.2087 77.5768 76.9427C77.4248 76.6768 77.1912 76.4755 76.8759 76.3387C76.5644 76.1982 76.1712 76.1279 75.6963 76.1279H74.0324V85.7808H71.5651ZM77.8674 80.47L80.7678 85.7808H78.044L75.2063 80.47H77.8674ZM85.8977 85.9517C84.9973 85.9517 84.2224 85.7694 83.5728 85.4047C82.927 85.0362 82.4293 84.5157 82.0798 83.8433C81.7303 83.1672 81.5556 82.3675 81.5556 81.4444C81.5556 80.544 81.7303 79.7539 82.0798 79.0739C82.4293 78.3939 82.9213 77.864 83.5557 77.4841C84.1939 77.1042 84.9422 76.9143 85.8008 76.9143C86.3782 76.9143 86.9157 77.0073 87.4134 77.1935C87.9148 77.3758 88.3517 77.6512 88.724 78.0197C89.1001 78.3882 89.3926 78.8517 89.6015 79.4101C89.8105 79.9647 89.9149 80.6143 89.9149 81.3589V82.0256H82.5243V80.5213H87.6299C87.6299 80.1718 87.5539 79.8622 87.402 79.5924C87.25 79.3227 87.0392 79.1119 86.7695 78.9599C86.5036 78.8042 86.194 78.7263 85.8407 78.7263C85.4722 78.7263 85.1455 78.8118 84.8606 78.9827C84.5795 79.1499 84.3591 79.3759 84.1996 79.6608C84.04 79.9419 83.9583 80.2553 83.9545 80.601V82.0313C83.9545 82.4644 84.0343 82.8386 84.1939 83.1539C84.3572 83.4692 84.587 83.7123 84.8834 83.8832C85.1797 84.0542 85.5311 84.1397 85.9375 84.1397C86.2073 84.1397 86.4542 84.1017 86.6783 84.0257C86.9024 83.9497 87.0943 83.8358 87.2538 83.6838C87.4134 83.5318 87.535 83.3457 87.6185 83.1254L89.8636 83.2735C89.7497 83.813 89.5161 84.284 89.1628 84.6867C88.8133 85.0856 88.3612 85.3971 87.8066 85.6212C87.2557 85.8415 86.6194 85.9517 85.8977 85.9517ZM99.4239 77.0282L96.364 85.7808H93.6288L90.5688 77.0282H93.133L94.9508 83.2906H95.042L96.854 77.0282H99.4239ZM104.373 85.9517C103.473 85.9517 102.698 85.7694 102.048 85.4047C101.402 85.0362 100.905 84.5157 100.555 83.8433C100.206 83.1672 100.031 82.3675 100.031 81.4444C100.031 80.544 100.206 79.7539 100.555 79.0739C100.905 78.3939 101.396 77.864 102.031 77.4841C102.669 77.1042 103.417 76.9143 104.276 76.9143C104.853 76.9143 105.391 77.0073 105.889 77.1935C106.39 77.3758 106.827 77.6512 107.199 78.0197C107.575 78.3882 107.868 78.8517 108.077 79.4101C108.286 79.9647 108.39 80.6143 108.39 81.3589V82.0256H100.999V80.5213H106.105C106.105 80.1718 106.029 79.8622 105.877 79.5924C105.725 79.3227 105.514 79.1119 105.245 78.9599C104.979 78.8042 104.669 78.7263 104.316 78.7263C103.947 78.7263 103.621 78.8118 103.336 78.9827C103.055 79.1499 102.834 79.3759 102.675 79.6608C102.515 79.9419 102.434 80.2553 102.43 80.601V82.0313C102.43 82.4644 102.51 82.8386 102.669 83.1539C102.832 83.4692 103.062 83.7123 103.359 83.8832C103.655 84.0542 104.006 84.1397 104.413 84.1397C104.682 84.1397 104.929 84.1017 105.154 84.0257C105.378 83.9497 105.57 83.8358 105.729 83.6838C105.889 83.5318 106.01 83.3457 106.094 83.1254L108.339 83.2735C108.225 83.813 107.991 84.284 107.638 84.6867C107.288 85.0856 106.836 85.3971 106.282 85.6212C105.731 85.8415 105.095 85.9517 104.373 85.9517ZM112.402 80.7207V85.7808H109.974V77.0282H112.288V78.5724H112.39C112.584 78.0634 112.909 77.6607 113.365 77.3644C113.821 77.0643 114.373 76.9143 115.023 76.9143C115.631 76.9143 116.161 77.0472 116.613 77.3131C117.065 77.579 117.416 77.9589 117.667 78.4528C117.918 78.9428 118.043 79.5279 118.043 80.2079V85.7808H115.616V80.6409C115.619 80.1053 115.483 79.6874 115.205 79.3873C114.928 79.0834 114.546 78.9314 114.06 78.9314C113.733 78.9314 113.445 79.0017 113.194 79.1423C112.947 79.2828 112.753 79.488 112.613 79.7577C112.476 80.0236 112.406 80.3446 112.402 80.7207ZM125.569 82.0541V77.0282H127.996V85.7808H125.666V84.1909H125.575C125.377 84.7038 125.049 85.116 124.589 85.4275C124.133 85.739 123.577 85.8947 122.919 85.8947C122.334 85.8947 121.82 85.7618 121.375 85.4958C120.931 85.2299 120.583 84.8519 120.332 84.3619C120.085 83.8718 119.96 83.2849 119.956 82.6011V77.0282H122.384V82.1681C122.387 82.6847 122.526 83.0931 122.8 83.3932C123.073 83.6933 123.44 83.8433 123.899 83.8433C124.192 83.8433 124.465 83.7769 124.72 83.6439C124.975 83.5072 125.18 83.3058 125.335 83.0399C125.495 82.774 125.573 82.4454 125.569 82.0541ZM133.927 85.9517C133.027 85.9517 132.252 85.7694 131.602 85.4047C130.956 85.0362 130.459 84.5157 130.109 83.8433C129.76 83.1672 129.585 82.3675 129.585 81.4444C129.585 80.544 129.76 79.7539 130.109 79.0739C130.459 78.3939 130.951 77.864 131.585 77.4841C132.223 77.1042 132.972 76.9143 133.83 76.9143C134.408 76.9143 134.945 77.0073 135.443 77.1935C135.944 77.3758 136.381 77.6512 136.753 78.0197C137.129 78.3882 137.422 78.8517 137.631 79.4101C137.84 79.9647 137.944 80.6143 137.944 81.3589V82.0256H130.554V80.5213H135.659C135.659 80.1718 135.583 79.8622 135.431 79.5924C135.279 79.3227 135.069 79.1119 134.799 78.9599C134.533 78.8042 134.223 78.7263 133.87 78.7263C133.501 78.7263 133.175 78.8118 132.89 78.9827C132.609 79.1499 132.388 79.3759 132.229 79.6608C132.069 79.9419 131.988 80.2553 131.984 80.601V82.0313C131.984 82.4644 132.064 82.8386 132.223 83.1539C132.387 83.4692 132.616 83.7123 132.913 83.8832C133.209 84.0542 133.56 84.1397 133.967 84.1397C134.237 84.1397 134.483 84.1017 134.708 84.0257C134.932 83.9497 135.124 83.8358 135.283 83.6838C135.443 83.5318 135.564 83.3457 135.648 83.1254L137.893 83.2735C137.779 83.813 137.545 84.284 137.192 84.6867C136.843 85.0856 136.391 85.3971 135.836 85.6212C135.285 85.8415 134.649 85.9517 133.927 85.9517ZM151.026 77.883C150.946 77.6056 150.834 77.3606 150.69 77.1479C150.545 76.9313 150.369 76.749 150.16 76.6008C149.955 76.4489 149.719 76.333 149.453 76.2533C149.191 76.1735 148.901 76.1336 148.581 76.1336C147.985 76.1336 147.461 76.2817 147.009 76.5781C146.561 76.8744 146.211 77.3055 145.96 77.8716C145.71 78.4338 145.584 79.1214 145.584 79.9343C145.584 80.7473 145.708 81.4387 145.955 82.0085C146.202 82.5783 146.551 83.0133 147.003 83.3134C147.455 83.6097 147.989 83.7579 148.604 83.7579C149.163 83.7579 149.639 83.6591 150.035 83.4616C150.433 83.2602 150.737 82.9772 150.946 82.6125C151.159 82.2478 151.265 81.8167 151.265 81.319L151.767 81.3931H148.758V79.5355H153.642V81.0056C153.642 82.0313 153.425 82.9126 152.992 83.6496C152.559 84.3828 151.962 84.9488 151.203 85.3477C150.443 85.7428 149.573 85.9403 148.593 85.9403C147.499 85.9403 146.538 85.6991 145.71 85.2166C144.881 84.7304 144.236 84.0409 143.772 83.1482C143.312 82.2516 143.083 81.188 143.083 79.9571C143.083 79.0112 143.219 78.1679 143.493 77.4271C143.77 76.6825 144.158 76.0519 144.655 75.5353C145.153 75.0186 145.732 74.6254 146.393 74.3557C147.054 74.086 147.77 73.9511 148.542 73.9511C149.203 73.9511 149.818 74.048 150.388 74.2418C150.958 74.4317 151.463 74.7014 151.904 75.0509C152.348 75.4004 152.711 75.8164 152.992 76.2988C153.273 76.7775 153.454 77.3055 153.533 77.883H151.026ZM155.449 85.7808V77.0282H157.803V78.5554H157.894C158.053 78.0121 158.321 77.6018 158.697 77.3245C159.073 77.0434 159.507 76.9029 159.997 76.9029C160.118 76.9029 160.249 76.9105 160.39 76.9256C160.53 76.9408 160.654 76.9617 160.76 76.9883V79.1423C160.646 79.1081 160.489 79.0777 160.287 79.0511C160.086 79.0245 159.902 79.0112 159.734 79.0112C159.377 79.0112 159.058 79.0891 158.777 79.2448C158.5 79.3968 158.279 79.6095 158.116 79.8831C157.957 80.1566 157.877 80.4719 157.877 80.829V85.7808H155.449ZM165.562 85.9517C164.677 85.9517 163.912 85.7637 163.266 85.3876C162.624 85.0077 162.128 84.4797 161.779 83.8035C161.429 83.1235 161.254 82.3352 161.254 81.4387C161.254 80.5346 161.429 79.7444 161.779 79.0682C162.128 78.3882 162.624 77.8602 163.266 77.4841C163.912 77.1042 164.677 76.9143 165.562 76.9143C166.447 76.9143 167.211 77.1042 167.853 77.4841C168.499 77.8602 168.997 78.3882 169.346 79.0682C169.695 79.7444 169.87 80.5346 169.87 81.4387C169.87 82.3352 169.695 83.1235 169.346 83.8035C168.997 84.4797 168.499 85.0077 167.853 85.3876C167.211 85.7637 166.447 85.9517 165.562 85.9517ZM165.574 84.0713C165.976 84.0713 166.313 83.9573 166.582 83.7294C166.852 83.4977 167.055 83.1823 167.192 82.7835C167.333 82.3846 167.403 81.9306 167.403 81.4216C167.403 80.9125 167.333 80.4586 167.192 80.0597C167.055 79.6608 166.852 79.3455 166.582 79.1138C166.313 78.8821 165.976 78.7662 165.574 78.7662C165.167 78.7662 164.825 78.8821 164.548 79.1138C164.275 79.3455 164.067 79.6608 163.927 80.0597C163.79 80.4586 163.722 80.9125 163.722 81.4216C163.722 81.9306 163.79 82.3846 163.927 82.7835C164.067 83.1823 164.275 83.4977 164.548 83.7294C164.825 83.9573 165.167 84.0713 165.574 84.0713ZM172.956 85.7808L170.574 77.0282H173.03L174.386 82.9088H174.466L175.879 77.0282H178.289L179.725 82.8746H179.799L181.133 77.0282H183.583L181.207 85.7808H178.637L177.133 80.2762H177.024L175.52 85.7808H172.956ZM189.534 77.0282V78.8517H184.263V77.0282H189.534ZM185.459 74.9313H187.887V83.0912C187.887 83.3153 187.921 83.4901 187.989 83.6154C188.058 83.737 188.153 83.8225 188.274 83.8718C188.4 83.9212 188.544 83.9459 188.707 83.9459C188.821 83.9459 188.935 83.9364 189.049 83.9174C189.163 83.8946 189.251 83.8775 189.311 83.8661L189.693 85.6725C189.572 85.7105 189.401 85.7542 189.18 85.8036C188.96 85.8567 188.692 85.889 188.377 85.9004C187.792 85.9232 187.279 85.8453 186.838 85.6668C186.401 85.4883 186.061 85.2109 185.818 84.8348C185.575 84.4588 185.455 83.9839 185.459 83.4103V74.9313ZM193.73 80.7207V85.7808H191.303V74.1107H193.662V78.5724H193.765C193.962 78.0558 194.281 77.6512 194.722 77.3587C195.162 77.0624 195.715 76.9143 196.38 76.9143C196.988 76.9143 197.518 77.0472 197.97 77.3131C198.426 77.5752 198.779 77.9532 199.03 78.4471C199.284 78.9371 199.41 79.5241 199.406 80.2079V85.7808H196.978V80.6409C196.982 80.1015 196.845 79.6817 196.568 79.3816C196.295 79.0815 195.911 78.9314 195.417 78.9314C195.087 78.9314 194.794 79.0017 194.539 79.1423C194.289 79.2828 194.091 79.488 193.947 79.7577C193.806 80.0236 193.734 80.3446 193.73 80.7207Z" fill="#060C3C"/>
<path d="M79.5586 168.71C79.5586 166.501 81.3495 164.71 83.5586 164.71H96.2281C98.4372 164.71 100.228 166.501 100.228 168.71V233.578C100.228 235.788 98.4372 237.578 96.2281 237.578H83.5586C81.3495 237.578 79.5586 235.788 79.5586 233.578V168.71Z" fill="#9374FF"/>
<path d="M118.602 129.474C118.602 127.265 120.392 125.474 122.602 125.474H135.271C137.48 125.474 139.271 127.265 139.271 129.474V233.579C139.271 235.789 137.48 237.579 135.271 237.579H122.602C120.392 237.579 118.602 235.789 118.602 233.579V129.474Z" fill="#FFDC60"/>
<path d="M157.643 184.125C157.643 181.916 159.433 180.125 161.643 180.125H174.312C176.521 180.125 178.312 181.916 178.312 184.125V233.579C178.312 235.788 176.521 237.579 174.312 237.579H161.643C159.433 237.579 157.643 235.788 157.643 233.579V184.125Z" fill="#FF80AD"/>
<path d="M196.686 157.5C196.686 155.291 198.476 153.5 200.686 153.5H213.355C215.564 153.5 217.355 155.291 217.355 157.5V233.579C217.355 235.788 215.564 237.579 213.355 237.579H200.686C198.476 237.579 196.686 235.788 196.686 233.579V157.5Z" fill="#508AFF"/>
<path d="M235.729 207.948C235.729 205.739 237.519 203.948 239.729 203.948H252.398C254.607 203.948 256.398 205.739 256.398 207.948V233.58C256.398 235.789 254.607 237.58 252.398 237.58H239.729C237.519 237.58 235.729 235.789 235.729 233.58V207.948Z" fill="#FFDC60"/>
<path d="M274.77 144.889C274.77 142.68 276.56 140.889 278.77 140.889H291.439C293.648 140.889 295.439 142.68 295.439 144.889V233.58C295.439 235.789 293.648 237.58 291.439 237.58H278.77C276.56 237.58 274.77 235.789 274.77 233.58V144.889Z" fill="#9476FD"/>
<g filter="url(#filter1_d_15_2227)">
<rect x="345" y="95" width="168.597" height="164.851" rx="5.61991" fill="white"/>
</g>
<path d="M365.901 115.726C365.864 115.351 365.704 115.059 365.421 114.851C365.139 114.643 364.755 114.539 364.271 114.539C363.942 114.539 363.664 114.586 363.437 114.679C363.211 114.769 363.037 114.894 362.916 115.056C362.798 115.217 362.739 115.4 362.739 115.605C362.733 115.776 362.768 115.925 362.846 116.052C362.927 116.18 363.037 116.29 363.177 116.383C363.316 116.473 363.478 116.552 363.661 116.621C363.844 116.686 364.04 116.742 364.248 116.788L365.105 116.993C365.521 117.086 365.902 117.21 366.25 117.366C366.598 117.521 366.899 117.712 367.154 117.938C367.408 118.165 367.605 118.432 367.745 118.739C367.888 119.047 367.961 119.399 367.964 119.796C367.961 120.38 367.812 120.886 367.517 121.314C367.225 121.74 366.803 122.07 366.25 122.306C365.701 122.539 365.038 122.656 364.262 122.656C363.492 122.656 362.821 122.538 362.25 122.302C361.682 122.066 361.238 121.716 360.918 121.254C360.602 120.788 360.436 120.212 360.42 119.526H362.371C362.393 119.846 362.484 120.113 362.646 120.327C362.81 120.538 363.029 120.698 363.302 120.807C363.579 120.912 363.891 120.965 364.238 120.965C364.58 120.965 364.876 120.916 365.128 120.816C365.382 120.717 365.58 120.579 365.719 120.402C365.859 120.225 365.929 120.021 365.929 119.792C365.929 119.578 365.865 119.397 365.738 119.252C365.614 119.106 365.431 118.981 365.188 118.879C364.949 118.777 364.656 118.683 364.308 118.6L363.27 118.339C362.466 118.143 361.831 117.837 361.365 117.421C360.9 117.005 360.668 116.445 360.671 115.74C360.668 115.163 360.822 114.659 361.132 114.227C361.446 113.795 361.876 113.459 362.422 113.217C362.969 112.974 363.59 112.853 364.285 112.853C364.993 112.853 365.611 112.974 366.138 113.217C366.669 113.459 367.082 113.795 367.377 114.227C367.672 114.659 367.824 115.158 367.833 115.726H365.901ZM371.322 122.656C370.866 122.656 370.459 122.576 370.102 122.418C369.745 122.257 369.463 122.019 369.255 121.706C369.05 121.389 368.947 120.995 368.947 120.523C368.947 120.125 369.02 119.792 369.166 119.522C369.312 119.252 369.511 119.034 369.762 118.87C370.014 118.705 370.299 118.581 370.619 118.497C370.942 118.413 371.28 118.354 371.634 118.32C372.05 118.277 372.386 118.236 372.64 118.199C372.895 118.159 373.079 118.1 373.194 118.022C373.309 117.945 373.367 117.83 373.367 117.678V117.65C373.367 117.355 373.274 117.127 373.087 116.965C372.904 116.804 372.643 116.723 372.305 116.723C371.948 116.723 371.664 116.802 371.453 116.96C371.242 117.116 371.102 117.311 371.034 117.547L369.199 117.398C369.292 116.964 369.475 116.588 369.748 116.271C370.022 115.952 370.374 115.706 370.805 115.536C371.24 115.362 371.743 115.275 372.314 115.275C372.712 115.275 373.092 115.321 373.455 115.414C373.821 115.508 374.146 115.652 374.428 115.848C374.714 116.043 374.939 116.295 375.104 116.602C375.268 116.906 375.35 117.271 375.35 117.696V122.521H373.469V121.529H373.413C373.298 121.752 373.145 121.949 372.952 122.12C372.76 122.288 372.528 122.42 372.258 122.516C371.988 122.609 371.676 122.656 371.322 122.656ZM371.89 121.286C372.182 121.286 372.44 121.229 372.663 121.114C372.887 120.996 373.062 120.838 373.19 120.639C373.317 120.441 373.381 120.215 373.381 119.964V119.205C373.319 119.245 373.233 119.283 373.124 119.317C373.019 119.348 372.899 119.377 372.766 119.405C372.632 119.43 372.499 119.453 372.365 119.475C372.232 119.494 372.111 119.511 372.002 119.526C371.769 119.56 371.566 119.615 371.392 119.689C371.218 119.764 371.083 119.865 370.987 119.992C370.891 120.116 370.843 120.271 370.843 120.458C370.843 120.728 370.941 120.934 371.136 121.077C371.335 121.217 371.586 121.286 371.89 121.286ZM378.873 112.984V122.521H376.889V112.984H378.873ZM383.722 122.66C382.986 122.66 382.353 122.511 381.822 122.213C381.294 121.912 380.888 121.487 380.602 120.937C380.316 120.385 380.174 119.731 380.174 118.977C380.174 118.241 380.316 117.595 380.602 117.04C380.888 116.484 381.29 116.051 381.808 115.74C382.33 115.43 382.941 115.275 383.643 115.275C384.115 115.275 384.554 115.351 384.961 115.503C385.37 115.652 385.727 115.877 386.032 116.178C386.339 116.479 386.578 116.858 386.749 117.314C386.919 117.768 387.005 118.298 387.005 118.907V119.452H380.965V118.222H385.137C385.137 117.937 385.075 117.684 384.951 117.463C384.827 117.243 384.655 117.071 384.434 116.946C384.217 116.819 383.964 116.756 383.675 116.756C383.374 116.756 383.107 116.825 382.874 116.965C382.645 117.102 382.465 117.286 382.334 117.519C382.204 117.749 382.137 118.005 382.134 118.288V119.456C382.134 119.81 382.199 120.116 382.33 120.374C382.463 120.631 382.651 120.83 382.893 120.97C383.135 121.11 383.422 121.179 383.754 121.179C383.975 121.179 384.177 121.148 384.36 121.086C384.543 121.024 384.7 120.931 384.83 120.807C384.961 120.683 385.06 120.531 385.128 120.351L386.963 120.472C386.87 120.912 386.679 121.297 386.39 121.626C386.105 121.952 385.735 122.207 385.282 122.39C384.832 122.57 384.312 122.66 383.722 122.66ZM394.251 117.408L392.434 117.519C392.403 117.364 392.337 117.224 392.234 117.1C392.132 116.973 391.997 116.872 391.829 116.797C391.665 116.72 391.467 116.681 391.238 116.681C390.93 116.681 390.671 116.746 390.46 116.877C390.249 117.004 390.143 117.175 390.143 117.389C390.143 117.56 390.212 117.704 390.348 117.822C390.485 117.94 390.719 118.035 391.051 118.106L392.346 118.367C393.041 118.51 393.56 118.739 393.901 119.056C394.243 119.373 394.414 119.789 394.414 120.304C394.414 120.773 394.275 121.184 393.999 121.538C393.726 121.892 393.35 122.168 392.872 122.367C392.397 122.562 391.849 122.66 391.228 122.66C390.282 122.66 389.527 122.463 388.965 122.069C388.406 121.671 388.079 121.131 387.983 120.448L389.934 120.346C389.993 120.635 390.136 120.855 390.362 121.007C390.589 121.156 390.879 121.231 391.233 121.231C391.581 121.231 391.86 121.164 392.071 121.03C392.285 120.894 392.394 120.718 392.397 120.504C392.394 120.324 392.318 120.177 392.169 120.062C392.02 119.944 391.79 119.854 391.48 119.792L390.241 119.545C389.543 119.405 389.023 119.163 388.681 118.818C388.343 118.474 388.174 118.035 388.174 117.501C388.174 117.041 388.298 116.645 388.546 116.313C388.798 115.981 389.15 115.725 389.603 115.545C390.06 115.365 390.594 115.275 391.205 115.275C392.109 115.275 392.819 115.466 393.338 115.848C393.859 116.229 394.164 116.749 394.251 117.408ZM403.908 115.726C403.871 115.351 403.711 115.059 403.429 114.851C403.146 114.643 402.763 114.539 402.279 114.539C401.95 114.539 401.672 114.586 401.445 114.679C401.218 114.769 401.045 114.894 400.924 115.056C400.806 115.217 400.747 115.4 400.747 115.605C400.74 115.776 400.776 115.925 400.854 116.052C400.934 116.18 401.045 116.29 401.184 116.383C401.324 116.473 401.485 116.552 401.669 116.621C401.852 116.686 402.047 116.742 402.255 116.788L403.112 116.993C403.528 117.086 403.91 117.21 404.258 117.366C404.605 117.521 404.907 117.712 405.161 117.938C405.416 118.165 405.613 118.432 405.752 118.739C405.895 119.047 405.968 119.399 405.971 119.796C405.968 120.38 405.819 120.886 405.524 121.314C405.233 121.74 404.81 122.07 404.258 122.306C403.708 122.539 403.045 122.656 402.269 122.656C401.499 122.656 400.829 122.538 400.258 122.302C399.69 122.066 399.246 121.716 398.926 121.254C398.609 120.788 398.443 120.212 398.428 119.526H400.379C400.4 119.846 400.492 120.113 400.653 120.327C400.818 120.538 401.037 120.698 401.31 120.807C401.586 120.912 401.898 120.965 402.246 120.965C402.588 120.965 402.884 120.916 403.135 120.816C403.39 120.717 403.587 120.579 403.727 120.402C403.867 120.225 403.936 120.021 403.936 119.792C403.936 119.578 403.873 119.397 403.745 119.252C403.621 119.106 403.438 118.981 403.196 118.879C402.957 118.777 402.664 118.683 402.316 118.6L401.277 118.339C400.473 118.143 399.839 117.837 399.373 117.421C398.907 117.005 398.676 116.445 398.679 115.74C398.676 115.163 398.83 114.659 399.14 114.227C399.454 113.795 399.884 113.459 400.43 113.217C400.976 112.974 401.597 112.853 402.293 112.853C403 112.853 403.618 112.974 404.146 113.217C404.677 113.459 405.09 113.795 405.385 114.227C405.68 114.659 405.832 115.158 405.841 115.726H403.908ZM411.095 115.368V116.858H406.787V115.368H411.095ZM407.765 113.654H409.749V120.323C409.749 120.506 409.777 120.649 409.833 120.751C409.889 120.85 409.966 120.92 410.066 120.961C410.168 121.001 410.286 121.021 410.42 121.021C410.513 121.021 410.606 121.013 410.699 120.998C410.792 120.979 410.864 120.965 410.913 120.956L411.225 122.432C411.126 122.463 410.986 122.499 410.806 122.539C410.626 122.583 410.407 122.609 410.15 122.618C409.671 122.637 409.252 122.573 408.892 122.427C408.535 122.281 408.257 122.055 408.059 121.748C407.86 121.44 407.762 121.052 407.765 120.583V113.654ZM414.427 122.656C413.97 122.656 413.564 122.576 413.207 122.418C412.85 122.257 412.567 122.019 412.359 121.706C412.154 121.389 412.052 120.995 412.052 120.523C412.052 120.125 412.125 119.792 412.271 119.522C412.417 119.252 412.615 119.034 412.867 118.87C413.118 118.705 413.404 118.581 413.724 118.497C414.046 118.413 414.385 118.354 414.739 118.32C415.155 118.277 415.49 118.236 415.745 118.199C415.999 118.159 416.184 118.1 416.299 118.022C416.414 117.945 416.471 117.83 416.471 117.678V117.65C416.471 117.355 416.378 117.127 416.192 116.965C416.008 116.804 415.748 116.723 415.409 116.723C415.052 116.723 414.768 116.802 414.557 116.96C414.346 117.116 414.206 117.311 414.138 117.547L412.303 117.398C412.396 116.964 412.58 116.588 412.853 116.271C413.126 115.952 413.478 115.706 413.91 115.536C414.344 115.362 414.847 115.275 415.419 115.275C415.816 115.275 416.196 115.321 416.559 115.414C416.926 115.508 417.25 115.652 417.533 115.848C417.818 116.043 418.043 116.295 418.208 116.602C418.372 116.906 418.455 117.271 418.455 117.696V122.521H416.573V121.529H416.518C416.403 121.752 416.249 121.949 416.057 122.12C415.864 122.288 415.633 122.42 415.363 122.516C415.093 122.609 414.781 122.656 414.427 122.656ZM414.995 121.286C415.287 121.286 415.544 121.229 415.768 121.114C415.991 120.996 416.167 120.838 416.294 120.639C416.421 120.441 416.485 120.215 416.485 119.964V119.205C416.423 119.245 416.337 119.283 416.229 119.317C416.123 119.348 416.004 119.377 415.87 119.405C415.737 119.43 415.603 119.453 415.47 119.475C415.336 119.494 415.215 119.511 415.107 119.526C414.874 119.56 414.67 119.615 414.497 119.689C414.323 119.764 414.188 119.865 414.091 119.992C413.995 120.116 413.947 120.271 413.947 120.458C413.947 120.728 414.045 120.934 414.24 121.077C414.439 121.217 414.691 121.286 414.995 121.286ZM423.798 115.368V116.858H419.491V115.368H423.798ZM420.469 113.654H422.452V120.323C422.452 120.506 422.48 120.649 422.536 120.751C422.592 120.85 422.67 120.92 422.769 120.961C422.872 121.001 422.989 121.021 423.123 121.021C423.216 121.021 423.309 121.013 423.402 120.998C423.496 120.979 423.567 120.965 423.617 120.956L423.929 122.432C423.829 122.463 423.69 122.499 423.509 122.539C423.329 122.583 423.111 122.609 422.853 122.618C422.375 122.637 421.956 122.573 421.596 122.427C421.239 122.281 420.961 122.055 420.762 121.748C420.563 121.44 420.466 121.052 420.469 120.583V113.654ZM430.952 117.408L429.136 117.519C429.105 117.364 429.038 117.224 428.936 117.1C428.833 116.973 428.698 116.872 428.531 116.797C428.366 116.72 428.169 116.681 427.939 116.681C427.632 116.681 427.373 116.746 427.161 116.877C426.95 117.004 426.845 117.175 426.845 117.389C426.845 117.56 426.913 117.704 427.05 117.822C427.186 117.94 427.421 118.035 427.753 118.106L429.047 118.367C429.743 118.51 430.261 118.739 430.603 119.056C430.944 119.373 431.115 119.789 431.115 120.304C431.115 120.773 430.977 121.184 430.701 121.538C430.427 121.892 430.052 122.168 429.574 122.367C429.099 122.562 428.551 122.66 427.93 122.66C426.983 122.66 426.229 122.463 425.667 122.069C425.108 121.671 424.78 121.131 424.684 120.448L426.635 120.346C426.694 120.635 426.837 120.855 427.064 121.007C427.29 121.156 427.581 121.231 427.934 121.231C428.282 121.231 428.562 121.164 428.773 121.03C428.987 120.894 429.096 120.718 429.099 120.504C429.096 120.324 429.019 120.177 428.87 120.062C428.721 119.944 428.492 119.854 428.181 119.792L426.943 119.545C426.244 119.405 425.724 119.163 425.383 118.818C425.044 118.474 424.875 118.035 424.875 117.501C424.875 117.041 424.999 116.645 425.248 116.313C425.499 115.981 425.851 115.725 426.305 115.545C426.761 115.365 427.295 115.275 427.907 115.275C428.81 115.275 429.521 115.466 430.039 115.848C430.561 116.229 430.865 116.749 430.952 117.408Z" fill="#060C3C"/>
<rect x="386.213" y="220.512" width="114.272" height="5.61991" rx="2.80996" fill="#FF81AB"/>
<rect x="358.113" y="220.512" width="18.733" height="5.61991" rx="2.80996" fill="#528AFD"/>
<rect x="386.213" y="233.625" width="114.272" height="5.61991" rx="2.80996" fill="#9577FB"/>
<rect x="358.113" y="233.625" width="18.733" height="5.61991" rx="2.80996" fill="#FCD862"/>
<path d="M435.141 143.384C429.337 142.15 423.291 142.785 417.87 145.199C412.449 147.612 407.931 151.68 404.964 156.819C401.997 161.958 400.733 167.905 401.353 173.806C401.973 179.708 404.446 185.262 408.417 189.671C412.387 194.081 417.652 197.121 423.457 198.355C429.261 199.588 435.307 198.953 440.728 196.539C446.149 194.126 450.667 190.058 453.634 184.919C456.601 179.78 457.865 173.833 457.244 167.932L429.299 170.869L435.141 143.384Z" fill="#528BFD"/>
<path d="M440.692 136.974C446.861 138.391 452.423 141.725 456.581 146.498C460.738 151.271 463.278 157.237 463.837 163.542L433.981 166.186L440.692 136.974Z" fill="#FFDC60"/>
<g filter="url(#filter2_d_15_2227)">
<rect x="345" y="46" width="80" height="33" rx="5.61991" fill="white"/>
</g>
<path d="M385.769 65.9486V64.0055L390.641 56.3299H392.317V59.0195H391.325L388.254 63.8801V63.9713H395.177V65.9486H385.769ZM391.371 68V65.356L391.416 64.4956V56.3299H393.73V68H391.371ZM398.043 68.1482C397.667 68.1482 397.344 68.0152 397.075 67.7493C396.809 67.4796 396.676 67.1567 396.676 66.7806C396.676 66.4083 396.809 66.0892 397.075 65.8233C397.344 65.5573 397.667 65.4244 398.043 65.4244C398.408 65.4244 398.727 65.5573 399.001 65.8233C399.274 66.0892 399.411 66.4083 399.411 66.7806C399.411 67.0313 399.346 67.2611 399.217 67.4701C399.092 67.6752 398.927 67.8404 398.721 67.9658C398.516 68.0874 398.29 68.1482 398.043 68.1482ZM405.319 68.1596C404.468 68.1596 403.71 68.0133 403.045 67.7208C402.384 67.4245 401.862 67.018 401.478 66.5014C401.098 65.9809 400.902 65.3807 400.891 64.7007H403.376C403.391 64.9856 403.484 65.2363 403.655 65.4529C403.829 65.6656 404.061 65.8309 404.35 65.9486C404.639 66.0664 404.963 66.1253 405.324 66.1253C405.7 66.1253 406.033 66.0588 406.322 65.9258C406.61 65.7929 406.836 65.6086 407 65.3731C407.163 65.1376 407.245 64.866 407.245 64.5582C407.245 64.2467 407.157 63.9713 406.983 63.732C406.812 63.4889 406.565 63.2989 406.242 63.1622C405.923 63.0254 405.543 62.957 405.102 62.957H404.014V61.145H405.102C405.474 61.145 405.803 61.0804 406.088 60.9512C406.377 60.8221 406.601 60.6435 406.76 60.4156C406.92 60.1839 407 59.9142 407 59.6064C407 59.3139 406.929 59.0575 406.789 58.8372C406.652 58.613 406.458 58.4383 406.208 58.3129C405.961 58.1876 405.672 58.1249 405.341 58.1249C405.007 58.1249 404.701 58.1857 404.424 58.3072C404.147 58.425 403.924 58.5941 403.757 58.8144C403.59 59.0347 403.501 59.293 403.489 59.5894H401.125C401.136 58.917 401.328 58.3243 401.7 57.8115C402.072 57.2986 402.574 56.8979 403.205 56.6092C403.839 56.3166 404.555 56.1704 405.353 56.1704C406.158 56.1704 406.863 56.3166 407.467 56.6092C408.071 56.9017 408.54 57.2967 408.874 57.7944C409.212 58.2882 409.38 58.8429 409.376 59.4583C409.38 60.1117 409.176 60.6568 408.766 61.0937C408.36 61.5306 407.83 61.8079 407.176 61.9256V62.0168C408.035 62.127 408.688 62.4252 409.136 62.9114C409.589 63.3939 409.813 63.9979 409.809 64.7235C409.813 65.3883 409.621 65.979 409.233 66.4957C408.85 67.0123 408.32 67.4188 407.644 67.7151C406.967 68.0114 406.192 68.1596 405.319 68.1596Z" fill="#FFDC60"/>
<path d="M368.5 52L370.633 58.5643H377.535L371.951 62.6213L374.084 69.1857L368.5 65.1287L362.916 69.1857L365.049 62.6213L359.465 58.5643H366.367L368.5 52Z" fill="#FFDC60"/>
<g filter="url(#filter3_d_15_2227)">
<rect x="52" y="284" width="371" height="145" rx="6.877" fill="white"/>
</g>
<path d="M85.4317 309.917V321.587H83.3005L78.2234 314.242H78.1379V321.587H75.6705V309.917H77.8359L82.8732 317.256H82.9757V309.917H85.4317ZM91.4134 321.758C90.5131 321.758 89.7382 321.576 89.0885 321.211C88.4427 320.842 87.9451 320.322 87.5956 319.65C87.2461 318.973 87.0714 318.174 87.0714 317.251C87.0714 316.35 87.2461 315.56 87.5956 314.88C87.9451 314.2 88.437 313.67 89.0715 313.29C89.7097 312.91 90.458 312.72 91.3166 312.72C91.894 312.72 92.4315 312.813 92.9292 313C93.4306 313.182 93.8675 313.457 94.2398 313.826C94.6159 314.194 94.9084 314.658 95.1173 315.216C95.3263 315.771 95.4307 316.42 95.4307 317.165V317.832H88.0401V316.327H93.1457C93.1457 315.978 93.0697 315.668 92.9178 315.399C92.7658 315.129 92.555 314.918 92.2853 314.766C92.0194 314.61 91.7098 314.532 91.3565 314.532C90.988 314.532 90.6613 314.618 90.3764 314.789C90.0952 314.956 89.8749 315.182 89.7154 315.467C89.5558 315.748 89.4741 316.061 89.4703 316.407V317.837C89.4703 318.271 89.5501 318.645 89.7097 318.96C89.873 319.275 90.1028 319.518 90.3992 319.689C90.6955 319.86 91.0469 319.946 91.4533 319.946C91.723 319.946 91.97 319.908 92.1941 319.832C92.4182 319.756 92.6101 319.642 92.7696 319.49C92.9292 319.338 93.0507 319.152 93.1343 318.932L95.3794 319.08C95.2655 319.619 95.0318 320.09 94.6786 320.493C94.3291 320.892 93.877 321.203 93.3224 321.427C92.7715 321.648 92.1352 321.758 91.4134 321.758ZM98.6787 321.587L96.2969 312.834H98.7528L100.109 318.715H100.189L101.602 312.834H104.012L105.448 318.681H105.522L106.856 312.834H109.306L106.93 321.587H104.36L102.856 316.082H102.747L101.243 321.587H98.6787ZM120.691 313.273C120.646 312.813 120.45 312.456 120.104 312.202C119.759 311.947 119.289 311.82 118.697 311.82C118.294 311.82 117.954 311.877 117.677 311.991C117.399 312.101 117.187 312.255 117.039 312.453C116.894 312.65 116.822 312.874 116.822 313.125C116.814 313.334 116.858 313.516 116.953 313.672C117.052 313.828 117.187 313.963 117.358 314.077C117.529 314.187 117.726 314.284 117.95 314.367C118.174 314.447 118.414 314.515 118.668 314.572L119.717 314.823C120.226 314.937 120.693 315.089 121.119 315.279C121.544 315.469 121.912 315.702 122.224 315.98C122.536 316.257 122.777 316.584 122.948 316.96C123.122 317.336 123.212 317.767 123.215 318.253C123.212 318.968 123.029 319.587 122.668 320.111C122.311 320.632 121.795 321.036 121.119 321.325C120.446 321.61 119.635 321.752 118.685 321.752C117.743 321.752 116.923 321.608 116.224 321.319C115.529 321.03 114.985 320.603 114.594 320.037C114.207 319.467 114.003 318.762 113.984 317.923H116.372C116.398 318.314 116.511 318.641 116.708 318.903C116.909 319.161 117.177 319.357 117.512 319.49C117.85 319.619 118.231 319.684 118.657 319.684C119.075 319.684 119.438 319.623 119.745 319.501C120.057 319.38 120.298 319.211 120.469 318.994C120.64 318.778 120.725 318.529 120.725 318.248C120.725 317.986 120.647 317.765 120.492 317.587C120.34 317.408 120.116 317.256 119.819 317.131C119.527 317.006 119.168 316.892 118.742 316.789L117.472 316.47C116.488 316.231 115.711 315.856 115.141 315.347C114.571 314.838 114.288 314.153 114.292 313.29C114.288 312.584 114.476 311.966 114.856 311.438C115.24 310.91 115.766 310.498 116.435 310.202C117.103 309.905 117.863 309.757 118.714 309.757C119.58 309.757 120.336 309.905 120.982 310.202C121.631 310.498 122.137 310.91 122.498 311.438C122.858 311.966 123.045 312.578 123.056 313.273H120.691ZM130.442 317.86V312.834H132.87V321.587H130.539V319.997H130.448C130.25 320.51 129.922 320.922 129.462 321.234C129.006 321.545 128.45 321.701 127.793 321.701C127.208 321.701 126.693 321.568 126.248 321.302C125.804 321.036 125.456 320.658 125.206 320.168C124.959 319.678 124.833 319.091 124.83 318.407V312.834H127.257V317.974C127.261 318.491 127.399 318.899 127.673 319.199C127.946 319.499 128.313 319.65 128.773 319.65C129.065 319.65 129.339 319.583 129.593 319.45C129.848 319.313 130.053 319.112 130.209 318.846C130.368 318.58 130.446 318.252 130.442 317.86ZM134.857 321.587V309.917H137.285V314.305H137.359C137.465 314.069 137.619 313.83 137.82 313.587C138.025 313.34 138.291 313.134 138.618 312.971C138.948 312.804 139.359 312.72 139.849 312.72C140.487 312.72 141.076 312.888 141.615 313.222C142.155 313.552 142.586 314.052 142.909 314.72C143.232 315.385 143.393 316.219 143.393 317.222C143.393 318.198 143.235 319.023 142.92 319.695C142.609 320.364 142.183 320.871 141.644 321.217C141.108 321.558 140.508 321.729 139.843 321.729C139.372 321.729 138.971 321.651 138.641 321.496C138.314 321.34 138.046 321.144 137.837 320.909C137.628 320.669 137.469 320.428 137.359 320.185H137.25V321.587H134.857ZM137.233 317.211C137.233 317.731 137.305 318.185 137.45 318.573C137.594 318.96 137.803 319.262 138.077 319.479C138.35 319.691 138.683 319.798 139.074 319.798C139.469 319.798 139.803 319.689 140.077 319.473C140.35 319.253 140.557 318.949 140.698 318.561C140.842 318.17 140.914 317.72 140.914 317.211C140.914 316.705 140.844 316.261 140.703 315.877C140.563 315.494 140.356 315.193 140.082 314.977C139.809 314.76 139.473 314.652 139.074 314.652C138.679 314.652 138.344 314.757 138.071 314.966C137.801 315.174 137.594 315.471 137.45 315.854C137.305 316.238 137.233 316.69 137.233 317.211ZM152.295 315.33L150.073 315.467C150.035 315.277 149.953 315.106 149.828 314.954C149.702 314.798 149.537 314.675 149.332 314.584C149.131 314.489 148.89 314.441 148.608 314.441C148.232 314.441 147.915 314.521 147.657 314.681C147.398 314.836 147.269 315.045 147.269 315.307C147.269 315.516 147.353 315.693 147.52 315.837C147.687 315.982 147.974 316.098 148.38 316.185L149.965 316.504C150.816 316.679 151.45 316.96 151.868 317.347C152.286 317.735 152.495 318.244 152.495 318.875C152.495 319.448 152.326 319.952 151.987 320.385C151.653 320.818 151.194 321.156 150.609 321.399C150.027 321.638 149.357 321.758 148.597 321.758C147.438 321.758 146.515 321.517 145.828 321.034C145.144 320.548 144.743 319.887 144.625 319.051L147.013 318.926C147.085 319.279 147.26 319.549 147.537 319.735C147.814 319.917 148.17 320.008 148.603 320.008C149.028 320.008 149.37 319.927 149.628 319.763C149.891 319.596 150.023 319.382 150.027 319.12C150.023 318.899 149.93 318.719 149.748 318.578C149.566 318.434 149.285 318.324 148.905 318.248L147.389 317.946C146.534 317.775 145.898 317.478 145.48 317.057C145.066 316.635 144.859 316.098 144.859 315.444C144.859 314.882 145.011 314.398 145.315 313.991C145.623 313.585 146.054 313.271 146.608 313.051C147.167 312.831 147.82 312.72 148.569 312.72C149.674 312.72 150.544 312.954 151.178 313.421C151.817 313.889 152.189 314.525 152.295 315.33ZM157.978 321.758C157.081 321.758 156.31 321.568 155.664 321.188C155.022 320.804 154.528 320.273 154.183 319.593C153.841 318.913 153.67 318.13 153.67 317.245C153.67 316.348 153.843 315.562 154.188 314.886C154.538 314.206 155.034 313.676 155.676 313.296C156.318 312.912 157.081 312.72 157.966 312.72C158.73 312.72 159.399 312.859 159.972 313.136C160.546 313.414 161 313.803 161.334 314.305C161.668 314.806 161.853 315.395 161.887 316.071H159.596C159.532 315.634 159.361 315.283 159.083 315.017C158.81 314.747 158.451 314.612 158.006 314.612C157.63 314.612 157.302 314.715 157.02 314.92C156.743 315.121 156.527 315.416 156.371 315.803C156.215 316.191 156.137 316.66 156.137 317.211C156.137 317.769 156.213 318.244 156.365 318.635C156.521 319.026 156.739 319.325 157.02 319.53C157.302 319.735 157.63 319.838 158.006 319.838C158.284 319.838 158.532 319.781 158.753 319.667C158.977 319.553 159.161 319.387 159.306 319.171C159.454 318.951 159.551 318.686 159.596 318.379H161.887C161.849 319.047 161.666 319.636 161.34 320.145C161.017 320.65 160.571 321.046 160.001 321.33C159.431 321.615 158.757 321.758 157.978 321.758ZM163.441 321.587V312.834H165.794V314.362H165.886C166.045 313.818 166.313 313.408 166.689 313.131C167.065 312.85 167.498 312.709 167.988 312.709C168.11 312.709 168.241 312.717 168.381 312.732C168.522 312.747 168.645 312.768 168.752 312.794V314.948C168.638 314.914 168.48 314.884 168.279 314.857C168.078 314.831 167.893 314.817 167.726 314.817C167.369 314.817 167.05 314.895 166.769 315.051C166.492 315.203 166.271 315.416 166.108 315.689C165.948 315.963 165.868 316.278 165.868 316.635V321.587H163.441ZM170.007 321.587V312.834H172.434V321.587H170.007ZM171.226 311.706C170.865 311.706 170.556 311.586 170.297 311.347C170.043 311.104 169.916 310.813 169.916 310.475C169.916 310.141 170.043 309.854 170.297 309.615C170.556 309.372 170.865 309.25 171.226 309.25C171.587 309.25 171.895 309.372 172.149 309.615C172.408 309.854 172.537 310.141 172.537 310.475C172.537 310.813 172.408 311.104 172.149 311.347C171.895 311.586 171.587 311.706 171.226 311.706ZM174.424 321.587V309.917H176.852V314.305H176.926C177.032 314.069 177.186 313.83 177.388 313.587C177.593 313.34 177.859 313.134 178.185 312.971C178.516 312.804 178.926 312.72 179.416 312.72C180.054 312.72 180.643 312.888 181.183 313.222C181.722 313.552 182.153 314.052 182.476 314.72C182.799 315.385 182.96 316.219 182.96 317.222C182.96 318.198 182.803 319.023 182.487 319.695C182.176 320.364 181.751 320.871 181.211 321.217C180.675 321.558 180.075 321.729 179.41 321.729C178.939 321.729 178.539 321.651 178.208 321.496C177.881 321.34 177.614 321.144 177.405 320.909C177.196 320.669 177.036 320.428 176.926 320.185H176.818V321.587H174.424ZM176.801 317.211C176.801 317.731 176.873 318.185 177.017 318.573C177.162 318.96 177.37 319.262 177.644 319.479C177.917 319.691 178.25 319.798 178.641 319.798C179.036 319.798 179.371 319.689 179.644 319.473C179.918 319.253 180.125 318.949 180.265 318.561C180.41 318.17 180.482 317.72 180.482 317.211C180.482 316.705 180.411 316.261 180.271 315.877C180.13 315.494 179.923 315.193 179.65 314.977C179.376 314.76 179.04 314.652 178.641 314.652C178.246 314.652 177.912 314.757 177.638 314.966C177.369 315.174 177.162 315.471 177.017 315.854C176.873 316.238 176.801 316.69 176.801 317.211ZM188.569 321.758C187.669 321.758 186.894 321.576 186.244 321.211C185.598 320.842 185.101 320.322 184.751 319.65C184.402 318.973 184.227 318.174 184.227 317.251C184.227 316.35 184.402 315.56 184.751 314.88C185.101 314.2 185.593 313.67 186.227 313.29C186.865 312.91 187.614 312.72 188.472 312.72C189.05 312.72 189.587 312.813 190.085 313C190.586 313.182 191.023 313.457 191.395 313.826C191.771 314.194 192.064 314.658 192.273 315.216C192.482 315.771 192.586 316.42 192.586 317.165V317.832H185.196V316.327H190.301C190.301 315.978 190.225 315.668 190.073 315.399C189.921 315.129 189.711 314.918 189.441 314.766C189.175 314.61 188.865 314.532 188.512 314.532C188.144 314.532 187.817 314.618 187.532 314.789C187.251 314.956 187.03 315.182 186.871 315.467C186.711 315.748 186.63 316.061 186.626 316.407V317.837C186.626 318.271 186.706 318.645 186.865 318.96C187.029 319.275 187.258 319.518 187.555 319.689C187.851 319.86 188.202 319.946 188.609 319.946C188.879 319.946 189.126 319.908 189.35 319.832C189.574 319.756 189.766 319.642 189.925 319.49C190.085 319.338 190.206 319.152 190.29 318.932L192.535 319.08C192.421 319.619 192.187 320.09 191.834 320.493C191.485 320.892 191.033 321.203 190.478 321.427C189.927 321.648 189.291 321.758 188.569 321.758ZM194.17 321.587V312.834H196.524V314.362H196.615C196.774 313.818 197.042 313.408 197.418 313.131C197.794 312.85 198.228 312.709 198.718 312.709C198.839 312.709 198.97 312.717 199.111 312.732C199.251 312.747 199.375 312.768 199.481 312.794V314.948C199.367 314.914 199.21 314.884 199.008 314.857C198.807 314.831 198.623 314.817 198.455 314.817C198.098 314.817 197.779 314.895 197.498 315.051C197.221 315.203 197.001 315.416 196.837 315.689C196.678 315.963 196.598 316.278 196.598 316.635V321.587H194.17ZM208.019 315.33L205.796 315.467C205.758 315.277 205.677 315.106 205.551 314.954C205.426 314.798 205.261 314.675 205.056 314.584C204.854 314.489 204.613 314.441 204.332 314.441C203.956 314.441 203.639 314.521 203.38 314.681C203.122 314.836 202.993 315.045 202.993 315.307C202.993 315.516 203.076 315.693 203.243 315.837C203.411 315.982 203.697 316.098 204.104 316.185L205.688 316.504C206.539 316.679 207.173 316.96 207.591 317.347C208.009 317.735 208.218 318.244 208.218 318.875C208.218 319.448 208.049 319.952 207.711 320.385C207.377 320.818 206.917 321.156 206.332 321.399C205.751 321.638 205.08 321.758 204.32 321.758C203.162 321.758 202.239 321.517 201.551 321.034C200.867 320.548 200.466 319.887 200.349 319.051L202.736 318.926C202.808 319.279 202.983 319.549 203.261 319.735C203.538 319.917 203.893 320.008 204.326 320.008C204.752 320.008 205.093 319.927 205.352 319.763C205.614 319.596 205.747 319.382 205.751 319.12C205.747 318.899 205.654 318.719 205.471 318.578C205.289 318.434 205.008 318.324 204.628 318.248L203.112 317.946C202.258 317.775 201.621 317.478 201.203 317.057C200.789 316.635 200.582 316.098 200.582 315.444C200.582 314.882 200.734 314.398 201.038 313.991C201.346 313.585 201.777 313.271 202.332 313.051C202.89 312.831 203.544 312.72 204.292 312.72C205.397 312.72 206.267 312.954 206.902 313.421C207.54 313.889 207.912 314.525 208.019 315.33Z" fill="#060C3C"/>
<path d="M75.0416 399.962V399.336L77.2561 395.838H77.749V396.759H77.4362L75.8523 399.266V399.306H78.8876V399.962H75.0416ZM77.4713 400.962V399.771L77.4763 399.486V395.838H78.2094V400.962H77.4713ZM81.5437 401.032C81.2 401.032 80.8931 400.973 80.6229 400.855C80.3543 400.736 80.1416 400.572 79.9848 400.362C79.8297 400.15 79.7462 399.905 79.7346 399.626H80.5203C80.5303 399.778 80.5812 399.91 80.6729 400.022C80.7663 400.132 80.8881 400.217 81.0382 400.277C81.1884 400.337 81.3552 400.367 81.5387 400.367C81.7405 400.367 81.919 400.332 82.0742 400.262C82.231 400.192 82.3536 400.094 82.442 399.969C82.5304 399.842 82.5746 399.696 82.5746 399.531C82.5746 399.359 82.5304 399.208 82.442 399.078C82.3553 398.946 82.2276 398.843 82.0592 398.768C81.8923 398.693 81.6905 398.655 81.4536 398.655H81.0207V398.025H81.4536C81.6438 398.025 81.8106 397.991 81.9541 397.922C82.0992 397.854 82.2126 397.759 82.2944 397.637C82.3761 397.513 82.417 397.369 82.417 397.204C82.417 397.046 82.3811 396.908 82.3094 396.791C82.2393 396.673 82.1392 396.58 82.0091 396.513C81.8807 396.447 81.7289 396.413 81.5537 396.413C81.3869 396.413 81.2309 396.444 81.0858 396.506C80.9423 396.566 80.8255 396.653 80.7355 396.766C80.6454 396.878 80.597 397.012 80.5903 397.169H79.8422C79.8505 396.892 79.9322 396.649 80.0874 396.438C80.2442 396.228 80.451 396.064 80.7079 395.945C80.9648 395.827 81.2501 395.768 81.5637 395.768C81.8923 395.768 82.1759 395.832 82.4145 395.96C82.6547 396.087 82.8399 396.257 82.97 396.468C83.1018 396.68 83.1668 396.912 83.1651 397.164C83.1668 397.451 83.0867 397.694 82.9249 397.895C82.7648 398.095 82.5513 398.229 82.2844 398.298V398.338C82.6247 398.389 82.8882 398.524 83.0751 398.743C83.2636 398.961 83.357 399.233 83.3553 399.556C83.357 399.838 83.2786 400.091 83.1201 400.314C82.9633 400.538 82.7489 400.714 82.477 400.842C82.2051 400.969 81.894 401.032 81.5437 401.032ZM86.9761 400.002V399.731C86.9761 399.538 87.0161 399.361 87.0962 399.201C87.1779 399.039 87.2964 398.91 87.4515 398.813C87.6083 398.715 87.7976 398.665 88.0195 398.665C88.2464 398.665 88.4366 398.714 88.59 398.81C88.7435 398.907 88.8594 399.037 88.9378 399.198C89.0179 399.36 89.0579 399.538 89.0579 399.731V400.002C89.0579 400.195 89.0179 400.373 88.9378 400.535C88.8578 400.695 88.7402 400.824 88.585 400.922C88.4315 401.019 88.243 401.067 88.0195 401.067C87.7943 401.067 87.6041 401.019 87.449 400.922C87.2939 400.824 87.1763 400.695 87.0962 400.535C87.0161 400.373 86.9761 400.195 86.9761 400.002ZM87.5591 399.731V400.002C87.5591 400.145 87.5933 400.275 87.6617 400.392C87.7301 400.509 87.8494 400.567 88.0195 400.567C88.188 400.567 88.3056 400.509 88.3723 400.392C88.4391 400.275 88.4724 400.145 88.4724 400.002V399.731C88.4724 399.588 88.4399 399.458 88.3748 399.341C88.3114 399.224 88.193 399.166 88.0195 399.166C87.8527 399.166 87.7343 399.224 87.6642 399.341C87.5941 399.458 87.5591 399.588 87.5591 399.731ZM84.3988 397.069V396.799C84.3988 396.605 84.4388 396.427 84.5189 396.266C84.6006 396.104 84.719 395.975 84.8742 395.878C85.031 395.781 85.2203 395.733 85.4422 395.733C85.6691 395.733 85.8592 395.781 86.0127 395.878C86.1662 395.975 86.2821 396.104 86.3605 396.266C86.4389 396.427 86.4781 396.605 86.4781 396.799V397.069C86.4781 397.262 86.4381 397.44 86.358 397.602C86.2796 397.762 86.1628 397.891 86.0077 397.99C85.8542 398.086 85.6657 398.135 85.4422 398.135C85.2153 398.135 85.0243 398.086 84.8692 397.99C84.7157 397.891 84.5989 397.762 84.5189 397.602C84.4388 397.44 84.3988 397.262 84.3988 397.069ZM84.9843 396.799V397.069C84.9843 397.212 85.0176 397.342 85.0844 397.459C85.1528 397.576 85.272 397.634 85.4422 397.634C85.609 397.634 85.7258 397.576 85.7925 397.459C85.8609 397.342 85.8951 397.212 85.8951 397.069V396.799C85.8951 396.655 85.8626 396.525 85.7975 396.408C85.7325 396.292 85.614 396.233 85.4422 396.233C85.2754 396.233 85.1569 396.292 85.0869 396.408C85.0185 396.525 84.9843 396.655 84.9843 396.799ZM84.6365 400.962L88.1596 395.838H88.7577L85.2345 400.962H84.6365ZM93.8053 397.119V397.719H91.7059V397.119H93.8053ZM92.269 396.198H93.0171V399.834C93.0171 399.979 93.0388 400.088 93.0822 400.162C93.1256 400.233 93.1814 400.283 93.2498 400.309C93.3199 400.334 93.3958 400.347 93.4775 400.347C93.5376 400.347 93.5901 400.343 93.6352 400.334C93.6802 400.326 93.7153 400.319 93.7403 400.314L93.8754 400.932C93.832 400.949 93.7703 400.966 93.6902 400.982C93.6102 401.001 93.5101 401.011 93.39 401.012C93.1931 401.016 93.0096 400.981 92.8395 400.907C92.6693 400.834 92.5317 400.721 92.4266 400.567C92.3215 400.414 92.269 400.221 92.269 399.989V396.198ZM95.4637 398.68V400.962H94.7155V395.838H95.4537V397.745H95.5012C95.5913 397.538 95.7289 397.373 95.9141 397.252C96.0993 397.13 96.3412 397.069 96.6398 397.069C96.9033 397.069 97.1335 397.123 97.3304 397.232C97.5289 397.34 97.6824 397.502 97.7908 397.717C97.9009 397.931 97.9559 398.197 97.9559 398.518V400.962H97.2078V398.608C97.2078 398.326 97.1352 398.107 96.9901 397.952C96.8449 397.795 96.6431 397.717 96.3845 397.717C96.2077 397.717 96.0492 397.755 95.9091 397.83C95.7706 397.905 95.6614 398.015 95.5813 398.16C95.5029 398.303 95.4637 398.477 95.4637 398.68ZM98.9543 400.962V397.119H99.7025V400.962H98.9543ZM99.3322 396.526C99.2021 396.526 99.0903 396.483 98.9969 396.396C98.9051 396.307 98.8593 396.202 98.8593 396.081C98.8593 395.957 98.9051 395.852 98.9969 395.765C99.0903 395.677 99.2021 395.633 99.3322 395.633C99.4623 395.633 99.5732 395.677 99.665 395.765C99.7584 395.852 99.8051 395.957 99.8051 396.081C99.8051 396.202 99.7584 396.307 99.665 396.396C99.5732 396.483 99.4623 396.526 99.3322 396.526ZM103.589 398.057L102.911 398.177C102.883 398.091 102.838 398.008 102.776 397.93C102.716 397.851 102.634 397.787 102.531 397.737C102.427 397.687 102.298 397.662 102.143 397.662C101.931 397.662 101.754 397.709 101.612 397.805C101.471 397.898 101.4 398.019 101.4 398.167C101.4 398.296 101.447 398.399 101.542 398.478C101.637 398.556 101.791 398.62 102.003 398.67L102.613 398.81C102.967 398.892 103.23 399.018 103.404 399.188C103.577 399.358 103.664 399.579 103.664 399.851C103.664 400.082 103.597 400.287 103.464 400.467C103.332 400.645 103.148 400.786 102.911 400.887C102.676 400.989 102.403 401.04 102.093 401.04C101.662 401.04 101.311 400.948 101.039 400.765C100.767 400.58 100.601 400.317 100.539 399.977L101.262 399.866C101.307 400.055 101.4 400.198 101.54 400.294C101.68 400.389 101.863 400.437 102.088 400.437C102.333 400.437 102.529 400.386 102.676 400.284C102.823 400.181 102.896 400.055 102.896 399.906C102.896 399.786 102.851 399.685 102.761 399.604C102.672 399.522 102.537 399.46 102.353 399.419L101.702 399.276C101.344 399.194 101.079 399.064 100.907 398.886C100.737 398.707 100.651 398.481 100.651 398.207C100.651 397.981 100.715 397.782 100.842 397.612C100.968 397.442 101.144 397.309 101.367 397.214C101.591 397.117 101.847 397.069 102.135 397.069C102.551 397.069 102.878 397.159 103.116 397.339C103.355 397.518 103.512 397.757 103.589 398.057ZM106.412 395.838H107.35L108.981 399.821H109.042L110.673 395.838H111.611V400.962H110.876V397.254H110.828L109.317 400.955H108.706L107.195 397.252H107.147V400.962H106.412V395.838ZM114.294 401.04C113.934 401.04 113.62 400.957 113.351 400.792C113.082 400.627 112.874 400.396 112.725 400.099C112.577 399.802 112.503 399.455 112.503 399.058C112.503 398.659 112.577 398.311 112.725 398.012C112.874 397.714 113.082 397.482 113.351 397.317C113.62 397.151 113.934 397.069 114.294 397.069C114.655 397.069 114.969 397.151 115.238 397.317C115.506 397.482 115.715 397.714 115.863 398.012C116.012 398.311 116.086 398.659 116.086 399.058C116.086 399.455 116.012 399.802 115.863 400.099C115.715 400.396 115.506 400.627 115.238 400.792C114.969 400.957 114.655 401.04 114.294 401.04ZM114.297 400.412C114.53 400.412 114.724 400.35 114.877 400.227C115.031 400.103 115.144 399.939 115.218 399.734C115.293 399.529 115.33 399.303 115.33 399.056C115.33 398.81 115.293 398.585 115.218 398.38C115.144 398.173 115.031 398.007 114.877 397.882C114.724 397.757 114.53 397.694 114.297 397.694C114.062 397.694 113.866 397.757 113.711 397.882C113.558 398.007 113.444 398.173 113.369 398.38C113.295 398.585 113.258 398.81 113.258 399.056C113.258 399.303 113.295 399.529 113.369 399.734C113.444 399.939 113.558 400.103 113.711 400.227C113.866 400.35 114.062 400.412 114.297 400.412ZM117.669 398.68V400.962H116.921V397.119H117.639V397.745H117.687C117.775 397.541 117.914 397.378 118.102 397.254C118.292 397.131 118.532 397.069 118.82 397.069C119.082 397.069 119.312 397.124 119.508 397.234C119.705 397.342 119.858 397.504 119.966 397.719C120.075 397.935 120.129 398.201 120.129 398.518V400.962H119.381V398.608C119.381 398.329 119.308 398.112 119.163 397.955C119.018 397.796 118.819 397.717 118.565 397.717C118.392 397.717 118.237 397.755 118.102 397.83C117.969 397.905 117.863 398.015 117.784 398.16C117.708 398.303 117.669 398.477 117.669 398.68ZM122.927 397.119V397.719H120.827V397.119H122.927ZM121.39 396.198H122.138V399.834C122.138 399.979 122.16 400.088 122.203 400.162C122.247 400.233 122.303 400.283 122.371 400.309C122.441 400.334 122.517 400.347 122.599 400.347C122.659 400.347 122.711 400.343 122.756 400.334C122.801 400.326 122.836 400.319 122.861 400.314L122.997 400.932C122.953 400.949 122.891 400.966 122.811 400.982C122.731 401.001 122.631 401.011 122.511 401.012C122.314 401.016 122.131 400.981 121.961 400.907C121.79 400.834 121.653 400.721 121.548 400.567C121.443 400.414 121.39 400.221 121.39 399.989V396.198ZM124.585 398.68V400.962H123.837V395.838H124.575V397.745H124.622C124.712 397.538 124.85 397.373 125.035 397.252C125.22 397.13 125.462 397.069 125.761 397.069C126.025 397.069 126.255 397.123 126.452 397.232C126.65 397.34 126.804 397.502 126.912 397.717C127.022 397.931 127.077 398.197 127.077 398.518V400.962H126.329V398.608C126.329 398.326 126.256 398.107 126.111 397.952C125.966 397.795 125.764 397.717 125.506 397.717C125.329 397.717 125.17 397.755 125.03 397.83C124.892 397.905 124.783 398.015 124.702 398.16C124.624 398.303 124.585 398.477 124.585 398.68ZM130.956 398.057L130.277 398.177C130.249 398.091 130.204 398.008 130.142 397.93C130.082 397.851 130.001 397.787 129.897 397.737C129.794 397.687 129.664 397.662 129.509 397.662C129.297 397.662 129.121 397.709 128.979 397.805C128.837 397.898 128.766 398.019 128.766 398.167C128.766 398.296 128.814 398.399 128.909 398.478C129.004 398.556 129.157 398.62 129.369 398.67L129.98 398.81C130.333 398.892 130.597 399.018 130.77 399.188C130.944 399.358 131.031 399.579 131.031 399.851C131.031 400.082 130.964 400.287 130.83 400.467C130.699 400.645 130.514 400.786 130.277 400.887C130.042 400.989 129.77 401.04 129.459 401.04C129.029 401.04 128.678 400.948 128.406 400.765C128.134 400.58 127.967 400.317 127.905 399.977L128.629 399.866C128.674 400.055 128.766 400.198 128.906 400.294C129.046 400.389 129.229 400.437 129.454 400.437C129.699 400.437 129.895 400.386 130.042 400.284C130.189 400.181 130.262 400.055 130.262 399.906C130.262 399.786 130.217 399.685 130.127 399.604C130.039 399.522 129.903 399.46 129.719 399.419L129.069 399.276C128.71 399.194 128.445 399.064 128.273 398.886C128.103 398.707 128.018 398.481 128.018 398.207C128.018 397.981 128.081 397.782 128.208 397.612C128.335 397.442 128.51 397.309 128.734 397.214C128.957 397.117 129.213 397.069 129.502 397.069C129.917 397.069 130.244 397.159 130.483 397.339C130.721 397.518 130.879 397.757 130.956 398.057Z" fill="#3CD999"/>
<path d="M81.576 367.253V354.659H84.7602V367.253H81.576ZM76.8709 362.548V359.364H89.4653V362.548H76.8709ZM99.8093 370.277C98.5523 370.277 97.4316 370.046 96.4473 369.584C95.4689 369.121 94.6921 368.484 94.117 367.671C93.5418 366.859 93.2424 365.928 93.2186 364.879H96.9542C96.9958 365.584 97.2922 366.156 97.8437 366.595C98.3951 367.034 99.0503 367.253 99.8093 367.253C100.414 367.253 100.948 367.12 101.41 366.853C101.879 366.58 102.243 366.204 102.504 365.723C102.771 365.237 102.905 364.68 102.905 364.051C102.905 363.411 102.768 362.848 102.495 362.361C102.229 361.875 101.858 361.496 101.384 361.223C100.909 360.95 100.367 360.811 99.7559 360.805C99.2223 360.805 98.7035 360.915 98.1994 361.134C97.7014 361.353 97.313 361.653 97.0343 362.032L93.61 361.419L94.4727 351.813H105.608V354.961H97.648L97.1766 359.524H97.2833C97.6035 359.074 98.0868 358.7 98.7331 358.403C99.3794 358.107 100.103 357.959 100.903 357.959C102 357.959 102.979 358.217 103.838 358.733C104.698 359.248 105.377 359.957 105.875 360.858C106.373 361.754 106.619 362.785 106.613 363.954C106.619 365.181 106.335 366.272 105.76 367.227C105.19 368.175 104.393 368.922 103.367 369.468C102.347 370.008 101.161 370.277 99.8093 370.277ZM116.29 370.277C115.354 370.271 114.449 370.114 113.578 369.806C112.712 369.498 111.935 368.997 111.247 368.303C110.56 367.609 110.014 366.69 109.611 365.546C109.214 364.401 109.015 362.996 109.015 361.33C109.021 359.8 109.196 358.433 109.54 357.229C109.89 356.02 110.388 354.994 111.034 354.152C111.686 353.31 112.466 352.67 113.373 352.231C114.28 351.786 115.297 351.564 116.424 351.564C117.639 351.564 118.713 351.801 119.644 352.275C120.575 352.744 121.322 353.381 121.885 354.188C122.454 354.994 122.798 355.898 122.917 356.9H119.119C118.971 356.266 118.659 355.768 118.185 355.406C117.711 355.044 117.124 354.864 116.424 354.864C115.238 354.864 114.337 355.379 113.72 356.411C113.109 357.443 112.798 358.845 112.786 360.618H112.911C113.183 360.079 113.551 359.619 114.014 359.24C114.482 358.854 115.013 358.561 115.606 358.359C116.204 358.151 116.836 358.048 117.5 358.048C118.579 358.048 119.54 358.303 120.382 358.813C121.224 359.317 121.888 360.01 122.374 360.894C122.86 361.777 123.103 362.788 123.103 363.927C123.103 365.16 122.816 366.257 122.241 367.218C121.671 368.178 120.874 368.931 119.848 369.477C118.828 370.016 117.642 370.283 116.29 370.277ZM116.273 367.253C116.866 367.253 117.396 367.111 117.865 366.826C118.333 366.542 118.701 366.156 118.968 365.67C119.234 365.184 119.368 364.638 119.368 364.034C119.368 363.429 119.234 362.886 118.968 362.406C118.707 361.926 118.345 361.543 117.883 361.259C117.42 360.974 116.892 360.832 116.299 360.832C115.855 360.832 115.443 360.915 115.063 361.081C114.689 361.247 114.36 361.478 114.076 361.774C113.797 362.071 113.578 362.415 113.418 362.806C113.257 363.192 113.177 363.604 113.177 364.042C113.177 364.629 113.311 365.166 113.578 365.652C113.85 366.139 114.218 366.527 114.681 366.817C115.149 367.108 115.68 367.253 116.273 367.253ZM126.554 370.028L134.106 355.086V354.961H125.309V351.813H138.09V355.006L130.53 370.028H126.554ZM147.158 370.277C145.788 370.277 144.57 370.055 143.503 369.61C142.441 369.16 141.608 368.546 141.003 367.769C140.398 366.992 140.096 366.112 140.096 365.128C140.096 364.369 140.268 363.672 140.612 363.037C140.962 362.397 141.436 361.866 142.035 361.445C142.634 361.018 143.304 360.746 144.045 360.627V360.503C143.073 360.307 142.284 359.835 141.679 359.088C141.074 358.335 140.772 357.461 140.772 356.465C140.772 355.522 141.048 354.683 141.599 353.947C142.151 353.206 142.907 352.625 143.867 352.204C144.834 351.777 145.931 351.564 147.158 351.564C148.386 351.564 149.48 351.777 150.44 352.204C151.407 352.631 152.166 353.215 152.717 353.956C153.268 354.692 153.547 355.528 153.553 356.465C153.547 357.467 153.239 358.341 152.628 359.088C152.017 359.835 151.235 360.307 150.28 360.503V360.627C151.009 360.746 151.67 361.018 152.263 361.445C152.862 361.866 153.337 362.397 153.687 363.037C154.042 363.672 154.223 364.369 154.229 365.128C154.223 366.112 153.918 366.992 153.313 367.769C152.708 368.546 151.872 369.16 150.805 369.61C149.743 370.055 148.528 370.277 147.158 370.277ZM147.158 367.449C147.769 367.449 148.302 367.339 148.759 367.12C149.216 366.895 149.571 366.586 149.826 366.195C150.087 365.798 150.218 365.341 150.218 364.825C150.218 364.297 150.084 363.832 149.817 363.429C149.551 363.02 149.189 362.699 148.732 362.468C148.276 362.231 147.751 362.112 147.158 362.112C146.571 362.112 146.046 362.231 145.584 362.468C145.121 362.699 144.757 363.02 144.49 363.429C144.229 363.832 144.098 364.297 144.098 364.825C144.098 365.341 144.226 365.798 144.481 366.195C144.736 366.586 145.095 366.895 145.557 367.12C146.02 367.339 146.553 367.449 147.158 367.449ZM147.158 359.311C147.668 359.311 148.122 359.207 148.519 358.999C148.916 358.792 149.227 358.504 149.453 358.137C149.678 357.769 149.791 357.345 149.791 356.865C149.791 356.39 149.678 355.975 149.453 355.62C149.227 355.258 148.919 354.976 148.528 354.775C148.136 354.567 147.68 354.463 147.158 354.463C146.642 354.463 146.186 354.567 145.788 354.775C145.391 354.976 145.08 355.258 144.854 355.62C144.635 355.975 144.525 356.39 144.525 356.865C144.525 357.345 144.638 357.769 144.863 358.137C145.089 358.504 145.4 358.792 145.797 358.999C146.195 359.207 146.648 359.311 147.158 359.311Z" fill="#060C3C"/>
<path d="M240.053 370C240.053 358.935 249.023 349.965 260.088 349.965C271.153 349.965 280.123 358.935 280.123 370C280.123 381.065 271.153 390.035 260.088 390.035C249.023 390.035 240.053 381.065 240.053 370Z" fill="#9374FF" stroke="white"/>
<path d="M264.695 370C264.695 358.935 273.665 349.965 284.73 349.965C295.795 349.965 304.765 358.935 304.765 370C304.765 381.065 295.795 390.035 284.73 390.035C273.665 390.035 264.695 381.065 264.695 370Z" fill="#FFDC60" stroke="white"/>
<path d="M289.336 370C289.336 358.935 298.306 349.965 309.371 349.965C320.436 349.965 329.406 358.935 329.406 370C329.406 381.065 320.436 390.035 309.371 390.035C298.306 390.035 289.336 381.065 289.336 370Z" fill="#FF80AD" stroke="white"/>
<path d="M313.979 370C313.979 358.935 322.949 349.965 334.014 349.965C345.079 349.965 354.049 358.935 354.049 370C354.049 381.065 345.079 390.035 334.014 390.035C322.949 390.035 313.979 381.065 313.979 370Z" fill="#508AFF" stroke="white"/>
<path d="M338.621 370C338.621 358.935 347.591 349.965 358.656 349.965C369.721 349.965 378.691 358.935 378.691 370C378.691 381.065 369.721 390.035 358.656 390.035C347.591 390.035 338.621 381.065 338.621 370Z" fill="#FFDC60" stroke="white"/>
<path d="M363.264 370C363.264 358.935 372.234 349.965 383.299 349.965C394.364 349.965 403.334 358.935 403.334 370C403.334 381.065 394.364 390.035 383.299 390.035C372.234 390.035 363.264 381.065 363.264 370Z" fill="#9476FD" stroke="white"/>
<g filter="url(#filter4_d_15_2227)">
<rect x="450.848" y="285" width="83" height="81" rx="5.61991" fill="white"/>
</g>
<path d="M486.218 304.315L486.846 305.092L486.218 304.315ZM487.846 305.092L488.846 305.092L488.846 305.092L487.846 305.092ZM487.846 337.701L488.846 337.701L487.846 337.701ZM489.528 338.432L490.21 339.164L489.528 338.432ZM547.846 285.035C547.865 284.483 547.433 284.02 546.881 284.001L537.887 283.685C537.335 283.666 536.872 284.098 536.853 284.65C536.833 285.201 537.265 285.665 537.817 285.684L545.812 285.965L545.531 293.96C545.512 294.512 545.944 294.975 546.496 294.994C547.048 295.013 547.511 294.582 547.53 294.03L547.846 285.035ZM423.475 356.278L486.846 305.092L485.59 303.537L422.218 354.722L423.475 356.278ZM486.846 305.092L486.846 337.701L488.846 337.701L488.846 305.092L486.846 305.092ZM490.21 339.164L547.528 285.732L546.164 284.269L488.846 337.701L490.21 339.164ZM486.846 337.701C486.846 339.449 488.931 340.356 490.21 339.164L488.846 337.701L488.846 337.701L486.846 337.701ZM486.846 305.092L486.846 305.092L488.846 305.092C488.846 303.411 486.898 302.48 485.59 303.537L486.846 305.092Z" fill="#FFC700"/>
<defs>
<filter id="filter0_d_15_2227" x="8.44567" y="12.615" width="358.109" height="300.109" filterUnits="userSpaceOnUse" color-interpolation-filters="sRGB">
<feFlood flood-opacity="0" result="BackgroundImageFix"/>
<feColorMatrix in="SourceAlpha" type="matrix" values="0 0 0 0 0 0 0 0 0 0 0 0 0 0 0 0 0 0 127 0" result="hardAlpha"/>
<feMorphology radius="2.29233" operator="erode" in="SourceAlpha" result="effect1_dropShadow_15_2227"/>
<feOffset dy="9.16933"/>
<feGaussianBlur stdDeviation="22.9233"/>
<feColorMatrix type="matrix" values="0 0 0 0 0.0235294 0 0 0 0 0.0470588 0 0 0 0 0.231373 0 0 0 0.08 0"/>
<feBlend mode="normal" in2="BackgroundImageFix" result="effect1_dropShadow_15_2227"/>
<feBlend mode="normal" in="SourceGraphic" in2="effect1_dropShadow_15_2227" result="shape"/>
</filter>
<filter id="filter1_d_15_2227" x="309.407" y="66.9004" width="239.783" height="236.036" filterUnits="userSpaceOnUse" color-interpolation-filters="sRGB">
<feFlood flood-opacity="0" result="BackgroundImageFix"/>
<feColorMatrix in="SourceAlpha" type="matrix" values="0 0 0 0 0 0 0 0 0 0 0 0 0 0 0 0 0 0 127 0" result="hardAlpha"/>
<feMorphology radius="1.8733" operator="erode" in="SourceAlpha" result="effect1_dropShadow_15_2227"/>
<feOffset dy="7.49322"/>
<feGaussianBlur stdDeviation="18.733"/>
<feColorMatrix type="matrix" values="0 0 0 0 0.0235294 0 0 0 0 0.0470588 0 0 0 0 0.231373 0 0 0 0.08 0"/>
<feBlend mode="normal" in2="BackgroundImageFix" result="effect1_dropShadow_15_2227"/>
<feBlend mode="normal" in="SourceGraphic" in2="effect1_dropShadow_15_2227" result="shape"/>
</filter>
<filter id="filter2_d_15_2227" x="309.407" y="17.9004" width="151.186" height="104.186" filterUnits="userSpaceOnUse" color-interpolation-filters="sRGB">
<feFlood flood-opacity="0" result="BackgroundImageFix"/>
<feColorMatrix in="SourceAlpha" type="matrix" values="0 0 0 0 0 0 0 0 0 0 0 0 0 0 0 0 0 0 127 0" result="hardAlpha"/>
<feMorphology radius="1.8733" operator="erode" in="SourceAlpha" result="effect1_dropShadow_15_2227"/>
<feOffset dy="7.49322"/>
<feGaussianBlur stdDeviation="18.733"/>
<feColorMatrix type="matrix" values="0 0 0 0 0.0235294 0 0 0 0 0.0470588 0 0 0 0 0.231373 0 0 0 0.08 0"/>
<feBlend mode="normal" in2="BackgroundImageFix" result="effect1_dropShadow_15_2227"/>
<feBlend mode="normal" in="SourceGraphic" in2="effect1_dropShadow_15_2227" result="shape"/>
</filter>
<filter id="filter3_d_15_2227" x="8.44567" y="249.615" width="458.109" height="232.109" filterUnits="userSpaceOnUse" color-interpolation-filters="sRGB">
<feFlood flood-opacity="0" result="BackgroundImageFix"/>
<feColorMatrix in="SourceAlpha" type="matrix" values="0 0 0 0 0 0 0 0 0 0 0 0 0 0 0 0 0 0 127 0" result="hardAlpha"/>
<feMorphology radius="2.29233" operator="erode" in="SourceAlpha" result="effect1_dropShadow_15_2227"/>
<feOffset dy="9.16933"/>
<feGaussianBlur stdDeviation="22.9233"/>
<feColorMatrix type="matrix" values="0 0 0 0 0.0235294 0 0 0 0 0.0470588 0 0 0 0 0.231373 0 0 0 0.08 0"/>
<feBlend mode="normal" in2="BackgroundImageFix" result="effect1_dropShadow_15_2227"/>
<feBlend mode="normal" in="SourceGraphic" in2="effect1_dropShadow_15_2227" result="shape"/>
</filter>
<filter id="filter4_d_15_2227" x="415.255" y="256.9" width="154.186" height="152.186" filterUnits="userSpaceOnUse" color-interpolation-filters="sRGB">
<feFlood flood-opacity="0" result="BackgroundImageFix"/>
<feColorMatrix in="SourceAlpha" type="matrix" values="0 0 0 0 0 0 0 0 0 0 0 0 0 0 0 0 0 0 127 0" result="hardAlpha"/>
<feMorphology radius="1.8733" operator="erode" in="SourceAlpha" result="effect1_dropShadow_15_2227"/>
<feOffset dy="7.49322"/>
<feGaussianBlur stdDeviation="18.733"/>
<feColorMatrix type="matrix" values="0 0 0 0 0.0235294 0 0 0 0 0.0470588 0 0 0 0 0.231373 0 0 0 0.08 0"/>
<feBlend mode="normal" in2="BackgroundImageFix" result="effect1_dropShadow_15_2227"/>
<feBlend mode="normal" in="SourceGraphic" in2="effect1_dropShadow_15_2227" result="shape"/>
</filter>
</defs>
</svg>
