<svg width="326" height="285" viewBox="0 0 326 285" fill="none" xmlns="http://www.w3.org/2000/svg">
<path d="M178.999 18.0701C187.819 25.1401 196.219 24.2001 202.349 23.5201C207.849 22.9101 210.429 22.7501 213.929 25.5501C217.419 28.3501 217.839 30.9001 218.439 36.4101C219.109 42.5401 220.029 50.9401 228.849 58.0101C237.669 65.0801 246.069 64.1401 252.199 63.4601C257.699 62.8501 260.279 62.6901 263.779 65.4901C267.269 68.2901 267.689 70.8401 268.289 76.3401C268.959 82.4701 269.879 90.8701 278.699 97.9401C287.519 105.01 295.919 104.07 302.049 103.39C307.549 102.78 310.129 102.62 313.629 105.42L323.629 92.9301C314.809 85.8601 306.409 86.8001 300.279 87.4801C294.779 88.0901 292.199 88.2501 288.699 85.4501C285.209 82.6501 284.789 80.1001 284.189 74.6001C283.519 68.4701 282.599 60.0701 273.779 53.0001C264.959 45.9301 256.559 46.8701 250.429 47.5501C244.929 48.1601 242.349 48.3201 238.849 45.5201C235.349 42.7201 234.939 40.1701 234.339 34.6601C233.669 28.5301 232.749 20.1301 223.929 13.0601C215.109 5.99007 206.709 6.93008 200.579 7.61008C195.079 8.22008 192.499 8.38008 188.999 5.58008L178.999 18.0701Z" fill="#FEEAA6" fill-opacity="0.4"/>
<path d="M189.268 5.24558C186.506 8.69486 187.026 13.9082 191.123 15.5631C197.36 18.0824 203.105 17.4407 207.618 16.94C213.118 16.33 215.698 16.17 219.198 18.97C222.688 21.77 223.108 24.32 223.708 29.83C224.378 35.96 225.298 44.36 234.118 51.43C242.938 58.5 251.338 57.56 257.468 56.88C262.968 56.27 265.548 56.11 269.048 58.91C272.538 61.71 272.958 64.26 273.558 69.76C274.228 75.89 275.148 84.29 283.968 91.36C292.788 98.43 301.188 97.49 307.318 96.81C308.92 96.6323 310.275 96.4928 311.476 96.4535C315.893 96.3091 321.137 96.0442 323.899 92.5944C326.661 89.1451 326.141 83.9318 322.044 82.2769C315.807 79.7576 310.062 80.3993 305.548 80.9C300.048 81.51 297.468 81.67 293.968 78.87C290.478 76.07 290.058 73.52 289.458 68.02C288.788 61.89 287.868 53.49 279.048 46.42C270.228 39.35 261.828 40.29 255.698 40.97C250.198 41.58 247.618 41.74 244.118 38.94C240.618 36.14 240.208 33.59 239.608 28.08C238.938 21.95 238.018 13.55 229.198 6.48C220.378 -0.590001 211.978 0.350003 205.848 1.03C204.246 1.20767 202.892 1.34717 201.691 1.38647C197.274 1.53095 192.03 1.79585 189.268 5.24558Z" fill="url(#paint0_linear_0_1)" fill-opacity="0.5"/>
<g filter="url(#filter0_d_0_1)">
<rect x="32.0273" y="137.418" width="209.061" height="108.752" rx="5.05792" fill="white"/>
</g>
<line x1="48.8867" y1="198.902" x2="217.484" y2="198.902" stroke="#B4B6C4" stroke-width="0.842987"/>
<path d="M99.388 155.768V166.804H97.0548V155.768H99.388ZM103.56 162.019V166.804H101.265V158.527H103.452V159.987H103.549C103.732 159.506 104.04 159.125 104.471 158.845C104.902 158.561 105.424 158.419 106.039 158.419C106.613 158.419 107.115 158.545 107.542 158.797C107.97 159.048 108.302 159.407 108.539 159.874C108.776 160.338 108.895 160.891 108.895 161.534V166.804H106.599V161.943C106.603 161.437 106.473 161.042 106.211 160.758C105.949 160.471 105.588 160.327 105.128 160.327C104.819 160.327 104.546 160.393 104.309 160.526C104.075 160.659 103.892 160.853 103.759 161.108C103.63 161.36 103.564 161.663 103.56 162.019ZM117.59 160.887L115.489 161.017C115.453 160.837 115.375 160.675 115.257 160.532C115.138 160.384 114.982 160.268 114.788 160.181C114.598 160.092 114.37 160.047 114.104 160.047C113.748 160.047 113.448 160.122 113.204 160.273C112.96 160.42 112.837 160.618 112.837 160.866C112.837 161.063 112.917 161.23 113.075 161.367C113.233 161.503 113.504 161.613 113.888 161.695L115.386 161.997C116.191 162.162 116.791 162.428 117.186 162.795C117.581 163.161 117.779 163.643 117.779 164.239C117.779 164.781 117.619 165.257 117.299 165.667C116.983 166.076 116.548 166.396 115.995 166.626C115.445 166.852 114.811 166.965 114.093 166.965C112.997 166.965 112.124 166.737 111.474 166.281C110.828 165.821 110.449 165.196 110.337 164.406L112.595 164.287C112.663 164.621 112.829 164.876 113.091 165.052C113.353 165.225 113.689 165.311 114.098 165.311C114.501 165.311 114.824 165.234 115.068 165.079C115.316 164.921 115.442 164.718 115.445 164.471C115.442 164.262 115.354 164.092 115.181 163.959C115.009 163.822 114.743 163.718 114.384 163.646L112.951 163.361C112.142 163.199 111.541 162.919 111.146 162.52C110.754 162.121 110.558 161.613 110.558 160.995C110.558 160.463 110.702 160.005 110.989 159.621C111.28 159.237 111.688 158.94 112.212 158.732C112.741 158.524 113.358 158.419 114.066 158.419C115.111 158.419 115.934 158.64 116.534 159.082C117.137 159.524 117.489 160.126 117.59 160.887ZM123.626 158.527V160.251H118.642V158.527H123.626ZM119.774 156.544H122.069V164.26C122.069 164.472 122.102 164.638 122.166 164.756C122.231 164.871 122.321 164.952 122.436 164.999C122.554 165.045 122.691 165.069 122.845 165.069C122.953 165.069 123.061 165.06 123.168 165.042C123.276 165.02 123.359 165.004 123.416 164.993L123.777 166.701C123.662 166.737 123.501 166.779 123.292 166.825C123.084 166.876 122.831 166.906 122.533 166.917C121.979 166.938 121.494 166.865 121.078 166.696C120.665 166.527 120.343 166.265 120.113 165.909C119.883 165.554 119.77 165.105 119.774 164.562V156.544ZM127.482 166.96C126.954 166.96 126.483 166.868 126.07 166.685C125.657 166.498 125.33 166.224 125.089 165.861C124.852 165.494 124.734 165.038 124.734 164.492C124.734 164.032 124.818 163.646 124.987 163.334C125.156 163.021 125.386 162.77 125.677 162.579C125.968 162.389 126.298 162.245 126.668 162.148C127.042 162.051 127.433 161.983 127.843 161.943C128.324 161.893 128.712 161.846 129.007 161.803C129.301 161.757 129.515 161.688 129.648 161.599C129.781 161.509 129.847 161.376 129.847 161.2V161.167C129.847 160.826 129.74 160.562 129.524 160.375C129.312 160.189 129.01 160.095 128.619 160.095C128.206 160.095 127.877 160.187 127.633 160.37C127.388 160.55 127.227 160.776 127.148 161.049L125.025 160.876C125.133 160.374 125.344 159.939 125.661 159.572C125.977 159.202 126.384 158.919 126.884 158.721C127.387 158.52 127.969 158.419 128.63 158.419C129.089 158.419 129.529 158.473 129.95 158.581C130.374 158.689 130.749 158.856 131.076 159.082C131.406 159.308 131.667 159.599 131.857 159.955C132.048 160.307 132.143 160.729 132.143 161.221V166.804H129.966V165.656H129.901C129.768 165.915 129.591 166.143 129.368 166.34C129.145 166.534 128.877 166.687 128.565 166.798C128.252 166.906 127.891 166.96 127.482 166.96ZM128.139 165.376C128.477 165.376 128.775 165.309 129.034 165.176C129.292 165.04 129.495 164.857 129.643 164.627C129.79 164.397 129.864 164.136 129.864 163.845V162.967C129.792 163.014 129.693 163.057 129.567 163.096C129.445 163.132 129.307 163.167 129.152 163.199C128.998 163.228 128.843 163.255 128.689 163.28C128.534 163.301 128.394 163.321 128.269 163.339C127.999 163.378 127.764 163.441 127.563 163.528C127.362 163.614 127.205 163.731 127.094 163.878C126.983 164.021 126.927 164.201 126.927 164.417C126.927 164.729 127.04 164.968 127.266 165.133C127.496 165.295 127.787 165.376 128.139 165.376ZM137.652 170.08C136.909 170.08 136.271 169.977 135.74 169.773C135.212 169.572 134.791 169.297 134.479 168.948C134.166 168.6 133.963 168.208 133.87 167.774L135.993 167.488C136.058 167.653 136.16 167.808 136.3 167.951C136.44 168.095 136.625 168.21 136.855 168.296C137.088 168.386 137.372 168.431 137.706 168.431C138.206 168.431 138.617 168.309 138.94 168.065C139.267 167.824 139.431 167.42 139.431 166.852V165.338H139.334C139.233 165.568 139.082 165.785 138.881 165.99C138.68 166.195 138.421 166.362 138.105 166.491C137.789 166.621 137.412 166.685 136.974 166.685C136.352 166.685 135.786 166.541 135.276 166.254C134.77 165.963 134.366 165.519 134.064 164.923C133.766 164.323 133.617 163.565 133.617 162.649C133.617 161.712 133.769 160.929 134.075 160.3C134.38 159.671 134.786 159.201 135.292 158.888C135.802 158.576 136.361 158.419 136.968 158.419C137.432 158.419 137.82 158.498 138.132 158.656C138.445 158.811 138.696 159.005 138.886 159.238C139.08 159.468 139.229 159.695 139.334 159.917H139.42V158.527H141.699V166.885C141.699 167.589 141.527 168.178 141.182 168.652C140.837 169.126 140.359 169.482 139.749 169.719C139.141 169.96 138.443 170.08 137.652 170.08ZM137.701 164.961C138.071 164.961 138.384 164.869 138.639 164.686C138.897 164.499 139.095 164.233 139.231 163.889C139.371 163.54 139.441 163.123 139.441 162.638C139.441 162.154 139.373 161.733 139.237 161.378C139.1 161.018 138.903 160.74 138.644 160.542C138.385 160.345 138.071 160.246 137.701 160.246C137.324 160.246 137.006 160.348 136.747 160.553C136.489 160.754 136.293 161.035 136.16 161.394C136.027 161.753 135.961 162.168 135.961 162.638C135.961 163.116 136.027 163.529 136.16 163.878C136.296 164.223 136.492 164.49 136.747 164.681C137.006 164.867 137.324 164.961 137.701 164.961ZM143.526 166.804V158.527H145.751V159.971H145.837C145.988 159.458 146.242 159.07 146.597 158.807C146.953 158.541 147.362 158.409 147.826 158.409C147.941 158.409 148.065 158.416 148.198 158.43C148.331 158.444 148.447 158.464 148.548 158.489V160.526C148.44 160.494 148.291 160.465 148.101 160.44C147.91 160.415 147.736 160.402 147.578 160.402C147.24 160.402 146.939 160.476 146.673 160.623C146.41 160.767 146.202 160.968 146.048 161.227C145.897 161.485 145.821 161.784 145.821 162.121V166.804H143.526ZM151.858 166.96C151.33 166.96 150.859 166.868 150.446 166.685C150.033 166.498 149.706 166.224 149.465 165.861C149.228 165.494 149.11 165.038 149.11 164.492C149.11 164.032 149.194 163.646 149.363 163.334C149.532 163.021 149.762 162.77 150.053 162.579C150.344 162.389 150.674 162.245 151.044 162.148C151.418 162.051 151.809 161.983 152.219 161.943C152.7 161.893 153.088 161.846 153.383 161.803C153.677 161.757 153.891 161.688 154.024 161.599C154.157 161.509 154.223 161.376 154.223 161.2V161.167C154.223 160.826 154.115 160.562 153.9 160.375C153.688 160.189 153.386 160.095 152.995 160.095C152.582 160.095 152.253 160.187 152.009 160.37C151.764 160.55 151.603 160.776 151.524 161.049L149.401 160.876C149.508 160.374 149.72 159.939 150.036 159.572C150.353 159.202 150.76 158.919 151.26 158.721C151.762 158.52 152.344 158.419 153.005 158.419C153.465 158.419 153.905 158.473 154.326 158.581C154.749 158.689 155.125 158.856 155.452 159.082C155.782 159.308 156.043 159.599 156.233 159.955C156.423 160.307 156.519 160.729 156.519 161.221V166.804H154.342V165.656H154.277C154.144 165.915 153.966 166.143 153.744 166.34C153.521 166.534 153.253 166.687 152.941 166.798C152.628 166.906 152.267 166.96 151.858 166.96ZM152.515 165.376C152.853 165.376 153.151 165.309 153.41 165.176C153.668 165.04 153.871 164.857 154.018 164.627C154.166 164.397 154.239 164.136 154.239 163.845V162.967C154.168 163.014 154.069 163.057 153.943 163.096C153.821 163.132 153.683 163.167 153.528 163.199C153.374 163.228 153.219 163.255 153.065 163.28C152.91 163.301 152.77 163.321 152.644 163.339C152.375 163.378 152.14 163.441 151.939 163.528C151.737 163.614 151.581 163.731 151.47 163.878C151.358 164.021 151.303 164.201 151.303 164.417C151.303 164.729 151.416 164.968 151.642 165.133C151.872 165.295 152.163 165.376 152.515 165.376ZM158.3 166.804V158.527H160.487V159.987H160.584C160.757 159.502 161.044 159.12 161.446 158.84C161.849 158.559 162.33 158.419 162.89 158.419C163.458 158.419 163.941 158.561 164.34 158.845C164.739 159.125 165.005 159.506 165.137 159.987H165.224C165.392 159.513 165.698 159.134 166.14 158.85C166.585 158.563 167.111 158.419 167.718 158.419C168.491 158.419 169.118 158.665 169.599 159.158C170.084 159.646 170.326 160.339 170.326 161.237V166.804H168.036V161.69C168.036 161.23 167.914 160.885 167.67 160.656C167.426 160.426 167.12 160.311 166.754 160.311C166.337 160.311 166.012 160.444 165.779 160.709C165.545 160.972 165.428 161.318 165.428 161.749V166.804H163.203V161.642C163.203 161.236 163.086 160.912 162.853 160.672C162.623 160.431 162.319 160.311 161.942 160.311C161.687 160.311 161.457 160.375 161.252 160.505C161.051 160.63 160.891 160.808 160.773 161.038C160.654 161.264 160.595 161.53 160.595 161.836V166.804H158.3Z" fill="#060C3C"/>
<path d="M100.002 177.807V186.391H98.9623V178.897H98.912L96.8166 180.289V179.232L98.9623 177.807H100.002ZM102.47 186.391V185.636L105.303 182.535C105.636 182.172 105.91 181.856 106.125 181.588C106.34 181.317 106.499 181.062 106.603 180.825C106.709 180.585 106.762 180.333 106.762 180.071C106.762 179.769 106.689 179.508 106.544 179.287C106.401 179.066 106.206 178.896 105.957 178.776C105.708 178.655 105.429 178.595 105.119 178.595C104.789 178.595 104.501 178.664 104.256 178.801C104.012 178.935 103.824 179.123 103.69 179.367C103.558 179.61 103.493 179.895 103.493 180.221H102.504C102.504 179.719 102.62 179.277 102.852 178.897C103.083 178.517 103.399 178.221 103.799 178.009C104.201 177.796 104.652 177.69 105.152 177.69C105.655 177.69 106.101 177.796 106.489 178.009C106.878 178.221 107.182 178.507 107.403 178.868C107.624 179.228 107.734 179.629 107.734 180.071C107.734 180.386 107.677 180.695 107.562 180.997C107.45 181.296 107.255 181.63 106.976 181.998C106.699 182.364 106.315 182.812 105.823 183.34L103.895 185.402V185.469H107.885V186.391H102.47ZM111.108 185.217L111.041 185.67C110.993 185.988 110.921 186.329 110.823 186.692C110.728 187.056 110.629 187.398 110.525 187.719C110.422 188.04 110.337 188.296 110.27 188.486H109.515C109.552 188.307 109.599 188.071 109.658 187.778C109.716 187.484 109.775 187.156 109.834 186.793C109.895 186.433 109.946 186.064 109.985 185.687L110.035 185.217H111.108ZM115.474 186.508C115.122 186.502 114.77 186.435 114.418 186.307C114.066 186.178 113.744 185.962 113.454 185.657C113.163 185.35 112.93 184.935 112.754 184.412C112.578 183.887 112.49 183.228 112.49 182.434C112.49 181.674 112.561 181.001 112.704 180.414C112.846 179.825 113.053 179.329 113.324 178.926C113.595 178.521 113.922 178.214 114.304 178.004C114.69 177.795 115.125 177.69 115.608 177.69C116.088 177.69 116.516 177.787 116.89 177.979C117.268 178.169 117.575 178.435 117.812 178.776C118.05 179.116 118.204 179.509 118.273 179.953H117.251C117.156 179.568 116.971 179.248 116.698 178.994C116.424 178.739 116.061 178.612 115.608 178.612C114.943 178.612 114.419 178.901 114.036 179.48C113.656 180.058 113.465 180.87 113.462 181.915H113.529C113.686 181.677 113.871 181.475 114.087 181.307C114.304 181.137 114.545 181.005 114.807 180.913C115.07 180.821 115.348 180.775 115.641 180.775C116.133 180.775 116.583 180.898 116.991 181.144C117.399 181.387 117.726 181.723 117.972 182.154C118.217 182.581 118.34 183.071 118.34 183.625C118.34 184.155 118.222 184.642 117.984 185.083C117.747 185.522 117.413 185.871 116.983 186.131C116.555 186.388 116.052 186.514 115.474 186.508ZM115.474 185.586C115.826 185.586 116.142 185.498 116.421 185.322C116.703 185.146 116.925 184.91 117.087 184.614C117.252 184.317 117.335 183.988 117.335 183.625C117.335 183.27 117.255 182.947 117.096 182.656C116.939 182.363 116.723 182.13 116.446 181.957C116.172 181.783 115.859 181.697 115.507 181.697C115.242 181.697 114.995 181.75 114.766 181.856C114.536 181.959 114.335 182.102 114.162 182.283C113.992 182.465 113.857 182.673 113.76 182.908C113.662 183.14 113.613 183.384 113.613 183.641C113.613 183.982 113.693 184.301 113.852 184.597C114.014 184.893 114.235 185.132 114.514 185.314C114.796 185.495 115.116 185.586 115.474 185.586ZM119.989 186.391V185.636L122.822 182.535C123.154 182.172 123.428 181.856 123.643 181.588C123.858 181.317 124.017 181.062 124.121 180.825C124.227 180.585 124.28 180.333 124.28 180.071C124.28 179.769 124.207 179.508 124.062 179.287C123.92 179.066 123.724 178.896 123.475 178.776C123.227 178.655 122.947 178.595 122.637 178.595C122.308 178.595 122.02 178.664 121.774 178.801C121.531 178.935 121.342 179.123 121.208 179.367C121.077 179.61 121.011 179.895 121.011 180.221H120.022C120.022 179.719 120.138 179.277 120.37 178.897C120.602 178.517 120.918 178.221 121.317 178.009C121.719 177.796 122.171 177.69 122.671 177.69C123.174 177.69 123.619 177.796 124.008 178.009C124.396 178.221 124.701 178.507 124.921 178.868C125.142 179.228 125.252 179.629 125.252 180.071C125.252 180.386 125.195 180.695 125.081 180.997C124.969 181.296 124.773 181.63 124.494 181.998C124.217 182.364 123.833 182.812 123.341 183.34L121.413 185.402V185.469H125.403V186.391H119.989Z" fill="#060C3C"/>
<g clip-path="url(#clip0_0_1)">
<path d="M50.9949 155.59C48.3451 158.321 48.8874 161.223 48.8874 170.037C48.8874 177.357 47.6005 184.695 54.336 186.423C56.4392 186.959 75.0748 186.959 77.1753 186.42C79.9796 185.702 82.2613 183.444 82.5732 179.509C82.6168 178.959 82.6168 161.125 82.5718 160.565C82.2402 156.372 79.6396 153.956 76.2129 153.467C75.4275 153.354 75.2701 153.32 71.2407 153.313C56.9478 153.32 53.8147 152.689 50.9949 155.59Z" fill="url(#paint1_linear_0_1)"/>
<path d="M65.7442 157.69C60.6427 157.69 55.7984 157.239 53.948 161.952C53.1837 163.898 53.2947 166.426 53.2947 170.046C53.2947 173.222 53.1921 176.207 53.948 178.138C55.7941 182.853 60.6778 182.401 65.7414 182.401C70.6265 182.401 75.6633 182.906 77.5362 178.138C78.3019 176.172 78.1895 173.682 78.1895 170.046C78.1895 165.219 78.4579 162.102 76.0989 159.763C73.7104 157.393 70.4804 157.69 65.7386 157.69H65.7442ZM64.6286 159.916C75.27 159.9 76.6244 158.726 75.8769 175.034C75.6114 180.802 71.1857 180.169 65.7456 180.169C55.8265 180.169 55.5412 179.888 55.5412 170.04C55.5412 160.078 56.328 159.922 64.6286 159.913V159.916ZM72.3897 161.967C71.565 161.967 70.8963 162.631 70.8963 163.449C70.8963 164.268 71.565 164.931 72.3897 164.931C73.2145 164.931 73.8832 164.268 73.8832 163.449C73.8832 162.631 73.2145 161.967 72.3897 161.967ZM65.7442 163.7C62.2135 163.7 59.3515 166.542 59.3515 170.046C59.3515 173.549 62.2135 176.389 65.7442 176.389C69.2749 176.389 72.1354 173.549 72.1354 170.046C72.1354 166.542 69.2749 163.7 65.7442 163.7ZM65.7442 165.927C71.2306 165.927 71.2377 174.164 65.7442 174.164C60.2592 174.164 60.2507 165.927 65.7442 165.927Z" fill="white"/>
</g>
<rect x="48.8867" y="212.708" width="72.4969" height="5.01931" rx="2.50966" fill="#FFDC60"/>
<rect x="48.8867" y="224.42" width="72.4969" height="5.01931" rx="2.50965" fill="#528BFC"/>
<rect x="180.393" y="224.42" width="43.8353" height="5.01931" rx="2.50965" fill="#FF81AC"/>
<rect x="20" y="125" width="234" height="134" rx="12" fill="#9585F3" fill-opacity="0.05"/>
<defs>
<filter id="filter0_d_0_1" x="-0.00616825" y="112.128" width="273.128" height="172.819" filterUnits="userSpaceOnUse" color-interpolation-filters="sRGB">
<feFlood flood-opacity="0" result="BackgroundImageFix"/>
<feColorMatrix in="SourceAlpha" type="matrix" values="0 0 0 0 0 0 0 0 0 0 0 0 0 0 0 0 0 0 127 0" result="hardAlpha"/>
<feMorphology radius="1.68597" operator="erode" in="SourceAlpha" result="effect1_dropShadow_0_1"/>
<feOffset dy="6.7439"/>
<feGaussianBlur stdDeviation="16.8597"/>
<feColorMatrix type="matrix" values="0 0 0 0 0.0235294 0 0 0 0 0.0470588 0 0 0 0 0.231373 0 0 0 0.08 0"/>
<feBlend mode="normal" in2="BackgroundImageFix" result="effect1_dropShadow_0_1"/>
<feBlend mode="normal" in="SourceGraphic" in2="effect1_dropShadow_0_1" result="shape"/>
</filter>
<linearGradient id="paint0_linear_0_1" x1="256.583" y1="-1" x2="256.583" y2="98.84" gradientUnits="userSpaceOnUse">
<stop stop-color="#FFE176"/>
<stop offset="1" stop-color="#FFD646"/>
</linearGradient>
<linearGradient id="paint1_linear_0_1" x1="51.0596" y1="184.638" x2="82.1923" y2="157.486" gradientUnits="userSpaceOnUse">
<stop stop-color="#FFDD55"/>
<stop offset="0.5" stop-color="#FF543E"/>
<stop offset="1" stop-color="#C837AB"/>
</linearGradient>
<clipPath id="clip0_0_1">
<rect width="33.7195" height="33.4621" fill="white" transform="translate(48.8867 153.312)"/>
</clipPath>
</defs>
</svg>
