<svg width="407" height="267" viewBox="0 0 407 267" fill="none" xmlns="http://www.w3.org/2000/svg">
<path d="M24.6503 262.153L22.4944 254.107C22.0332 252.386 23.0582 250.611 24.7794 250.15L32.8253 247.994C34.5465 247.532 35.5715 245.757 35.1103 244.036C34.6491 242.315 32.8738 241.29 31.1526 241.751L23.1067 243.907C21.3855 244.368 19.6102 243.343 19.149 241.622L16.9931 233.576C16.5319 231.855 14.7565 230.83 13.0353 231.291C11.3142 231.752 10.2892 233.527 10.7503 235.249L12.9063 243.295C13.3674 245.016 12.3424 246.791 10.6212 247.252L2.57535 249.408C0.854155 249.869 -0.170844 251.645 0.290347 253.366C0.751539 255.087 2.5269 256.112 4.24809 255.651L12.294 253.495C14.0152 253.034 15.7905 254.059 16.2517 255.78L18.4076 263.826C18.8688 265.547 20.6441 266.572 22.3653 266.111C24.0865 265.65 25.1115 263.874 24.6503 262.153Z" fill="#FFDC60"/>
<g opacity="0.2">
<path d="M70.1156 98.4556C69.9056 99.5856 68.8256 100.326 67.6956 100.116C66.5656 99.9056 65.8256 98.8256 66.0356 97.6956C66.2456 96.5656 67.3256 95.8256 68.4556 96.0356C69.5856 96.2456 70.3256 97.3256 70.1156 98.4556Z" fill="#715DE3"/>
<path d="M86.1859 98.4556C85.9759 99.5856 84.8959 100.326 83.7659 100.116C82.6359 99.9056 81.8959 98.8256 82.1059 97.6956C82.3159 96.5656 83.3959 95.8256 84.5259 96.0356C85.6459 96.2456 86.3859 97.3256 86.1859 98.4556Z" fill="#715DE3"/>
<path d="M102.246 98.4556C102.036 99.5856 100.956 100.326 99.8265 100.116C98.6965 99.9056 97.9565 98.8256 98.1665 97.6956C98.3765 96.5656 99.4565 95.8256 100.586 96.0356C101.706 96.2456 102.456 97.3256 102.246 98.4556Z" fill="#715DE3"/>
<path d="M118.307 98.4556C118.097 99.5856 117.017 100.326 115.887 100.116C114.757 99.9056 114.017 98.8256 114.227 97.6956C114.437 96.5656 115.517 95.8256 116.647 96.0356C117.767 96.2456 118.517 97.3256 118.307 98.4556Z" fill="#715DE3"/>
<path d="M134.366 98.4556C134.156 99.5856 133.076 100.326 131.946 100.116C130.816 99.9056 130.076 98.8256 130.286 97.6956C130.496 96.5656 131.576 95.8256 132.706 96.0356C133.836 96.2456 134.576 97.3256 134.366 98.4556Z" fill="#715DE3"/>
<path d="M70.1156 111.986C69.9056 113.116 68.8256 113.856 67.6956 113.646C66.5656 113.436 65.8256 112.356 66.0356 111.226C66.2456 110.096 67.3256 109.356 68.4556 109.566C69.5856 109.776 70.3256 110.856 70.1156 111.986Z" fill="#715DE3"/>
<path d="M86.1859 111.986C85.9759 113.116 84.8959 113.856 83.7659 113.646C82.6359 113.436 81.8959 112.356 82.1059 111.226C82.3159 110.096 83.3959 109.356 84.5259 109.566C85.6459 109.776 86.3859 110.856 86.1859 111.986Z" fill="#715DE3"/>
<path d="M102.246 111.986C102.036 113.116 100.956 113.856 99.8265 113.646C98.6965 113.436 97.9565 112.356 98.1665 111.226C98.3765 110.096 99.4565 109.356 100.586 109.566C101.706 109.776 102.456 110.856 102.246 111.986Z" fill="#715DE3"/>
<path d="M118.307 111.986C118.097 113.116 117.017 113.856 115.887 113.646C114.757 113.436 114.017 112.356 114.227 111.226C114.437 110.096 115.517 109.356 116.647 109.566C117.767 109.776 118.517 110.856 118.307 111.986Z" fill="#715DE3"/>
<path d="M134.366 111.986C134.156 113.116 133.076 113.856 131.946 113.646C130.816 113.436 130.076 112.356 130.286 111.226C130.496 110.096 131.576 109.356 132.706 109.566C133.836 109.776 134.576 110.856 134.366 111.986Z" fill="#715DE3"/>
<path d="M70.1156 125.515C69.9056 126.645 68.8256 127.385 67.6956 127.175C66.5656 126.965 65.8256 125.885 66.0356 124.755C66.2456 123.625 67.3256 122.885 68.4556 123.095C69.5856 123.305 70.3256 124.385 70.1156 125.515Z" fill="#715DE3"/>
<path d="M86.1859 125.515C85.9759 126.645 84.8959 127.385 83.7659 127.175C82.6359 126.965 81.8959 125.885 82.1059 124.755C82.3159 123.625 83.3959 122.885 84.5259 123.095C85.6459 123.305 86.3859 124.385 86.1859 125.515Z" fill="#715DE3"/>
<path d="M102.246 125.515C102.036 126.645 100.956 127.385 99.8265 127.175C98.6965 126.965 97.9565 125.885 98.1665 124.755C98.3765 123.625 99.4565 122.885 100.586 123.095C101.706 123.305 102.456 124.385 102.246 125.515Z" fill="#715DE3"/>
<path d="M118.307 125.515C118.097 126.645 117.017 127.385 115.887 127.175C114.757 126.965 114.017 125.885 114.227 124.755C114.437 123.625 115.517 122.885 116.647 123.095C117.767 123.305 118.517 124.385 118.307 125.515Z" fill="#715DE3"/>
<path d="M134.366 125.515C134.156 126.645 133.076 127.385 131.946 127.175C130.816 126.965 130.076 125.885 130.286 124.755C130.496 123.625 131.576 122.885 132.706 123.095C133.836 123.305 134.576 124.385 134.366 125.515Z" fill="#715DE3"/>
<path d="M70.1156 139.045C69.9056 140.175 68.8256 140.915 67.6956 140.705C66.5656 140.495 65.8256 139.415 66.0356 138.285C66.2456 137.155 67.3256 136.415 68.4556 136.625C69.5856 136.835 70.3256 137.915 70.1156 139.045Z" fill="#715DE3"/>
<path d="M86.1859 139.045C85.9759 140.175 84.8959 140.915 83.7659 140.705C82.6359 140.495 81.8959 139.415 82.1059 138.285C82.3159 137.155 83.3959 136.415 84.5259 136.625C85.6459 136.835 86.3859 137.915 86.1859 139.045Z" fill="#715DE3"/>
<path d="M102.246 139.045C102.036 140.175 100.956 140.915 99.8265 140.705C98.6965 140.495 97.9565 139.415 98.1665 138.285C98.3765 137.155 99.4565 136.415 100.586 136.625C101.706 136.835 102.456 137.915 102.246 139.045Z" fill="#715DE3"/>
<path d="M118.307 139.045C118.097 140.175 117.017 140.915 115.887 140.705C114.757 140.495 114.017 139.415 114.227 138.285C114.437 137.155 115.517 136.415 116.647 136.625C117.767 136.835 118.517 137.915 118.307 139.045Z" fill="#715DE3"/>
<path d="M134.366 139.045C134.156 140.175 133.076 140.915 131.946 140.705C130.816 140.495 130.076 139.415 130.286 138.285C130.496 137.155 131.576 136.415 132.706 136.625C133.836 136.835 134.576 137.915 134.366 139.045Z" fill="#715DE3"/>
<path d="M70.1156 152.576C69.9056 153.706 68.8256 154.446 67.6956 154.236C66.5656 154.026 65.8256 152.946 66.0356 151.816C66.2456 150.686 67.3256 149.946 68.4556 150.156C69.5856 150.366 70.3256 151.446 70.1156 152.576Z" fill="#715DE3"/>
<path d="M86.1859 152.576C85.9759 153.706 84.8959 154.446 83.7659 154.236C82.6359 154.026 81.8959 152.946 82.1059 151.816C82.3159 150.686 83.3959 149.946 84.5259 150.156C85.6559 150.366 86.3859 151.446 86.1859 152.576Z" fill="#715DE3"/>
<path d="M102.246 152.576C102.036 153.706 100.956 154.446 99.8265 154.236C98.6965 154.026 97.9565 152.946 98.1665 151.816C98.3765 150.686 99.4565 149.946 100.586 150.156C101.706 150.366 102.456 151.446 102.246 152.576Z" fill="#715DE3"/>
<path d="M118.307 152.576C118.097 153.706 117.017 154.446 115.887 154.236C114.757 154.026 114.017 152.946 114.227 151.816C114.437 150.686 115.517 149.946 116.647 150.156C117.767 150.366 118.517 151.446 118.307 152.576Z" fill="#715DE3"/>
<path d="M134.366 152.576C134.156 153.706 133.076 154.446 131.946 154.236C130.816 154.026 130.076 152.946 130.286 151.816C130.496 150.686 131.576 149.946 132.706 150.156C133.836 150.366 134.576 151.446 134.366 152.576Z" fill="#715DE3"/>
<path d="M70.1156 166.106C69.9056 167.236 68.8256 167.976 67.6956 167.766C66.5656 167.556 65.8256 166.476 66.0356 165.346C66.2456 164.216 67.3256 163.476 68.4556 163.686C69.5856 163.896 70.3256 164.976 70.1156 166.106Z" fill="#715DE3"/>
<path d="M86.1859 166.106C85.9759 167.236 84.8959 167.976 83.7659 167.766C82.6359 167.556 81.8959 166.476 82.1059 165.346C82.3159 164.216 83.3959 163.476 84.5259 163.686C85.6559 163.896 86.3859 164.976 86.1859 166.106Z" fill="#715DE3"/>
<path d="M102.246 166.106C102.036 167.236 100.956 167.976 99.8265 167.766C98.6965 167.556 97.9565 166.476 98.1665 165.346C98.3765 164.216 99.4565 163.476 100.586 163.686C101.706 163.896 102.456 164.976 102.246 166.106Z" fill="#715DE3"/>
<path d="M118.307 166.106C118.097 167.236 117.017 167.976 115.887 167.766C114.757 167.556 114.017 166.476 114.227 165.346C114.437 164.216 115.517 163.476 116.647 163.686C117.767 163.896 118.517 164.976 118.307 166.106Z" fill="#715DE3"/>
<path d="M134.366 166.106C134.156 167.236 133.076 167.976 131.946 167.766C130.816 167.556 130.076 166.476 130.286 165.346C130.496 164.216 131.576 163.476 132.706 163.686C133.836 163.896 134.576 164.976 134.366 166.106Z" fill="#715DE3"/>
<path d="M70.1156 179.635C69.9056 180.765 68.8256 181.505 67.6956 181.295C66.5656 181.085 65.8256 180.005 66.0356 178.875C66.2456 177.745 67.3256 177.005 68.4556 177.215C69.5856 177.425 70.3256 178.505 70.1156 179.635Z" fill="#715DE3"/>
<path d="M86.1859 179.635C85.9759 180.765 84.8959 181.505 83.7659 181.295C82.6359 181.085 81.8959 180.005 82.1059 178.875C82.3159 177.745 83.3959 177.005 84.5259 177.215C85.6459 177.425 86.3859 178.505 86.1859 179.635Z" fill="#715DE3"/>
<path d="M102.246 179.635C102.036 180.765 100.956 181.505 99.8265 181.295C98.6965 181.085 97.9565 180.005 98.1665 178.875C98.3765 177.745 99.4565 177.005 100.586 177.215C101.706 177.425 102.456 178.505 102.246 179.635Z" fill="#715DE3"/>
<path d="M118.307 179.635C118.097 180.765 117.017 181.505 115.887 181.295C114.757 181.085 114.017 180.005 114.227 178.875C114.437 177.745 115.517 177.005 116.647 177.215C117.767 177.425 118.517 178.505 118.307 179.635Z" fill="#715DE3"/>
<path d="M134.366 179.635C134.156 180.765 133.076 181.505 131.946 181.295C130.816 181.085 130.076 180.005 130.286 178.875C130.496 177.745 131.576 177.005 132.706 177.215C133.836 177.425 134.576 178.505 134.366 179.635Z" fill="#715DE3"/>
<path d="M70.1156 193.166C69.9056 194.296 68.8256 195.036 67.6956 194.826C66.5656 194.616 65.8256 193.536 66.0356 192.406C66.2456 191.276 67.3256 190.536 68.4556 190.746C69.5856 190.956 70.3256 192.036 70.1156 193.166Z" fill="#715DE3"/>
<path d="M86.1859 193.166C85.9759 194.296 84.8959 195.036 83.7659 194.826C82.6359 194.616 81.8959 193.536 82.1059 192.406C82.3159 191.276 83.3959 190.536 84.5259 190.746C85.6459 190.956 86.3859 192.036 86.1859 193.166Z" fill="#715DE3"/>
<path d="M102.246 193.166C102.036 194.296 100.956 195.036 99.8265 194.826C98.6965 194.616 97.9565 193.536 98.1665 192.406C98.3765 191.276 99.4565 190.536 100.586 190.746C101.706 190.956 102.456 192.036 102.246 193.166Z" fill="#715DE3"/>
<path d="M118.307 193.166C118.097 194.296 117.017 195.036 115.887 194.826C114.757 194.616 114.017 193.536 114.227 192.406C114.437 191.276 115.517 190.536 116.647 190.746C117.767 190.956 118.517 192.036 118.307 193.166Z" fill="#715DE3"/>
<path d="M134.366 193.166C134.156 194.296 133.076 195.036 131.946 194.826C130.816 194.616 130.076 193.536 130.286 192.406C130.496 191.276 131.576 190.536 132.706 190.746C133.836 190.956 134.576 192.036 134.366 193.166Z" fill="#715DE3"/>
<path d="M70.1156 206.696C69.9056 207.826 68.8256 208.566 67.6956 208.356C66.5656 208.146 65.8256 207.066 66.0356 205.936C66.2456 204.806 67.3256 204.066 68.4556 204.276C69.5856 204.486 70.3256 205.566 70.1156 206.696Z" fill="#715DE3"/>
<path d="M86.1859 206.696C85.9759 207.826 84.8959 208.566 83.7659 208.356C82.6359 208.146 81.8959 207.066 82.1059 205.936C82.3159 204.806 83.3959 204.066 84.5259 204.276C85.6459 204.486 86.3859 205.566 86.1859 206.696Z" fill="#715DE3"/>
<path d="M102.246 206.696C102.036 207.826 100.956 208.566 99.8265 208.356C98.6965 208.146 97.9565 207.066 98.1665 205.936C98.3765 204.806 99.4565 204.066 100.586 204.276C101.706 204.486 102.456 205.566 102.246 206.696Z" fill="#715DE3"/>
<path d="M118.307 206.696C118.097 207.826 117.017 208.566 115.887 208.356C114.757 208.146 114.017 207.066 114.227 205.936C114.437 204.806 115.517 204.066 116.647 204.276C117.767 204.486 118.517 205.566 118.307 206.696Z" fill="#715DE3"/>
<path d="M134.366 206.696C134.156 207.826 133.076 208.566 131.946 208.356C130.816 208.146 130.076 207.066 130.286 205.936C130.496 204.806 131.576 204.066 132.706 204.276C133.836 204.486 134.576 205.566 134.366 206.696Z" fill="#715DE3"/>
<path d="M70.1156 220.225C69.9056 221.355 68.8256 222.095 67.6956 221.885C66.5656 221.675 65.8256 220.595 66.0356 219.465C66.2456 218.335 67.3256 217.595 68.4556 217.805C69.5856 218.015 70.3256 219.095 70.1156 220.225Z" fill="#715DE3"/>
<path d="M86.1859 220.225C85.9759 221.355 84.8959 222.095 83.7659 221.885C82.6359 221.675 81.8959 220.595 82.1059 219.465C82.3159 218.335 83.3959 217.595 84.5259 217.805C85.6459 218.015 86.3859 219.095 86.1859 220.225Z" fill="#715DE3"/>
<path d="M102.246 220.225C102.036 221.355 100.956 222.095 99.8265 221.885C98.6965 221.675 97.9565 220.595 98.1665 219.465C98.3765 218.335 99.4565 217.595 100.586 217.805C101.706 218.015 102.456 219.095 102.246 220.225Z" fill="#715DE3"/>
<path d="M118.307 220.225C118.097 221.355 117.017 222.095 115.887 221.885C114.757 221.675 114.017 220.595 114.227 219.465C114.437 218.335 115.517 217.595 116.647 217.805C117.767 218.015 118.517 219.095 118.307 220.225Z" fill="#715DE3"/>
<path d="M134.366 220.225C134.156 221.355 133.076 222.095 131.946 221.885C130.816 221.675 130.076 220.595 130.286 219.465C130.496 218.335 131.576 217.595 132.706 217.805C133.836 218.015 134.576 219.095 134.366 220.225Z" fill="#715DE3"/>
<path d="M70.1156 233.755C69.9056 234.885 68.8256 235.625 67.6956 235.415C66.5656 235.205 65.8256 234.125 66.0356 232.995C66.2456 231.865 67.3256 231.125 68.4556 231.335C69.5856 231.545 70.3256 232.625 70.1156 233.755Z" fill="#715DE3"/>
<path d="M86.1859 233.755C85.9759 234.885 84.8959 235.625 83.7659 235.415C82.6359 235.205 81.8959 234.125 82.1059 232.995C82.3159 231.865 83.3959 231.125 84.5259 231.335C85.6459 231.545 86.3859 232.625 86.1859 233.755Z" fill="#715DE3"/>
<path d="M102.246 233.755C102.036 234.885 100.956 235.625 99.8265 235.415C98.6965 235.205 97.9565 234.125 98.1665 232.995C98.3765 231.865 99.4565 231.125 100.586 231.335C101.706 231.545 102.456 232.625 102.246 233.755Z" fill="#715DE3"/>
<path d="M118.307 233.755C118.097 234.885 117.017 235.625 115.887 235.415C114.757 235.205 114.017 234.125 114.227 232.995C114.437 231.865 115.517 231.125 116.647 231.335C117.767 231.545 118.517 232.625 118.307 233.755Z" fill="#715DE3"/>
<path d="M134.366 233.755C134.156 234.885 133.076 235.625 131.946 235.415C130.816 235.205 130.076 234.125 130.286 232.995C130.496 231.865 131.576 231.125 132.706 231.335C133.836 231.545 134.576 232.625 134.366 233.755Z" fill="#715DE3"/>
<path d="M150.116 98.4556C149.906 99.5856 148.826 100.326 147.696 100.116C146.566 99.9056 145.826 98.8256 146.036 97.6956C146.246 96.5656 147.326 95.8256 148.456 96.0356C149.586 96.2456 150.326 97.3256 150.116 98.4556Z" fill="#715DE3"/>
<path d="M166.186 98.4556C165.976 99.5856 164.896 100.326 163.766 100.116C162.636 99.9056 161.896 98.8256 162.106 97.6956C162.316 96.5656 163.396 95.8256 164.526 96.0356C165.646 96.2456 166.386 97.3256 166.186 98.4556Z" fill="#715DE3"/>
<path d="M182.246 98.4556C182.036 99.5856 180.956 100.326 179.826 100.116C178.696 99.9056 177.956 98.8256 178.166 97.6956C178.376 96.5656 179.456 95.8256 180.586 96.0356C181.706 96.2456 182.456 97.3256 182.246 98.4556Z" fill="#715DE3"/>
<path d="M198.307 98.4556C198.097 99.5856 197.017 100.326 195.887 100.116C194.757 99.9056 194.017 98.8256 194.227 97.6956C194.437 96.5656 195.517 95.8256 196.647 96.0356C197.767 96.2456 198.517 97.3256 198.307 98.4556Z" fill="#715DE3"/>
<path d="M214.366 98.4556C214.156 99.5856 213.076 100.326 211.946 100.116C210.816 99.9056 210.076 98.8256 210.286 97.6956C210.496 96.5656 211.576 95.8256 212.706 96.0356C213.836 96.2456 214.576 97.3256 214.366 98.4556Z" fill="#715DE3"/>
<path d="M150.116 111.986C149.906 113.116 148.826 113.856 147.696 113.646C146.566 113.436 145.826 112.356 146.036 111.226C146.246 110.096 147.326 109.356 148.456 109.566C149.586 109.776 150.326 110.856 150.116 111.986Z" fill="#715DE3"/>
<path d="M166.186 111.986C165.976 113.116 164.896 113.856 163.766 113.646C162.636 113.436 161.896 112.356 162.106 111.226C162.316 110.096 163.396 109.356 164.526 109.566C165.646 109.776 166.386 110.856 166.186 111.986Z" fill="#715DE3"/>
<path d="M182.246 111.986C182.036 113.116 180.956 113.856 179.826 113.646C178.696 113.436 177.956 112.356 178.166 111.226C178.376 110.096 179.456 109.356 180.586 109.566C181.706 109.776 182.456 110.856 182.246 111.986Z" fill="#715DE3"/>
<path d="M198.307 111.986C198.097 113.116 197.017 113.856 195.887 113.646C194.757 113.436 194.017 112.356 194.227 111.226C194.437 110.096 195.517 109.356 196.647 109.566C197.767 109.776 198.517 110.856 198.307 111.986Z" fill="#715DE3"/>
<path d="M214.366 111.986C214.156 113.116 213.076 113.856 211.946 113.646C210.816 113.436 210.076 112.356 210.286 111.226C210.496 110.096 211.576 109.356 212.706 109.566C213.836 109.776 214.576 110.856 214.366 111.986Z" fill="#715DE3"/>
<path d="M150.116 125.515C149.906 126.645 148.826 127.385 147.696 127.175C146.566 126.965 145.826 125.885 146.036 124.755C146.246 123.625 147.326 122.885 148.456 123.095C149.586 123.305 150.326 124.385 150.116 125.515Z" fill="#715DE3"/>
<path d="M166.186 125.515C165.976 126.645 164.896 127.385 163.766 127.175C162.636 126.965 161.896 125.885 162.106 124.755C162.316 123.625 163.396 122.885 164.526 123.095C165.646 123.305 166.386 124.385 166.186 125.515Z" fill="#715DE3"/>
<path d="M182.246 125.515C182.036 126.645 180.956 127.385 179.826 127.175C178.696 126.965 177.956 125.885 178.166 124.755C178.376 123.625 179.456 122.885 180.586 123.095C181.706 123.305 182.456 124.385 182.246 125.515Z" fill="#715DE3"/>
<path d="M198.307 125.515C198.097 126.645 197.017 127.385 195.887 127.175C194.757 126.965 194.017 125.885 194.227 124.755C194.437 123.625 195.517 122.885 196.647 123.095C197.767 123.305 198.517 124.385 198.307 125.515Z" fill="#715DE3"/>
<path d="M214.366 125.515C214.156 126.645 213.076 127.385 211.946 127.175C210.816 126.965 210.076 125.885 210.286 124.755C210.496 123.625 211.576 122.885 212.706 123.095C213.836 123.305 214.576 124.385 214.366 125.515Z" fill="#715DE3"/>
<path d="M150.116 139.045C149.906 140.175 148.826 140.915 147.696 140.705C146.566 140.495 145.826 139.415 146.036 138.285C146.246 137.155 147.326 136.415 148.456 136.625C149.586 136.835 150.326 137.915 150.116 139.045Z" fill="#715DE3"/>
<path d="M166.186 139.045C165.976 140.175 164.896 140.915 163.766 140.705C162.636 140.495 161.896 139.415 162.106 138.285C162.316 137.155 163.396 136.415 164.526 136.625C165.646 136.835 166.386 137.915 166.186 139.045Z" fill="#715DE3"/>
<path d="M182.246 139.045C182.036 140.175 180.956 140.915 179.826 140.705C178.696 140.495 177.956 139.415 178.166 138.285C178.376 137.155 179.456 136.415 180.586 136.625C181.706 136.835 182.456 137.915 182.246 139.045Z" fill="#715DE3"/>
<path d="M198.307 139.045C198.097 140.175 197.017 140.915 195.887 140.705C194.757 140.495 194.017 139.415 194.227 138.285C194.437 137.155 195.517 136.415 196.647 136.625C197.767 136.835 198.517 137.915 198.307 139.045Z" fill="#715DE3"/>
<path d="M214.366 139.045C214.156 140.175 213.076 140.915 211.946 140.705C210.816 140.495 210.076 139.415 210.286 138.285C210.496 137.155 211.576 136.415 212.706 136.625C213.836 136.835 214.576 137.915 214.366 139.045Z" fill="#715DE3"/>
<path d="M150.116 152.576C149.906 153.706 148.826 154.446 147.696 154.236C146.566 154.026 145.826 152.946 146.036 151.816C146.246 150.686 147.326 149.946 148.456 150.156C149.586 150.366 150.326 151.446 150.116 152.576Z" fill="#715DE3"/>
<path d="M166.186 152.576C165.976 153.706 164.896 154.446 163.766 154.236C162.636 154.026 161.896 152.946 162.106 151.816C162.316 150.686 163.396 149.946 164.526 150.156C165.656 150.366 166.386 151.446 166.186 152.576Z" fill="#715DE3"/>
<path d="M182.246 152.576C182.036 153.706 180.956 154.446 179.826 154.236C178.696 154.026 177.956 152.946 178.166 151.816C178.376 150.686 179.456 149.946 180.586 150.156C181.706 150.366 182.456 151.446 182.246 152.576Z" fill="#715DE3"/>
<path d="M198.307 152.576C198.097 153.706 197.017 154.446 195.887 154.236C194.757 154.026 194.017 152.946 194.227 151.816C194.437 150.686 195.517 149.946 196.647 150.156C197.767 150.366 198.517 151.446 198.307 152.576Z" fill="#715DE3"/>
<path d="M214.366 152.576C214.156 153.706 213.076 154.446 211.946 154.236C210.816 154.026 210.076 152.946 210.286 151.816C210.496 150.686 211.576 149.946 212.706 150.156C213.836 150.366 214.576 151.446 214.366 152.576Z" fill="#715DE3"/>
<path d="M150.116 166.106C149.906 167.236 148.826 167.976 147.696 167.766C146.566 167.556 145.826 166.476 146.036 165.346C146.246 164.216 147.326 163.476 148.456 163.686C149.586 163.896 150.326 164.976 150.116 166.106Z" fill="#715DE3"/>
<path d="M166.186 166.106C165.976 167.236 164.896 167.976 163.766 167.766C162.636 167.556 161.896 166.476 162.106 165.346C162.316 164.216 163.396 163.476 164.526 163.686C165.656 163.896 166.386 164.976 166.186 166.106Z" fill="#715DE3"/>
<path d="M182.246 166.106C182.036 167.236 180.956 167.976 179.826 167.766C178.696 167.556 177.956 166.476 178.166 165.346C178.376 164.216 179.456 163.476 180.586 163.686C181.706 163.896 182.456 164.976 182.246 166.106Z" fill="#715DE3"/>
<path d="M198.307 166.106C198.097 167.236 197.017 167.976 195.887 167.766C194.757 167.556 194.017 166.476 194.227 165.346C194.437 164.216 195.517 163.476 196.647 163.686C197.767 163.896 198.517 164.976 198.307 166.106Z" fill="#715DE3"/>
<path d="M214.366 166.106C214.156 167.236 213.076 167.976 211.946 167.766C210.816 167.556 210.076 166.476 210.286 165.346C210.496 164.216 211.576 163.476 212.706 163.686C213.836 163.896 214.576 164.976 214.366 166.106Z" fill="#715DE3"/>
<path d="M150.116 179.635C149.906 180.765 148.826 181.505 147.696 181.295C146.566 181.085 145.826 180.005 146.036 178.875C146.246 177.745 147.326 177.005 148.456 177.215C149.586 177.425 150.326 178.505 150.116 179.635Z" fill="#715DE3"/>
<path d="M166.186 179.635C165.976 180.765 164.896 181.505 163.766 181.295C162.636 181.085 161.896 180.005 162.106 178.875C162.316 177.745 163.396 177.005 164.526 177.215C165.646 177.425 166.386 178.505 166.186 179.635Z" fill="#715DE3"/>
<path d="M182.246 179.635C182.036 180.765 180.956 181.505 179.826 181.295C178.696 181.085 177.956 180.005 178.166 178.875C178.376 177.745 179.456 177.005 180.586 177.215C181.706 177.425 182.456 178.505 182.246 179.635Z" fill="#715DE3"/>
<path d="M198.307 179.635C198.097 180.765 197.017 181.505 195.887 181.295C194.757 181.085 194.017 180.005 194.227 178.875C194.437 177.745 195.517 177.005 196.647 177.215C197.767 177.425 198.517 178.505 198.307 179.635Z" fill="#715DE3"/>
<path d="M214.366 179.635C214.156 180.765 213.076 181.505 211.946 181.295C210.816 181.085 210.076 180.005 210.286 178.875C210.496 177.745 211.576 177.005 212.706 177.215C213.836 177.425 214.576 178.505 214.366 179.635Z" fill="#715DE3"/>
<path d="M150.116 193.166C149.906 194.296 148.826 195.036 147.696 194.826C146.566 194.616 145.826 193.536 146.036 192.406C146.246 191.276 147.326 190.536 148.456 190.746C149.586 190.956 150.326 192.036 150.116 193.166Z" fill="#715DE3"/>
<path d="M166.186 193.166C165.976 194.296 164.896 195.036 163.766 194.826C162.636 194.616 161.896 193.536 162.106 192.406C162.316 191.276 163.396 190.536 164.526 190.746C165.646 190.956 166.386 192.036 166.186 193.166Z" fill="#715DE3"/>
<path d="M182.246 193.166C182.036 194.296 180.956 195.036 179.826 194.826C178.696 194.616 177.956 193.536 178.166 192.406C178.376 191.276 179.456 190.536 180.586 190.746C181.706 190.956 182.456 192.036 182.246 193.166Z" fill="#715DE3"/>
<path d="M198.307 193.166C198.097 194.296 197.017 195.036 195.887 194.826C194.757 194.616 194.017 193.536 194.227 192.406C194.437 191.276 195.517 190.536 196.647 190.746C197.767 190.956 198.517 192.036 198.307 193.166Z" fill="#715DE3"/>
<path d="M214.366 193.166C214.156 194.296 213.076 195.036 211.946 194.826C210.816 194.616 210.076 193.536 210.286 192.406C210.496 191.276 211.576 190.536 212.706 190.746C213.836 190.956 214.576 192.036 214.366 193.166Z" fill="#715DE3"/>
<path d="M150.116 206.696C149.906 207.826 148.826 208.566 147.696 208.356C146.566 208.146 145.826 207.066 146.036 205.936C146.246 204.806 147.326 204.066 148.456 204.276C149.586 204.486 150.326 205.566 150.116 206.696Z" fill="#715DE3"/>
<path d="M166.186 206.696C165.976 207.826 164.896 208.566 163.766 208.356C162.636 208.146 161.896 207.066 162.106 205.936C162.316 204.806 163.396 204.066 164.526 204.276C165.646 204.486 166.386 205.566 166.186 206.696Z" fill="#715DE3"/>
<path d="M182.246 206.696C182.036 207.826 180.956 208.566 179.826 208.356C178.696 208.146 177.956 207.066 178.166 205.936C178.376 204.806 179.456 204.066 180.586 204.276C181.706 204.486 182.456 205.566 182.246 206.696Z" fill="#715DE3"/>
<path d="M198.307 206.696C198.097 207.826 197.017 208.566 195.887 208.356C194.757 208.146 194.017 207.066 194.227 205.936C194.437 204.806 195.517 204.066 196.647 204.276C197.767 204.486 198.517 205.566 198.307 206.696Z" fill="#715DE3"/>
<path d="M214.366 206.696C214.156 207.826 213.076 208.566 211.946 208.356C210.816 208.146 210.076 207.066 210.286 205.936C210.496 204.806 211.576 204.066 212.706 204.276C213.836 204.486 214.576 205.566 214.366 206.696Z" fill="#715DE3"/>
<path d="M150.116 220.225C149.906 221.355 148.826 222.095 147.696 221.885C146.566 221.675 145.826 220.595 146.036 219.465C146.246 218.335 147.326 217.595 148.456 217.805C149.586 218.015 150.326 219.095 150.116 220.225Z" fill="#715DE3"/>
<path d="M166.186 220.225C165.976 221.355 164.896 222.095 163.766 221.885C162.636 221.675 161.896 220.595 162.106 219.465C162.316 218.335 163.396 217.595 164.526 217.805C165.646 218.015 166.386 219.095 166.186 220.225Z" fill="#715DE3"/>
<path d="M182.246 220.225C182.036 221.355 180.956 222.095 179.826 221.885C178.696 221.675 177.956 220.595 178.166 219.465C178.376 218.335 179.456 217.595 180.586 217.805C181.706 218.015 182.456 219.095 182.246 220.225Z" fill="#715DE3"/>
<path d="M198.307 220.225C198.097 221.355 197.017 222.095 195.887 221.885C194.757 221.675 194.017 220.595 194.227 219.465C194.437 218.335 195.517 217.595 196.647 217.805C197.767 218.015 198.517 219.095 198.307 220.225Z" fill="#715DE3"/>
<path d="M214.366 220.225C214.156 221.355 213.076 222.095 211.946 221.885C210.816 221.675 210.076 220.595 210.286 219.465C210.496 218.335 211.576 217.595 212.706 217.805C213.836 218.015 214.576 219.095 214.366 220.225Z" fill="#715DE3"/>
<path d="M150.116 233.755C149.906 234.885 148.826 235.625 147.696 235.415C146.566 235.205 145.826 234.125 146.036 232.995C146.246 231.865 147.326 231.125 148.456 231.335C149.586 231.545 150.326 232.625 150.116 233.755Z" fill="#715DE3"/>
<path d="M166.186 233.755C165.976 234.885 164.896 235.625 163.766 235.415C162.636 235.205 161.896 234.125 162.106 232.995C162.316 231.865 163.396 231.125 164.526 231.335C165.646 231.545 166.386 232.625 166.186 233.755Z" fill="#715DE3"/>
<path d="M182.246 233.755C182.036 234.885 180.956 235.625 179.826 235.415C178.696 235.205 177.956 234.125 178.166 232.995C178.376 231.865 179.456 231.125 180.586 231.335C181.706 231.545 182.456 232.625 182.246 233.755Z" fill="#715DE3"/>
<path d="M198.307 233.755C198.097 234.885 197.017 235.625 195.887 235.415C194.757 235.205 194.017 234.125 194.227 232.995C194.437 231.865 195.517 231.125 196.647 231.335C197.767 231.545 198.517 232.625 198.307 233.755Z" fill="#715DE3"/>
<path d="M214.366 233.755C214.156 234.885 213.076 235.625 211.946 235.415C210.816 235.205 210.076 234.125 210.286 232.995C210.496 231.865 211.576 231.125 212.706 231.335C213.836 231.545 214.576 232.625 214.366 233.755Z" fill="#715DE3"/>
</g>
<g filter="url(#filter0_d_0_1)">
<rect x="92.4844" y="35.3672" width="270.495" height="174.217" rx="6.877" fill="white"/>
</g>
<path d="M311.94 68H309.11V58.8307H312.065C312.955 58.8307 313.716 59.0142 314.349 59.3814C314.981 59.7455 315.467 60.2693 315.804 60.9529C316.141 61.6334 316.31 62.4483 316.31 63.3974C316.31 64.3526 316.14 65.1749 315.799 65.8644C315.459 66.5509 314.964 67.0792 314.313 67.4493C313.662 67.8164 312.871 68 311.94 68ZM310.221 67.015H311.868C312.626 67.015 313.255 66.8688 313.753 66.5762C314.252 66.2837 314.623 65.8674 314.868 65.3271C315.113 64.7869 315.235 64.1436 315.235 63.3974C315.235 62.6572 315.114 62.0199 314.873 61.4857C314.631 60.9484 314.27 60.5365 313.789 60.2499C313.308 59.9604 312.71 59.8157 311.994 59.8157H310.221V67.015ZM320.053 68.1612C319.617 68.1612 319.221 68.0791 318.866 67.9149C318.511 67.7478 318.229 67.5075 318.02 67.1941C317.811 66.8777 317.707 66.4957 317.707 66.0479C317.707 65.6539 317.784 65.3346 317.939 65.0898C318.095 64.8421 318.302 64.6481 318.562 64.5078C318.821 64.3675 319.108 64.263 319.421 64.1944C319.738 64.1227 320.056 64.066 320.375 64.0242C320.793 63.9705 321.132 63.9302 321.391 63.9033C321.654 63.8735 321.845 63.8243 321.964 63.7556C322.087 63.687 322.148 63.5676 322.148 63.3974V63.3616C322.148 62.9199 322.027 62.5766 321.785 62.3318C321.547 62.0871 321.184 61.9647 320.697 61.9647C320.193 61.9647 319.797 62.0752 319.511 62.296C319.224 62.5169 319.023 62.7527 318.906 63.0034L317.904 62.6453C318.083 62.2274 318.321 61.902 318.62 61.6692C318.921 61.4334 319.25 61.2693 319.605 61.1767C319.963 61.0812 320.315 61.0335 320.662 61.0335C320.882 61.0335 321.136 61.0603 321.423 61.114C321.712 61.1648 321.991 61.2707 322.26 61.4319C322.532 61.5931 322.757 61.8364 322.936 62.1617C323.115 62.4871 323.205 62.9228 323.205 63.4691V68H322.148V67.0687H322.094C322.023 67.218 321.903 67.3777 321.736 67.5478C321.569 67.7179 321.347 67.8627 321.069 67.9821C320.791 68.1015 320.453 68.1612 320.053 68.1612ZM320.214 67.212C320.632 67.212 320.984 67.1299 321.27 66.9658C321.56 66.8016 321.778 66.5897 321.924 66.33C322.073 66.0703 322.148 65.7972 322.148 65.5107V64.5436C322.103 64.5973 322.005 64.6466 321.852 64.6913C321.703 64.7331 321.53 64.7704 321.333 64.8033C321.139 64.8331 320.95 64.86 320.765 64.8839C320.582 64.9048 320.435 64.9227 320.321 64.9376C320.047 64.9734 319.79 65.0316 319.551 65.1122C319.315 65.1898 319.124 65.3077 318.978 65.4659C318.835 65.6211 318.763 65.833 318.763 66.1017C318.763 66.4688 318.899 66.7464 319.171 66.9344C319.445 67.1195 319.793 67.212 320.214 67.212ZM325.133 68V61.123H326.19V68H325.133ZM325.67 59.9768C325.464 59.9768 325.287 59.9067 325.138 59.7664C324.991 59.6261 324.918 59.4575 324.918 59.2605C324.918 59.0635 324.991 58.8948 325.138 58.7546C325.287 58.6143 325.464 58.5441 325.67 58.5441C325.876 58.5441 326.052 58.6143 326.199 58.7546C326.348 58.8948 326.423 59.0635 326.423 59.2605C326.423 59.4575 326.348 59.6261 326.199 59.7664C326.052 59.9067 325.876 59.9768 325.67 59.9768ZM329.182 58.8307V68H328.125V58.8307H329.182ZM331.798 70.5789C331.618 70.5789 331.459 70.564 331.318 70.5341C331.178 70.5072 331.081 70.4804 331.027 70.4535L331.296 69.5223C331.553 69.5879 331.78 69.6118 331.977 69.5939C332.174 69.576 332.348 69.4879 332.5 69.3297C332.656 69.1745 332.797 68.9223 332.926 68.5731L333.123 68.0358L330.58 61.123H331.726L333.624 66.6031H333.696L335.594 61.123H336.74L333.821 69.0029C333.69 69.3581 333.527 69.6521 333.333 69.8849C333.139 70.1207 332.914 70.2953 332.657 70.4087C332.403 70.5222 332.117 70.5789 331.798 70.5789Z" fill="#5D6180"/>
<path d="M112.014 70V58.3299H116.618C117.5 58.3299 118.252 58.4876 118.875 58.8029C119.502 59.1144 119.979 59.557 120.305 60.1306C120.636 60.7004 120.801 61.3709 120.801 62.1421C120.801 62.917 120.634 63.5837 120.3 64.1422C119.965 64.6968 119.481 65.1223 118.847 65.4186C118.216 65.7149 117.452 65.8631 116.556 65.8631H113.473V63.8801H116.157C116.628 63.8801 117.019 63.8155 117.331 63.6863C117.642 63.5572 117.874 63.3634 118.026 63.1051C118.182 62.8468 118.26 62.5258 118.26 62.1421C118.26 61.7546 118.182 61.4279 118.026 61.162C117.874 60.8961 117.64 60.6947 117.325 60.558C117.014 60.4174 116.62 60.3471 116.146 60.3471H114.482V70H112.014ZM118.317 64.6892L121.217 70H118.493L115.655 64.6892H118.317ZM126.347 70.1709C125.447 70.1709 124.672 69.9886 124.022 69.6239C123.376 69.2554 122.879 68.735 122.529 68.0626C122.18 67.3864 122.005 66.5867 122.005 65.6636C122.005 64.7633 122.18 63.9731 122.529 63.2931C122.879 62.6131 123.37 62.0832 124.005 61.7033C124.643 61.3234 125.391 61.1335 126.25 61.1335C126.827 61.1335 127.365 61.2266 127.863 61.4127C128.364 61.595 128.801 61.8705 129.173 62.239C129.549 62.6074 129.842 63.0709 130.051 63.6293C130.26 64.184 130.364 64.8336 130.364 65.5781V66.2448H122.973V64.7405H128.079C128.079 64.391 128.003 64.0814 127.851 63.8117C127.699 63.542 127.488 63.3311 127.219 63.1792C126.953 63.0234 126.643 62.9455 126.29 62.9455C125.921 62.9455 125.595 63.031 125.31 63.202C125.029 63.3691 124.808 63.5951 124.649 63.8801C124.489 64.1612 124.408 64.4746 124.404 64.8203V66.2505C124.404 66.6836 124.484 67.0578 124.643 67.3731C124.806 67.6884 125.036 67.9315 125.333 68.1025C125.629 68.2734 125.98 68.3589 126.387 68.3589C126.656 68.3589 126.903 68.3209 127.128 68.2449C127.352 68.169 127.544 68.055 127.703 67.903C127.863 67.7511 127.984 67.5649 128.068 67.3446L130.313 67.4928C130.199 68.0322 129.965 68.5033 129.612 68.9059C129.262 69.3048 128.81 69.6163 128.256 69.8404C127.705 70.0608 127.069 70.1709 126.347 70.1709ZM139.873 61.2475L136.813 70H134.078L131.018 61.2475H133.582L135.4 67.5099H135.491L137.303 61.2475H139.873ZM144.822 70.1709C143.922 70.1709 143.147 69.9886 142.497 69.6239C141.851 69.2554 141.354 68.735 141.004 68.0626C140.655 67.3864 140.48 66.5867 140.48 65.6636C140.48 64.7633 140.655 63.9731 141.004 63.2931C141.354 62.6131 141.846 62.0832 142.48 61.7033C143.118 61.3234 143.867 61.1335 144.725 61.1335C145.303 61.1335 145.84 61.2266 146.338 61.4127C146.839 61.595 147.276 61.8705 147.648 62.239C148.025 62.6074 148.317 63.0709 148.526 63.6293C148.735 64.184 148.839 64.8336 148.839 65.5781V66.2448H141.449V64.7405H146.554C146.554 64.391 146.478 64.0814 146.326 63.8117C146.174 63.542 145.964 63.3311 145.694 63.1792C145.428 63.0234 145.118 62.9455 144.765 62.9455C144.397 62.9455 144.07 63.031 143.785 63.202C143.504 63.3691 143.284 63.5951 143.124 63.8801C142.964 64.1612 142.883 64.4746 142.879 64.8203V66.2505C142.879 66.6836 142.959 67.0578 143.118 67.3731C143.282 67.6884 143.511 67.9315 143.808 68.1025C144.104 68.2734 144.456 68.3589 144.862 68.3589C145.132 68.3589 145.379 68.3209 145.603 68.2449C145.827 68.169 146.019 68.055 146.178 67.903C146.338 67.7511 146.459 67.5649 146.543 67.3446L148.788 67.4928C148.674 68.0322 148.44 68.5033 148.087 68.9059C147.738 69.3048 147.286 69.6163 146.731 69.8404C146.18 70.0608 145.544 70.1709 144.822 70.1709ZM152.851 64.9399V70H150.423V61.2475H152.737V62.7917H152.84C153.033 62.2826 153.358 61.88 153.814 61.5837C154.27 61.2835 154.823 61.1335 155.472 61.1335C156.08 61.1335 156.61 61.2664 157.062 61.5324C157.514 61.7983 157.865 62.1782 158.116 62.672C158.367 63.1621 158.492 63.7471 158.492 64.4271V70H156.065V64.8602C156.069 64.3245 155.932 63.9066 155.655 63.6065C155.377 63.3026 154.995 63.1507 154.509 63.1507C154.182 63.1507 153.894 63.221 153.643 63.3615C153.396 63.5021 153.202 63.7072 153.062 63.9769C152.925 64.2428 152.855 64.5638 152.851 64.9399ZM166.018 66.2733V61.2475H168.446V70H166.115V68.4102H166.024C165.826 68.923 165.498 69.3352 165.038 69.6467C164.582 69.9582 164.026 70.114 163.369 70.114C162.784 70.114 162.269 69.981 161.824 69.7151C161.38 69.4492 161.032 69.0712 160.782 68.5811C160.535 68.0911 160.409 67.5042 160.405 66.8204V61.2475H162.833V66.3873C162.837 66.9039 162.975 67.3123 163.249 67.6124C163.522 67.9125 163.889 68.0626 164.349 68.0626C164.641 68.0626 164.915 67.9961 165.169 67.8631C165.424 67.7264 165.629 67.5251 165.785 67.2591C165.944 66.9932 166.022 66.6646 166.018 66.2733ZM174.376 70.1709C173.476 70.1709 172.701 69.9886 172.051 69.6239C171.405 69.2554 170.908 68.735 170.558 68.0626C170.209 67.3864 170.034 66.5867 170.034 65.6636C170.034 64.7633 170.209 63.9731 170.558 63.2931C170.908 62.6131 171.4 62.0832 172.034 61.7033C172.672 61.3234 173.421 61.1335 174.279 61.1335C174.857 61.1335 175.394 61.2266 175.892 61.4127C176.393 61.595 176.83 61.8705 177.203 62.239C177.579 62.6074 177.871 63.0709 178.08 63.6293C178.289 64.184 178.393 64.8336 178.393 65.5781V66.2448H171.003V64.7405H176.108C176.108 64.391 176.032 64.0814 175.881 63.8117C175.729 63.542 175.518 63.3311 175.248 63.1792C174.982 63.0234 174.672 62.9455 174.319 62.9455C173.951 62.9455 173.624 63.031 173.339 63.202C173.058 63.3691 172.838 63.5951 172.678 63.8801C172.519 64.1612 172.437 64.4746 172.433 64.8203V66.2505C172.433 66.6836 172.513 67.0578 172.672 67.3731C172.836 67.6884 173.066 67.9315 173.362 68.1025C173.658 68.2734 174.01 68.3589 174.416 68.3589C174.686 68.3589 174.933 68.3209 175.157 68.2449C175.381 68.169 175.573 68.055 175.732 67.903C175.892 67.7511 176.013 67.5649 176.097 67.3446L178.342 67.4928C178.228 68.0322 177.995 68.5033 177.641 68.9059C177.292 69.3048 176.84 69.6163 176.285 69.8404C175.734 70.0608 175.098 70.1709 174.376 70.1709ZM191.475 62.1022C191.395 61.8249 191.283 61.5799 191.139 61.3671C190.995 61.1506 190.818 60.9682 190.609 60.8201C190.404 60.6681 190.168 60.5523 189.903 60.4725C189.64 60.3927 189.35 60.3528 189.031 60.3528C188.434 60.3528 187.91 60.501 187.458 60.7973C187.01 61.0936 186.66 61.5248 186.41 62.0908C186.159 62.653 186.033 63.3406 186.033 64.1536C186.033 64.9665 186.157 65.6579 186.404 66.2277C186.651 66.7976 187 67.2325 187.452 67.5326C187.904 67.829 188.438 67.9771 189.054 67.9771C189.612 67.9771 190.089 67.8783 190.484 67.6808C190.883 67.4795 191.187 67.1965 191.395 66.8318C191.608 66.4671 191.715 66.0359 191.715 65.5383L192.216 65.6123H189.207V63.7547H194.091V65.2248C194.091 66.2505 193.874 67.1319 193.441 67.8688C193.008 68.602 192.412 69.1681 191.652 69.5669C190.892 69.962 190.022 70.1596 189.042 70.1596C187.948 70.1596 186.987 69.9183 186.159 69.4359C185.331 68.9496 184.685 68.2601 184.221 67.3674C183.762 66.4709 183.532 65.4072 183.532 64.1764C183.532 63.2305 183.669 62.3871 183.942 61.6463C184.219 60.9018 184.607 60.2712 185.105 59.7545C185.602 59.2379 186.182 58.8447 186.843 58.575C187.504 58.3052 188.22 58.1704 188.991 58.1704C189.652 58.1704 190.267 58.2673 190.837 58.461C191.407 58.6509 191.912 58.9207 192.353 59.2702C192.797 59.6196 193.16 60.0356 193.441 60.5181C193.722 60.9967 193.903 61.5248 193.983 62.1022H191.475ZM195.899 70V61.2475H198.252V62.7746H198.343C198.503 62.2314 198.77 61.8211 199.147 61.5438C199.523 61.2626 199.956 61.1221 200.446 61.1221C200.567 61.1221 200.698 61.1297 200.839 61.1449C200.98 61.1601 201.103 61.181 201.209 61.2076V63.3615C201.095 63.3273 200.938 63.2969 200.736 63.2703C200.535 63.2437 200.351 63.2305 200.184 63.2305C199.827 63.2305 199.507 63.3083 199.226 63.4641C198.949 63.616 198.729 63.8288 198.565 64.1023C198.406 64.3758 198.326 64.6911 198.326 65.0482V70H195.899ZM206.012 70.1709C205.126 70.1709 204.361 69.9829 203.715 69.6068C203.073 69.2269 202.577 68.6989 202.228 68.0227C201.878 67.3427 201.704 66.5544 201.704 65.6579C201.704 64.7538 201.878 63.9636 202.228 63.2874C202.577 62.6074 203.073 62.0794 203.715 61.7033C204.361 61.3234 205.126 61.1335 206.012 61.1335C206.897 61.1335 207.66 61.3234 208.302 61.7033C208.948 62.0794 209.446 62.6074 209.795 63.2874C210.145 63.9636 210.319 64.7538 210.319 65.6579C210.319 66.5544 210.145 67.3427 209.795 68.0227C209.446 68.6989 208.948 69.2269 208.302 69.6068C207.66 69.9829 206.897 70.1709 206.012 70.1709ZM206.023 68.2905C206.426 68.2905 206.762 68.1766 207.032 67.9486C207.301 67.7169 207.505 67.4016 207.641 67.0027C207.782 66.6038 207.852 66.1499 207.852 65.6408C207.852 65.1318 207.782 64.6778 207.641 64.2789C207.505 63.8801 207.301 63.5648 207.032 63.333C206.762 63.1013 206.426 62.9854 206.023 62.9854C205.616 62.9854 205.275 63.1013 204.997 63.333C204.724 63.5648 204.517 63.8801 204.376 64.2789C204.239 64.6778 204.171 65.1318 204.171 65.6408C204.171 66.1499 204.239 66.6038 204.376 67.0027C204.517 67.4016 204.724 67.7169 204.997 67.9486C205.275 68.1766 205.616 68.2905 206.023 68.2905ZM213.405 70L211.023 61.2475H213.479L214.835 67.1281H214.915L216.328 61.2475H218.739L220.175 67.0939H220.249L221.582 61.2475H224.032L221.656 70H219.086L217.582 64.4955H217.474L215.969 70H213.405ZM229.983 61.2475V63.0709H224.712V61.2475H229.983ZM225.909 59.1505H228.336V67.3104C228.336 67.5345 228.37 67.7093 228.439 67.8347C228.507 67.9562 228.602 68.0417 228.723 68.0911C228.849 68.1405 228.993 68.1652 229.157 68.1652C229.27 68.1652 229.384 68.1557 229.498 68.1367C229.612 68.1139 229.7 68.0968 229.761 68.0854L230.142 69.8917C230.021 69.9297 229.85 69.9734 229.629 70.0228C229.409 70.076 229.141 70.1083 228.826 70.1197C228.241 70.1425 227.728 70.0646 227.287 69.886C226.851 69.7075 226.511 69.4302 226.267 69.0541C226.024 68.678 225.905 68.2031 225.909 67.6295V59.1505ZM234.18 64.9399V70H231.752V58.3299H234.111V62.7917H234.214C234.411 62.275 234.73 61.8705 235.171 61.578C235.612 61.2816 236.164 61.1335 236.829 61.1335C237.437 61.1335 237.967 61.2664 238.419 61.5324C238.875 61.7945 239.228 62.1725 239.479 62.6663C239.733 63.1564 239.859 63.7433 239.855 64.4271V70H237.428V64.8602C237.431 64.3207 237.295 63.9009 237.017 63.6008C236.744 63.3007 236.36 63.1507 235.866 63.1507C235.536 63.1507 235.243 63.221 234.989 63.3615C234.738 63.5021 234.54 63.7072 234.396 63.9769C234.256 64.2428 234.183 64.5638 234.18 64.9399Z" fill="#060C3C"/>
<path d="M119.992 135.645C119.992 133.435 121.783 131.645 123.992 131.645H136.623C138.832 131.645 140.623 133.435 140.623 135.645V187.245C140.623 189.454 138.832 191.245 136.623 191.245H123.992C121.783 191.245 119.992 189.454 119.992 187.245V135.645Z" fill="#9374FF"/>
<path d="M158.961 103.553C158.961 101.344 160.752 99.5527 162.961 99.5527H175.592C177.801 99.5527 179.592 101.344 179.592 103.553V187.246C179.592 189.455 177.801 191.246 175.592 191.246H162.961C160.752 191.246 158.961 189.455 158.961 187.246V103.553Z" fill="#FFDC60"/>
<path d="M197.932 148.253C197.932 146.044 199.723 144.253 201.932 144.253H214.563C216.772 144.253 218.563 146.044 218.563 148.253V187.246C218.563 189.455 216.772 191.246 214.563 191.246H201.932C199.723 191.246 197.932 189.455 197.932 187.246V148.253Z" fill="#FF80AD"/>
<path d="M236.902 126.476C236.902 124.266 238.693 122.476 240.902 122.476H253.533C255.742 122.476 257.533 124.266 257.533 126.476V187.246C257.533 189.455 255.742 191.246 253.533 191.246H240.902C238.693 191.246 236.902 189.455 236.902 187.246V126.476Z" fill="#508AFF"/>
<path d="M275.871 167.738C275.871 165.529 277.662 163.738 279.871 163.738H292.502C294.711 163.738 296.502 165.529 296.502 167.738V187.246C296.502 189.455 294.711 191.246 292.502 191.246H279.871C277.662 191.246 275.871 189.455 275.871 187.246V167.738Z" fill="#FFDC60"/>
<path d="M314.84 116.161C314.84 113.952 316.631 112.161 318.84 112.161H331.471C333.68 112.161 335.471 113.952 335.471 116.161V187.247C335.471 189.456 333.68 191.247 331.471 191.247H318.84C316.631 191.247 314.84 189.456 314.84 187.247V116.161Z" fill="#9476FD"/>
<defs>
<filter id="filter0_d_0_1" x="48.93" y="0.982186" width="357.605" height="261.326" filterUnits="userSpaceOnUse" color-interpolation-filters="sRGB">
<feFlood flood-opacity="0" result="BackgroundImageFix"/>
<feColorMatrix in="SourceAlpha" type="matrix" values="0 0 0 0 0 0 0 0 0 0 0 0 0 0 0 0 0 0 127 0" result="hardAlpha"/>
<feMorphology radius="2.29233" operator="erode" in="SourceAlpha" result="effect1_dropShadow_0_1"/>
<feOffset dy="9.16933"/>
<feGaussianBlur stdDeviation="22.9233"/>
<feColorMatrix type="matrix" values="0 0 0 0 0.0235294 0 0 0 0 0.0470588 0 0 0 0 0.231373 0 0 0 0.08 0"/>
<feBlend mode="normal" in2="BackgroundImageFix" result="effect1_dropShadow_0_1"/>
<feBlend mode="normal" in="SourceGraphic" in2="effect1_dropShadow_0_1" result="shape"/>
</filter>
</defs>
</svg>
