<svg width="405" height="302" viewBox="0 0 405 302" fill="none" xmlns="http://www.w3.org/2000/svg">
<rect x="26" y="17" width="354" height="251" rx="12" fill="#9585F3" fill-opacity="0.05"/>
<g filter="url(#filter0_d_1_479)">
<rect x="41.5977" y="32.6924" width="322.511" height="219.307" rx="6.45022" fill="white"/>
</g>
<line opacity="0.2" x1="91.5863" y1="206.311" x2="343.145" y2="206.311" stroke="#B4B6C4" stroke-width="1.07504" stroke-linecap="round"/>
<line opacity="0.2" x1="91.5863" y1="177.285" x2="343.145" y2="177.285" stroke="#B4B6C4" stroke-width="1.07504" stroke-linecap="round"/>
<line opacity="0.2" x1="91.5863" y1="148.258" x2="343.145" y2="148.258" stroke="#B4B6C4" stroke-width="1.07504" stroke-linecap="round"/>
<line opacity="0.2" x1="91.5863" y1="119.233" x2="343.145" y2="119.233" stroke="#B4B6C4" stroke-width="1.07504" stroke-linecap="round"/>
<line opacity="0.2" x1="91.5863" y1="90.2076" x2="343.145" y2="90.2076" stroke="#B4B6C4" stroke-width="1.07504" stroke-linecap="round"/>
<path d="M62.2041 123.428C61.8835 123.423 61.5628 123.362 61.2421 123.245C60.9214 123.128 60.6287 122.931 60.364 122.653C60.0994 122.373 59.8868 121.995 59.7265 121.519C59.5662 121.041 59.486 120.44 59.486 119.717C59.486 119.025 59.5509 118.412 59.6807 117.877C59.8105 117.34 59.9988 116.889 60.2457 116.522C60.4926 116.153 60.7903 115.873 61.139 115.682C61.4902 115.491 61.886 115.396 62.3263 115.396C62.764 115.396 63.1534 115.484 63.4945 115.659C63.8381 115.832 64.118 116.074 64.3344 116.385C64.5507 116.695 64.6907 117.053 64.7543 117.457H63.8228C63.7363 117.106 63.5683 116.815 63.3189 116.583C63.0695 116.352 62.7386 116.236 62.3263 116.236C61.7206 116.236 61.2434 116.499 60.8947 117.026C60.5486 117.553 60.3742 118.292 60.3717 119.244H60.4328C60.5753 119.028 60.7445 118.843 60.9405 118.691C61.139 118.535 61.3579 118.416 61.5971 118.332C61.8364 118.248 62.0896 118.206 62.3568 118.206C62.8048 118.206 63.2145 118.318 63.5861 118.542C63.9577 118.763 64.2555 119.07 64.4794 119.462C64.7034 119.851 64.8154 120.298 64.8154 120.802C64.8154 121.285 64.7072 121.728 64.4909 122.13C64.2745 122.53 63.9704 122.848 63.5785 123.085C63.1891 123.319 62.731 123.433 62.2041 123.428ZM62.2041 122.588C62.5248 122.588 62.8124 122.508 63.0669 122.348C63.324 122.187 63.5263 121.972 63.6739 121.703C63.8241 121.433 63.8991 121.133 63.8991 120.802C63.8991 120.478 63.8266 120.184 63.6815 119.92C63.539 119.653 63.3418 119.44 63.0898 119.282C62.8404 119.124 62.5553 119.046 62.2347 119.046C61.9929 119.046 61.7676 119.094 61.559 119.191C61.3503 119.285 61.167 119.415 61.0092 119.58C60.854 119.745 60.7318 119.935 60.6427 120.149C60.5537 120.36 60.5091 120.583 60.5091 120.817C60.5091 121.127 60.5816 121.418 60.7267 121.687C60.8743 121.957 61.0754 122.175 61.3299 122.34C61.5869 122.506 61.8784 122.588 62.2041 122.588ZM68.8668 123.428C68.2916 123.428 67.8017 123.272 67.397 122.959C66.9924 122.643 66.6831 122.186 66.4693 121.588C66.2556 120.987 66.1487 120.262 66.1487 119.412C66.1487 118.567 66.2556 117.846 66.4693 117.247C66.6857 116.647 66.9962 116.189 67.4008 115.873C67.808 115.555 68.2967 115.396 68.8668 115.396C69.4369 115.396 69.9243 115.555 70.3289 115.873C70.7361 116.189 71.0466 116.647 71.2604 117.247C71.4768 117.846 71.5849 118.567 71.5849 119.412C71.5849 120.262 71.478 120.987 71.2643 121.588C71.0505 122.186 70.7412 122.643 70.3366 122.959C69.9319 123.272 69.442 123.428 68.8668 123.428ZM68.8668 122.588C69.4369 122.588 69.8797 122.313 70.1953 121.764C70.5109 121.214 70.6687 120.43 70.6687 119.412C70.6687 118.735 70.5962 118.159 70.4511 117.683C70.3086 117.207 70.1024 116.844 69.8327 116.595C69.5654 116.345 69.2435 116.221 68.8668 116.221C68.3018 116.221 67.8602 116.499 67.5421 117.057C67.224 117.611 67.0649 118.397 67.0649 119.412C67.0649 120.089 67.1362 120.664 67.2787 121.138C67.4212 121.611 67.6261 121.971 67.8933 122.218C68.1631 122.465 68.4876 122.588 68.8668 122.588ZM73.8908 121.183L73.8755 120.069H74.0587L76.6242 117.457H77.7389L75.0055 120.221H74.9291L73.8908 121.183ZM73.0509 123.321V115.503H73.9518V123.321H73.0509ZM76.7769 123.321L74.4863 120.42L75.1277 119.794L77.9221 123.321H76.7769Z" fill="#5D6180"/>
<path d="M62.2499 152.455C61.746 152.455 61.2968 152.368 60.9023 152.195C60.5104 152.022 60.1986 151.781 59.967 151.473C59.738 151.163 59.6132 150.803 59.5929 150.393H60.5549C60.5753 150.645 60.6618 150.863 60.8145 151.046C60.9672 151.227 61.167 151.367 61.4139 151.466C61.6608 151.565 61.9344 151.615 62.2347 151.615C62.5706 151.615 62.8684 151.556 63.128 151.439C63.3876 151.322 63.5912 151.159 63.7388 150.95C63.8864 150.742 63.9602 150.5 63.9602 150.225C63.9602 149.937 63.889 149.684 63.7464 149.465C63.6039 149.244 63.3952 149.071 63.1204 148.946C62.8455 148.821 62.5095 148.759 62.1125 148.759H61.4864V147.919H62.1125C62.423 147.919 62.6953 147.863 62.9295 147.751C63.1662 147.639 63.3507 147.481 63.483 147.278C63.6179 147.074 63.6854 146.835 63.6854 146.56C63.6854 146.295 63.6268 146.065 63.5097 145.869C63.3927 145.673 63.2272 145.521 63.0135 145.411C62.8022 145.302 62.5528 145.247 62.2652 145.247C61.9954 145.247 61.7409 145.297 61.5017 145.396C61.265 145.493 61.0716 145.634 60.9214 145.82C60.7713 146.003 60.6898 146.224 60.6771 146.484H59.7609C59.7761 146.074 59.8996 145.715 60.1312 145.407C60.3628 145.097 60.6656 144.855 61.0398 144.682C61.4164 144.509 61.83 144.422 62.2805 144.422C62.764 144.422 63.1789 144.52 63.525 144.716C63.8711 144.91 64.1371 145.165 64.3229 145.484C64.5087 145.802 64.6016 146.145 64.6016 146.514C64.6016 146.955 64.4858 147.33 64.2542 147.641C64.0251 147.951 63.7134 148.166 63.3189 148.286V148.347C63.8126 148.428 64.1982 148.638 64.4756 148.977C64.753 149.313 64.8917 149.729 64.8917 150.225C64.8917 150.65 64.7759 151.032 64.5443 151.37C64.3153 151.706 64.0022 151.971 63.6052 152.164C63.2082 152.358 62.7564 152.455 62.2499 152.455ZM69.0033 152.455C68.4281 152.455 67.9382 152.298 67.5335 151.985C67.1288 151.669 66.8196 151.213 66.6058 150.614C66.392 150.014 66.2851 149.288 66.2851 148.438C66.2851 147.593 66.392 146.872 66.6058 146.274C66.8222 145.673 67.1327 145.215 67.5373 144.9C67.9445 144.581 68.4332 144.422 69.0033 144.422C69.5734 144.422 70.0608 144.581 70.4654 144.9C70.8726 145.215 71.1831 145.673 71.3969 146.274C71.6132 146.872 71.7214 147.593 71.7214 148.438C71.7214 149.288 71.6145 150.014 71.4007 150.614C71.1869 151.213 70.8777 151.669 70.4731 151.985C70.0684 152.298 69.5785 152.455 69.0033 152.455ZM69.0033 151.615C69.5734 151.615 70.0162 151.34 70.3318 150.79C70.6474 150.24 70.8052 149.456 70.8052 148.438C70.8052 147.761 70.7327 147.185 70.5876 146.709C70.4451 146.233 70.2389 145.87 69.9691 145.621C69.7019 145.372 69.3799 145.247 69.0033 145.247C68.4383 145.247 67.9967 145.526 67.6786 146.083C67.3604 146.638 67.2014 147.423 67.2014 148.438C67.2014 149.115 67.2726 149.691 67.4152 150.164C67.5577 150.637 67.7626 150.997 68.0298 151.244C68.2996 151.491 68.6241 151.615 69.0033 151.615ZM74.0272 150.21L74.012 149.095H74.1952L76.7606 146.484H77.8754L75.142 149.248H75.0656L74.0272 150.21ZM73.1874 152.348V144.529H74.0883V152.348H73.1874ZM76.9133 152.348L74.6228 149.446L75.2641 148.82L78.0586 152.348H76.9133Z" fill="#5D6180"/>
<path d="M62.3568 173.554V181.372H61.4101V174.546H61.3643L59.4555 175.814V174.852L61.4101 173.554H62.3568ZM67.1556 181.479C66.5804 181.479 66.0904 181.322 65.6858 181.009C65.2811 180.694 64.9719 180.237 64.7581 179.639C64.5443 179.038 64.4374 178.313 64.4374 177.463C64.4374 176.618 64.5443 175.896 64.7581 175.298C64.9744 174.698 65.2849 174.24 65.6896 173.924C66.0968 173.606 66.5855 173.447 67.1556 173.447C67.7257 173.447 68.213 173.606 68.6177 173.924C69.0249 174.24 69.3354 174.698 69.5492 175.298C69.7655 175.896 69.8737 176.618 69.8737 177.463C69.8737 178.313 69.7668 179.038 69.553 179.639C69.3392 180.237 69.03 180.694 68.6253 181.009C68.2207 181.322 67.7307 181.479 67.1556 181.479ZM67.1556 180.639C67.7257 180.639 68.1685 180.364 68.4841 179.814C68.7997 179.265 68.9575 178.481 68.9575 177.463C68.9575 176.786 68.8849 176.209 68.7399 175.733C68.5973 175.258 68.3912 174.895 68.1214 174.645C67.8542 174.396 67.5322 174.271 67.1556 174.271C66.5906 174.271 66.149 174.55 65.8308 175.107C65.5127 175.662 65.3536 176.447 65.3536 177.463C65.3536 178.14 65.4249 178.715 65.5674 179.188C65.71 179.662 65.9148 180.022 66.1821 180.269C66.4518 180.516 66.7763 180.639 67.1556 180.639ZM72.1795 179.234L72.1643 178.119H72.3475L74.9129 175.508H76.0277L73.2943 178.272H73.2179L72.1795 179.234ZM71.3396 181.372V173.554H72.2406V181.372H71.3396ZM75.0656 181.372L72.7751 178.471L73.4164 177.845L76.2109 181.372H75.0656Z" fill="#5D6180"/>
<path d="M62.1583 210.505C61.5831 210.505 61.0932 210.349 60.6885 210.036C60.2839 209.72 59.9746 209.263 59.7609 208.665C59.5471 208.065 59.4402 207.339 59.4402 206.489C59.4402 205.644 59.5471 204.923 59.7609 204.325C59.9772 203.724 60.2877 203.266 60.6924 202.95C61.0996 202.632 61.5882 202.473 62.1583 202.473C62.7284 202.473 63.2158 202.632 63.6205 202.95C64.0277 203.266 64.3382 203.724 64.552 204.325C64.7683 204.923 64.8764 205.644 64.8764 206.489C64.8764 207.339 64.7696 208.065 64.5558 208.665C64.342 209.263 64.0328 209.72 63.6281 210.036C63.2234 210.349 62.7335 210.505 62.1583 210.505ZM62.1583 209.665C62.7284 209.665 63.1713 209.391 63.4868 208.841C63.8024 208.291 63.9602 207.507 63.9602 206.489C63.9602 205.812 63.8877 205.236 63.7426 204.76C63.6001 204.284 63.3939 203.921 63.1242 203.672C62.8569 203.422 62.535 203.298 62.1583 203.298C61.5933 203.298 61.1517 203.576 60.8336 204.134C60.5155 204.689 60.3564 205.474 60.3564 206.489C60.3564 207.166 60.4277 207.741 60.5702 208.215C60.7127 208.688 60.9176 209.048 61.1848 209.295C61.4546 209.542 61.7791 209.665 62.1583 209.665Z" fill="#5D6180"/>
<path d="M62.0972 86.3696C62.4179 86.3721 62.7386 86.4332 63.0593 86.5528C63.3799 86.6724 63.6726 86.871 63.9373 87.1484C64.202 87.4232 64.4145 87.7986 64.5749 88.2746C64.7352 88.7505 64.8154 89.3473 64.8154 90.065C64.8154 90.7598 64.7492 91.377 64.6169 91.9166C64.4871 92.4536 64.2987 92.9066 64.0518 93.2756C63.8075 93.6447 63.5097 93.9246 63.1585 94.1155C62.8099 94.3064 62.4154 94.4018 61.9751 94.4018C61.5373 94.4018 61.1467 94.3153 60.8031 94.1422C60.462 93.9666 60.1821 93.7236 59.9632 93.4131C59.7469 93.1 59.6082 92.7373 59.5471 92.325H60.4786C60.5626 92.6839 60.7293 92.9804 60.9787 93.2145C61.2306 93.4461 61.5628 93.5619 61.9751 93.5619C62.5783 93.5619 63.0542 93.2985 63.4029 92.7717C63.7541 92.2449 63.9297 91.5004 63.9297 90.5384H63.8686C63.7261 90.7522 63.5568 90.9367 63.3609 91.092C63.1649 91.2472 62.9473 91.3668 62.7081 91.4508C62.4688 91.5348 62.2143 91.5768 61.9445 91.5768C61.4966 91.5768 61.0856 91.4661 60.7114 91.2447C60.3399 91.0207 60.0421 90.714 59.8181 90.3246C59.5967 89.9327 59.486 89.4847 59.486 88.9808C59.486 88.5023 59.5929 88.0646 59.8067 87.6676C60.023 87.268 60.3259 86.9499 60.7153 86.7132C61.1072 86.4765 61.5679 86.3619 62.0972 86.3696ZM62.0972 87.2095C61.7766 87.2095 61.4877 87.2896 61.2306 87.45C60.9761 87.6078 60.7738 87.8215 60.6236 88.0913C60.476 88.3586 60.4022 88.6551 60.4022 88.9808C60.4022 89.3066 60.4735 89.6031 60.616 89.8703C60.7611 90.135 60.9583 90.3462 61.2077 90.504C61.4597 90.6593 61.746 90.7369 62.0667 90.7369C62.3085 90.7369 62.5337 90.6898 62.7424 90.5957C62.9511 90.499 63.1331 90.3679 63.2883 90.2025C63.4461 90.0345 63.5696 89.8449 63.6586 89.6336C63.7477 89.4198 63.7923 89.1972 63.7923 88.9656C63.7923 88.6601 63.7184 88.3738 63.5708 88.1066C63.4258 87.8394 63.2247 87.623 62.9676 87.4576C62.7131 87.2922 62.423 87.2095 62.0972 87.2095ZM68.8668 94.4018C68.2916 94.4018 67.8017 94.2453 67.397 93.9322C66.9924 93.6167 66.6831 93.1598 66.4693 92.5617C66.2556 91.9611 66.1487 91.2358 66.1487 90.3857C66.1487 89.5407 66.2556 88.8192 66.4693 88.2211C66.6857 87.6205 66.9962 87.1624 67.4008 86.8468C67.808 86.5286 68.2967 86.3696 68.8668 86.3696C69.4369 86.3696 69.9243 86.5286 70.3289 86.8468C70.7361 87.1624 71.0466 87.6205 71.2604 88.2211C71.4768 88.8192 71.5849 89.5407 71.5849 90.3857C71.5849 91.2358 71.478 91.9611 71.2643 92.5617C71.0505 93.1598 70.7412 93.6167 70.3366 93.9322C69.9319 94.2453 69.442 94.4018 68.8668 94.4018ZM68.8668 93.5619C69.4369 93.5619 69.8797 93.2871 70.1953 92.7373C70.5109 92.1876 70.6687 91.4037 70.6687 90.3857C70.6687 89.7087 70.5962 89.1323 70.4511 88.6563C70.3086 88.1804 70.1024 87.8177 69.8327 87.5683C69.5654 87.3189 69.2435 87.1942 68.8668 87.1942C68.3018 87.1942 67.8602 87.4729 67.5421 88.0302C67.224 88.5851 67.0649 89.3702 67.0649 90.3857C67.0649 91.0627 67.1362 91.6379 67.2787 92.1113C67.4212 92.5846 67.6261 92.9448 67.8933 93.1916C68.1631 93.4385 68.4876 93.5619 68.8668 93.5619ZM73.8908 92.1571L73.8755 91.0423H74.0587L76.6242 88.4311H77.7389L75.0055 91.195H74.9291L73.8908 92.1571ZM73.0509 94.2949V86.4765H73.9518V94.2949H73.0509ZM76.7769 94.2949L74.4863 91.3935L75.1277 90.7675L77.9221 94.2949H76.7769Z" fill="#5D6180"/>
<path d="M91.9956 224.08H93.1256L95.7827 230.57H95.8743L98.5313 224.08H99.6613V231.898H98.7757V225.958H98.6993L96.256 231.898H95.4009L92.9576 225.958H92.8813V231.898H91.9956V224.08ZM103.163 232.036C102.791 232.036 102.454 231.966 102.151 231.826C101.849 231.683 101.608 231.479 101.43 231.211C101.252 230.941 101.163 230.616 101.163 230.234C101.163 229.898 101.229 229.626 101.361 229.417C101.493 229.206 101.67 229.04 101.892 228.921C102.113 228.801 102.358 228.712 102.625 228.653C102.895 228.592 103.166 228.544 103.438 228.508C103.794 228.463 104.083 228.428 104.304 228.405C104.528 228.38 104.691 228.338 104.793 228.279C104.897 228.221 104.95 228.119 104.95 227.974V227.943C104.95 227.567 104.847 227.274 104.64 227.065C104.437 226.857 104.128 226.752 103.713 226.752C103.283 226.752 102.945 226.846 102.701 227.035C102.457 227.223 102.285 227.424 102.186 227.638L101.331 227.333C101.483 226.976 101.687 226.699 101.941 226.5C102.198 226.299 102.478 226.159 102.781 226.08C103.087 225.999 103.387 225.958 103.682 225.958C103.871 225.958 104.087 225.981 104.331 226.027C104.578 226.07 104.816 226.161 105.045 226.298C105.277 226.435 105.469 226.643 105.622 226.92C105.774 227.198 105.851 227.569 105.851 228.035V231.898H104.95V231.104H104.904C104.843 231.232 104.741 231.368 104.598 231.513C104.456 231.658 104.266 231.781 104.03 231.883C103.793 231.985 103.504 232.036 103.163 232.036ZM103.3 231.227C103.657 231.227 103.957 231.157 104.201 231.017C104.448 230.877 104.634 230.696 104.759 230.474C104.886 230.253 104.95 230.02 104.95 229.776V228.951C104.911 228.997 104.828 229.039 104.698 229.077C104.57 229.113 104.423 229.145 104.255 229.173C104.089 229.198 103.928 229.221 103.77 229.241C103.615 229.259 103.489 229.274 103.392 229.287C103.158 229.318 102.939 229.367 102.735 229.436C102.534 229.502 102.372 229.603 102.247 229.738C102.125 229.87 102.064 230.051 102.064 230.28C102.064 230.593 102.179 230.83 102.411 230.99C102.645 231.148 102.942 231.227 103.3 231.227ZM107.495 231.898V226.035H108.365V226.92H108.427C108.533 226.63 108.727 226.395 109.007 226.214C109.287 226.033 109.602 225.943 109.954 225.943C110.02 225.943 110.102 225.944 110.202 225.947C110.301 225.949 110.376 225.953 110.427 225.958V226.874C110.396 226.867 110.326 226.855 110.217 226.84C110.11 226.822 109.997 226.813 109.877 226.813C109.592 226.813 109.338 226.873 109.114 226.993C108.892 227.11 108.717 227.273 108.587 227.481C108.46 227.688 108.396 227.923 108.396 228.188V231.898H107.495Z" fill="#5D6180"/>
<path d="M151.443 231.898H150.451L153.321 224.08H154.299L157.17 231.898H156.177L153.841 225.317H153.78L151.443 231.898ZM151.81 228.844H155.811V229.684H151.81V228.844ZM158.265 234.097V226.035H159.136V226.966H159.243C159.309 226.864 159.4 226.734 159.517 226.577C159.637 226.416 159.808 226.274 160.029 226.149C160.253 226.022 160.556 225.958 160.938 225.958C161.431 225.958 161.867 226.082 162.243 226.329C162.62 226.575 162.914 226.925 163.125 227.378C163.336 227.831 163.442 228.366 163.442 228.982C163.442 229.603 163.336 230.141 163.125 230.597C162.914 231.05 162.621 231.401 162.247 231.65C161.873 231.897 161.442 232.021 160.953 232.021C160.576 232.021 160.275 231.958 160.048 231.834C159.822 231.706 159.647 231.562 159.525 231.402C159.403 231.239 159.309 231.104 159.243 230.997H159.166V234.097H158.265ZM159.151 228.967C159.151 229.409 159.216 229.8 159.346 230.139C159.475 230.474 159.665 230.738 159.914 230.929C160.164 231.117 160.469 231.211 160.831 231.211C161.207 231.211 161.522 231.112 161.774 230.913C162.028 230.712 162.219 230.443 162.346 230.104C162.476 229.763 162.541 229.384 162.541 228.967C162.541 228.554 162.477 228.183 162.35 227.852C162.225 227.518 162.036 227.255 161.781 227.062C161.529 226.866 161.212 226.768 160.831 226.768C160.464 226.768 160.156 226.86 159.907 227.046C159.657 227.23 159.469 227.487 159.342 227.817C159.215 228.146 159.151 228.529 159.151 228.967ZM164.816 231.898V226.035H165.687V226.92H165.748C165.855 226.63 166.048 226.395 166.328 226.214C166.608 226.033 166.924 225.943 167.275 225.943C167.341 225.943 167.424 225.944 167.523 225.947C167.622 225.949 167.697 225.953 167.748 225.958V226.874C167.718 226.867 167.648 226.855 167.538 226.84C167.431 226.822 167.318 226.813 167.198 226.813C166.913 226.813 166.659 226.873 166.435 226.993C166.214 227.11 166.038 227.273 165.908 227.481C165.781 227.688 165.717 227.923 165.717 228.188V231.898H164.816Z" fill="#5D6180"/>
<path d="M207.025 224.08H208.155L210.812 230.57H210.904L213.561 224.08H214.691V231.898H213.805V225.958H213.729L211.285 231.898H210.43L207.987 225.958H207.911V231.898H207.025V224.08ZM218.192 232.036C217.821 232.036 217.484 231.966 217.181 231.826C216.878 231.683 216.637 231.479 216.459 231.211C216.281 230.941 216.192 230.616 216.192 230.234C216.192 229.898 216.258 229.626 216.39 229.417C216.523 229.206 216.7 229.04 216.921 228.921C217.142 228.801 217.387 228.712 217.654 228.653C217.924 228.592 218.195 228.544 218.467 228.508C218.824 228.463 219.112 228.428 219.334 228.405C219.558 228.38 219.721 228.338 219.822 228.279C219.927 228.221 219.979 228.119 219.979 227.974V227.943C219.979 227.567 219.876 227.274 219.67 227.065C219.466 226.857 219.157 226.752 218.742 226.752C218.312 226.752 217.975 226.846 217.73 227.035C217.486 227.223 217.314 227.424 217.215 227.638L216.36 227.333C216.513 226.976 216.716 226.699 216.971 226.5C217.228 226.299 217.508 226.159 217.811 226.08C218.116 225.999 218.416 225.958 218.712 225.958C218.9 225.958 219.116 225.981 219.361 226.027C219.607 226.07 219.845 226.161 220.074 226.298C220.306 226.435 220.498 226.643 220.651 226.92C220.804 227.198 220.88 227.569 220.88 228.035V231.898H219.979V231.104H219.933C219.872 231.232 219.77 231.368 219.628 231.513C219.485 231.658 219.296 231.781 219.059 231.883C218.822 231.985 218.533 232.036 218.192 232.036ZM218.33 231.227C218.686 231.227 218.986 231.157 219.231 231.017C219.478 230.877 219.663 230.696 219.788 230.474C219.915 230.253 219.979 230.02 219.979 229.776V228.951C219.941 228.997 219.857 229.039 219.727 229.077C219.6 229.113 219.452 229.145 219.284 229.173C219.119 229.198 218.957 229.221 218.799 229.241C218.644 229.259 218.518 229.274 218.421 229.287C218.187 229.318 217.968 229.367 217.765 229.436C217.564 229.502 217.401 229.603 217.276 229.738C217.154 229.87 217.093 230.051 217.093 230.28C217.093 230.593 217.209 230.83 217.44 230.99C217.674 231.148 217.971 231.227 218.33 231.227ZM222.895 234.097C222.742 234.097 222.606 234.085 222.486 234.059C222.367 234.036 222.284 234.013 222.238 233.99L222.467 233.196C222.686 233.252 222.879 233.273 223.047 233.258C223.215 233.242 223.364 233.167 223.494 233.032C223.626 232.9 223.747 232.685 223.857 232.387L224.025 231.929L221.856 226.035H222.834L224.452 230.707H224.513L226.132 226.035H227.109L224.62 232.754C224.508 233.056 224.37 233.307 224.204 233.506C224.039 233.707 223.847 233.856 223.628 233.952C223.411 234.049 223.167 234.097 222.895 234.097Z" fill="#5D6180"/>
<path d="M269.145 224.08H270.092V229.669C270.092 230.168 270 230.592 269.817 230.94C269.633 231.289 269.375 231.554 269.042 231.734C268.708 231.915 268.315 232.005 267.862 232.005C267.435 232.005 267.054 231.928 266.721 231.772C266.387 231.615 266.125 231.391 265.934 231.101C265.743 230.81 265.648 230.466 265.648 230.066H266.579C266.579 230.287 266.634 230.481 266.744 230.646C266.856 230.809 267.008 230.936 267.202 231.028C267.395 231.12 267.615 231.165 267.862 231.165C268.134 231.165 268.366 231.108 268.557 230.994C268.748 230.879 268.893 230.711 268.992 230.49C269.094 230.266 269.145 229.992 269.145 229.669V224.08ZM275.562 229.501V226.035H276.463V231.898H275.562V230.906H275.501C275.364 231.204 275.15 231.457 274.86 231.666C274.57 231.872 274.203 231.975 273.76 231.975C273.394 231.975 273.068 231.895 272.783 231.734C272.498 231.571 272.274 231.327 272.111 231.001C271.948 230.673 271.867 230.259 271.867 229.761V226.035H272.768V229.699C272.768 230.127 272.887 230.468 273.127 230.723C273.368 230.977 273.676 231.104 274.05 231.104C274.274 231.104 274.502 231.047 274.734 230.933C274.968 230.818 275.164 230.642 275.322 230.406C275.482 230.169 275.562 229.867 275.562 229.501ZM279.014 228.371V231.898H278.113V226.035H278.984V226.951H279.06C279.198 226.653 279.406 226.414 279.686 226.233C279.966 226.05 280.328 225.958 280.77 225.958C281.167 225.958 281.515 226.04 281.813 226.203C282.11 226.363 282.342 226.607 282.507 226.936C282.673 227.261 282.756 227.674 282.756 228.172V231.898H281.855V228.234C281.855 227.773 281.735 227.414 281.496 227.157C281.257 226.897 280.928 226.768 280.511 226.768C280.223 226.768 279.966 226.83 279.74 226.955C279.516 227.079 279.339 227.261 279.209 227.501C279.079 227.74 279.014 228.03 279.014 228.371Z" fill="#5D6180"/>
<path d="M325.047 224.08H325.994V229.669C325.994 230.168 325.902 230.592 325.719 230.94C325.536 231.289 325.278 231.554 324.944 231.734C324.611 231.915 324.217 232.005 323.764 232.005C323.337 232.005 322.956 231.928 322.623 231.772C322.29 231.615 322.027 231.391 321.837 231.101C321.646 230.81 321.55 230.466 321.55 230.066H322.482C322.482 230.287 322.536 230.481 322.646 230.646C322.758 230.809 322.911 230.936 323.104 231.028C323.297 231.12 323.518 231.165 323.764 231.165C324.037 231.165 324.268 231.108 324.459 230.994C324.65 230.879 324.795 230.711 324.894 230.49C324.996 230.266 325.047 229.992 325.047 229.669V224.08ZM331.465 229.501V226.035H332.366V231.898H331.465V230.906H331.403C331.266 231.204 331.052 231.457 330.762 231.666C330.472 231.872 330.106 231.975 329.663 231.975C329.296 231.975 328.97 231.895 328.685 231.734C328.4 231.571 328.176 231.327 328.013 231.001C327.851 230.673 327.769 230.259 327.769 229.761V226.035H328.67V229.699C328.67 230.127 328.79 230.468 329.029 230.723C329.271 230.977 329.579 231.104 329.953 231.104C330.177 231.104 330.405 231.047 330.636 230.933C330.87 230.818 331.066 230.642 331.224 230.406C331.384 230.169 331.465 229.867 331.465 229.501ZM334.917 224.08V231.898H334.016V224.08H334.917Z" fill="#5D6180"/>
<path d="M63.8316 65H59.9513V54.0542H63.8636C64.9646 54.0542 65.9124 54.2733 66.707 54.7116C67.5015 55.1463 68.1126 55.7716 68.5402 56.5875C68.9713 57.4035 69.1869 58.3798 69.1869 59.5164C69.1869 60.6566 68.9713 61.6364 68.5402 62.456C68.1126 63.2755 67.498 63.9043 66.6963 64.3426C65.8982 64.7809 64.9432 65 63.8316 65ZM62.2656 63.0171H63.7354C64.4195 63.0171 64.9949 62.896 65.4617 62.6537C65.932 62.4078 66.2847 62.0284 66.5199 61.5153C66.7586 60.9986 66.878 60.3323 66.878 59.5164C66.878 58.7076 66.7586 58.0466 66.5199 57.5335C66.2847 57.0204 65.9338 56.6428 65.467 56.4005C65.0003 56.1582 64.4248 56.037 63.7407 56.037H62.2656V63.0171ZM73.1994 65.155C72.6756 65.155 72.2088 65.0641 71.7991 64.8824C71.3893 64.6971 71.0651 64.4246 70.8264 64.0647C70.5912 63.7013 70.4736 63.2487 70.4736 62.7071C70.4736 62.2511 70.5573 61.868 70.7248 61.5581C70.8923 61.2481 71.1203 60.9986 71.4089 60.8098C71.6975 60.621 72.0253 60.4784 72.3923 60.3822C72.7629 60.286 73.1513 60.2183 73.5575 60.1791C74.0349 60.1292 74.4197 60.0829 74.7119 60.0402C75.0041 59.9939 75.2161 59.9262 75.3479 59.8371C75.4798 59.748 75.5457 59.6162 75.5457 59.4416V59.4095C75.5457 59.071 75.4388 58.8091 75.225 58.6238C75.0148 58.4386 74.7155 58.3459 74.3271 58.3459C73.9173 58.3459 73.5913 58.4368 73.349 58.6185C73.1067 58.7967 72.9464 59.0211 72.868 59.2919L70.7622 59.1209C70.8691 58.6221 71.0793 58.1909 71.3929 57.8275C71.7064 57.4605 72.1109 57.179 72.6061 56.983C73.105 56.7835 73.6822 56.6837 74.3378 56.6837C74.7939 56.6837 75.2303 56.7372 75.6472 56.8441C76.0677 56.951 76.44 57.1167 76.7643 57.3411C77.0921 57.5656 77.3504 57.8542 77.5392 58.207C77.7281 58.5561 77.8225 58.9748 77.8225 59.463V65H75.6633V63.8616H75.5991C75.4673 64.1181 75.2909 64.3444 75.07 64.5404C74.8491 64.7328 74.5836 64.8842 74.2737 64.9947C73.9637 65.1015 73.6056 65.155 73.1994 65.155ZM73.8514 63.5837C74.1864 63.5837 74.4821 63.5178 74.7386 63.3859C74.9952 63.2505 75.1965 63.0688 75.3426 62.8408C75.4887 62.6127 75.5617 62.3544 75.5617 62.0658V61.1946C75.4904 61.2409 75.3925 61.2837 75.2678 61.3229C75.1466 61.3585 75.0094 61.3924 74.8562 61.4244C74.703 61.4529 74.5498 61.4797 74.3966 61.5046C74.2434 61.526 74.1044 61.5456 73.9797 61.5634C73.7125 61.6026 73.4791 61.6649 73.2795 61.7505C73.08 61.836 72.925 61.9518 72.8146 62.0979C72.7041 62.2404 72.6489 62.4185 72.6489 62.6323C72.6489 62.9423 72.7611 63.1793 72.9856 63.3432C73.2136 63.5035 73.5022 63.5837 73.8514 63.5837ZM83.9555 56.7906V58.5009H79.0117V56.7906H83.9555ZM80.1341 54.8238H82.4109V62.4773C82.4109 62.6876 82.4429 62.8515 82.5071 62.969C82.5712 63.0831 82.6603 63.1632 82.7743 63.2095C82.8919 63.2559 83.0273 63.279 83.1805 63.279C83.2874 63.279 83.3943 63.2701 83.5012 63.2523C83.6081 63.2309 83.69 63.2149 83.747 63.2042L84.1051 64.8985C83.9911 64.9341 83.8308 64.9751 83.6241 65.0214C83.4174 65.0713 83.1662 65.1015 82.8705 65.1122C82.3218 65.1336 81.8408 65.0606 81.4275 64.8931C81.0177 64.7256 80.6988 64.4655 80.4708 64.1128C80.2427 63.76 80.1305 63.3147 80.1341 62.7766V54.8238ZM87.7796 65.155C87.2558 65.155 86.789 65.0641 86.3793 64.8824C85.9695 64.6971 85.6453 64.4246 85.4065 64.0647C85.1714 63.7013 85.0538 63.2487 85.0538 62.7071C85.0538 62.2511 85.1375 61.868 85.305 61.5581C85.4725 61.2481 85.7005 60.9986 85.9891 60.8098C86.2777 60.621 86.6055 60.4784 86.9725 60.3822C87.3431 60.286 87.7315 60.2183 88.1377 60.1791C88.6151 60.1292 88.9999 60.0829 89.2921 60.0402C89.5843 59.9939 89.7963 59.9262 89.9281 59.8371C90.0599 59.748 90.1259 59.6162 90.1259 59.4416V59.4095C90.1259 59.071 90.019 58.8091 89.8052 58.6238C89.595 58.4386 89.2957 58.3459 88.9073 58.3459C88.4975 58.3459 88.1715 58.4368 87.9292 58.6185C87.6869 58.7967 87.5266 59.0211 87.4482 59.2919L85.3424 59.1209C85.4493 58.6221 85.6595 58.1909 85.9731 57.8275C86.2866 57.4605 86.691 57.179 87.1863 56.983C87.6851 56.7835 88.2624 56.6837 88.918 56.6837C89.374 56.6837 89.8105 56.7372 90.2274 56.8441C90.6479 56.951 91.0202 57.1167 91.3444 57.3411C91.6722 57.5656 91.9306 57.8542 92.1194 58.207C92.3083 58.5561 92.4027 58.9748 92.4027 59.463V65H90.2434V63.8616H90.1793C90.0475 64.1181 89.8711 64.3444 89.6502 64.5404C89.4293 64.7328 89.1638 64.8842 88.8538 64.9947C88.5438 65.1015 88.1858 65.155 87.7796 65.155ZM88.4316 63.5837C88.7665 63.5837 89.0623 63.5178 89.3188 63.3859C89.5754 63.2505 89.7767 63.0688 89.9228 62.8408C90.0688 62.6127 90.1419 62.3544 90.1419 62.0658V61.1946C90.0706 61.2409 89.9726 61.2837 89.8479 61.3229C89.7268 61.3585 89.5896 61.3924 89.4364 61.4244C89.2832 61.4529 89.13 61.4797 88.9768 61.5046C88.8235 61.526 88.6846 61.5456 88.5599 61.5634C88.2926 61.6026 88.0593 61.6649 87.8597 61.7505C87.6602 61.836 87.5052 61.9518 87.3947 62.0979C87.2843 62.2404 87.2291 62.4185 87.2291 62.6323C87.2291 62.9423 87.3413 63.1793 87.5658 63.3432C87.7938 63.5035 88.0824 63.5837 88.4316 63.5837ZM99.5819 65H97.102L100.881 54.0542H103.863L107.636 65H105.156L102.415 56.5555H102.329L99.5819 65ZM99.4269 60.6976H105.285V62.5041H99.4269V60.6976ZM111.188 60.254V65H108.911V56.7906H111.081V58.239H111.177C111.359 57.7616 111.663 57.3839 112.091 57.106C112.519 56.8245 113.037 56.6837 113.646 56.6837C114.216 56.6837 114.713 56.8084 115.137 57.0579C115.561 57.3073 115.891 57.6636 116.126 58.1268C116.361 58.5864 116.479 59.1351 116.479 59.7729V65H114.202V60.1791C114.206 59.6767 114.077 59.2848 113.817 59.0033C113.557 58.7183 113.199 58.5757 112.743 58.5757C112.437 58.5757 112.166 58.6417 111.931 58.7735C111.699 58.9053 111.517 59.0977 111.386 59.3507C111.257 59.6001 111.191 59.9012 111.188 60.254ZM120.614 65.155C120.091 65.155 119.624 65.0641 119.214 64.8824C118.804 64.6971 118.48 64.4246 118.241 64.0647C118.006 63.7013 117.889 63.2487 117.889 62.7071C117.889 62.2511 117.972 61.868 118.14 61.5581C118.307 61.2481 118.535 60.9986 118.824 60.8098C119.113 60.621 119.44 60.4784 119.807 60.3822C120.178 60.286 120.566 60.2183 120.972 60.1791C121.45 60.1292 121.835 60.0829 122.127 60.0402C122.419 59.9939 122.631 59.9262 122.763 59.8371C122.895 59.748 122.961 59.6162 122.961 59.4416V59.4095C122.961 59.071 122.854 58.8091 122.64 58.6238C122.43 58.4386 122.13 58.3459 121.742 58.3459C121.332 58.3459 121.006 58.4368 120.764 58.6185C120.522 58.7967 120.361 59.0211 120.283 59.2919L118.177 59.1209C118.284 58.6221 118.494 58.1909 118.808 57.8275C119.121 57.4605 119.526 57.179 120.021 56.983C120.52 56.7835 121.097 56.6837 121.753 56.6837C122.209 56.6837 122.645 56.7372 123.062 56.8441C123.483 56.951 123.855 57.1167 124.179 57.3411C124.507 57.5656 124.765 57.8542 124.954 58.207C125.143 58.5561 125.237 58.9748 125.237 59.463V65H123.078V63.8616H123.014C122.882 64.1181 122.706 64.3444 122.485 64.5404C122.264 64.7328 121.999 64.8842 121.689 64.9947C121.379 65.1015 121.021 65.155 120.614 65.155ZM121.266 63.5837C121.601 63.5837 121.897 63.5178 122.154 63.3859C122.41 63.2505 122.611 63.0688 122.758 62.8408C122.904 62.6127 122.977 62.3544 122.977 62.0658V61.1946C122.905 61.2409 122.807 61.2837 122.683 61.3229C122.562 61.3585 122.424 61.3924 122.271 61.4244C122.118 61.4529 121.965 61.4797 121.812 61.5046C121.658 61.526 121.519 61.5456 121.395 61.5634C121.127 61.6026 120.894 61.6649 120.695 61.7505C120.495 61.836 120.34 61.9518 120.23 62.0979C120.119 62.2404 120.064 62.4185 120.064 62.6323C120.064 62.9423 120.176 63.1793 120.401 63.3432C120.629 63.5035 120.917 63.5837 121.266 63.5837ZM129.281 54.0542V65H127.004V54.0542H129.281ZM132.51 68.0785C132.222 68.0785 131.951 68.0554 131.698 68.009C131.448 67.9663 131.242 67.911 131.078 67.8433L131.591 66.1438C131.858 66.2257 132.099 66.2702 132.312 66.2774C132.53 66.2845 132.717 66.2346 132.874 66.1277C133.034 66.0208 133.164 65.8391 133.264 65.5826L133.397 65.2352L130.453 56.7906H132.847L134.547 62.8194H134.632L136.348 56.7906H138.758L135.567 65.8872C135.414 66.329 135.206 66.7138 134.942 67.0417C134.682 67.373 134.352 67.6278 133.953 67.8059C133.554 67.9877 133.073 68.0785 132.51 68.0785ZM144.29 56.7906V58.5009H139.346V56.7906H144.29ZM140.468 54.8238H142.745V62.4773C142.745 62.6876 142.777 62.8515 142.841 62.969C142.906 63.0831 142.995 63.1632 143.109 63.2095C143.226 63.2559 143.362 63.279 143.515 63.279C143.622 63.279 143.729 63.2701 143.836 63.2523C143.942 63.2309 144.024 63.2149 144.081 63.2042L144.439 64.8985C144.325 64.9341 144.165 64.9751 143.958 65.0214C143.752 65.0713 143.501 65.1015 143.205 65.1122C142.656 65.1336 142.175 65.0606 141.762 64.8931C141.352 64.7256 141.033 64.4655 140.805 64.1128C140.577 63.76 140.465 63.3147 140.468 62.7766V54.8238ZM145.773 65V56.7906H148.05V65H145.773ZM146.917 55.7324C146.578 55.7324 146.288 55.6202 146.046 55.3957C145.807 55.1676 145.687 54.8951 145.687 54.5779C145.687 54.2644 145.807 53.9954 146.046 53.7709C146.288 53.5429 146.578 53.4288 146.917 53.4288C147.255 53.4288 147.544 53.5429 147.783 53.7709C148.025 53.9954 148.146 54.2644 148.146 54.5779C148.146 54.8951 148.025 55.1676 147.783 55.3957C147.544 55.6202 147.255 55.7324 146.917 55.7324ZM153.583 65.1603C152.742 65.1603 152.019 64.9822 151.413 64.6259C150.811 64.266 150.347 63.7672 150.023 63.1294C149.703 62.4916 149.542 61.7576 149.542 60.9274C149.542 60.0865 149.704 59.3489 150.029 58.7147C150.356 58.0769 150.821 57.5799 151.424 57.2235C152.026 56.8637 152.742 56.6837 153.572 56.6837C154.288 56.6837 154.915 56.8138 155.453 57.0739C155.991 57.334 156.417 57.6992 156.731 58.1695C157.044 58.6399 157.217 59.1922 157.249 59.8264H155.101C155.04 59.4166 154.88 59.087 154.62 58.8376C154.363 58.5846 154.026 58.4582 153.61 58.4582C153.257 58.4582 152.949 58.5544 152.685 58.7468C152.425 58.9356 152.222 59.2118 152.076 59.5752C151.93 59.9386 151.856 60.3787 151.856 60.8953C151.856 61.4191 151.928 61.8645 152.07 62.2315C152.216 62.5985 152.421 62.8782 152.685 63.0706C152.949 63.263 153.257 63.3592 153.61 63.3592C153.87 63.3592 154.103 63.3057 154.31 63.1989C154.52 63.092 154.693 62.937 154.828 62.7339C154.967 62.5272 155.058 62.2796 155.101 61.991H157.249C157.214 62.6181 157.043 63.1704 156.736 63.6478C156.433 64.1217 156.015 64.4923 155.48 64.7595C154.946 65.0267 154.313 65.1603 153.583 65.1603ZM165.537 59.1316L163.453 59.2599C163.417 59.0817 163.341 58.9214 163.223 58.7788C163.106 58.6327 162.951 58.5169 162.758 58.4314C162.569 58.3424 162.343 58.2978 162.079 58.2978C161.727 58.2978 161.429 58.3726 161.187 58.5223C160.945 58.6684 160.823 58.8644 160.823 59.1102C160.823 59.3062 160.902 59.4719 161.059 59.6073C161.215 59.7427 161.484 59.8513 161.866 59.9333L163.351 60.2326C164.15 60.3965 164.745 60.6602 165.137 61.0236C165.529 61.387 165.724 61.8645 165.724 62.456C165.724 62.994 165.566 63.4661 165.249 63.8723C164.935 64.2785 164.504 64.5956 163.955 64.8236C163.41 65.0481 162.781 65.1603 162.069 65.1603C160.982 65.1603 160.116 64.9341 159.471 64.4816C158.83 64.0255 158.454 63.4055 158.344 62.6216L160.583 62.5041C160.651 62.8354 160.815 63.0884 161.075 63.263C161.335 63.434 161.668 63.5195 162.074 63.5195C162.473 63.5195 162.794 63.4429 163.036 63.2897C163.282 63.1329 163.407 62.9316 163.41 62.6858C163.407 62.4791 163.319 62.3099 163.148 62.178C162.977 62.0426 162.714 61.9393 162.357 61.868L160.936 61.5848C160.134 61.4244 159.537 61.1465 159.145 60.751C158.757 60.3555 158.563 59.8513 158.563 59.2385C158.563 58.7111 158.705 58.2568 158.99 57.8756C159.279 57.4943 159.683 57.2004 160.203 56.9937C160.727 56.7871 161.34 56.6837 162.042 56.6837C163.079 56.6837 163.895 56.9029 164.49 57.3411C165.088 57.7794 165.438 58.3762 165.537 59.1316Z" fill="#060C3C"/>
<path opacity="0.4" d="M125.121 183.435C113.709 183.435 103.289 189.609 94.2754 213.299H346.909V104.721C335.964 104.721 325.574 124.785 313.952 124.785C303.246 124.785 300.192 137.231 295.803 137.231C291.834 137.231 289.849 134.56 286.872 134.56C283.895 134.56 283.895 148.451 277.941 148.451C273.972 148.451 270.003 144.335 263.552 144.335C257.102 144.335 253.097 155.654 247.675 155.654C233.286 155.654 239.736 132.502 230.309 132.502C222.37 132.502 220.882 146.393 211.951 146.393C200.539 146.393 203.516 127.358 196.073 127.358C186.646 127.358 192.105 159.77 176.722 159.77C164.318 159.77 163.548 169.991 156.876 170.059C150.203 170.127 143.479 163.904 137.525 163.904C128.594 163.904 135.044 183.435 125.121 183.435Z" fill="url(#paint0_linear_1_479)"/>
<path d="M94.2754 213.299C103.289 189.609 113.709 183.435 125.121 183.435C135.044 183.435 128.594 163.904 137.525 163.904C143.479 163.904 150.203 170.127 156.876 170.059C163.548 169.991 164.318 159.77 176.722 159.77C192.105 159.77 186.646 127.358 196.073 127.358C203.516 127.358 200.539 146.393 211.951 146.393C220.882 146.393 222.37 132.502 230.309 132.502C239.736 132.502 233.286 155.654 247.675 155.654C253.097 155.654 257.102 144.335 263.552 144.335C270.002 144.335 273.972 148.451 277.941 148.451C283.895 148.451 283.895 134.56 286.872 134.56C289.849 134.56 291.834 137.231 295.803 137.231C300.192 137.231 303.246 124.785 313.952 124.785C325.574 124.785 335.964 104.721 346.909 104.721" stroke="#6241D4" stroke-width="2.15007" stroke-linecap="round" stroke-linejoin="round"/>
<path d="M94.2754 213.299C103.289 189.608 114.443 193.651 125.855 193.651C135.778 193.651 135.47 177.623 144.401 177.623C150.355 177.623 157.277 180.276 163.95 180.208C170.623 180.141 172.097 165.214 184.502 165.214C199.885 165.214 193.12 147.117 202.547 147.117C209.99 147.117 207.676 151.254 219.088 151.254C228.019 151.254 234.208 134.56 242.146 134.56C251.573 134.56 240.289 165.214 254.678 165.214C260.1 165.214 266.273 180.208 272.723 180.208C279.173 180.208 277.776 157.975 281.746 157.975C287.7 157.975 285.254 145.049 291.269 145.049C297.285 145.049 297.826 145.049 301.796 145.049C306.185 145.049 304.122 140.913 314.829 140.913C326.45 140.913 335.462 151.254 346.408 151.254" stroke="#FFD43D" stroke-width="2.15007" stroke-linecap="round" stroke-linejoin="round"/>
<path d="M229.342 123.498C228.944 123.83 228.365 123.83 227.966 123.498L220.316 117.123C218.771 115.835 219.681 113.321 221.692 113.321L235.616 113.321C237.627 113.321 238.537 115.835 236.993 117.123L229.342 123.498Z" fill="#9374FF"/>
<rect x="191.027" y="84.2949" width="75.2526" height="35.4762" rx="4.30015" fill="#9374FF"/>
<path d="M200.705 100.168V99.0223L204.76 92.6179H205.662V94.3037H205.09L202.19 98.894V98.9673H207.747V100.168H200.705ZM205.154 102V99.8194L205.163 99.2971V92.6179H206.505V102H205.154ZM212.513 102.128C211.857 102.128 211.276 102.015 210.773 101.789C210.272 101.563 209.879 101.252 209.595 100.855C209.311 100.458 209.171 100.006 209.174 99.4987C209.171 99.1017 209.252 98.7367 209.416 98.4038C209.584 98.0679 209.812 97.7884 210.099 97.5655C210.386 97.3395 210.707 97.1959 211.061 97.1348V97.0799C210.594 96.9669 210.22 96.7164 209.939 96.3286C209.658 95.9407 209.519 95.4948 209.522 94.9909C209.519 94.5114 209.646 94.0838 209.902 93.7082C210.162 93.3295 210.517 93.0317 210.969 92.8149C211.421 92.598 211.936 92.4896 212.513 92.4896C213.084 92.4896 213.594 92.5995 214.043 92.8194C214.495 93.0363 214.851 93.334 215.111 93.7128C215.37 94.0884 215.502 94.5144 215.505 94.9909C215.502 95.4948 215.358 95.9407 215.074 96.3286C214.79 96.7164 214.421 96.9669 213.966 97.0799V97.1348C214.317 97.1959 214.633 97.3395 214.914 97.5655C215.198 97.7884 215.424 98.0679 215.592 98.4038C215.763 98.7367 215.85 99.1017 215.853 99.4987C215.85 100.006 215.706 100.458 215.422 100.855C215.138 101.252 214.744 101.563 214.24 101.789C213.74 102.015 213.164 102.128 212.513 102.128ZM212.513 100.969C212.901 100.969 213.237 100.905 213.521 100.777C213.805 100.646 214.025 100.464 214.181 100.232C214.337 99.9965 214.416 99.7217 214.419 99.4071C214.416 99.0803 214.331 98.7917 214.163 98.5413C213.998 98.2908 213.773 98.0938 213.489 97.9503C213.205 97.8067 212.88 97.735 212.513 97.735C212.144 97.735 211.815 97.8067 211.528 97.9503C211.241 98.0938 211.015 98.2908 210.85 98.5413C210.685 98.7917 210.605 99.0803 210.608 99.4071C210.605 99.7217 210.679 99.9965 210.832 100.232C210.988 100.464 211.209 100.646 211.496 100.777C211.783 100.905 212.122 100.969 212.513 100.969ZM212.513 96.6034C212.825 96.6034 213.101 96.5408 213.343 96.4156C213.584 96.2904 213.773 96.1163 213.911 95.8934C214.051 95.6704 214.123 95.4093 214.126 95.11C214.123 94.8168 214.053 94.5603 213.915 94.3404C213.781 94.1205 213.593 93.951 213.352 93.8319C213.11 93.7097 212.831 93.6486 212.513 93.6486C212.19 93.6486 211.906 93.7097 211.661 93.8319C211.42 93.951 211.232 94.1205 211.098 94.3404C210.963 94.5603 210.898 94.8168 210.901 95.11C210.898 95.4093 210.965 95.6704 211.102 95.8934C211.24 96.1163 211.429 96.2904 211.67 96.4156C211.915 96.5408 212.196 96.6034 212.513 96.6034ZM218.772 99.6132L218.763 97.9411H219.001L221.805 94.9634H223.445L220.247 98.3534H220.032L218.772 99.6132ZM217.512 102V92.6179H218.882V102H217.512ZM221.956 102L219.437 98.6558L220.38 97.6983L223.637 102H221.956Z" fill="white"/>
<path opacity="0.8" d="M200.643 106.465L202.5 111.73H202.573L204.43 106.465H205.224L202.927 112.72H202.145L199.849 106.465H200.643ZM206.101 112.72V108.029H206.821V112.72H206.101ZM206.467 107.247C206.327 107.247 206.205 107.199 206.104 107.103C206.004 107.008 205.954 106.893 205.954 106.758C205.954 106.624 206.004 106.509 206.104 106.413C206.205 106.317 206.327 106.27 206.467 106.27C206.607 106.27 206.728 106.317 206.827 106.413C206.929 106.509 206.98 106.624 206.98 106.758C206.98 106.893 206.929 107.008 206.827 107.103C206.728 107.199 206.607 107.247 206.467 107.247ZM211.464 109.079L210.817 109.263C210.776 109.155 210.716 109.05 210.637 108.948C210.559 108.844 210.453 108.759 210.319 108.691C210.185 108.624 210.013 108.591 209.803 108.591C209.516 108.591 209.276 108.657 209.085 108.789C208.896 108.919 208.801 109.085 208.801 109.287C208.801 109.466 208.866 109.608 208.997 109.711C209.127 109.815 209.33 109.902 209.607 109.971L210.304 110.142C210.723 110.244 211.036 110.4 211.241 110.609C211.447 110.817 211.55 111.085 211.55 111.413C211.55 111.681 211.472 111.922 211.318 112.133C211.165 112.345 210.951 112.512 210.676 112.634C210.401 112.756 210.082 112.817 209.717 112.817C209.239 112.817 208.843 112.714 208.529 112.506C208.216 112.298 208.017 111.995 207.934 111.596L208.618 111.425C208.683 111.677 208.806 111.867 208.987 111.993C209.171 112.119 209.41 112.182 209.705 112.182C210.041 112.182 210.308 112.111 210.505 111.968C210.705 111.824 210.805 111.651 210.805 111.449C210.805 111.286 210.748 111.15 210.634 111.04C210.52 110.928 210.344 110.845 210.108 110.79L209.326 110.606C208.897 110.504 208.581 110.347 208.38 110.133C208.18 109.917 208.08 109.647 208.08 109.324C208.08 109.059 208.155 108.825 208.303 108.621C208.454 108.418 208.659 108.258 208.917 108.142C209.178 108.026 209.473 107.968 209.803 107.968C210.267 107.968 210.631 108.069 210.896 108.273C211.163 108.477 211.352 108.745 211.464 109.079ZM212.635 112.72V108.029H213.355V112.72H212.635ZM213.001 107.247C212.861 107.247 212.74 107.199 212.638 107.103C212.538 107.008 212.488 106.893 212.488 106.758C212.488 106.624 212.538 106.509 212.638 106.413C212.74 106.317 212.861 106.27 213.001 106.27C213.142 106.27 213.262 106.317 213.362 106.413C213.463 106.509 213.514 106.624 213.514 106.758C213.514 106.893 213.463 107.008 213.362 107.103C213.262 107.199 213.142 107.247 213.001 107.247ZM216.716 108.029V108.639H214.285V108.029H216.716ZM214.993 106.905H215.714V111.376C215.714 111.58 215.744 111.732 215.803 111.834C215.864 111.934 215.941 112.001 216.035 112.036C216.13 112.068 216.231 112.084 216.337 112.084C216.416 112.084 216.482 112.08 216.532 112.072C216.583 112.062 216.624 112.054 216.655 112.048L216.801 112.695C216.752 112.714 216.684 112.732 216.597 112.75C216.509 112.771 216.398 112.781 216.264 112.781C216.06 112.781 215.861 112.737 215.665 112.649C215.472 112.562 215.311 112.429 215.183 112.249C215.056 112.07 214.993 111.844 214.993 111.571V106.905ZM219.655 112.817C219.232 112.817 218.86 112.717 218.541 112.515C218.223 112.314 217.975 112.032 217.795 111.669C217.618 111.307 217.53 110.883 217.53 110.399C217.53 109.91 217.618 109.483 217.795 109.119C217.975 108.755 218.223 108.471 218.541 108.27C218.86 108.068 219.232 107.968 219.655 107.968C220.079 107.968 220.449 108.068 220.767 108.27C221.087 108.471 221.335 108.755 221.512 109.119C221.691 109.483 221.781 109.91 221.781 110.399C221.781 110.883 221.691 111.307 221.512 111.669C221.335 112.032 221.087 112.314 220.767 112.515C220.449 112.717 220.079 112.817 219.655 112.817ZM219.655 112.17C219.977 112.17 220.242 112.088 220.449 111.923C220.657 111.758 220.811 111.541 220.911 111.272C221.01 111.003 221.06 110.712 221.06 110.399C221.06 110.085 221.01 109.793 220.911 109.522C220.811 109.251 220.657 109.032 220.449 108.865C220.242 108.699 219.977 108.615 219.655 108.615C219.334 108.615 219.069 108.699 218.861 108.865C218.654 109.032 218.5 109.251 218.4 109.522C218.3 109.793 218.25 110.085 218.25 110.399C218.25 110.712 218.3 111.003 218.4 111.272C218.5 111.541 218.654 111.758 218.861 111.923C219.069 112.088 219.334 112.17 219.655 112.17ZM222.881 112.72V108.029H223.577V108.737H223.626C223.712 108.505 223.867 108.317 224.091 108.172C224.315 108.028 224.567 107.955 224.848 107.955C224.901 107.955 224.967 107.956 225.046 107.958C225.126 107.96 225.186 107.964 225.227 107.968V108.701C225.202 108.694 225.146 108.685 225.059 108.673C224.973 108.659 224.883 108.652 224.787 108.652C224.559 108.652 224.355 108.7 224.176 108.795C223.999 108.889 223.858 109.019 223.755 109.186C223.653 109.351 223.602 109.539 223.602 109.751V112.72H222.881Z" fill="white"/>
<circle cx="250.154" cy="101.496" r="7.52526" fill="white"/>
<path d="M250.708 99.6084C250.424 99.305 249.888 99.305 249.604 99.6084L246.788 102.616C246.413 103.017 246.743 103.614 247.34 103.614L252.973 103.614C253.57 103.614 253.9 103.017 253.525 102.616L250.708 99.6084Z" fill="#38E7B2"/>
<circle cx="228.654" cy="132.671" r="3.76263" fill="#9374FF" stroke="#6241D4" stroke-width="1.07504"/>
<defs>
<filter id="filter0_d_1_479" x="0.746268" y="0.441287" width="404.214" height="301.01" filterUnits="userSpaceOnUse" color-interpolation-filters="sRGB">
<feFlood flood-opacity="0" result="BackgroundImageFix"/>
<feColorMatrix in="SourceAlpha" type="matrix" values="0 0 0 0 0 0 0 0 0 0 0 0 0 0 0 0 0 0 127 0" result="hardAlpha"/>
<feMorphology radius="2.15007" operator="erode" in="SourceAlpha" result="effect1_dropShadow_1_479"/>
<feOffset dy="8.60029"/>
<feGaussianBlur stdDeviation="21.5007"/>
<feColorMatrix type="matrix" values="0 0 0 0 0.0235294 0 0 0 0 0.0470588 0 0 0 0 0.231373 0 0 0 0.08 0"/>
<feBlend mode="normal" in2="BackgroundImageFix" result="effect1_dropShadow_1_479"/>
<feBlend mode="normal" in="SourceGraphic" in2="effect1_dropShadow_1_479" result="shape"/>
</filter>
<linearGradient id="paint0_linear_1_479" x1="220.592" y1="72.6641" x2="220.592" y2="213.299" gradientUnits="userSpaceOnUse">
<stop stop-color="#9374FF"/>
<stop offset="1" stop-color="#9374FF" stop-opacity="0"/>
</linearGradient>
</defs>
</svg>
