<svg width="306" height="284" viewBox="0 0 306 284" fill="none" xmlns="http://www.w3.org/2000/svg">
<g opacity="0.2">
<path d="M84.1156 124.456C83.9056 125.586 82.8256 126.326 81.6956 126.116C80.5656 125.906 79.8256 124.826 80.0356 123.696C80.2456 122.566 81.3256 121.826 82.4556 122.036C83.5856 122.246 84.3256 123.326 84.1156 124.456Z" fill="#715DE3"/>
<path d="M100.186 124.456C99.9759 125.586 98.8959 126.326 97.7659 126.116C96.6359 125.906 95.8959 124.826 96.1059 123.696C96.3159 122.566 97.3959 121.826 98.5259 122.036C99.6459 122.246 100.386 123.326 100.186 124.456Z" fill="#715DE3"/>
<path d="M116.246 124.456C116.036 125.586 114.956 126.326 113.826 126.116C112.696 125.906 111.956 124.826 112.166 123.696C112.376 122.566 113.456 121.826 114.586 122.036C115.706 122.246 116.456 123.326 116.246 124.456Z" fill="#715DE3"/>
<path d="M132.307 124.456C132.097 125.586 131.017 126.326 129.887 126.116C128.757 125.906 128.017 124.826 128.227 123.696C128.437 122.566 129.517 121.826 130.647 122.036C131.767 122.246 132.517 123.326 132.307 124.456Z" fill="#715DE3"/>
<path d="M148.366 124.456C148.156 125.586 147.076 126.326 145.946 126.116C144.816 125.906 144.076 124.826 144.286 123.696C144.496 122.566 145.576 121.826 146.706 122.036C147.836 122.246 148.576 123.326 148.366 124.456Z" fill="#715DE3"/>
<path d="M84.1156 137.986C83.9056 139.116 82.8256 139.856 81.6956 139.646C80.5656 139.436 79.8256 138.356 80.0356 137.226C80.2456 136.096 81.3256 135.356 82.4556 135.566C83.5856 135.776 84.3256 136.856 84.1156 137.986Z" fill="#715DE3"/>
<path d="M100.186 137.986C99.9759 139.116 98.8959 139.856 97.7659 139.646C96.6359 139.436 95.8959 138.356 96.1059 137.226C96.3159 136.096 97.3959 135.356 98.5259 135.566C99.6459 135.776 100.386 136.856 100.186 137.986Z" fill="#715DE3"/>
<path d="M116.246 137.986C116.036 139.116 114.956 139.856 113.826 139.646C112.696 139.436 111.956 138.356 112.166 137.226C112.376 136.096 113.456 135.356 114.586 135.566C115.706 135.776 116.456 136.856 116.246 137.986Z" fill="#715DE3"/>
<path d="M132.307 137.986C132.097 139.116 131.017 139.856 129.887 139.646C128.757 139.436 128.017 138.356 128.227 137.226C128.437 136.096 129.517 135.356 130.647 135.566C131.767 135.776 132.517 136.856 132.307 137.986Z" fill="#715DE3"/>
<path d="M148.366 137.986C148.156 139.116 147.076 139.856 145.946 139.646C144.816 139.436 144.076 138.356 144.286 137.226C144.496 136.096 145.576 135.356 146.706 135.566C147.836 135.776 148.576 136.856 148.366 137.986Z" fill="#715DE3"/>
<path d="M84.1156 151.515C83.9056 152.645 82.8256 153.385 81.6956 153.175C80.5656 152.965 79.8256 151.885 80.0356 150.755C80.2456 149.625 81.3256 148.885 82.4556 149.095C83.5856 149.305 84.3256 150.385 84.1156 151.515Z" fill="#715DE3"/>
<path d="M100.186 151.515C99.9759 152.645 98.8959 153.385 97.7659 153.175C96.6359 152.965 95.8959 151.885 96.1059 150.755C96.3159 149.625 97.3959 148.885 98.5259 149.095C99.6459 149.305 100.386 150.385 100.186 151.515Z" fill="#715DE3"/>
<path d="M116.246 151.515C116.036 152.645 114.956 153.385 113.826 153.175C112.696 152.965 111.956 151.885 112.166 150.755C112.376 149.625 113.456 148.885 114.586 149.095C115.706 149.305 116.456 150.385 116.246 151.515Z" fill="#715DE3"/>
<path d="M132.307 151.515C132.097 152.645 131.017 153.385 129.887 153.175C128.757 152.965 128.017 151.885 128.227 150.755C128.437 149.625 129.517 148.885 130.647 149.095C131.767 149.305 132.517 150.385 132.307 151.515Z" fill="#715DE3"/>
<path d="M148.366 151.515C148.156 152.645 147.076 153.385 145.946 153.175C144.816 152.965 144.076 151.885 144.286 150.755C144.496 149.625 145.576 148.885 146.706 149.095C147.836 149.305 148.576 150.385 148.366 151.515Z" fill="#715DE3"/>
<path d="M84.1156 165.045C83.9056 166.175 82.8256 166.915 81.6956 166.705C80.5656 166.495 79.8256 165.415 80.0356 164.285C80.2456 163.155 81.3256 162.415 82.4556 162.625C83.5856 162.835 84.3256 163.915 84.1156 165.045Z" fill="#715DE3"/>
<path d="M100.186 165.045C99.9759 166.175 98.8959 166.915 97.7659 166.705C96.6359 166.495 95.8959 165.415 96.1059 164.285C96.3159 163.155 97.3959 162.415 98.5259 162.625C99.6459 162.835 100.386 163.915 100.186 165.045Z" fill="#715DE3"/>
<path d="M116.246 165.045C116.036 166.175 114.956 166.915 113.826 166.705C112.696 166.495 111.956 165.415 112.166 164.285C112.376 163.155 113.456 162.415 114.586 162.625C115.706 162.835 116.456 163.915 116.246 165.045Z" fill="#715DE3"/>
<path d="M132.307 165.045C132.097 166.175 131.017 166.915 129.887 166.705C128.757 166.495 128.017 165.415 128.227 164.285C128.437 163.155 129.517 162.415 130.647 162.625C131.767 162.835 132.517 163.915 132.307 165.045Z" fill="#715DE3"/>
<path d="M148.366 165.045C148.156 166.175 147.076 166.915 145.946 166.705C144.816 166.495 144.076 165.415 144.286 164.285C144.496 163.155 145.576 162.415 146.706 162.625C147.836 162.835 148.576 163.915 148.366 165.045Z" fill="#715DE3"/>
<path d="M84.1156 178.576C83.9056 179.706 82.8256 180.446 81.6956 180.236C80.5656 180.026 79.8256 178.946 80.0356 177.816C80.2456 176.686 81.3256 175.946 82.4556 176.156C83.5856 176.366 84.3256 177.446 84.1156 178.576Z" fill="#715DE3"/>
<path d="M100.186 178.576C99.9759 179.706 98.8959 180.446 97.7659 180.236C96.6359 180.026 95.8959 178.946 96.1059 177.816C96.3159 176.686 97.3959 175.946 98.5259 176.156C99.6559 176.366 100.386 177.446 100.186 178.576Z" fill="#715DE3"/>
<path d="M116.246 178.576C116.036 179.706 114.956 180.446 113.826 180.236C112.696 180.026 111.956 178.946 112.166 177.816C112.376 176.686 113.456 175.946 114.586 176.156C115.706 176.366 116.456 177.446 116.246 178.576Z" fill="#715DE3"/>
<path d="M132.307 178.576C132.097 179.706 131.017 180.446 129.887 180.236C128.757 180.026 128.017 178.946 128.227 177.816C128.437 176.686 129.517 175.946 130.647 176.156C131.767 176.366 132.517 177.446 132.307 178.576Z" fill="#715DE3"/>
<path d="M148.366 178.576C148.156 179.706 147.076 180.446 145.946 180.236C144.816 180.026 144.076 178.946 144.286 177.816C144.496 176.686 145.576 175.946 146.706 176.156C147.836 176.366 148.576 177.446 148.366 178.576Z" fill="#715DE3"/>
<path d="M84.1156 192.106C83.9056 193.236 82.8256 193.976 81.6956 193.766C80.5656 193.556 79.8256 192.476 80.0356 191.346C80.2456 190.216 81.3256 189.476 82.4556 189.686C83.5856 189.896 84.3256 190.976 84.1156 192.106Z" fill="#715DE3"/>
<path d="M100.186 192.106C99.9759 193.236 98.8959 193.976 97.7659 193.766C96.6359 193.556 95.8959 192.476 96.1059 191.346C96.3159 190.216 97.3959 189.476 98.5259 189.686C99.6559 189.896 100.386 190.976 100.186 192.106Z" fill="#715DE3"/>
<path d="M116.246 192.106C116.036 193.236 114.956 193.976 113.826 193.766C112.696 193.556 111.956 192.476 112.166 191.346C112.376 190.216 113.456 189.476 114.586 189.686C115.706 189.896 116.456 190.976 116.246 192.106Z" fill="#715DE3"/>
<path d="M132.307 192.106C132.097 193.236 131.017 193.976 129.887 193.766C128.757 193.556 128.017 192.476 128.227 191.346C128.437 190.216 129.517 189.476 130.647 189.686C131.767 189.896 132.517 190.976 132.307 192.106Z" fill="#715DE3"/>
<path d="M148.366 192.106C148.156 193.236 147.076 193.976 145.946 193.766C144.816 193.556 144.076 192.476 144.286 191.346C144.496 190.216 145.576 189.476 146.706 189.686C147.836 189.896 148.576 190.976 148.366 192.106Z" fill="#715DE3"/>
<path d="M84.1156 205.635C83.9056 206.765 82.8256 207.505 81.6956 207.295C80.5656 207.085 79.8256 206.005 80.0356 204.875C80.2456 203.745 81.3256 203.005 82.4556 203.215C83.5856 203.425 84.3256 204.505 84.1156 205.635Z" fill="#715DE3"/>
<path d="M100.186 205.635C99.9759 206.765 98.8959 207.505 97.7659 207.295C96.6359 207.085 95.8959 206.005 96.1059 204.875C96.3159 203.745 97.3959 203.005 98.5259 203.215C99.6459 203.425 100.386 204.505 100.186 205.635Z" fill="#715DE3"/>
<path d="M116.246 205.635C116.036 206.765 114.956 207.505 113.826 207.295C112.696 207.085 111.956 206.005 112.166 204.875C112.376 203.745 113.456 203.005 114.586 203.215C115.706 203.425 116.456 204.505 116.246 205.635Z" fill="#715DE3"/>
<path d="M132.307 205.635C132.097 206.765 131.017 207.505 129.887 207.295C128.757 207.085 128.017 206.005 128.227 204.875C128.437 203.745 129.517 203.005 130.647 203.215C131.767 203.425 132.517 204.505 132.307 205.635Z" fill="#715DE3"/>
<path d="M148.366 205.635C148.156 206.765 147.076 207.505 145.946 207.295C144.816 207.085 144.076 206.005 144.286 204.875C144.496 203.745 145.576 203.005 146.706 203.215C147.836 203.425 148.576 204.505 148.366 205.635Z" fill="#715DE3"/>
<path d="M84.1156 219.166C83.9056 220.296 82.8256 221.036 81.6956 220.826C80.5656 220.616 79.8256 219.536 80.0356 218.406C80.2456 217.276 81.3256 216.536 82.4556 216.746C83.5856 216.956 84.3256 218.036 84.1156 219.166Z" fill="#715DE3"/>
<path d="M100.186 219.166C99.9759 220.296 98.8959 221.036 97.7659 220.826C96.6359 220.616 95.8959 219.536 96.1059 218.406C96.3159 217.276 97.3959 216.536 98.5259 216.746C99.6459 216.956 100.386 218.036 100.186 219.166Z" fill="#715DE3"/>
<path d="M116.246 219.166C116.036 220.296 114.956 221.036 113.826 220.826C112.696 220.616 111.956 219.536 112.166 218.406C112.376 217.276 113.456 216.536 114.586 216.746C115.706 216.956 116.456 218.036 116.246 219.166Z" fill="#715DE3"/>
<path d="M132.307 219.166C132.097 220.296 131.017 221.036 129.887 220.826C128.757 220.616 128.017 219.536 128.227 218.406C128.437 217.276 129.517 216.536 130.647 216.746C131.767 216.956 132.517 218.036 132.307 219.166Z" fill="#715DE3"/>
<path d="M148.366 219.166C148.156 220.296 147.076 221.036 145.946 220.826C144.816 220.616 144.076 219.536 144.286 218.406C144.496 217.276 145.576 216.536 146.706 216.746C147.836 216.956 148.576 218.036 148.366 219.166Z" fill="#715DE3"/>
<path d="M84.1156 232.696C83.9056 233.826 82.8256 234.566 81.6956 234.356C80.5656 234.146 79.8256 233.066 80.0356 231.936C80.2456 230.806 81.3256 230.066 82.4556 230.276C83.5856 230.486 84.3256 231.566 84.1156 232.696Z" fill="#715DE3"/>
<path d="M100.186 232.696C99.9759 233.826 98.8959 234.566 97.7659 234.356C96.6359 234.146 95.8959 233.066 96.1059 231.936C96.3159 230.806 97.3959 230.066 98.5259 230.276C99.6459 230.486 100.386 231.566 100.186 232.696Z" fill="#715DE3"/>
<path d="M116.246 232.696C116.036 233.826 114.956 234.566 113.826 234.356C112.696 234.146 111.956 233.066 112.166 231.936C112.376 230.806 113.456 230.066 114.586 230.276C115.706 230.486 116.456 231.566 116.246 232.696Z" fill="#715DE3"/>
<path d="M132.307 232.696C132.097 233.826 131.017 234.566 129.887 234.356C128.757 234.146 128.017 233.066 128.227 231.936C128.437 230.806 129.517 230.066 130.647 230.276C131.767 230.486 132.517 231.566 132.307 232.696Z" fill="#715DE3"/>
<path d="M148.366 232.696C148.156 233.826 147.076 234.566 145.946 234.356C144.816 234.146 144.076 233.066 144.286 231.936C144.496 230.806 145.576 230.066 146.706 230.276C147.836 230.486 148.576 231.566 148.366 232.696Z" fill="#715DE3"/>
<path d="M84.1156 246.225C83.9056 247.355 82.8256 248.095 81.6956 247.885C80.5656 247.675 79.8256 246.595 80.0356 245.465C80.2456 244.335 81.3256 243.595 82.4556 243.805C83.5856 244.015 84.3256 245.095 84.1156 246.225Z" fill="#715DE3"/>
<path d="M100.186 246.225C99.9759 247.355 98.8959 248.095 97.7659 247.885C96.6359 247.675 95.8959 246.595 96.1059 245.465C96.3159 244.335 97.3959 243.595 98.5259 243.805C99.6459 244.015 100.386 245.095 100.186 246.225Z" fill="#715DE3"/>
<path d="M116.246 246.225C116.036 247.355 114.956 248.095 113.826 247.885C112.696 247.675 111.956 246.595 112.166 245.465C112.376 244.335 113.456 243.595 114.586 243.805C115.706 244.015 116.456 245.095 116.246 246.225Z" fill="#715DE3"/>
<path d="M132.307 246.225C132.097 247.355 131.017 248.095 129.887 247.885C128.757 247.675 128.017 246.595 128.227 245.465C128.437 244.335 129.517 243.595 130.647 243.805C131.767 244.015 132.517 245.095 132.307 246.225Z" fill="#715DE3"/>
<path d="M148.366 246.225C148.156 247.355 147.076 248.095 145.946 247.885C144.816 247.675 144.076 246.595 144.286 245.465C144.496 244.335 145.576 243.595 146.706 243.805C147.836 244.015 148.576 245.095 148.366 246.225Z" fill="#715DE3"/>
<path d="M84.1156 259.755C83.9056 260.885 82.8256 261.625 81.6956 261.415C80.5656 261.205 79.8256 260.125 80.0356 258.995C80.2456 257.865 81.3256 257.125 82.4556 257.335C83.5856 257.545 84.3256 258.625 84.1156 259.755Z" fill="#715DE3"/>
<path d="M100.186 259.755C99.9759 260.885 98.8959 261.625 97.7659 261.415C96.6359 261.205 95.8959 260.125 96.1059 258.995C96.3159 257.865 97.3959 257.125 98.5259 257.335C99.6459 257.545 100.386 258.625 100.186 259.755Z" fill="#715DE3"/>
<path d="M116.246 259.755C116.036 260.885 114.956 261.625 113.826 261.415C112.696 261.205 111.956 260.125 112.166 258.995C112.376 257.865 113.456 257.125 114.586 257.335C115.706 257.545 116.456 258.625 116.246 259.755Z" fill="#715DE3"/>
<path d="M132.307 259.755C132.097 260.885 131.017 261.625 129.887 261.415C128.757 261.205 128.017 260.125 128.227 258.995C128.437 257.865 129.517 257.125 130.647 257.335C131.767 257.545 132.517 258.625 132.307 259.755Z" fill="#715DE3"/>
<path d="M148.366 259.755C148.156 260.885 147.076 261.625 145.946 261.415C144.816 261.205 144.076 260.125 144.286 258.995C144.496 257.865 145.576 257.125 146.706 257.335C147.836 257.545 148.576 258.625 148.366 259.755Z" fill="#715DE3"/>
<path d="M164.116 124.456C163.906 125.586 162.826 126.326 161.696 126.116C160.566 125.906 159.826 124.826 160.036 123.696C160.246 122.566 161.326 121.826 162.456 122.036C163.586 122.246 164.326 123.326 164.116 124.456Z" fill="#715DE3"/>
<path d="M180.186 124.456C179.976 125.586 178.896 126.326 177.766 126.116C176.636 125.906 175.896 124.826 176.106 123.696C176.316 122.566 177.396 121.826 178.526 122.036C179.646 122.246 180.386 123.326 180.186 124.456Z" fill="#715DE3"/>
<path d="M196.246 124.456C196.036 125.586 194.956 126.326 193.826 126.116C192.696 125.906 191.956 124.826 192.166 123.696C192.376 122.566 193.456 121.826 194.586 122.036C195.706 122.246 196.456 123.326 196.246 124.456Z" fill="#715DE3"/>
<path d="M212.307 124.456C212.097 125.586 211.017 126.326 209.887 126.116C208.757 125.906 208.017 124.826 208.227 123.696C208.437 122.566 209.517 121.826 210.647 122.036C211.767 122.246 212.517 123.326 212.307 124.456Z" fill="#715DE3"/>
<path d="M228.366 124.456C228.156 125.586 227.076 126.326 225.946 126.116C224.816 125.906 224.076 124.826 224.286 123.696C224.496 122.566 225.576 121.826 226.706 122.036C227.836 122.246 228.576 123.326 228.366 124.456Z" fill="#715DE3"/>
<path d="M164.116 137.986C163.906 139.116 162.826 139.856 161.696 139.646C160.566 139.436 159.826 138.356 160.036 137.226C160.246 136.096 161.326 135.356 162.456 135.566C163.586 135.776 164.326 136.856 164.116 137.986Z" fill="#715DE3"/>
<path d="M180.186 137.986C179.976 139.116 178.896 139.856 177.766 139.646C176.636 139.436 175.896 138.356 176.106 137.226C176.316 136.096 177.396 135.356 178.526 135.566C179.646 135.776 180.386 136.856 180.186 137.986Z" fill="#715DE3"/>
<path d="M196.246 137.986C196.036 139.116 194.956 139.856 193.826 139.646C192.696 139.436 191.956 138.356 192.166 137.226C192.376 136.096 193.456 135.356 194.586 135.566C195.706 135.776 196.456 136.856 196.246 137.986Z" fill="#715DE3"/>
<path d="M212.307 137.986C212.097 139.116 211.017 139.856 209.887 139.646C208.757 139.436 208.017 138.356 208.227 137.226C208.437 136.096 209.517 135.356 210.647 135.566C211.767 135.776 212.517 136.856 212.307 137.986Z" fill="#715DE3"/>
<path d="M228.366 137.986C228.156 139.116 227.076 139.856 225.946 139.646C224.816 139.436 224.076 138.356 224.286 137.226C224.496 136.096 225.576 135.356 226.706 135.566C227.836 135.776 228.576 136.856 228.366 137.986Z" fill="#715DE3"/>
<path d="M164.116 151.515C163.906 152.645 162.826 153.385 161.696 153.175C160.566 152.965 159.826 151.885 160.036 150.755C160.246 149.625 161.326 148.885 162.456 149.095C163.586 149.305 164.326 150.385 164.116 151.515Z" fill="#715DE3"/>
<path d="M180.186 151.515C179.976 152.645 178.896 153.385 177.766 153.175C176.636 152.965 175.896 151.885 176.106 150.755C176.316 149.625 177.396 148.885 178.526 149.095C179.646 149.305 180.386 150.385 180.186 151.515Z" fill="#715DE3"/>
<path d="M196.246 151.515C196.036 152.645 194.956 153.385 193.826 153.175C192.696 152.965 191.956 151.885 192.166 150.755C192.376 149.625 193.456 148.885 194.586 149.095C195.706 149.305 196.456 150.385 196.246 151.515Z" fill="#715DE3"/>
<path d="M212.307 151.515C212.097 152.645 211.017 153.385 209.887 153.175C208.757 152.965 208.017 151.885 208.227 150.755C208.437 149.625 209.517 148.885 210.647 149.095C211.767 149.305 212.517 150.385 212.307 151.515Z" fill="#715DE3"/>
<path d="M228.366 151.515C228.156 152.645 227.076 153.385 225.946 153.175C224.816 152.965 224.076 151.885 224.286 150.755C224.496 149.625 225.576 148.885 226.706 149.095C227.836 149.305 228.576 150.385 228.366 151.515Z" fill="#715DE3"/>
<path d="M164.116 165.045C163.906 166.175 162.826 166.915 161.696 166.705C160.566 166.495 159.826 165.415 160.036 164.285C160.246 163.155 161.326 162.415 162.456 162.625C163.586 162.835 164.326 163.915 164.116 165.045Z" fill="#715DE3"/>
<path d="M180.186 165.045C179.976 166.175 178.896 166.915 177.766 166.705C176.636 166.495 175.896 165.415 176.106 164.285C176.316 163.155 177.396 162.415 178.526 162.625C179.646 162.835 180.386 163.915 180.186 165.045Z" fill="#715DE3"/>
<path d="M196.246 165.045C196.036 166.175 194.956 166.915 193.826 166.705C192.696 166.495 191.956 165.415 192.166 164.285C192.376 163.155 193.456 162.415 194.586 162.625C195.706 162.835 196.456 163.915 196.246 165.045Z" fill="#715DE3"/>
<path d="M212.307 165.045C212.097 166.175 211.017 166.915 209.887 166.705C208.757 166.495 208.017 165.415 208.227 164.285C208.437 163.155 209.517 162.415 210.647 162.625C211.767 162.835 212.517 163.915 212.307 165.045Z" fill="#715DE3"/>
<path d="M228.366 165.045C228.156 166.175 227.076 166.915 225.946 166.705C224.816 166.495 224.076 165.415 224.286 164.285C224.496 163.155 225.576 162.415 226.706 162.625C227.836 162.835 228.576 163.915 228.366 165.045Z" fill="#715DE3"/>
<path d="M164.116 178.576C163.906 179.706 162.826 180.446 161.696 180.236C160.566 180.026 159.826 178.946 160.036 177.816C160.246 176.686 161.326 175.946 162.456 176.156C163.586 176.366 164.326 177.446 164.116 178.576Z" fill="#715DE3"/>
<path d="M180.186 178.576C179.976 179.706 178.896 180.446 177.766 180.236C176.636 180.026 175.896 178.946 176.106 177.816C176.316 176.686 177.396 175.946 178.526 176.156C179.656 176.366 180.386 177.446 180.186 178.576Z" fill="#715DE3"/>
<path d="M196.246 178.576C196.036 179.706 194.956 180.446 193.826 180.236C192.696 180.026 191.956 178.946 192.166 177.816C192.376 176.686 193.456 175.946 194.586 176.156C195.706 176.366 196.456 177.446 196.246 178.576Z" fill="#715DE3"/>
<path d="M212.307 178.576C212.097 179.706 211.017 180.446 209.887 180.236C208.757 180.026 208.017 178.946 208.227 177.816C208.437 176.686 209.517 175.946 210.647 176.156C211.767 176.366 212.517 177.446 212.307 178.576Z" fill="#715DE3"/>
<path d="M228.366 178.576C228.156 179.706 227.076 180.446 225.946 180.236C224.816 180.026 224.076 178.946 224.286 177.816C224.496 176.686 225.576 175.946 226.706 176.156C227.836 176.366 228.576 177.446 228.366 178.576Z" fill="#715DE3"/>
<path d="M164.116 192.106C163.906 193.236 162.826 193.976 161.696 193.766C160.566 193.556 159.826 192.476 160.036 191.346C160.246 190.216 161.326 189.476 162.456 189.686C163.586 189.896 164.326 190.976 164.116 192.106Z" fill="#715DE3"/>
<path d="M180.186 192.106C179.976 193.236 178.896 193.976 177.766 193.766C176.636 193.556 175.896 192.476 176.106 191.346C176.316 190.216 177.396 189.476 178.526 189.686C179.656 189.896 180.386 190.976 180.186 192.106Z" fill="#715DE3"/>
<path d="M196.246 192.106C196.036 193.236 194.956 193.976 193.826 193.766C192.696 193.556 191.956 192.476 192.166 191.346C192.376 190.216 193.456 189.476 194.586 189.686C195.706 189.896 196.456 190.976 196.246 192.106Z" fill="#715DE3"/>
<path d="M212.307 192.106C212.097 193.236 211.017 193.976 209.887 193.766C208.757 193.556 208.017 192.476 208.227 191.346C208.437 190.216 209.517 189.476 210.647 189.686C211.767 189.896 212.517 190.976 212.307 192.106Z" fill="#715DE3"/>
<path d="M228.366 192.106C228.156 193.236 227.076 193.976 225.946 193.766C224.816 193.556 224.076 192.476 224.286 191.346C224.496 190.216 225.576 189.476 226.706 189.686C227.836 189.896 228.576 190.976 228.366 192.106Z" fill="#715DE3"/>
<path d="M164.116 205.635C163.906 206.765 162.826 207.505 161.696 207.295C160.566 207.085 159.826 206.005 160.036 204.875C160.246 203.745 161.326 203.005 162.456 203.215C163.586 203.425 164.326 204.505 164.116 205.635Z" fill="#715DE3"/>
<path d="M180.186 205.635C179.976 206.765 178.896 207.505 177.766 207.295C176.636 207.085 175.896 206.005 176.106 204.875C176.316 203.745 177.396 203.005 178.526 203.215C179.646 203.425 180.386 204.505 180.186 205.635Z" fill="#715DE3"/>
<path d="M196.246 205.635C196.036 206.765 194.956 207.505 193.826 207.295C192.696 207.085 191.956 206.005 192.166 204.875C192.376 203.745 193.456 203.005 194.586 203.215C195.706 203.425 196.456 204.505 196.246 205.635Z" fill="#715DE3"/>
<path d="M212.307 205.635C212.097 206.765 211.017 207.505 209.887 207.295C208.757 207.085 208.017 206.005 208.227 204.875C208.437 203.745 209.517 203.005 210.647 203.215C211.767 203.425 212.517 204.505 212.307 205.635Z" fill="#715DE3"/>
<path d="M228.366 205.635C228.156 206.765 227.076 207.505 225.946 207.295C224.816 207.085 224.076 206.005 224.286 204.875C224.496 203.745 225.576 203.005 226.706 203.215C227.836 203.425 228.576 204.505 228.366 205.635Z" fill="#715DE3"/>
<path d="M164.116 219.166C163.906 220.296 162.826 221.036 161.696 220.826C160.566 220.616 159.826 219.536 160.036 218.406C160.246 217.276 161.326 216.536 162.456 216.746C163.586 216.956 164.326 218.036 164.116 219.166Z" fill="#715DE3"/>
<path d="M180.186 219.166C179.976 220.296 178.896 221.036 177.766 220.826C176.636 220.616 175.896 219.536 176.106 218.406C176.316 217.276 177.396 216.536 178.526 216.746C179.646 216.956 180.386 218.036 180.186 219.166Z" fill="#715DE3"/>
<path d="M196.246 219.166C196.036 220.296 194.956 221.036 193.826 220.826C192.696 220.616 191.956 219.536 192.166 218.406C192.376 217.276 193.456 216.536 194.586 216.746C195.706 216.956 196.456 218.036 196.246 219.166Z" fill="#715DE3"/>
<path d="M212.307 219.166C212.097 220.296 211.017 221.036 209.887 220.826C208.757 220.616 208.017 219.536 208.227 218.406C208.437 217.276 209.517 216.536 210.647 216.746C211.767 216.956 212.517 218.036 212.307 219.166Z" fill="#715DE3"/>
<path d="M228.366 219.166C228.156 220.296 227.076 221.036 225.946 220.826C224.816 220.616 224.076 219.536 224.286 218.406C224.496 217.276 225.576 216.536 226.706 216.746C227.836 216.956 228.576 218.036 228.366 219.166Z" fill="#715DE3"/>
<path d="M164.116 232.696C163.906 233.826 162.826 234.566 161.696 234.356C160.566 234.146 159.826 233.066 160.036 231.936C160.246 230.806 161.326 230.066 162.456 230.276C163.586 230.486 164.326 231.566 164.116 232.696Z" fill="#715DE3"/>
<path d="M180.186 232.696C179.976 233.826 178.896 234.566 177.766 234.356C176.636 234.146 175.896 233.066 176.106 231.936C176.316 230.806 177.396 230.066 178.526 230.276C179.646 230.486 180.386 231.566 180.186 232.696Z" fill="#715DE3"/>
<path d="M196.246 232.696C196.036 233.826 194.956 234.566 193.826 234.356C192.696 234.146 191.956 233.066 192.166 231.936C192.376 230.806 193.456 230.066 194.586 230.276C195.706 230.486 196.456 231.566 196.246 232.696Z" fill="#715DE3"/>
<path d="M212.307 232.696C212.097 233.826 211.017 234.566 209.887 234.356C208.757 234.146 208.017 233.066 208.227 231.936C208.437 230.806 209.517 230.066 210.647 230.276C211.767 230.486 212.517 231.566 212.307 232.696Z" fill="#715DE3"/>
<path d="M228.366 232.696C228.156 233.826 227.076 234.566 225.946 234.356C224.816 234.146 224.076 233.066 224.286 231.936C224.496 230.806 225.576 230.066 226.706 230.276C227.836 230.486 228.576 231.566 228.366 232.696Z" fill="#715DE3"/>
<path d="M164.116 246.225C163.906 247.355 162.826 248.095 161.696 247.885C160.566 247.675 159.826 246.595 160.036 245.465C160.246 244.335 161.326 243.595 162.456 243.805C163.586 244.015 164.326 245.095 164.116 246.225Z" fill="#715DE3"/>
<path d="M180.186 246.225C179.976 247.355 178.896 248.095 177.766 247.885C176.636 247.675 175.896 246.595 176.106 245.465C176.316 244.335 177.396 243.595 178.526 243.805C179.646 244.015 180.386 245.095 180.186 246.225Z" fill="#715DE3"/>
<path d="M196.246 246.225C196.036 247.355 194.956 248.095 193.826 247.885C192.696 247.675 191.956 246.595 192.166 245.465C192.376 244.335 193.456 243.595 194.586 243.805C195.706 244.015 196.456 245.095 196.246 246.225Z" fill="#715DE3"/>
<path d="M212.307 246.225C212.097 247.355 211.017 248.095 209.887 247.885C208.757 247.675 208.017 246.595 208.227 245.465C208.437 244.335 209.517 243.595 210.647 243.805C211.767 244.015 212.517 245.095 212.307 246.225Z" fill="#715DE3"/>
<path d="M228.366 246.225C228.156 247.355 227.076 248.095 225.946 247.885C224.816 247.675 224.076 246.595 224.286 245.465C224.496 244.335 225.576 243.595 226.706 243.805C227.836 244.015 228.576 245.095 228.366 246.225Z" fill="#715DE3"/>
<path d="M164.116 259.755C163.906 260.885 162.826 261.625 161.696 261.415C160.566 261.205 159.826 260.125 160.036 258.995C160.246 257.865 161.326 257.125 162.456 257.335C163.586 257.545 164.326 258.625 164.116 259.755Z" fill="#715DE3"/>
<path d="M180.186 259.755C179.976 260.885 178.896 261.625 177.766 261.415C176.636 261.205 175.896 260.125 176.106 258.995C176.316 257.865 177.396 257.125 178.526 257.335C179.646 257.545 180.386 258.625 180.186 259.755Z" fill="#715DE3"/>
<path d="M196.246 259.755C196.036 260.885 194.956 261.625 193.826 261.415C192.696 261.205 191.956 260.125 192.166 258.995C192.376 257.865 193.456 257.125 194.586 257.335C195.706 257.545 196.456 258.625 196.246 259.755Z" fill="#715DE3"/>
<path d="M212.307 259.755C212.097 260.885 211.017 261.625 209.887 261.415C208.757 261.205 208.017 260.125 208.227 258.995C208.437 257.865 209.517 257.125 210.647 257.335C211.767 257.545 212.517 258.625 212.307 259.755Z" fill="#715DE3"/>
<path d="M228.366 259.755C228.156 260.885 227.076 261.625 225.946 261.415C224.816 261.205 224.076 260.125 224.286 258.995C224.496 257.865 225.576 257.125 226.706 257.335C227.836 257.545 228.576 258.625 228.366 259.755Z" fill="#715DE3"/>
</g>
<g filter="url(#filter0_d_0_1)">
<rect x="36.1016" y="75.4795" width="168.597" height="164.851" rx="5.61991" fill="white"/>
</g>
<path d="M57.0024 96.2059C56.9652 95.8303 56.8053 95.5385 56.5228 95.3305C56.2403 95.1225 55.8569 95.0185 55.3726 95.0185C55.0435 95.0185 54.7657 95.0651 54.5391 95.1582C54.3124 95.2482 54.1386 95.374 54.0175 95.5354C53.8995 95.6968 53.8406 95.88 53.8406 96.0849C53.8343 96.2556 53.8701 96.4046 53.9477 96.5319C54.0284 96.6592 54.1386 96.7694 54.2783 96.8625C54.418 96.9526 54.5794 97.0317 54.7626 97.1C54.9457 97.1652 55.1413 97.2211 55.3493 97.2677L56.2061 97.4726C56.6221 97.5657 57.004 97.6899 57.3517 97.8451C57.6994 98.0003 58.0005 98.1912 58.2551 98.4179C58.5096 98.6445 58.7068 98.9115 58.8465 99.2188C58.9893 99.5261 59.0622 99.8785 59.0653 100.276C59.0622 100.859 58.9132 101.366 58.6183 101.794C58.3265 102.219 57.9043 102.55 57.3517 102.786C56.8022 103.019 56.1394 103.135 55.3633 103.135C54.5934 103.135 53.9228 103.017 53.3516 102.781C52.7835 102.545 52.3396 102.196 52.0198 101.733C51.7032 101.268 51.5371 100.692 51.5215 100.006H53.4727C53.4944 100.326 53.586 100.593 53.7474 100.807C53.912 101.018 54.1308 101.178 54.404 101.286C54.6803 101.392 54.9923 101.445 55.34 101.445C55.6815 101.445 55.978 101.395 56.2294 101.296C56.484 101.196 56.6811 101.058 56.8208 100.881C56.9605 100.704 57.0304 100.501 57.0304 100.271C57.0304 100.057 56.9667 99.8769 56.8394 99.731C56.7153 99.5851 56.5321 99.4609 56.29 99.3585C56.0509 99.2561 55.7575 99.1629 55.4099 99.0791L54.3714 98.8183C53.5674 98.6227 52.9325 98.317 52.4668 97.901C52.0012 97.485 51.7699 96.9246 51.773 96.2199C51.7699 95.6425 51.9236 95.138 52.234 94.7065C52.5476 94.275 52.9775 93.9382 53.5239 93.696C54.0703 93.4539 54.6912 93.3328 55.3866 93.3328C56.0944 93.3328 56.7122 93.4539 57.2399 93.696C57.7708 93.9382 58.1837 94.275 58.4786 94.7065C58.7735 95.138 58.9256 95.6378 58.9349 96.2059H57.0024ZM62.4239 103.135C61.9676 103.135 61.5609 103.056 61.2039 102.898C60.8469 102.736 60.5644 102.499 60.3564 102.185C60.1515 101.868 60.049 101.474 60.049 101.002C60.049 100.605 60.122 100.271 60.2679 100.001C60.4138 99.731 60.6125 99.5137 60.864 99.3492C61.1154 99.1846 61.401 99.0605 61.7208 98.9767C62.0436 98.8928 62.382 98.8338 62.7359 98.7997C63.1519 98.7562 63.4872 98.7159 63.7418 98.6786C63.9963 98.6383 64.181 98.5793 64.2959 98.5017C64.4108 98.4241 64.4682 98.3092 64.4682 98.1571V98.1291C64.4682 97.8342 64.3751 97.606 64.1888 97.4446C64.0056 97.2832 63.7449 97.2025 63.4065 97.2025C63.0495 97.2025 62.7654 97.2816 62.5543 97.44C62.3432 97.5952 62.2035 97.7908 62.1352 98.0267L60.3005 97.8777C60.3936 97.4431 60.5768 97.0674 60.85 96.7508C61.1232 96.431 61.4755 96.1858 61.907 96.015C62.3417 95.8412 62.8446 95.7542 63.4158 95.7542C63.8132 95.7542 64.1935 95.8008 64.5567 95.8939C64.923 95.9871 65.2474 96.1314 65.5299 96.327C65.8155 96.5226 66.0406 96.7741 66.2051 97.0814C66.3697 97.3856 66.4519 97.7504 66.4519 98.1757V103H64.5706V102.008H64.5148C64.3999 102.232 64.2462 102.429 64.0538 102.6C63.8613 102.767 63.63 102.899 63.3599 102.995C63.0898 103.088 62.7778 103.135 62.4239 103.135ZM62.992 101.766C63.2839 101.766 63.5415 101.709 63.765 101.594C63.9886 101.476 64.164 101.317 64.2912 101.119C64.4185 100.92 64.4822 100.695 64.4822 100.443V99.6845C64.4201 99.7248 64.3347 99.7621 64.2261 99.7962C64.1205 99.8273 64.001 99.8568 63.8675 99.8847C63.734 99.9095 63.6005 99.9328 63.467 99.9545C63.3335 99.9732 63.2125 99.9903 63.1038 100.006C62.871 100.04 62.6676 100.094 62.4938 100.169C62.3199 100.243 62.1849 100.344 62.0887 100.471C61.9924 100.596 61.9443 100.751 61.9443 100.937C61.9443 101.207 62.0421 101.414 62.2377 101.556C62.4364 101.696 62.6878 101.766 62.992 101.766ZM69.9747 93.4632V103H67.991V93.4632H69.9747ZM74.8234 103.14C74.0877 103.14 73.4544 102.991 72.9235 102.693C72.3958 102.392 71.9891 101.966 71.7035 101.417C71.4179 100.864 71.2751 100.211 71.2751 99.4563C71.2751 98.7205 71.4179 98.0748 71.7035 97.5191C71.9891 96.9634 72.3911 96.5304 72.9095 96.2199C73.4311 95.9095 74.0427 95.7542 74.7443 95.7542C75.2161 95.7542 75.6554 95.8303 76.0621 95.9824C76.4719 96.1314 76.8289 96.3565 77.1331 96.6576C77.4405 96.9588 77.6795 97.3375 77.8503 97.7939C78.021 98.2471 78.1064 98.778 78.1064 99.3864V99.9313H72.0667V98.7019H76.2391C76.2391 98.4163 76.177 98.1633 76.0528 97.9429C75.9286 97.7225 75.7563 97.5502 75.5359 97.426C75.3186 97.2987 75.0656 97.2351 74.7769 97.2351C74.4757 97.2351 74.2088 97.3049 73.9759 97.4446C73.7462 97.5812 73.5661 97.7659 73.4358 97.9988C73.3054 98.2285 73.2386 98.4846 73.2355 98.7671V99.9359C73.2355 100.29 73.3007 100.596 73.4311 100.853C73.5646 101.111 73.7524 101.31 73.9945 101.449C74.2367 101.589 74.5239 101.659 74.856 101.659C75.0764 101.659 75.2782 101.628 75.4614 101.566C75.6446 101.504 75.8013 101.411 75.9317 101.286C76.0621 101.162 76.1614 101.01 76.2297 100.83L78.0645 100.951C77.9713 101.392 77.7804 101.777 77.4917 102.106C77.2061 102.432 76.8367 102.686 76.3834 102.87C75.9333 103.05 75.4133 103.14 74.8234 103.14ZM85.3521 97.887L83.536 97.9988C83.505 97.8435 83.4382 97.7038 83.3358 97.5797C83.2333 97.4524 83.0983 97.3515 82.9307 97.277C82.7661 97.1994 82.569 97.1606 82.3393 97.1606C82.0319 97.1606 81.7727 97.2258 81.5616 97.3561C81.3505 97.4834 81.245 97.6542 81.245 97.8684C81.245 98.0391 81.3133 98.1835 81.4499 98.3014C81.5864 98.4194 81.8208 98.5141 82.153 98.5855L83.4476 98.8463C84.1429 98.9891 84.6614 99.2188 85.0029 99.5355C85.3444 99.8521 85.5151 100.268 85.5151 100.783C85.5151 101.252 85.377 101.664 85.1007 102.017C84.8275 102.371 84.4518 102.648 83.9738 102.846C83.4988 103.042 82.9508 103.14 82.33 103.14C81.3831 103.14 80.6287 102.943 80.0668 102.548C79.508 102.151 79.1805 101.611 79.0843 100.928L81.0354 100.825C81.0944 101.114 81.2372 101.334 81.4638 101.487C81.6904 101.636 81.9807 101.71 82.3346 101.71C82.6823 101.71 82.9617 101.643 83.1728 101.51C83.387 101.373 83.4957 101.198 83.4988 100.984C83.4957 100.804 83.4196 100.656 83.2706 100.541C83.1216 100.423 82.8919 100.333 82.5814 100.271L81.3427 100.024C80.6443 99.8847 80.1243 99.6426 79.7828 99.298C79.4444 98.9534 79.2752 98.5141 79.2752 97.9801C79.2752 97.5207 79.3994 97.1249 79.6477 96.7927C79.8992 96.4605 80.2515 96.2044 80.7048 96.0243C81.1611 95.8443 81.6951 95.7542 82.3067 95.7542C83.2101 95.7542 83.921 95.9452 84.4394 96.327C84.961 96.7089 85.2652 97.2289 85.3521 97.887ZM95.01 96.2059C94.9728 95.8303 94.8129 95.5385 94.5304 95.3305C94.2479 95.1225 93.8645 95.0185 93.3802 95.0185C93.0511 95.0185 92.7733 95.0651 92.5467 95.1582C92.32 95.2482 92.1462 95.374 92.0251 95.5354C91.9071 95.6968 91.8482 95.88 91.8482 96.0849C91.8419 96.2556 91.8776 96.4046 91.9553 96.5319C92.036 96.6592 92.1462 96.7694 92.2859 96.8625C92.4256 96.9526 92.587 97.0317 92.7702 97.1C92.9533 97.1652 93.1489 97.2211 93.3569 97.2677L94.2137 97.4726C94.6297 97.5657 95.0116 97.6899 95.3593 97.8451C95.707 98.0003 96.0081 98.1912 96.2627 98.4179C96.5172 98.6445 96.7144 98.9115 96.8541 99.2188C96.9969 99.5261 97.0698 99.8785 97.0729 100.276C97.0698 100.859 96.9208 101.366 96.6259 101.794C96.3341 102.219 95.9119 102.55 95.3593 102.786C94.8098 103.019 94.147 103.135 93.3709 103.135C92.601 103.135 91.9304 103.017 91.3592 102.781C90.7911 102.545 90.3472 102.196 90.0274 101.733C89.7108 101.268 89.5447 100.692 89.5291 100.006H91.4803C91.502 100.326 91.5936 100.593 91.755 100.807C91.9196 101.018 92.1384 101.178 92.4116 101.286C92.6879 101.392 92.9999 101.445 93.3476 101.445C93.6891 101.445 93.9856 101.395 94.237 101.296C94.4916 101.196 94.6887 101.058 94.8284 100.881C94.9681 100.704 95.038 100.501 95.038 100.271C95.038 100.057 94.9743 99.8769 94.847 99.731C94.7229 99.5851 94.5397 99.4609 94.2976 99.3585C94.0585 99.2561 93.7651 99.1629 93.4174 99.0791L92.379 98.8183C91.575 98.6227 90.9401 98.317 90.4744 97.901C90.0088 97.485 89.7775 96.9246 89.7806 96.2199C89.7775 95.6425 89.9312 95.138 90.2416 94.7065C90.5552 94.275 90.9851 93.9382 91.5315 93.696C92.0779 93.4539 92.6988 93.3328 93.3942 93.3328C94.102 93.3328 94.7198 93.4539 95.2475 93.696C95.7784 93.9382 96.1913 94.275 96.4862 94.7065C96.7811 95.138 96.9332 95.6378 96.9425 96.2059H95.01ZM102.196 95.8474V97.3375H97.889V95.8474H102.196ZM98.8669 94.1337H100.851V100.802C100.851 100.985 100.879 101.128 100.934 101.23C100.99 101.33 101.068 101.4 101.167 101.44C101.27 101.48 101.388 101.501 101.521 101.501C101.614 101.501 101.707 101.493 101.801 101.477C101.894 101.459 101.965 101.445 102.015 101.435L102.327 102.912C102.227 102.943 102.088 102.978 101.908 103.019C101.728 103.062 101.509 103.088 101.251 103.098C100.773 103.116 100.354 103.053 99.9938 102.907C99.6368 102.761 99.3589 102.534 99.1603 102.227C98.9616 101.92 98.8638 101.532 98.8669 101.063V94.1337ZM105.528 103.135C105.072 103.135 104.665 103.056 104.308 102.898C103.951 102.736 103.669 102.499 103.461 102.185C103.256 101.868 103.153 101.474 103.153 101.002C103.153 100.605 103.226 100.271 103.372 100.001C103.518 99.731 103.717 99.5137 103.968 99.3492C104.22 99.1846 104.505 99.0605 104.825 98.9767C105.148 98.8928 105.486 98.8338 105.84 98.7997C106.256 98.7562 106.592 98.7159 106.846 98.6786C107.101 98.6383 107.285 98.5793 107.4 98.5017C107.515 98.4241 107.573 98.3092 107.573 98.1571V98.1291C107.573 97.8342 107.479 97.606 107.293 97.4446C107.11 97.2832 106.849 97.2025 106.511 97.2025C106.154 97.2025 105.87 97.2816 105.659 97.44C105.448 97.5952 105.308 97.7908 105.24 98.0267L103.405 97.8777C103.498 97.4431 103.681 97.0674 103.954 96.7508C104.227 96.431 104.58 96.1858 105.011 96.015C105.446 95.8412 105.949 95.7542 106.52 95.7542C106.917 95.7542 107.298 95.8008 107.661 95.8939C108.027 95.9871 108.352 96.1314 108.634 96.327C108.92 96.5226 109.145 96.7741 109.309 97.0814C109.474 97.3856 109.556 97.7504 109.556 98.1757V103H107.675V102.008H107.619C107.504 102.232 107.351 102.429 107.158 102.6C106.966 102.767 106.734 102.899 106.464 102.995C106.194 103.088 105.882 103.135 105.528 103.135ZM106.096 101.766C106.388 101.766 106.646 101.709 106.869 101.594C107.093 101.476 107.268 101.317 107.396 101.119C107.523 100.92 107.586 100.695 107.586 100.443V99.6845C107.524 99.7248 107.439 99.7621 107.33 99.7962C107.225 99.8273 107.105 99.8568 106.972 99.8847C106.838 99.9095 106.705 99.9328 106.571 99.9545C106.438 99.9732 106.317 99.9903 106.208 100.006C105.975 100.04 105.772 100.094 105.598 100.169C105.424 100.243 105.289 100.344 105.193 100.471C105.097 100.596 105.049 100.751 105.049 100.937C105.049 101.207 105.146 101.414 105.342 101.556C105.541 101.696 105.792 101.766 106.096 101.766ZM114.9 95.8474V97.3375H110.592V95.8474H114.9ZM111.57 94.1337H113.554V100.802C113.554 100.985 113.582 101.128 113.638 101.23C113.694 101.33 113.771 101.4 113.871 101.44C113.973 101.48 114.091 101.501 114.225 101.501C114.318 101.501 114.411 101.493 114.504 101.477C114.597 101.459 114.668 101.445 114.718 101.435L115.03 102.912C114.931 102.943 114.791 102.978 114.611 103.019C114.431 103.062 114.212 103.088 113.954 103.098C113.476 103.116 113.057 103.053 112.697 102.907C112.34 102.761 112.062 102.534 111.864 102.227C111.665 101.92 111.567 101.532 111.57 101.063V94.1337ZM122.054 97.887L120.237 97.9988C120.206 97.8435 120.14 97.7038 120.037 97.5797C119.935 97.4524 119.8 97.3515 119.632 97.277C119.468 97.1994 119.27 97.1606 119.041 97.1606C118.733 97.1606 118.474 97.2258 118.263 97.3561C118.052 97.4834 117.946 97.6542 117.946 97.8684C117.946 98.0391 118.015 98.1835 118.151 98.3014C118.288 98.4194 118.522 98.5141 118.854 98.5855L120.149 98.8463C120.844 98.9891 121.363 99.2188 121.704 99.5355C122.046 99.8521 122.217 100.268 122.217 100.783C122.217 101.252 122.078 101.664 121.802 102.017C121.529 102.371 121.153 102.648 120.675 102.846C120.2 103.042 119.652 103.14 119.031 103.14C118.085 103.14 117.33 102.943 116.768 102.548C116.209 102.151 115.882 101.611 115.786 100.928L117.737 100.825C117.796 101.114 117.939 101.334 118.165 101.487C118.392 101.636 118.682 101.71 119.036 101.71C119.384 101.71 119.663 101.643 119.874 101.51C120.088 101.373 120.197 101.198 120.2 100.984C120.197 100.804 120.121 100.656 119.972 100.541C119.823 100.423 119.593 100.333 119.283 100.271L118.044 100.024C117.346 99.8847 116.826 99.6426 116.484 99.298C116.146 98.9534 115.977 98.5141 115.977 97.9801C115.977 97.5207 116.101 97.1249 116.349 96.7927C116.601 96.4605 116.953 96.2044 117.406 96.0243C117.863 95.8443 118.397 95.7542 119.008 95.7542C119.911 95.7542 120.622 95.9452 121.141 96.327C121.662 96.7089 121.967 97.2289 122.054 97.887Z" fill="#060C3C"/>
<rect x="77.3145" y="200.991" width="114.272" height="5.61991" rx="2.80996" fill="#FF81AB"/>
<rect x="49.2148" y="200.991" width="18.733" height="5.61991" rx="2.80996" fill="#528AFD"/>
<rect x="77.3145" y="214.104" width="114.272" height="5.61991" rx="2.80996" fill="#9577FB"/>
<rect x="49.2148" y="214.104" width="18.733" height="5.61991" rx="2.80996" fill="#FCD862"/>
<path d="M126.243 123.863C120.438 122.629 114.392 123.265 108.971 125.678C103.55 128.092 99.0324 132.16 96.0654 137.299C93.0984 142.438 91.8344 148.384 92.4547 154.286C93.075 160.187 95.5476 165.741 99.5183 170.151C103.489 174.561 108.754 177.6 114.558 178.834C120.362 180.068 126.408 179.432 131.829 177.019C137.25 174.605 141.768 170.537 144.735 165.398C147.702 160.259 148.966 154.313 148.346 148.411L120.4 151.349L126.243 123.863Z" fill="#528BFD"/>
<path d="M131.794 117.453C137.963 118.871 143.525 122.205 147.682 126.977C151.84 131.75 154.38 137.716 154.938 144.021L125.082 146.665L131.794 117.453Z" fill="#FFDC60"/>
<g filter="url(#filter1_d_0_1)">
<rect x="151.309" y="28.6465" width="118.955" height="93.6652" rx="5.61991" fill="white"/>
</g>
<path d="M175.575 96.3282C174.038 96.3282 172.671 96.0788 171.474 95.5798C170.283 95.0743 169.348 94.3857 168.67 93.5143C167.991 92.6428 167.652 91.6549 167.652 90.5507C167.652 89.6991 167.845 88.9175 168.231 88.2057C168.623 87.4872 169.155 86.8919 169.827 86.4195C170.499 85.9406 171.251 85.6346 172.082 85.5015V85.3618C170.991 85.1423 170.107 84.6134 169.428 83.7752C168.75 82.9304 168.41 81.9491 168.41 80.8316C168.41 79.7738 168.72 78.8325 169.338 78.0076C169.957 77.1761 170.805 76.5241 171.883 76.0518C172.967 75.5729 174.198 75.3334 175.575 75.3334C176.952 75.3334 178.179 75.5729 179.257 76.0518C180.341 76.5308 181.193 77.1861 181.812 78.0176C182.43 78.8425 182.743 79.7805 182.75 80.8316C182.743 81.9558 182.397 82.937 181.712 83.7752C181.027 84.6134 180.148 85.1423 179.077 85.3618V85.5015C179.896 85.6346 180.637 85.9406 181.303 86.4195C181.975 86.8919 182.507 87.4872 182.899 88.2057C183.298 88.9175 183.501 89.6991 183.508 90.5507C183.501 91.6549 183.159 92.6428 182.48 93.5143C181.802 94.3857 180.864 95.0743 179.666 95.5798C178.475 96.0788 177.112 96.3282 175.575 96.3282ZM175.575 93.1551C176.26 93.1551 176.859 93.032 177.371 92.7858C177.883 92.5331 178.282 92.1871 178.569 91.7481C178.861 91.3024 179.008 90.7901 179.008 90.2114C179.008 89.6193 178.858 89.0971 178.559 88.6448C178.259 88.1857 177.853 87.8265 177.341 87.5671C176.829 87.301 176.24 87.1679 175.575 87.1679C174.916 87.1679 174.328 87.301 173.809 87.5671C173.29 87.8265 172.881 88.1857 172.581 88.6448C172.289 89.0971 172.142 89.6193 172.142 90.2114C172.142 90.7901 172.285 91.3024 172.571 91.7481C172.857 92.1871 173.26 92.5331 173.779 92.7858C174.298 93.032 174.896 93.1551 175.575 93.1551ZM175.575 84.0247C176.147 84.0247 176.656 83.9083 177.102 83.6754C177.547 83.4426 177.897 83.12 178.149 82.7075C178.402 82.2951 178.529 81.8194 178.529 81.2806C178.529 80.7484 178.402 80.2827 178.149 79.8836C177.897 79.4778 177.551 79.1618 177.112 78.9356C176.673 78.7028 176.16 78.5864 175.575 78.5864C174.996 78.5864 174.484 78.7028 174.038 78.9356C173.593 79.1618 173.243 79.4778 172.991 79.8836C172.744 80.2827 172.621 80.7484 172.621 81.2806C172.621 81.8194 172.748 82.2951 173.001 82.7075C173.253 83.12 173.603 83.4426 174.048 83.6754C174.494 83.9083 175.003 84.0247 175.575 84.0247ZM194.542 96.4979C192.825 96.4912 191.349 96.0688 190.111 95.2306C188.881 94.3924 187.933 93.1783 187.267 91.5884C186.609 89.9985 186.283 88.086 186.289 85.8508C186.289 83.6222 186.619 81.723 187.277 80.153C187.943 78.5831 188.89 77.389 190.121 76.5707C191.359 75.7458 192.832 75.3334 194.542 75.3334C196.251 75.3334 197.722 75.7458 198.952 76.5707C200.19 77.3956 201.141 78.593 201.806 80.163C202.471 81.7263 202.801 83.6222 202.794 85.8508C202.794 88.0926 202.461 90.0085 201.796 91.5984C201.137 93.1883 200.193 94.4024 198.962 95.2406C197.731 96.0788 196.258 96.4979 194.542 96.4979ZM194.542 92.9156C195.712 92.9156 196.647 92.3268 197.346 91.1494C198.044 89.9719 198.39 88.2057 198.383 85.8508C198.383 84.3008 198.224 83.0102 197.904 81.9791C197.592 80.948 197.146 80.173 196.567 79.6541C195.995 79.1352 195.32 78.8758 194.542 78.8758C193.378 78.8758 192.446 79.4578 191.748 80.622C191.049 81.7862 190.697 83.5291 190.69 85.8508C190.69 87.4207 190.846 88.7312 191.159 89.7823C191.478 90.8267 191.927 91.6117 192.506 92.1372C193.085 92.6561 193.763 92.9156 194.542 92.9156ZM213.888 96.4979C212.171 96.4912 210.694 96.0688 209.457 95.2306C208.226 94.3924 207.278 93.1783 206.613 91.5884C205.955 89.9985 205.629 88.086 205.635 85.8508C205.635 83.6222 205.965 81.723 206.623 80.153C207.288 78.5831 208.236 77.389 209.467 76.5707C210.704 75.7458 212.178 75.3334 213.888 75.3334C215.597 75.3334 217.067 75.7458 218.298 76.5707C219.535 77.3956 220.487 78.593 221.152 80.163C221.817 81.7263 222.146 83.6222 222.14 85.8508C222.14 88.0926 221.807 90.0085 221.142 91.5984C220.483 93.1883 219.539 94.4024 218.308 95.2406C217.077 96.0788 215.604 96.4979 213.888 96.4979ZM213.888 92.9156C215.058 92.9156 215.993 92.3268 216.692 91.1494C217.39 89.9719 217.736 88.2057 217.729 85.8508C217.729 84.3008 217.57 83.0102 217.25 81.9791C216.938 80.948 216.492 80.173 215.913 79.6541C215.341 79.1352 214.666 78.8758 213.888 78.8758C212.723 78.8758 211.792 79.4578 211.094 80.622C210.395 81.7862 210.043 83.5291 210.036 85.8508C210.036 87.4207 210.192 88.7312 210.505 89.7823C210.824 90.8267 211.273 91.6117 211.852 92.1372C212.431 92.6561 213.109 92.9156 213.888 92.9156ZM231.328 92.9355V78.8059H234.9V92.9355H231.328ZM226.049 87.6569V84.0846H240.179V87.6569H226.049Z" fill="#060C3C"/>
<path d="M170.467 57.6328H167.236V48.096H170.532C171.479 48.096 172.293 48.2869 172.973 48.6688C173.656 49.0475 174.18 49.5923 174.547 50.3032C174.913 51.0142 175.096 51.8648 175.096 52.8551C175.096 53.8485 174.911 54.7022 174.542 55.4162C174.176 56.1303 173.646 56.6782 172.954 57.06C172.265 57.4419 171.436 57.6328 170.467 57.6328ZM168.963 56.138H170.383C171.048 56.138 171.602 56.017 172.046 55.7748C172.49 55.5296 172.824 55.1648 173.047 54.6805C173.271 54.1931 173.382 53.5846 173.382 52.8551C173.382 52.1255 173.271 51.5202 173.047 51.039C172.824 50.5547 172.493 50.193 172.055 49.954C171.621 49.7118 171.08 49.5908 170.435 49.5908H168.963V56.138ZM178.721 57.7772C178.268 57.7772 177.86 57.6965 177.496 57.535C177.136 57.3705 176.851 57.1283 176.64 56.8086C176.432 56.4888 176.328 56.0946 176.328 55.6258C176.328 55.2222 176.402 54.8885 176.551 54.6246C176.7 54.3607 176.904 54.1496 177.161 53.9913C177.419 53.833 177.709 53.7135 178.032 53.6327C178.358 53.5489 178.695 53.4884 179.043 53.4511C179.462 53.4077 179.802 53.3689 180.062 53.3347C180.323 53.2975 180.512 53.2416 180.63 53.1671C180.752 53.0895 180.812 52.97 180.812 52.8085V52.7806C180.812 52.4298 180.708 52.1581 180.5 51.9657C180.292 51.7732 179.992 51.677 179.601 51.677C179.188 51.677 178.861 51.767 178.619 51.947C178.38 52.1271 178.218 52.3398 178.134 52.585L176.561 52.3615C176.685 51.9269 176.89 51.5636 177.175 51.2718C177.461 50.9769 177.81 50.7565 178.223 50.6106C178.636 50.4616 179.092 50.3871 179.592 50.3871C179.937 50.3871 180.28 50.4274 180.621 50.5081C180.963 50.5888 181.275 50.7223 181.557 50.9086C181.84 51.0918 182.066 51.3417 182.237 51.6583C182.411 51.975 182.498 52.3708 182.498 52.8458V57.6328H180.877V56.6503H180.821C180.719 56.8489 180.575 57.0352 180.388 57.2091C180.205 57.3798 179.974 57.5179 179.694 57.6235C179.418 57.7259 179.094 57.7772 178.721 57.7772ZM179.159 56.5385C179.497 56.5385 179.791 56.4718 180.039 56.3383C180.287 56.2017 180.478 56.0216 180.612 55.7981C180.748 55.5746 180.817 55.3309 180.817 55.067V54.2241C180.764 54.2676 180.674 54.308 180.547 54.3452C180.422 54.3825 180.283 54.4151 180.128 54.443C179.972 54.4709 179.819 54.4958 179.666 54.5175C179.514 54.5392 179.382 54.5579 179.271 54.5734C179.019 54.6075 178.794 54.6634 178.595 54.741C178.397 54.8186 178.24 54.9273 178.125 55.067C178.01 55.2036 177.953 55.3805 177.953 55.5979C177.953 55.9083 178.066 56.1427 178.293 56.301C178.519 56.4593 178.808 56.5385 179.159 56.5385ZM184.193 57.6328V50.4802H185.878V57.6328H184.193ZM185.04 49.465C184.773 49.465 184.544 49.3766 184.351 49.1996C184.159 49.0196 184.062 48.8038 184.062 48.5523C184.062 48.2978 184.159 48.082 184.351 47.9051C184.544 47.725 184.773 47.635 185.04 47.635C185.31 47.635 185.54 47.725 185.729 47.9051C185.922 48.082 186.018 48.2978 186.018 48.5523C186.018 48.8038 185.922 49.0196 185.729 49.1996C185.54 49.3766 185.31 49.465 185.04 49.465ZM189.298 48.096V57.6328H187.612V48.096H189.298ZM192.079 60.315C191.849 60.315 191.636 60.2964 191.441 60.2592C191.248 60.225 191.095 60.1847 190.98 60.1381L191.371 58.8249C191.616 58.8963 191.835 58.9305 192.028 58.9274C192.22 58.9243 192.389 58.8637 192.535 58.7458C192.684 58.6309 192.81 58.4384 192.912 58.1683L193.057 57.7818L190.463 50.4802H192.251L193.9 55.8819H193.974L195.627 50.4802H197.42L194.556 58.4989C194.423 58.8777 194.246 59.2021 194.025 59.4722C193.805 59.7454 193.535 59.9534 193.215 60.0962C192.898 60.2421 192.52 60.315 192.079 60.315ZM203.19 48.096L205.672 55.6025H205.769L208.247 48.096H210.147L206.785 57.6328H204.652L201.294 48.096H203.19ZM211.328 57.6328V50.4802H213.014V57.6328H211.328ZM212.176 49.465C211.909 49.465 211.679 49.3766 211.487 49.1996C211.294 49.0196 211.198 48.8038 211.198 48.5523C211.198 48.2978 211.294 48.082 211.487 47.9051C211.679 47.725 211.909 47.635 212.176 47.635C212.446 47.635 212.676 47.725 212.865 47.9051C213.057 48.082 213.154 48.2978 213.154 48.5523C213.154 48.8038 213.057 49.0196 212.865 49.1996C212.676 49.3766 212.446 49.465 212.176 49.465ZM220.401 52.3708L218.864 52.5384C218.82 52.3832 218.744 52.2373 218.636 52.1007C218.53 51.9641 218.387 51.8539 218.207 51.7701C218.027 51.6863 217.807 51.6444 217.546 51.6444C217.195 51.6444 216.9 51.7204 216.661 51.8725C216.425 52.0247 216.309 52.2218 216.312 52.4639C216.309 52.6719 216.385 52.8411 216.54 52.9715C216.699 53.1019 216.959 53.209 217.323 53.2928L218.543 53.5536C219.219 53.6995 219.722 53.9308 220.051 54.2474C220.383 54.5641 220.551 54.9785 220.554 55.4908C220.551 55.9409 220.419 56.3383 220.158 56.6829C219.901 57.0243 219.542 57.2913 219.083 57.4838C218.623 57.6763 218.096 57.7725 217.499 57.7725C216.624 57.7725 215.919 57.5894 215.385 57.223C214.851 56.8536 214.533 56.3398 214.431 55.6817L216.075 55.5233C216.149 55.8462 216.307 56.0899 216.55 56.2544C216.792 56.419 217.107 56.5012 217.495 56.5012C217.895 56.5012 218.217 56.419 218.459 56.2544C218.704 56.0899 218.827 55.8866 218.827 55.6444C218.827 55.4395 218.747 55.2703 218.589 55.1368C218.434 55.0034 218.192 54.9009 217.863 54.8295L216.643 54.5734C215.957 54.4306 215.449 54.19 215.12 53.8516C214.791 53.5101 214.628 53.0786 214.631 52.5571C214.628 52.1162 214.747 51.7344 214.99 51.4115C215.235 51.0856 215.575 50.8341 216.009 50.6571C216.447 50.4771 216.952 50.3871 217.523 50.3871C218.361 50.3871 219.021 50.5656 219.502 50.9226C219.986 51.2796 220.286 51.7623 220.401 52.3708ZM221.944 57.6328V50.4802H223.63V57.6328H221.944ZM222.792 49.465C222.525 49.465 222.295 49.3766 222.103 49.1996C221.91 49.0196 221.814 48.8038 221.814 48.5523C221.814 48.2978 221.91 48.082 222.103 47.9051C222.295 47.725 222.525 47.635 222.792 47.635C223.062 47.635 223.292 47.725 223.481 47.9051C223.673 48.082 223.77 48.2978 223.77 48.5523C223.77 48.8038 223.673 49.0196 223.481 49.1996C223.292 49.3766 223.062 49.465 222.792 49.465ZM228.935 50.4802V51.7841H224.823V50.4802H228.935ZM225.838 48.7665H227.524V55.4814C227.524 55.7081 227.558 55.8819 227.627 56.003C227.698 56.121 227.791 56.2017 227.906 56.2451C228.021 56.2886 228.148 56.3103 228.288 56.3103C228.393 56.3103 228.49 56.3026 228.576 56.287C228.667 56.2715 228.735 56.2575 228.781 56.2451L229.065 57.563C228.975 57.594 228.847 57.6282 228.679 57.6654C228.514 57.7027 228.313 57.7244 228.074 57.7306C227.651 57.743 227.271 57.6794 226.933 57.5397C226.594 57.3969 226.326 57.1765 226.127 56.8784C225.932 56.5804 225.835 56.2079 225.838 55.7608V48.7665ZM233.388 57.7725C232.689 57.7725 232.084 57.6188 231.572 57.3115C231.06 57.0042 230.662 56.5742 230.38 56.0216C230.1 55.469 229.961 54.8233 229.961 54.0844C229.961 53.3456 230.1 52.6983 230.38 52.1426C230.662 51.5869 231.06 51.1554 231.572 50.8481C232.084 50.5407 232.689 50.3871 233.388 50.3871C234.086 50.3871 234.692 50.5407 235.204 50.8481C235.716 51.1554 236.112 51.5869 236.392 52.1426C236.674 52.6983 236.815 53.3456 236.815 54.0844C236.815 54.8233 236.674 55.469 236.392 56.0216C236.112 56.5742 235.716 57.0042 235.204 57.3115C234.692 57.6188 234.086 57.7725 233.388 57.7725ZM233.397 56.4221C233.776 56.4221 234.093 56.3181 234.347 56.1101C234.602 55.899 234.791 55.6165 234.915 55.2626C235.043 54.9087 235.106 54.5144 235.106 54.0798C235.106 53.6421 235.043 53.2462 234.915 52.8923C234.791 52.5353 234.602 52.2513 234.347 52.0402C234.093 51.8291 233.776 51.7235 233.397 51.7235C233.009 51.7235 232.686 51.8291 232.429 52.0402C232.174 52.2513 231.983 52.5353 231.856 52.8923C231.732 53.2462 231.67 53.6421 231.67 54.0798C231.67 54.5144 231.732 54.9087 231.856 55.2626C231.983 55.6165 232.174 55.899 232.429 56.1101C232.686 56.3181 233.009 56.4221 233.397 56.4221ZM238.246 57.6328V50.4802H239.881V51.6723H239.955C240.085 51.2594 240.309 50.9412 240.626 50.7177C240.945 50.4911 241.31 50.3777 241.72 50.3777C241.813 50.3777 241.917 50.3824 242.032 50.3917C242.15 50.3979 242.248 50.4088 242.325 50.4243V51.975C242.254 51.9501 242.141 51.9284 241.985 51.9098C241.833 51.8881 241.686 51.8772 241.543 51.8772C241.236 51.8772 240.959 51.9439 240.714 52.0774C240.472 52.2078 240.281 52.3894 240.141 52.6223C240.002 52.8551 239.932 53.1236 239.932 53.4279V57.6328H238.246Z" fill="#060C3C"/>
<defs>
<filter id="filter0_d_0_1" x="0.508772" y="47.3799" width="239.783" height="236.036" filterUnits="userSpaceOnUse" color-interpolation-filters="sRGB">
<feFlood flood-opacity="0" result="BackgroundImageFix"/>
<feColorMatrix in="SourceAlpha" type="matrix" values="0 0 0 0 0 0 0 0 0 0 0 0 0 0 0 0 0 0 127 0" result="hardAlpha"/>
<feMorphology radius="1.8733" operator="erode" in="SourceAlpha" result="effect1_dropShadow_0_1"/>
<feOffset dy="7.49322"/>
<feGaussianBlur stdDeviation="18.733"/>
<feColorMatrix type="matrix" values="0 0 0 0 0.0235294 0 0 0 0 0.0470588 0 0 0 0 0.231373 0 0 0 0.08 0"/>
<feBlend mode="normal" in2="BackgroundImageFix" result="effect1_dropShadow_0_1"/>
<feBlend mode="normal" in="SourceGraphic" in2="effect1_dropShadow_0_1" result="shape"/>
</filter>
<filter id="filter1_d_0_1" x="115.716" y="0.546913" width="190.141" height="164.851" filterUnits="userSpaceOnUse" color-interpolation-filters="sRGB">
<feFlood flood-opacity="0" result="BackgroundImageFix"/>
<feColorMatrix in="SourceAlpha" type="matrix" values="0 0 0 0 0 0 0 0 0 0 0 0 0 0 0 0 0 0 127 0" result="hardAlpha"/>
<feMorphology radius="1.8733" operator="erode" in="SourceAlpha" result="effect1_dropShadow_0_1"/>
<feOffset dy="7.49322"/>
<feGaussianBlur stdDeviation="18.733"/>
<feColorMatrix type="matrix" values="0 0 0 0 0.0235294 0 0 0 0 0.0470588 0 0 0 0 0.231373 0 0 0 0.08 0"/>
<feBlend mode="normal" in2="BackgroundImageFix" result="effect1_dropShadow_0_1"/>
<feBlend mode="normal" in="SourceGraphic" in2="effect1_dropShadow_0_1" result="shape"/>
</filter>
</defs>
</svg>
