<svg width="60" height="60" viewBox="0 0 60 60" fill="none" xmlns="http://www.w3.org/2000/svg">
<g clip-path="url(#clip0_27_902)">
<path d="M29.0489 0.927046C29.3483 0.00573564 30.6517 0.00573993 30.9511 0.927051L36.9599 19.4205C37.0938 19.8325 37.4778 20.1115 37.911 20.1115H57.3561C58.3249 20.1115 58.7276 21.3511 57.9439 21.9205L42.2125 33.35C41.862 33.6047 41.7153 34.056 41.8492 34.4681L47.8581 52.9615C48.1574 53.8828 47.1029 54.6489 46.3192 54.0795L30.5878 42.65C30.2373 42.3953 29.7627 42.3953 29.4122 42.65L13.6808 54.0795C12.8971 54.6489 11.8426 53.8828 12.1419 52.9615L18.1508 34.4681C18.2847 34.056 18.138 33.6047 17.7875 33.35L2.05609 21.9205C1.27237 21.3511 1.67515 20.1115 2.64387 20.1115H22.089C22.5222 20.1115 22.9062 19.8325 23.0401 19.4205L29.0489 0.927046Z" fill="#715DE3"/>
</g>
<defs>
<clipPath id="clip0_27_902">
<rect width="60" height="60" fill="white"/>
</clipPath>
</defs>
</svg>
