<svg width="21" height="21" viewBox="0 0 21 21" fill="none" xmlns="http://www.w3.org/2000/svg">
<path d="M10.27 5.38354C9.3754 5.38583 8.49767 5.62424 7.72776 6.07408C6.95784 6.52392 6.32375 7.16882 5.89117 7.94197C5.45859 8.71512 5.24325 9.5884 5.26746 10.4714C5.29168 11.3543 5.55456 12.2148 6.02889 12.9637L6.14249 13.1506L5.68808 14.9452L7.58145 14.4592L7.76132 14.562C8.53605 15.0125 9.41827 15.2512 10.3174 15.2537C11.6091 15.1982 12.8293 14.6526 13.7235 13.7305C14.6177 12.8084 15.1169 11.5811 15.1169 10.3046C15.1169 9.02801 14.6177 7.80071 13.7235 6.87865C12.8293 5.95658 11.6091 5.41094 10.3174 5.3555L10.27 5.38354ZM13.2615 12.459C13.1526 12.64 13.006 12.7961 12.8314 12.917C12.6567 13.0378 12.4581 13.1207 12.2486 13.16C11.9329 13.2134 11.6089 13.1942 11.3019 13.1039C11.003 13.0168 10.7091 12.9138 10.4215 12.7955C9.37729 12.2815 8.48903 11.5045 7.84652 10.5429C7.49295 10.103 7.27888 9.5697 7.23117 9.01006C7.22674 8.77779 7.27162 8.54718 7.36293 8.33308C7.45423 8.11898 7.58994 7.92613 7.76132 7.76695C7.8113 7.71081 7.87232 7.66529 7.94067 7.63316C8.00902 7.60102 8.08328 7.58294 8.15892 7.58001H8.4524C8.54706 7.58001 8.67013 7.58001 8.7932 7.83238C8.91627 8.08474 9.21921 8.86051 9.25708 8.93528C9.27863 8.97562 9.2899 9.02053 9.2899 9.06614C9.2899 9.11174 9.27863 9.15666 9.25708 9.19699C9.21942 9.28801 9.16839 9.37304 9.10561 9.44935C9.03464 9.53754 8.95879 9.62179 8.8784 9.70171C8.82848 9.73418 8.79353 9.78476 8.78112 9.8425C8.76872 9.90024 8.77986 9.96048 8.81214 10.0102C9.04344 10.3897 9.32699 10.7357 9.65468 11.0383C10.013 11.3508 10.4228 11.6005 10.8664 11.7767C11.0179 11.8515 11.1031 11.8421 11.1883 11.7767C11.2735 11.7113 11.567 11.3467 11.6711 11.1972C11.7753 11.0476 11.8699 11.0663 12.0025 11.1224C12.135 11.1785 12.8829 11.5337 13.0343 11.6084C13.1858 11.6832 13.2899 11.7113 13.3278 11.7767C13.3725 12.0057 13.3495 12.2425 13.2615 12.459Z" fill="#1767FE"/>
<path d="M10.0538 0.635777C8.06639 0.633929 6.12312 1.21421 4.4699 2.30317C2.81667 3.39214 1.5278 4.94084 0.766393 6.75329C0.00499049 8.56574 -0.194718 10.5605 0.192542 12.485C0.579802 14.4096 1.53662 16.1774 2.94191 17.5649C4.34721 18.9523 6.1378 19.897 8.08708 20.2794C10.0364 20.6617 12.0567 20.4645 13.8925 19.7128C15.7282 18.9611 17.2968 17.6885 18.3998 16.0563C19.5028 14.424 20.0905 12.5054 20.0886 10.5433C20.0861 7.9164 19.0281 5.39783 17.1467 3.54035C15.2654 1.68287 12.7144 0.638252 10.0538 0.635777ZM10.2715 16.2822C9.27912 16.2778 8.30332 16.0305 7.43146 15.5625L4.24114 16.385L5.09315 13.3006C4.56621 12.3995 4.28804 11.3776 4.28645 10.3371C4.28487 9.29665 4.55992 8.27397 5.08413 7.37133C5.60833 6.4687 6.36332 5.71771 7.27362 5.19344C8.18393 4.66918 9.21767 4.39 10.2715 4.3838C11.8283 4.44474 13.3008 5.09818 14.3804 6.2072C15.46 7.31622 16.063 8.79475 16.063 10.333C16.063 11.8712 15.46 13.3497 14.3804 14.4588C13.3008 15.5678 11.8283 16.2212 10.2715 16.2822Z" fill="#1767FE"/>
</svg>
