<svg width="21" height="21" viewBox="0 0 21 21" fill="none" xmlns="http://www.w3.org/2000/svg">
<path fill-rule="evenodd" clip-rule="evenodd" d="M10.1637 20.4695C12.1507 20.4713 14.0936 19.8913 15.7466 18.8027C17.3997 17.7142 18.6885 16.166 19.4502 14.3541C20.2119 12.5422 20.4122 10.548 20.0257 8.62367C19.6392 6.69938 18.6833 4.93149 17.279 3.54366C15.8746 2.15583 14.0849 1.21041 12.1362 0.827012C10.1876 0.44361 8.16752 0.63945 6.33161 1.38976C4.4957 2.14006 2.92644 3.41113 1.82234 5.04214C0.718234 6.67316 0.128907 8.59085 0.128906 10.5526C0.128905 13.1811 1.18584 15.7021 3.06746 17.5616C4.94909 19.4211 7.50147 20.467 10.1637 20.4695Z" fill="#1767FE"/>
<path d="M11.1115 9.71068L14.7467 5.60748H13.8852L10.7139 9.17792L8.20514 5.60748H5.29883L9.08556 10.9725L5.29883 15.2533H6.16031L9.49263 11.5146L12.1528 15.2533H15.0591L11.1115 9.71068ZM9.92811 11.0379L9.53997 10.5052L6.47271 6.25241H7.78861L10.2689 9.68264L10.6571 10.2154L13.8852 14.6738H12.6072L9.92811 11.0379Z" fill="white"/>
</svg>
