<svg width="405" height="509" viewBox="0 0 405 509" fill="none" xmlns="http://www.w3.org/2000/svg">
<g filter="url(#filter0_d_15_936)">
<path d="M361.65 125.156C358.927 70.884 298.096 40.2758 252.891 70.4327L76.627 188.021C48.4054 206.848 35.1273 241.428 43.4958 274.305L86.7966 444.419C92.7136 467.665 117.618 480.512 139.989 471.859L334.04 396.807C358.186 387.469 373.619 363.696 372.321 337.84L361.65 125.156Z" fill="#F4D86C"/>
<path d="M352.475 123.104C355.624 68.8548 298.451 31.8613 250.256 56.9643L62.333 154.846C32.2445 170.518 15.3127 203.464 20.0847 237.052L44.7766 410.845C48.1507 434.593 71.5232 450.052 94.698 443.864L295.714 390.19C320.726 383.511 338.634 361.543 340.135 335.698L352.475 123.104Z" fill="#FBFCFF"/>
</g>
<defs>
<filter id="filter0_d_15_936" x="0.185156" y="36.8353" width="399.311" height="471.834" filterUnits="userSpaceOnUse" color-interpolation-filters="sRGB">
<feFlood flood-opacity="0" result="BackgroundImageFix"/>
<feColorMatrix in="SourceAlpha" type="matrix" values="0 0 0 0 0 0 0 0 0 0 0 0 0 0 0 0 0 0 127 0" result="hardAlpha"/>
<feOffset dx="4" dy="11"/>
<feGaussianBlur stdDeviation="11.55"/>
<feComposite in2="hardAlpha" operator="out"/>
<feColorMatrix type="matrix" values="0 0 0 0 0 0 0 0 0 0 0 0 0 0 0 0 0 0 0.05 0"/>
<feBlend mode="normal" in2="BackgroundImageFix" result="effect1_dropShadow_15_936"/>
<feBlend mode="normal" in="SourceGraphic" in2="effect1_dropShadow_15_936" result="shape"/>
</filter>
</defs>
</svg>
